<?xml version="1.0" standalone="no"?>
<!DOCTYPE svg PUBLIC "-//W3C//DTD SVG 20010904//EN"
 "http://www.w3.org/TR/2001/REC-SVG-20010904/DTD/svg10.dtd">
<svg version="1.0" xmlns="http://www.w3.org/2000/svg"
 width="1350.000000pt" height="609.000000pt" viewBox="0 0 1350.000000 609.000000"
 preserveAspectRatio="xMidYMid meet">

<g transform="translate(0.000000,609.000000) scale(0.100000,-0.100000)"
fill="#000000" stroke="none">
<path d="M6738 6083 l6742 -3 0 -3035 0 -3035 -6742 -3 -6743 -2 6753 -3 6752
-2 0 3045 0 3045 -6752 -2 -6753 -3 6743 -2z"/>
<path d="M1270 3100 l0 -2660 204 0 c154 0 206 3 209 13 4 9 8 9 15 -2 25 -35
133 27 125 72 -2 12 3 30 10 39 12 15 35 18 168 20 111 1 165 -2 192 -13 31
-11 40 -11 46 -1 9 14 118 15 127 1 2 -5 12 -5 22 -2 9 4 -7 -20 -36 -53 -28
-33 -52 -64 -52 -67 0 -4 9 -7 21 -7 12 0 51 28 92 66 39 36 73 62 74 57 4
-12 97 -5 101 7 2 6 16 10 32 10 24 0 29 -5 33 -28 3 -21 2 2010 -2 2433 0 55
2 119 5 143 l6 42 1374 0 1374 0 0 1030 0 1030 -690 0 -690 0 0 265 0 265
-1380 0 -1380 0 0 -2660z m1290 2446 c0 -9 -10 -13 -25 -12 -25 1 -31 7 -18
19 12 12 43 7 43 -7z m180 5 c0 -6 -4 -13 -10 -16 -5 -3 -10 1 -10 9 0 9 5 16
10 16 6 0 10 -4 10 -9z m27 -13 c-3 -8 -6 -5 -6 6 -1 11 2 17 5 13 3 -3 4 -12
1 -19z m873 -293 c0 -16 -9 -19 -34 -9 -20 8 -11 24 15 24 10 0 19 -7 19 -15z
m-1424 -60 c8 -59 20 -57 29 5 4 28 11 50 16 50 12 0 11 -8 -3 -69 -14 -64
-42 -71 -53 -13 -3 20 -9 48 -12 61 -4 16 -2 22 5 17 6 -3 14 -27 18 -51z m89
-10 l8 -40 9 35 c19 68 28 77 22 20 -7 -63 -10 -70 -29 -70 -16 0 -22 14 -30
76 -7 57 8 41 20 -21z m110 56 c-39 -8 -48 -41 -11 -41 14 0 26 -4 26 -10 0
-5 -11 -10 -25 -10 -16 0 -25 -6 -25 -15 0 -10 10 -15 30 -15 17 0 30 -5 30
-11 0 -6 -16 -9 -37 -7 -37 3 -38 4 -41 47 -5 62 1 71 45 70 36 -1 37 -2 8 -8z
m145 5 c0 -3 -4 -16 -10 -30 -8 -22 -7 -26 10 -26 16 0 19 5 15 33 l-5 32 15
-34 c9 -18 18 -47 21 -65 l5 -31 -16 28 c-20 35 -52 36 -66 1 -5 -15 -12 -24
-15 -21 -8 7 28 117 38 117 4 0 8 -2 8 -4z m118 -3 c-26 -4 -28 -8 -28 -53 0
-27 -4 -52 -10 -55 -6 -4 -10 17 -10 54 l0 61 38 -1 c30 -2 32 -3 10 -6z m120
0 c-10 -2 -28 -2 -40 0 -13 2 -5 4 17 4 22 1 32 -1 23 -4z m-698 -153 c0 -5
-13 -10 -30 -10 -23 0 -30 -4 -30 -20 0 -16 7 -20 31 -20 17 0 28 -4 24 -10
-3 -5 -17 -10 -31 -10 -18 0 -24 -5 -24 -21 0 -11 -4 -17 -10 -14 -11 7 -14
98 -3 108 10 11 73 8 73 -3z m42 -50 c3 -40 6 -45 28 -45 23 0 25 4 28 53 4
66 22 69 22 2 0 -41 -4 -52 -24 -65 -18 -12 -30 -13 -50 -6 -24 10 -26 15 -26
68 0 67 17 62 22 -7z m141 -51 l32 -1 -33 -11 c-42 -13 -52 -1 -52 64 0 67 14
71 18 5 3 -55 3 -56 35 -57z m92 0 l30 -5 -33 -8 c-18 -4 -35 -6 -37 -4 -4 4
-8 109 -4 123 1 6 5 -15 8 -45 6 -51 8 -55 36 -61z m230 95 c9 -9 13 -19 10
-22 -3 -3 -11 0 -17 6 -15 15 -58 16 -58 2 0 -6 18 -17 40 -26 44 -18 53 -46
20 -64 -24 -13 -67 -3 -75 17 -8 23 3 29 18 9 8 -11 23 -17 38 -14 34 4 28 20
-15 41 -34 16 -47 43 -29 60 12 13 51 7 68 -9z m42 -76 c-2 -18 -4 -4 -4 32 0
36 2 50 4 33 2 -18 2 -48 0 -65z m-147 12 c0 -5 -18 -10 -40 -10 -22 0 -40 5
-40 10 0 6 18 10 40 10 22 0 40 -4 40 -10z m1740 -64 c0 -3 -4 -8 -10 -11 -5
-3 -10 -1 -10 4 0 6 5 11 10 11 6 0 10 -2 10 -4z m-1794 -124 c-7 -6 -46 78
-45 98 0 8 12 -9 25 -39 14 -29 22 -56 20 -59z m151 26 c-2 -18 -4 -6 -4 27 0
33 2 48 4 33 2 -15 2 -42 0 -60z m-122 27 c0 -25 -1 -45 -2 -45 -1 0 -7 9 -13
19 -8 17 1 71 12 71 2 0 3 -20 3 -45z m95 -30 c0 -14 -4 -25 -9 -25 -4 0 -6
11 -3 25 2 14 6 25 8 25 2 0 4 -11 4 -25z m1917 -347 c-3 -8 -6 -5 -6 6 -1 11
2 17 5 13 3 -3 4 -12 1 -19z m76 -175 c-5 -11 -8 -12 -13 -2 -5 7 -6 19 -3 26
5 11 8 12 13 2 5 -7 6 -19 3 -26z m-1124 -14 c31 -11 61 -52 61 -84 0 -53 -54
-95 -121 -95 -28 0 -29 -2 -29 -48 0 -26 5 -53 12 -60 9 -9 2 -12 -32 -12 -34
0 -41 3 -32 12 17 17 17 269 0 286 -16 16 96 17 141 1z m722 -5 c10 -9 15 -22
12 -30 -8 -22 -20 -17 -27 11 -8 30 -42 34 -51 6 -11 -35 5 -71 32 -71 13 0
21 -4 18 -10 -3 -5 -15 -10 -26 -10 -17 0 -19 -7 -19 -76 0 -41 5 -84 10 -95
9 -17 7 -19 -17 -19 l-28 0 4 91 c2 69 0 94 -10 101 -9 6 -10 11 -3 14 6 2 9
17 6 33 -6 44 13 71 50 71 17 0 39 -7 49 -16z m289 -127 c0 -98 4 -147 12
-155 9 -9 4 -12 -25 -12 -34 0 -37 2 -27 19 14 28 13 248 -2 257 -7 5 -5 11 7
21 11 7 22 13 27 13 4 0 8 -64 8 -143z m140 105 c0 -16 -25 -42 -41 -42 -24 0
-37 29 -18 41 13 8 59 9 59 1z m-2897 -32 c-13 -5 -23 -14 -23 -20 0 -5 10
-10 23 -11 20 0 20 -1 3 -8 -11 -4 -23 -16 -27 -27 -5 -13 -8 -4 -8 29 -1 45
0 47 27 46 26 0 26 -1 5 -9z m69 -1 c-25 -10 -21 -29 6 -30 12 0 11 -3 -5 -9
-13 -5 -23 -12 -23 -15 0 -3 10 -10 23 -15 21 -8 21 -9 -5 -9 -26 -1 -28 2
-28 37 0 44 5 52 34 51 20 0 20 -1 -2 -10z m106 -64 c0 -17 -1 -17 -5 -2 -2 9
-13 17 -23 17 -11 0 -24 -8 -29 -17 -16 -28 -13 6 4 42 9 20 14 24 14 13 1
-10 5 -18 10 -18 5 0 7 10 5 23 -3 16 -1 14 10 -8 9 -16 15 -39 14 -50z m59
63 c-9 -7 -18 -29 -20 -48 -4 -34 -4 -33 -5 7 -2 30 -7 43 -19 46 -10 3 0 5
21 6 34 1 37 -1 23 -11z m174 -28 c4 -19 3 -39 -2 -44 -5 -6 -9 -2 -9 12 0 29
-28 29 -40 0 -7 -20 -9 -17 -9 18 -1 47 5 56 33 52 14 -2 22 -14 27 -38z m52
30 c-13 -5 -23 -14 -23 -20 0 -5 10 -10 23 -11 19 0 20 -1 4 -8 -25 -9 -23
-25 5 -33 20 -5 18 -6 -9 -7 -32 -1 -33 1 -33 37 0 44 5 52 34 51 20 0 20 -1
-1 -9z m98 -7 c13 -15 12 -15 -8 -5 -27 15 -33 15 -33 2 0 -6 12 -15 26 -20
36 -14 29 -45 -10 -45 -17 0 -31 6 -34 15 -4 12 -2 13 9 3 16 -16 49 -17 49
-3 0 6 -11 15 -24 20 -28 10 -40 26 -31 40 10 16 41 12 56 -7z m1729 -3 c0
-11 7 -20 15 -20 8 0 15 -4 15 -10 0 -5 -7 -10 -15 -10 -12 0 -15 -16 -15 -85
0 -79 2 -86 23 -95 21 -9 21 -9 -4 -9 -15 -1 -31 5 -37 12 -6 7 -12 56 -13
110 -2 54 -7 101 -12 104 -10 6 11 23 31 23 6 0 12 -9 12 -20z m-1990 -60 c13
0 22 9 26 28 10 45 13 49 11 13 -4 -67 -68 -70 -65 -4 l1 38 4 -37 c3 -29 9
-38 23 -38z m1688 18 c26 -29 36 -69 28 -114 -10 -51 -37 -74 -89 -74 -63 0
-92 33 -92 105 0 43 5 59 24 79 33 35 98 36 129 4z m142 12 c19 12 61 12 80 0
12 -7 13 -11 2 -22 -11 -11 -15 -10 -23 5 -13 23 -42 22 -64 -2 -14 -17 -17
-34 -14 -100 l4 -81 -27 0 c-25 0 -26 2 -17 29 10 30 7 136 -5 148 -4 4 4 12
16 19 13 7 25 8 28 4 3 -5 12 -5 20 0z m508 -10 c28 -26 38 -82 23 -131 -14
-45 -35 -59 -89 -59 -59 0 -87 35 -86 107 0 48 4 59 28 79 35 31 93 32 124 4z
m242 -73 c0 -59 4 -97 12 -105 9 -9 4 -12 -25 -12 -34 0 -37 2 -27 19 13 26
13 148 -1 156 -10 7 16 34 34 35 4 0 7 -42 7 -93z m195 87 c25 -10 45 -58 45
-109 0 -70 -38 -102 -115 -96 -63 6 -92 135 -40 186 24 25 73 33 110 19z
m-546 -270 c2 -2 -34 -4 -82 -4 -50 0 -89 4 -92 11 -5 7 20 8 82 3 48 -4 90
-8 92 -10z m44 -11 c-7 -2 -19 -2 -25 0 -7 3 -2 5 12 5 14 0 19 -2 13 -5z m97
-67 c0 -13 -8 -30 -17 -37 -16 -13 -17 -12 -4 3 7 10 11 29 9 43 -3 13 -1 22
3 19 5 -3 9 -16 9 -28z m-503 -8 c-3 -8 -6 -5 -6 6 -1 11 2 17 5 13 3 -3 4
-12 1 -19z m203 6 c0 -8 -5 -12 -10 -9 -6 4 -8 11 -5 16 9 14 15 11 15 -7z
m210 4 c0 -6 -3 -8 -7 -5 -3 4 -12 2 -20 -4 -8 -8 -13 -8 -13 -1 0 10 15 19
33 21 4 1 7 -4 7 -11z m17 -10 c-3 -8 -6 -5 -6 6 -1 11 2 17 5 13 3 -3 4 -12
1 -19z m-452 -68 l20 -9 -20 0 c-11 0 -27 4 -35 9 -13 9 -13 10 0 9 8 0 24 -4
35 -9z m-1399 -368 c1 -7 0 -8 -2 -3 -3 6 -11 8 -19 5 -7 -3 -16 0 -20 6 -5 8
0 11 16 8 12 -1 24 -9 25 -16z m-729 -129 c1 -17 -2 -22 -7 -13 -7 11 -11 11
-26 -1 -16 -13 -17 -12 -11 5 5 12 3 23 -5 28 -8 5 -2 8 17 8 25 0 30 -4 32
-27z m683 -409 c0 -12 -4 -25 -9 -28 -4 -3 -6 6 -3 19 2 14 -2 33 -9 43 -13
15 -12 16 4 3 9 -7 17 -24 17 -37z m22 7 c2 -22 0 -37 -4 -35 -8 5 -11 74 -4
74 2 0 6 -18 8 -39z m46 -42 c-7 -5 -17 -9 -23 -9 -5 1 -2 5 8 11 11 6 18 24
19 47 l1 37 4 -39 c3 -25 0 -42 -9 -47z m64 41 c15 0 19 5 15 20 -3 11 -1 18
4 14 5 -3 8 -24 8 -47 -1 -23 -4 -32 -6 -19 -5 26 -39 30 -46 5 -3 -10 -5 2
-4 27 0 25 2 35 4 23 3 -15 12 -23 25 -23z m-175 -39 c10 -6 13 -11 6 -11 -17
0 -43 29 -42 48 0 13 3 11 9 -5 5 -12 17 -26 27 -32z m283 14 c0 -5 -5 -3 -10
5 -5 8 -10 20 -10 25 0 6 5 3 10 -5 5 -8 10 -19 10 -25z m-498 -157 c-2 -24
-10 -57 -17 -73 -10 -23 -12 -46 -6 -90 8 -60 0 -105 -19 -105 -5 0 -10 -10
-10 -23 0 -13 -4 -27 -9 -32 -5 -6 -11 -26 -15 -46 -5 -30 -2 -39 23 -63 27
-26 29 -33 24 -75 -10 -86 32 -129 111 -114 25 5 28 4 22 -15 -4 -11 -2 -23 4
-27 5 -3 10 -12 10 -18 0 -16 -49 -20 -66 -6 -10 8 -18 7 -30 -6 -17 -17 -34
-17 -156 1 -25 4 -38 2 -38 -5 0 -9 -6 -9 -20 -1 -14 8 -20 8 -20 0 0 -6 -5
-8 -11 -4 -8 4 -9 -1 -5 -17 3 -13 3 -18 0 -11 -3 6 -12 12 -20 12 -8 0 -14
10 -14 25 0 21 -5 25 -32 26 -18 0 -44 3 -58 5 -14 3 -35 -1 -47 -7 -36 -19
-5 -39 61 -39 31 0 56 -4 56 -9 0 -15 -56 -32 -96 -29 -27 2 -38 -1 -36 -9 3
-16 -44 -17 -54 -1 -13 21 -17 753 -5 777 11 20 18 21 244 21 l233 0 -4 -42z
m476 9 c15 -41 15 -76 1 -130 -9 -36 -14 -42 -37 -42 -15 -1 -37 -4 -49 -8
-19 -7 -27 0 -56 43 -32 47 -34 55 -25 87 6 23 6 39 0 45 -6 6 -8 17 -5 24 4
10 26 14 82 14 l77 0 12 -33z m-93 -708 c4 -11 20 -33 36 -50 33 -34 35 -47
14 -75 -15 -18 -16 -17 -10 12 5 26 2 32 -20 42 -24 11 -45 47 -45 78 0 21 18
17 25 -7z m-470 -59 c-3 -5 1 -10 10 -10 32 0 8 -24 -27 -28 -40 -4 -60 13
-28 23 11 3 20 11 20 16 0 5 7 9 16 9 8 0 12 -4 9 -10z m-280 -10 c3 -5 -3
-10 -15 -10 -12 0 -18 5 -15 10 3 6 10 10 15 10 5 0 12 -4 15 -10z m153 -2
c-4 -16 -41 -24 -90 -20 -59 6 -45 22 17 21 31 -1 59 1 62 5 10 9 13 7 11 -6z
m269 -5 c3 -9 -10 -13 -46 -13 -48 0 -79 15 -44 22 38 7 87 2 90 -9z m32 4 c8
-10 7 -14 -4 -14 -8 0 -16 6 -19 14 -3 7 -2 13 3 13 5 0 14 -6 20 -13z m94 -9
c16 -17 16 -18 -6 -18 -12 0 -30 8 -39 19 -15 18 -15 19 6 17 11 0 29 -9 39
-18z m310 -115 c-7 -2 -19 -2 -25 0 -7 3 -2 5 12 5 14 0 19 -2 13 -5z m17 -23
c-20 -13 -53 -13 -45 0 3 6 18 10 33 10 21 0 24 -2 12 -10z m-460 -70 c0 -5
-5 -10 -11 -10 -5 0 -7 5 -4 10 3 6 8 10 11 10 2 0 4 -4 4 -10z m35 0 c3 -5 1
-10 -4 -10 -6 0 -11 5 -11 10 0 6 2 10 4 10 3 0 8 -4 11 -10z m91 -3 c4 -4 -2
-7 -14 -7 -12 0 -22 4 -22 9 0 10 26 9 36 -2z m-549 -3 c-3 -3 -12 -4 -19 -1
-8 3 -5 6 6 6 11 1 17 -2 13 -5z m189 -149 c15 -19 32 -35 38 -34 43 5 66 -2
66 -21 0 -24 9 -25 36 -5 40 30 51 20 58 -56 6 -59 5 -74 -9 -89 -13 -15 -14
-23 -5 -39 10 -19 7 -23 -22 -36 -19 -8 -25 -14 -15 -15 21 0 22 -8 0 -32 -9
-10 -11 -18 -5 -18 6 0 14 5 17 10 3 6 10 10 16 10 13 0 11 -37 -2 -46 -7 -4
-9 -21 -6 -40 5 -30 3 -35 -19 -39 -13 -3 -35 -7 -49 -10 -21 -5 -25 -2 -25
17 0 19 -4 17 -22 -14 -12 -21 -28 -38 -35 -38 -7 0 -13 -1 -13 -3 0 -1 -4
-16 -9 -34 -7 -26 -7 -31 5 -26 9 3 14 -2 14 -15 0 -26 -80 -94 -96 -81 -6 5
-14 7 -18 4 -3 -3 -2 1 4 7 14 17 12 28 -5 28 -18 0 -20 21 -2 39 10 11 6 13
-24 8 -20 -3 -41 -1 -47 5 -7 7 -19 2 -38 -18 -29 -28 -21 -44 13 -26 10 5 24
7 31 5 23 -8 12 -34 -23 -54 -19 -12 -32 -25 -29 -30 5 -9 -36 -29 -60 -29
-11 0 -13 69 -12 365 1 313 3 367 16 375 8 5 68 10 132 10 l117 0 27 -35z
m312 -472 l3 -141 -31 -4 c-16 -3 -44 -3 -60 0 l-31 4 3 65 c2 55 4 62 15 47
7 -10 13 -25 13 -33 0 -14 1 -14 10 -1 6 9 6 18 0 24 -6 6 -10 17 -10 25 0 8
-7 23 -17 33 -9 10 -14 21 -10 24 9 9 67 -76 67 -98 0 -11 4 -17 9 -14 9 6 -1
50 -20 88 -16 32 -10 83 12 107 38 40 44 24 47 -126z"/>
<path d="M3350 4226 c0 -93 1 -95 57 -76 30 11 53 45 53 80 0 29 -41 69 -77
76 l-33 7 0 -87z"/>
<path d="M2057 4244 c-13 -13 -7 -24 14 -24 11 0 19 5 17 12 -5 14 -22 21 -31
12z"/>
<path d="M3576 4188 c-10 -13 -16 -43 -16 -73 0 -59 21 -95 55 -95 34 0 55 36
55 95 0 59 -21 95 -55 95 -13 0 -31 -10 -39 -22z m35 -45 c13 -16 12 -17 -3
-4 -10 7 -18 15 -18 17 0 8 8 3 21 -13z"/>
<path d="M4229 4194 c-7 -8 -14 -40 -17 -69 -5 -65 15 -105 53 -105 34 0 55
35 55 95 0 30 -6 60 -16 73 -18 26 -56 29 -75 6z"/>
<path d="M4686 4195 c-42 -43 -25 -167 25 -173 40 -5 63 29 63 93 0 79 -46
121 -88 80z"/>
<path d="M1865 970 c-3 -5 -1 -10 4 -10 6 0 11 5 11 10 0 6 -2 10 -4 10 -3 0
-8 -4 -11 -10z"/>
<path d="M2205 1181 c-3 -5 -1 -12 5 -16 5 -3 10 1 10 9 0 18 -6 21 -15 7z"/>
<path d="M11023 4316 c-36 -17 -63 -61 -63 -106 0 -25 -4 -30 -25 -30 -22 0
-25 -4 -25 -35 0 -31 3 -35 25 -35 l25 0 0 -115 0 -115 45 0 45 0 0 115 0 115
35 0 c33 0 35 2 35 35 0 33 -2 35 -35 35 -32 0 -35 3 -35 29 0 36 22 55 55 48
25 -4 26 -2 23 32 -3 33 -6 36 -38 38 -19 2 -49 -4 -67 -11z"/>
<path d="M8755 4300 c-15 -17 -16 -24 -7 -45 15 -32 37 -41 68 -27 46 22 25
92 -29 92 -8 0 -22 -9 -32 -20z"/>
<path d="M11530 4100 l0 -220 45 0 45 0 0 220 0 220 -45 0 -45 0 0 -220z"/>
<path d="M11718 4309 c-25 -14 -24 -65 1 -79 27 -14 47 -13 65 6 44 44 -12
105 -66 73z"/>
<path d="M7398 4301 c-117 -38 -178 -155 -148 -281 25 -103 113 -159 231 -146
83 8 89 12 89 58 0 39 -1 40 -27 32 -16 -5 -52 -9 -80 -9 -46 0 -57 4 -84 32
-26 26 -33 42 -37 86 -8 98 50 163 138 153 25 -2 55 -8 68 -11 20 -7 22 -4 22
33 0 23 -5 44 -11 48 -18 11 -132 14 -161 5z"/>
<path d="M9740 4090 l0 -210 45 0 45 0 0 75 0 75 47 0 c59 0 123 30 146 69 26
45 22 113 -9 150 -32 39 -77 51 -186 51 l-88 0 0 -210z m186 114 c20 -19 24
-31 19 -52 -8 -37 -31 -52 -77 -52 l-38 0 0 65 0 65 35 0 c25 0 44 -8 61 -26z"/>
<path d="M8578 4257 c-34 -9 -38 -14 -38 -44 0 -29 -3 -33 -25 -33 -22 0 -25
-4 -25 -35 0 -31 3 -35 25 -35 25 0 25 -1 25 -89 0 -105 3 -117 41 -136 56
-29 109 -17 109 25 0 24 -5 29 -27 32 -28 3 -28 4 -31 86 l-3 82 31 0 c28 0
30 3 30 35 0 32 -2 35 -30 35 -29 0 -30 2 -30 45 0 25 -3 44 -7 44 -5 -1 -25
-6 -45 -12z"/>
<path d="M10768 4256 c-34 -9 -38 -13 -38 -43 0 -29 -3 -33 -25 -33 -22 0 -25
-4 -25 -35 0 -31 3 -35 25 -35 25 0 25 0 25 -93 0 -107 12 -133 65 -143 57
-10 85 1 85 36 0 25 -4 30 -25 30 -32 0 -45 31 -45 111 l0 59 35 0 c33 0 35 2
35 35 0 33 -2 35 -34 35 -34 0 -35 1 -38 43 l-3 42 -37 -9z"/>
<path d="M7751 4164 c-30 -25 -31 -25 -31 -5 0 18 -6 21 -45 21 l-45 0 0 -150
0 -150 44 0 44 0 4 101 c3 111 13 129 70 129 26 0 28 3 28 40 0 33 -3 40 -19
40 -11 0 -33 -12 -50 -26z"/>
<path d="M7933 4170 c-99 -50 -111 -207 -22 -273 34 -25 102 -32 157 -18 38
11 42 15 42 42 0 29 -1 30 -32 23 -55 -14 -101 -7 -121 17 -29 36 -17 44 81
47 l92 3 0 50 c0 42 -5 55 -33 85 -43 47 -102 55 -164 24z m101 -56 c9 -8 16
-24 16 -35 0 -16 -7 -19 -55 -19 -30 0 -55 4 -55 9 0 18 42 61 60 61 10 0 26
-7 34 -16z"/>
<path d="M8238 4178 c-33 -9 -38 -14 -38 -40 0 -27 3 -30 23 -24 69 19 95 18
116 -3 12 -12 19 -25 17 -30 -3 -5 -29 -11 -57 -15 -68 -9 -103 -28 -119 -65
-28 -68 22 -137 93 -128 22 3 50 16 63 28 l24 22 0 -21 c0 -19 6 -22 40 -22
l40 0 0 110 c0 128 -12 164 -65 186 -39 16 -83 17 -137 2z m122 -174 c0 -43
-47 -82 -79 -65 -29 16 -33 39 -11 61 25 25 90 28 90 4z"/>
<path d="M9303 4170 c-99 -50 -111 -207 -22 -273 34 -25 102 -32 157 -18 38
11 42 15 42 42 0 29 -1 30 -32 23 -55 -14 -101 -7 -121 17 -29 36 -17 44 81
47 l92 3 0 50 c0 42 -5 55 -33 85 -43 47 -102 55 -164 24z m101 -56 c9 -8 16
-24 16 -35 0 -16 -7 -19 -55 -19 -30 0 -55 4 -55 9 0 18 42 61 60 61 10 0 26
-7 34 -16z"/>
<path d="M10155 4176 c-97 -42 -123 -185 -49 -260 76 -75 225 -51 264 44 20
48 9 144 -21 176 -47 51 -130 68 -194 40z m115 -76 c15 -15 20 -33 20 -70 0
-59 -24 -90 -68 -90 -43 0 -66 31 -66 92 0 41 5 54 23 69 30 25 66 24 91 -1z"/>
<path d="M10564 4165 c-30 -30 -34 -31 -34 -5 0 17 -7 20 -40 20 l-40 0 0
-150 0 -150 39 0 39 0 4 94 c5 110 19 136 75 136 32 0 33 1 33 40 0 36 -2 40
-25 40 -14 0 -37 -11 -51 -25z"/>
<path d="M11230 4168 c-54 -27 -80 -73 -80 -138 0 -89 50 -146 137 -156 111
-14 193 67 180 177 -8 63 -36 102 -87 123 -55 22 -98 20 -150 -6z m126 -69
c13 -15 19 -36 19 -69 0 -57 -24 -90 -67 -90 -42 0 -68 32 -68 84 0 81 69 126
116 75z"/>
<path d="M11956 4180 c-62 -19 -96 -73 -96 -153 0 -100 67 -162 168 -154 92 7
147 64 147 155 0 121 -97 188 -219 152z m110 -81 c25 -28 25 -110 -1 -139 -23
-26 -69 -26 -95 0 -15 15 -20 33 -20 70 0 37 5 55 20 70 26 26 72 26 96 -1z"/>
<path d="M8750 4030 l0 -150 45 0 45 0 0 150 0 150 -45 0 -45 0 0 -150z"/>
<path d="M8935 4033 l53 -148 52 0 53 0 48 130 c27 72 51 138 55 148 5 14 -1
17 -40 17 l-45 0 -20 -67 c-11 -38 -26 -90 -34 -117 l-14 -49 -17 64 c-10 35
-24 88 -33 117 l-14 52 -48 0 -48 0 52 -147z"/>
<path d="M11700 4030 l0 -150 45 0 45 0 0 150 0 150 -45 0 -45 0 0 -150z"/>
<path d="M8383 3365 c0 -44 2 -63 4 -43 8 73 62 78 65 6 l1 -43 4 38 c5 46
-12 71 -43 63 -20 -5 -23 -2 -27 26 -2 18 -4 -3 -4 -47z"/>
<path d="M10753 3365 c-1 -56 1 -69 6 -45 4 20 11 41 15 48 4 7 3 12 -3 12 -5
0 -12 15 -14 33 -2 17 -4 -4 -4 -48z"/>
<path d="M10993 3365 c0 -44 2 -63 4 -43 5 44 26 66 47 48 8 -6 17 -28 19 -48
l4 -37 1 41 c2 47 -16 69 -47 59 -16 -5 -20 -1 -24 27 -2 18 -4 -3 -4 -47z"/>
<path d="M11543 3365 c0 -44 2 -61 4 -37 2 23 2 59 0 80 -2 20 -4 1 -4 -43z"/>
<path d="M11723 3365 c0 -44 2 -63 4 -43 8 73 62 78 65 6 l1 -43 4 38 c5 46
-12 71 -43 63 -20 -5 -23 -2 -27 26 -2 18 -4 -3 -4 -47z"/>
<path d="M8282 3418 c-20 -20 -14 -34 23 -63 30 -22 34 -29 24 -42 -8 -9 -21
-12 -38 -8 -21 5 -24 4 -14 -6 9 -9 21 -10 40 -3 41 14 41 40 -1 65 -20 11
-36 27 -36 34 0 16 35 29 50 20 5 -3 10 -1 10 4 0 15 -43 14 -58 -1z"/>
<path d="M10021 3408 c0 -10 -7 -18 -13 -18 -10 0 -10 -2 -1 -8 6 -4 13 -25
15 -46 2 -24 9 -41 18 -44 12 -4 13 -2 3 9 -20 20 -16 77 5 82 15 4 15 5 0 6
-9 0 -19 9 -21 19 -4 16 -5 16 -6 0z"/>
<path d="M10281 3408 c0 -10 -7 -18 -13 -18 -10 0 -10 -2 -1 -8 6 -4 13 -25
15 -46 2 -24 9 -41 18 -44 12 -4 13 -2 3 9 -20 20 -16 77 5 82 15 4 15 5 0 6
-9 0 -19 9 -21 19 -4 16 -5 16 -6 0z"/>
<path d="M10931 3408 c-1 -10 -7 -18 -13 -18 -10 0 -10 -2 -1 -8 6 -4 13 -25
15 -46 2 -22 9 -41 16 -42 7 -1 8 0 2 3 -15 7 -13 83 3 83 8 0 9 3 1 8 -6 4
-14 14 -17 22 -4 12 -6 11 -6 -2z"/>
<path d="M10688 3400 c-2 -7 -1 -33 2 -58 4 -37 9 -47 25 -50 18 -2 18 -2 3 8
-12 7 -18 23 -18 45 0 26 4 35 18 36 13 0 14 2 2 6 -8 3 -18 10 -21 16 -4 5
-8 4 -11 -3z"/>
<path d="M11378 3400 c-2 -7 -1 -33 2 -58 4 -37 9 -47 25 -50 18 -2 18 -2 3 8
-12 7 -18 23 -18 45 0 26 4 35 18 36 13 0 14 2 2 6 -8 3 -18 10 -21 16 -4 5
-8 4 -11 -3z"/>
<path d="M8501 3376 c-17 -20 -10 -67 11 -79 27 -18 68 7 68 41 0 15 -5 33
-12 40 -16 16 -53 15 -67 -2z m57 -8 c17 -17 15 -43 -4 -59 -31 -26 -70 25
-44 56 15 18 32 19 48 3z"/>
<path d="M8607 3365 c3 -16 10 -41 15 -55 7 -20 11 -22 18 -10 6 8 10 20 10
25 0 6 -5 3 -10 -5 -9 -13 -10 -13 -10 0 -1 8 -7 29 -15 45 l-14 30 6 -30z"/>
<path d="M8655 3369 c-4 -11 -4 -23 -1 -26 3 -4 6 -1 6 6 0 7 5 9 10 6 6 -3
10 1 10 9 0 24 -18 28 -25 5z"/>
<path d="M8710 3348 c-11 -37 -14 -40 -21 -23 -5 13 -8 15 -8 5 0 -8 3 -22 9
-30 7 -11 11 -9 19 13 15 38 24 77 19 77 -3 0 -11 -19 -18 -42z"/>
<path d="M8768 3379 c-21 -12 -24 -59 -6 -77 7 -7 21 -12 33 -12 18 0 17 2 -5
13 -16 8 -25 21 -25 37 0 16 9 29 25 37 14 7 18 13 10 13 -8 -1 -23 -5 -32
-11z"/>
<path d="M8856 3382 c-3 -5 4 -8 16 -8 33 1 31 -18 -3 -31 -35 -13 -37 -45 -4
-51 20 -4 20 -4 0 12 -17 13 -18 17 -5 26 25 17 43 12 37 -10 -3 -11 -1 -23 5
-26 5 -4 8 13 6 43 -3 40 -6 48 -25 51 -11 2 -24 -1 -27 -6z"/>
<path d="M8949 3374 c-11 -14 -10 -18 5 -30 10 -7 23 -15 29 -17 19 -6 -5 -29
-26 -23 -14 3 -17 2 -10 -5 17 -17 48 -6 51 17 2 14 -5 24 -23 32 -29 13 -24
37 6 29 11 -3 19 -1 19 4 0 15 -37 10 -51 -7z"/>
<path d="M9042 3378 c-7 -7 -12 -24 -12 -38 0 -32 17 -50 45 -49 16 0 15 2 -7
11 -41 14 -36 38 7 38 22 0 35 5 35 13 0 18 -21 37 -40 37 -9 0 -21 -5 -28
-12z m48 -13 c11 -13 8 -15 -19 -15 -31 0 -42 14 -18 23 20 9 24 8 37 -8z"/>
<path d="M9180 3386 c0 -2 9 -25 20 -51 20 -47 16 -77 -12 -88 -8 -3 -9 -6 -2
-6 6 -1 16 5 22 12 15 18 62 138 52 132 -5 -3 -14 -21 -20 -40 -13 -40 -26
-38 -35 5 -5 24 -25 53 -25 36z"/>
<path d="M9302 3378 c-7 -7 -12 -24 -12 -38 0 -30 16 -50 41 -50 23 0 49 27
49 50 0 39 -52 64 -78 38z m56 -10 c28 -28 1 -75 -38 -63 -14 4 -20 15 -20 35
0 37 33 53 58 28z"/>
<path d="M9414 3345 c1 -42 4 -50 21 -53 18 -4 19 -3 3 10 -9 7 -19 31 -21 53
-3 32 -4 30 -3 -10z"/>
<path d="M9468 3344 c-2 -25 0 -48 4 -50 5 -3 8 18 8 45 0 64 -7 66 -12 5z"/>
<path d="M9521 3340 l2 -55 7 45 c4 25 4 49 -1 55 -5 5 -8 -13 -8 -45z"/>
<path d="M9658 3379 c-21 -12 -24 -59 -6 -77 7 -7 21 -12 33 -12 18 0 17 2 -5
13 -16 8 -25 21 -25 37 0 16 9 29 25 37 14 7 18 13 10 13 -8 -1 -23 -5 -32
-11z"/>
<path d="M9740 3340 c0 -29 2 -51 4 -49 8 8 10 88 3 95 -4 4 -7 -17 -7 -46z"/>
<path d="M9816 3374 c-19 -18 -21 -55 -4 -72 7 -7 23 -11 38 -11 20 1 21 2 5
6 -52 13 -59 43 -10 43 36 0 46 15 23 38 -16 16 -33 15 -52 -4z m52 -11 c2 -9
-7 -13 -28 -13 -28 0 -31 2 -20 15 15 18 41 16 48 -2z"/>
<path d="M9920 3380 c-11 -7 -8 -9 14 -7 39 3 45 -19 7 -28 -54 -12 -45 -55
11 -52 25 2 28 6 28 38 0 51 -25 71 -60 49z m50 -48 c0 -12 -23 -32 -37 -32
-17 0 -17 27 0 33 19 8 37 8 37 -1z"/>
<path d="M10083 3340 c0 -30 2 -43 4 -27 2 15 2 39 0 55 -2 15 -4 2 -4 -28z"/>
<path d="M10120 3379 c0 -8 9 -32 19 -54 l19 -40 21 49 c12 27 20 51 18 53 -3
2 -12 -15 -22 -39 l-17 -43 -14 39 c-16 44 -24 56 -24 35z"/>
<path d="M10233 3340 c0 -30 2 -43 4 -27 2 15 2 39 0 55 -2 15 -4 2 -4 -28z"/>
<path d="M10330 3385 c0 -3 7 -22 15 -42 20 -47 19 -80 -2 -92 -10 -6 -13 -11
-7 -11 6 0 16 6 22 13 16 19 61 137 53 137 -4 0 -13 -18 -20 -40 -13 -45 -26
-45 -36 0 -6 25 -25 53 -25 35z"/>
<path d="M10480 3388 c0 -2 7 -25 16 -51 17 -51 29 -53 39 -7 8 36 21 31 30
-10 7 -31 25 -42 25 -15 0 8 -4 15 -10 15 -5 0 -12 16 -16 35 -8 46 -18 44
-34 -7 l-13 -43 -11 37 c-10 31 -26 61 -26 46z"/>
<path d="M10596 3364 c-4 -14 -5 -28 -3 -31 3 -2 8 8 11 23 4 14 5 28 3 31 -3
2 -8 -8 -11 -23z"/>
<path d="M10643 3340 c0 -30 2 -43 4 -27 2 15 2 39 0 55 -2 15 -4 2 -4 -28z"/>
<path d="M10802 3378 c9 -7 19 -31 21 -53 3 -32 4 -30 3 10 -1 42 -4 50 -21
53 -18 4 -19 3 -3 -10z"/>
<path d="M11103 3340 c0 -30 2 -43 4 -27 2 15 2 39 0 55 -2 15 -4 2 -4 -28z"/>
<path d="M11157 3383 c-15 -14 -6 -40 19 -51 28 -13 23 -37 -7 -29 -11 3 -19
1 -19 -4 0 -15 37 -10 51 7 11 14 10 18 -5 30 -10 7 -23 15 -29 17 -6 2 -7 9
-3 16 5 7 14 10 22 7 8 -3 14 -1 14 4 0 11 -33 14 -43 3z"/>
<path d="M11297 3383 c-15 -14 -6 -40 19 -51 28 -13 23 -37 -7 -29 -11 3 -19
1 -19 -4 0 -15 37 -10 51 7 11 14 10 18 -5 30 -10 7 -23 15 -29 17 -6 2 -7 9
-3 16 5 7 14 10 22 7 8 -3 14 -1 14 4 0 11 -33 14 -43 3z"/>
<path d="M11430 3386 c0 -2 9 -25 20 -51 20 -47 16 -77 -12 -88 -8 -3 -9 -6
-2 -6 6 -1 16 5 22 12 15 18 62 138 52 132 -5 -3 -14 -21 -20 -40 -13 -40 -26
-38 -35 5 -5 24 -25 53 -25 36z"/>
<path d="M11593 3340 c0 -30 2 -43 4 -27 2 15 2 39 0 55 -2 15 -4 2 -4 -28z"/>
<path d="M11643 3383 c-21 -8 -14 -33 12 -45 30 -13 27 -33 -4 -32 -13 0 -18
-3 -12 -9 12 -12 51 1 51 18 0 7 -11 20 -25 29 -28 19 -24 41 6 33 11 -3 17
-1 13 4 -6 10 -21 11 -41 2z"/>
<path d="M8660 3145 c-8 -10 -12 -39 -11 -72 2 -66 11 -86 11 -25 0 28 5 44
18 51 16 10 16 10 0 11 -22 0 -23 14 -2 34 8 9 11 16 6 16 -5 0 -15 -7 -22
-15z"/>
<path d="M8833 3085 c0 -44 2 -61 4 -37 2 23 2 59 0 80 -2 20 -4 1 -4 -43z"/>
<path d="M8870 3150 c0 -5 5 -10 10 -10 6 0 10 5 10 10 0 6 -4 10 -10 10 -5 0
-10 -4 -10 -10z"/>
<path d="M9163 3085 c0 -44 2 -63 4 -43 8 73 62 78 65 6 l1 -43 4 38 c5 46
-12 71 -43 63 -20 -5 -23 -2 -27 26 -2 18 -4 -3 -4 -47z"/>
<path d="M9880 3130 c0 -27 -3 -30 -24 -24 -25 6 -56 -17 -56 -42 0 -35 20
-54 55 -51 l35 2 0 73 c0 39 -2 72 -5 72 -3 0 -5 -14 -5 -30z m-10 -45 c28
-34 -16 -84 -47 -53 -14 14 -15 22 -5 43 13 28 33 32 52 10z"/>
<path d="M10133 3085 c0 -44 2 -61 4 -37 2 23 2 59 0 80 -2 20 -4 1 -4 -43z"/>
<path d="M10250 3145 c-8 -10 -12 -39 -11 -72 2 -66 11 -86 11 -25 0 28 5 44
18 51 16 10 16 10 0 11 -22 0 -23 14 -2 34 8 9 11 16 6 16 -5 0 -15 -7 -22
-15z"/>
<path d="M11230 3131 c0 -24 -3 -28 -20 -24 -28 7 -50 -14 -50 -47 0 -34 17
-49 52 -47 28 2 28 2 28 75 0 39 -2 72 -5 72 -3 0 -5 -13 -5 -29z m-2 -67 c3
-33 -15 -49 -43 -38 -18 7 -20 45 -3 62 21 21 43 9 46 -24z"/>
<path d="M9763 3080 c0 -41 2 -58 4 -37 2 20 2 54 0 75 -2 20 -4 3 -4 -38z"/>
<path d="M9101 3128 c0 -10 -7 -18 -13 -18 -10 0 -10 -2 -1 -8 6 -4 13 -25 15
-46 2 -24 9 -41 18 -44 12 -4 13 -2 3 9 -20 20 -16 77 5 82 15 4 15 5 0 6 -9
0 -19 9 -21 19 -4 16 -5 16 -6 0z"/>
<path d="M10721 3128 c-1 -10 -7 -18 -13 -18 -10 0 -10 -2 -1 -8 6 -4 13 -25
15 -46 2 -22 9 -41 16 -42 7 -1 8 0 2 3 -15 7 -13 83 3 83 8 0 9 3 1 8 -6 4
-14 14 -17 22 -4 12 -6 11 -6 -2z"/>
<path d="M10921 3128 c-1 -10 -7 -18 -13 -18 -10 0 -10 -2 -1 -8 6 -4 13 -25
15 -46 2 -22 9 -41 16 -42 7 -1 8 0 2 3 -15 7 -13 83 3 83 8 0 9 3 1 8 -6 4
-14 14 -17 22 -4 12 -6 11 -6 -2z"/>
<path d="M8580 3120 c-7 -55 6 -110 26 -110 13 0 13 2 0 16 -21 21 -20 61 2
73 15 9 15 10 0 11 -9 0 -19 6 -21 13 -4 8 -6 7 -7 -3z"/>
<path d="M8272 3032 c0 -42 3 -62 5 -44 4 28 7 31 29 26 31 -8 54 11 54 45 0
30 -16 51 -39 51 -11 0 -9 -5 7 -16 24 -17 29 -43 10 -62 -29 -29 -68 10 -49
47 8 14 7 20 -4 25 -13 4 -15 -7 -13 -72z"/>
<path d="M8402 3098 c-7 -7 -12 -24 -12 -38 0 -30 16 -50 41 -50 23 0 49 27
49 50 0 39 -52 64 -78 38z m56 -10 c28 -28 1 -75 -38 -63 -14 4 -20 15 -20 35
0 37 33 53 58 28z"/>
<path d="M8510 3060 c0 -29 2 -51 4 -49 8 8 10 88 3 95 -4 4 -7 -17 -7 -46z"/>
<path d="M8716 3094 c-31 -30 -9 -84 34 -84 11 0 27 11 36 25 15 23 15 27 0
50 -19 29 -47 32 -70 9z m48 0 c35 -13 14 -74 -24 -74 -18 0 -31 39 -20 60 11
21 19 24 44 14z"/>
<path d="M8873 3060 c0 -30 2 -43 4 -27 2 15 2 39 0 55 -2 15 -4 2 -4 -28z"/>
<path d="M8932 3098 c-7 -7 -12 -24 -12 -38 0 -30 16 -50 41 -50 23 0 49 27
49 50 0 39 -52 64 -78 38z m56 -10 c28 -28 1 -75 -38 -63 -14 4 -20 15 -20 35
0 37 33 53 58 28z"/>
<path d="M9286 3094 c-19 -18 -21 -55 -4 -72 7 -7 23 -11 38 -11 20 1 21 2 5
6 -52 13 -59 43 -10 43 36 0 46 15 23 38 -16 16 -33 15 -52 -4z m52 -11 c2 -9
-7 -13 -28 -13 -28 0 -31 2 -20 15 15 18 41 16 48 -2z"/>
<path d="M9382 3055 c1 -42 2 -44 5 -13 8 70 53 76 53 7 0 -21 5 -39 10 -39 6
0 10 18 10 39 0 69 45 63 53 -7 l4 -37 1 41 c2 50 -19 75 -48 56 -12 -7 -21
-8 -25 -2 -3 5 -19 8 -35 7 -29 -2 -30 -3 -28 -52z"/>
<path d="M9562 3098 c-7 -7 -12 -24 -12 -38 0 -14 5 -31 12 -38 15 -15 45 -15
54 0 4 7 3 8 -5 4 -16 -10 -51 3 -51 20 0 9 11 14 35 14 38 0 40 2 25 31 -12
21 -40 25 -58 7z m48 -13 c11 -13 8 -15 -19 -15 -30 0 -39 9 -24 23 11 11 30
8 43 -8z"/>
<path d="M9936 3094 c-19 -18 -21 -55 -4 -72 7 -7 23 -11 38 -11 20 1 21 2 5
6 -52 13 -59 43 -10 43 36 0 46 15 23 38 -16 16 -33 15 -52 -4z m52 -11 c2 -9
-7 -13 -28 -13 -28 0 -31 2 -20 15 15 18 41 16 48 -2z"/>
<path d="M10040 3100 c-11 -7 -8 -9 14 -7 39 3 45 -19 7 -28 -54 -12 -45 -55
11 -52 25 2 28 6 28 38 0 51 -25 71 -60 49z m50 -48 c0 -12 -23 -32 -37 -32
-17 0 -17 27 0 33 19 8 37 8 37 -1z"/>
<path d="M10306 3094 c-31 -30 -9 -84 34 -84 11 0 27 11 36 25 15 23 15 27 0
50 -19 29 -47 32 -70 9z m48 0 c35 -13 14 -74 -24 -74 -18 0 -31 39 -20 60 11
21 19 24 44 14z"/>
<path d="M10420 3060 c0 -29 2 -51 4 -49 8 8 10 88 3 95 -4 4 -7 -17 -7 -46z"/>
<path d="M10544 3099 c-4 -7 0 -9 14 -5 24 8 41 -12 21 -25 -10 -6 -11 -9 -1
-9 17 0 15 -30 -4 -37 -23 -9 -43 15 -24 28 13 9 13 10 0 6 -8 -2 -15 -12 -15
-23 0 -15 8 -19 38 -21 35 -1 37 1 37 29 0 16 -5 38 -10 49 -12 21 -45 26 -56
8z"/>
<path d="M10641 3060 l2 -55 7 45 c4 25 4 49 -1 55 -5 5 -8 -13 -8 -45z"/>
<path d="M10783 3060 c0 -30 2 -43 4 -27 2 15 2 39 0 55 -2 15 -4 2 -4 -28z"/>
<path d="M10833 3103 c-21 -8 -14 -33 12 -45 30 -13 27 -33 -4 -32 -13 0 -18
-3 -12 -9 12 -12 51 1 51 18 0 7 -11 20 -25 29 -28 19 -24 41 6 33 11 -3 17
-1 13 4 -6 10 -21 11 -41 2z"/>
<path d="M10979 3094 c-11 -14 -10 -18 5 -30 10 -7 23 -15 29 -17 19 -6 -5
-29 -26 -23 -14 3 -17 2 -10 -5 17 -17 48 -6 51 17 2 14 -5 24 -23 32 -29 13
-24 37 6 29 11 -3 19 -1 19 4 0 15 -37 10 -51 -7z"/>
<path d="M11292 3098 c-7 -7 -12 -24 -12 -38 0 -14 5 -31 12 -38 15 -15 45
-15 54 0 4 7 3 8 -5 4 -16 -10 -51 3 -51 20 0 9 11 14 35 14 38 0 40 2 25 31
-12 21 -40 25 -58 7z m48 -13 c11 -13 8 -15 -19 -15 -30 0 -39 9 -24 23 11 11
30 8 43 -8z"/>
<path d="M11393 3103 c-21 -8 -14 -33 12 -45 30 -13 27 -33 -4 -32 -13 0 -18
-3 -12 -9 12 -12 51 1 51 18 0 7 -11 20 -25 29 -28 19 -24 41 6 33 11 -3 17
-1 13 4 -6 10 -21 11 -41 2z"/>
<path d="M11473 3060 c0 -30 2 -43 4 -27 2 15 2 39 0 55 -2 15 -4 2 -4 -28z"/>
<path d="M11525 3094 c-18 -18 -19 -38 -4 -66 8 -16 17 -19 40 -14 32 6 36 -1
15 -29 -8 -12 -20 -16 -35 -12 -11 3 -21 1 -21 -4 0 -15 47 -10 64 7 11 10 16
34 16 72 0 56 -1 57 -30 59 -16 1 -36 -5 -45 -13z m55 -9 c28 -34 -16 -84 -47
-53 -14 14 -15 22 -5 43 13 28 33 32 52 10z"/>
<path d="M11642 3055 c1 -49 2 -49 5 -8 3 25 10 44 19 47 25 10 34 -2 34 -45
0 -21 5 -39 10 -39 13 0 13 41 0 74 -7 20 -15 25 -40 23 -29 -2 -30 -3 -28
-52z"/>
<path d="M11756 3094 c-9 -8 -16 -24 -16 -34 0 -36 58 -68 74 -41 4 5 -3 7
-14 4 -20 -5 -50 12 -50 28 0 5 16 9 35 9 28 0 35 4 35 19 0 17 -18 31 -40 31
-5 0 -16 -7 -24 -16z m52 -11 c2 -9 -7 -13 -28 -13 -28 0 -31 2 -20 15 15 18
41 16 48 -2z"/>
<path d="M11851 3060 l1 -55 9 45 c5 28 5 48 -1 54 -7 7 -10 -9 -9 -44z"/>
<path d="M11923 3094 c-4 -10 4 -24 23 -39 25 -20 27 -24 12 -30 -9 -4 -22 -4
-28 0 -5 3 -10 1 -10 -4 0 -17 36 -13 51 5 11 14 10 18 -6 30 -10 8 -22 14
-27 14 -17 0 -7 21 15 30 l22 9 -23 0 c-12 1 -25 -6 -29 -15z"/>
<path d="M9650 3020 c0 -5 5 -10 10 -10 6 0 10 5 10 10 0 6 -4 10 -10 10 -5 0
-10 -4 -10 -10z"/>
<path d="M11061 3023 c-1 -6 -4 -20 -7 -30 -5 -17 -5 -17 6 0 6 10 9 23 6 30
-3 9 -5 9 -5 0z"/>
<path d="M12003 3015 c-3 -9 -3 -18 -1 -21 3 -3 8 4 11 16 6 23 -1 27 -10 5z"/>
<path d="M4667 2943 c-11 -10 -8 -143 3 -143 6 0 10 32 10 75 0 75 -1 81 -13
68z"/>
<path d="M4739 2913 c-4 -34 5 -129 10 -110 5 16 3 138 -2 143 -3 3 -6 -12 -8
-33z"/>
<path d="M4886 2874 c2 -89 14 -95 14 -6 0 40 -3 72 -7 72 -5 0 -7 -30 -7 -66z"/>
<path d="M4940 2869 c0 -44 4 -68 10 -64 6 3 10 35 10 71 0 36 -4 64 -10 64
-6 0 -10 -30 -10 -71z"/>
<path d="M4785 2871 c-9 -30 12 -70 38 -71 5 0 1 7 -8 17 -11 10 -15 27 -13
45 5 31 -7 38 -17 9z"/>
<path d="M4840 2876 c0 -9 5 -16 10 -16 6 0 10 4 10 9 0 6 -4 13 -10 16 -5 3
-10 -1 -10 -9z"/>
<path d="M4985 2870 c-7 -21 2 -60 13 -60 4 0 7 18 7 40 0 43 -10 53 -20 20z"/>
<path d="M5050 2850 c0 -25 4 -39 10 -35 6 3 10 19 10 35 0 16 -4 32 -10 35
-6 4 -10 -10 -10 -35z"/>
<path d="M8560 2850 c0 -27 -3 -30 -24 -24 -25 6 -56 -17 -56 -42 0 -35 20
-54 55 -51 l35 2 0 73 c0 39 -2 72 -5 72 -3 0 -5 -14 -5 -30z m-10 -45 c28
-34 -16 -84 -47 -53 -14 14 -15 22 -5 43 13 28 33 32 52 10z"/>
<path d="M8783 2805 c0 -44 2 -63 4 -43 5 44 26 66 47 48 8 -6 17 -28 19 -48
l4 -37 1 41 c2 47 -16 69 -47 59 -16 -5 -20 -1 -24 27 -2 18 -4 -3 -4 -47z"/>
<path d="M9603 2805 c0 -44 2 -63 4 -43 8 73 62 78 65 6 l1 -43 4 38 c5 46
-12 71 -43 63 -20 -5 -23 -2 -27 26 -2 18 -4 -3 -4 -47z"/>
<path d="M9010 2840 c-7 -55 6 -110 26 -110 13 0 13 2 0 16 -21 21 -20 61 2
73 15 9 15 10 0 11 -9 0 -19 6 -21 13 -4 8 -6 7 -7 -3z"/>
<path d="M8286 2822 c-3 -5 4 -8 16 -8 34 1 32 -22 -2 -29 -25 -5 -31 -11 -28
-28 2 -17 10 -22 36 -22 31 -1 32 1 32 41 0 29 -5 44 -16 48 -21 8 -32 8 -38
-2z m44 -56 c0 -18 -31 -29 -44 -16 -8 8 -7 14 4 20 22 14 40 12 40 -4z"/>
<path d="M8382 2775 c1 -49 2 -49 5 -8 3 25 10 44 19 47 25 10 34 -2 34 -45 0
-21 5 -39 10 -39 13 0 13 41 0 74 -7 20 -15 25 -40 23 -29 -2 -30 -3 -28 -52z"/>
<path d="M8662 2755 c1 -44 3 -65 5 -47 4 28 7 31 27 26 30 -7 58 21 54 54 -4
34 -32 51 -57 35 -15 -10 -21 -10 -24 0 -3 7 -5 -24 -5 -68z m66 53 c17 -17
15 -43 -4 -59 -31 -26 -70 25 -44 56 15 18 32 19 48 3z"/>
<path d="M8902 2818 c-7 -7 -12 -24 -12 -38 0 -30 16 -50 41 -50 23 0 49 27
49 50 0 39 -52 64 -78 38z m56 -10 c28 -28 1 -75 -38 -63 -14 4 -20 15 -20 35
0 37 33 53 58 28z"/>
<path d="M9086 2814 c-30 -30 -9 -84 33 -84 25 0 41 20 41 50 0 47 -42 66 -74
34z m48 0 c24 -9 21 -61 -4 -69 -39 -12 -66 35 -38 63 14 14 20 14 42 6z"/>
<path d="M9202 2818 c-17 -17 -15 -63 3 -78 8 -6 23 -9 35 -5 14 4 20 2 20 -8
0 -17 -18 -33 -45 -40 -16 -4 -15 -5 6 -6 38 -2 49 17 49 84 0 59 -1 61 -28
63 -15 1 -33 -3 -40 -10z m56 -34 c3 -33 -15 -49 -43 -38 -18 7 -20 45 -3 62
21 21 43 9 46 -24z"/>
<path d="M9311 2780 l2 -55 7 45 c4 25 4 49 -1 55 -5 5 -8 -13 -8 -45z"/>
<path d="M9390 2820 c-11 -7 -8 -9 14 -7 39 3 45 -19 7 -28 -54 -12 -45 -55
11 -52 25 2 28 6 28 38 0 51 -25 71 -60 49z m50 -48 c0 -12 -23 -32 -37 -32
-17 0 -17 27 0 33 19 8 37 8 37 -1z"/>
<path d="M9482 2752 c0 -42 3 -62 5 -44 4 28 7 31 29 26 31 -8 54 11 54 45 0
30 -16 51 -39 51 -11 0 -9 -5 7 -16 24 -17 29 -43 10 -62 -29 -29 -68 10 -49
47 8 14 7 20 -4 25 -13 4 -15 -7 -13 -72z"/>
<path d="M9722 2818 c-7 -7 -12 -24 -12 -38 0 -32 17 -50 45 -49 16 0 15 2 -7
11 -41 14 -36 38 7 38 22 0 35 5 35 13 0 18 -21 37 -40 37 -9 0 -21 -5 -28
-12z m48 -13 c11 -13 8 -15 -19 -15 -31 0 -42 14 -18 23 20 9 24 8 37 -8z"/>
<path d="M9820 2780 c0 -29 2 -51 4 -49 8 8 10 88 3 95 -4 4 -7 -17 -7 -46z"/>
<path d="M9889 2814 c-11 -14 -10 -18 5 -30 10 -7 23 -15 29 -17 19 -6 -5 -29
-26 -23 -14 3 -17 2 -10 -5 17 -17 48 -6 51 17 2 14 -5 24 -23 32 -29 13 -24
37 6 29 11 -3 19 -1 19 4 0 15 -37 10 -51 -7z"/>
<path d="M5085 2810 c3 -5 8 -10 11 -10 2 0 4 5 4 10 0 6 -5 10 -11 10 -5 0
-7 -4 -4 -10z"/>
<path d="M3495 2725 c-5 -2 -22 -6 -37 -9 -19 -4 -28 -13 -28 -25 0 -10 -7
-21 -15 -24 -31 -13 -46 -76 -44 -195 1 -86 -1 -116 -12 -122 -7 -5 -17 -6
-23 -3 -5 3 -6 1 -2 -5 8 -13 163 -17 183 -4 7 5 9 13 3 21 -13 22 9 60 31 54
10 -3 19 -1 19 5 0 20 -19 23 -45 6 -24 -15 -26 -15 -57 11 -34 28 -64 93 -51
106 5 4 17 9 28 11 27 4 31 32 8 55 -22 22 -16 66 9 71 21 4 40 -31 40 -74 0
-30 3 -34 28 -34 40 0 51 -19 48 -89 -2 -50 1 -65 14 -75 10 -7 22 -25 27 -39
12 -30 32 -35 51 -12 11 13 10 22 -3 51 -10 20 -17 59 -17 94 0 77 -34 155
-86 198 -37 31 -47 34 -69 27z"/>
<path d="M4440 2649 c0 -5 5 -7 10 -4 6 3 10 8 10 11 0 2 -4 4 -10 4 -5 0 -10
-5 -10 -11z"/>
<path d="M3475 2480 c3 -5 15 -10 25 -10 10 0 22 5 25 10 4 6 -7 10 -25 10
-18 0 -29 -4 -25 -10z"/>
<path d="M9635 2341 c-11 -5 -31 -21 -45 -36 l-25 -27 0 -220 0 -220 37 -34
38 -34 1040 0 1040 0 38 34 37 34 0 221 0 221 -33 32 -32 33 -1038 2 c-570 1
-1046 -2 -1057 -6z m2111 -54 c24 -28 24 -31 24 -225 0 -193 -1 -198 -24 -227
l-24 -30 -1042 0 -1042 0 -24 30 c-23 29 -24 34 -24 225 0 209 4 230 54 250
11 5 482 8 1049 7 l1029 -2 24 -28z"/>
<path d="M11127 2123 c-4 -3 -7 -15 -7 -25 0 -10 -6 -18 -12 -18 -10 0 -10 -2
-1 -8 6 -4 13 -25 16 -47 l4 -40 1 42 c1 23 8 44 15 46 10 4 10 6 0 6 -7 1
-13 10 -13 20 0 11 6 22 13 24 6 3 7 6 1 6 -6 1 -14 -2 -17 -6z"/>
<path d="M11270 2060 c0 -40 4 -70 10 -70 6 0 10 30 10 70 0 40 -4 70 -10 70
-6 0 -10 -30 -10 -70z"/>
<path d="M9940 2100 c-25 -25 -26 -72 -2 -93 19 -18 72 -23 72 -8 0 4 -11 6
-23 4 -48 -9 -76 57 -39 90 9 8 28 17 42 20 25 4 24 4 -2 6 -16 0 -37 -8 -48
-19z"/>
<path d="M10490 2055 c0 -37 4 -65 10 -65 6 0 10 21 11 48 l0 47 23 -50 23
-50 24 55 24 55 6 -55 6 -55 1 68 c1 37 -2 67 -7 67 -5 0 -19 -24 -31 -52
l-23 -53 -23 53 c-13 28 -28 52 -34 52 -6 0 -10 -28 -10 -65z"/>
<path d="M10791 2053 c1 -37 4 -56 6 -42 3 20 11 28 34 33 27 5 30 9 27 38 -3
29 -7 33 -35 36 l-33 3 1 -68z m54 27 c0 -18 -6 -26 -22 -28 -20 -3 -23 1 -23
28 0 27 3 31 23 28 16 -2 22 -10 22 -28z"/>
<path d="M10291 2098 c0 -10 -7 -18 -13 -18 -10 0 -10 -2 -1 -8 6 -4 13 -23
15 -42 2 -26 8 -36 23 -38 18 -2 18 -2 3 8 -11 6 -18 23 -18 40 0 19 6 30 18
33 15 4 15 5 0 6 -9 0 -19 9 -21 19 -4 16 -5 16 -6 0z"/>
<path d="M11061 2098 c-1 -16 -30 -25 -63 -19 -5 0 -7 -20 -7 -46 l2 -48 6 40
c5 34 10 40 34 43 26 3 27 1 27 -37 0 -33 4 -41 18 -40 10 0 12 3 5 6 -7 2
-13 20 -13 39 0 20 5 34 13 34 8 0 9 3 1 8 -6 4 -14 14 -17 22 -4 12 -6 11 -6
-2z"/>
<path d="M10042 2030 c1 -40 2 -41 5 -10 2 19 11 40 20 47 13 10 13 12 -6 10
-18 -1 -21 -7 -19 -47z"/>
<path d="M10114 2072 c-17 -11 -22 -35 -13 -59 6 -17 16 -23 36 -22 27 1 27 1
4 8 -37 10 -38 31 -2 31 32 0 41 16 19 38 -14 14 -28 15 -44 4z m44 -19 c2 -8
-6 -13 -22 -13 -25 0 -33 10 -19 24 10 10 36 3 41 -11z"/>
<path d="M10218 2073 c30 -6 28 -19 -4 -27 -19 -5 -25 -12 -22 -29 2 -17 10
-22 36 -24 29 -1 32 1 32 27 0 45 -10 60 -39 59 -23 -2 -24 -2 -3 -6z m22 -48
c0 -16 -27 -32 -37 -22 -3 4 -3 13 0 22 8 20 37 20 37 0z"/>
<path d="M10352 2068 c-29 -29 -3 -85 35 -75 15 4 14 5 -3 6 -12 0 -24 8 -28
16 -4 12 3 15 29 15 38 0 40 2 25 31 -12 21 -40 25 -58 7z m46 -15 c2 -8 -6
-13 -22 -13 -19 0 -24 4 -19 15 6 18 34 16 41 -2z"/>
<path d="M10642 2070 c3 -8 11 -32 19 -53 13 -36 12 -40 -6 -53 -10 -8 -14
-14 -8 -14 16 0 29 20 52 78 23 59 18 72 -6 15 l-16 -38 -11 32 c-6 17 -15 35
-20 40 -5 4 -7 2 -4 -7z"/>
<path d="M10890 2066 c-28 -35 11 -93 48 -70 21 14 28 64 10 75 -20 13 -44 11
-58 -5z m55 -31 c0 -25 -4 -30 -25 -30 -16 0 -26 6 -28 18 -6 30 6 49 30 45
18 -2 23 -9 23 -33z"/>
<path d="M11176 2064 c-19 -18 -20 -28 -6 -55 20 -37 80 -18 80 26 0 42 -44
59 -74 29z m58 -16 c13 -22 -14 -54 -38 -45 -16 6 -22 48 -9 61 11 11 35 3 47
-16z"/>
<path d="M11323 2035 c0 -27 2 -38 4 -22 2 15 2 37 0 50 -2 12 -4 0 -4 -28z"/>
<path d="M11373 2072 c-27 -17 -19 -70 12 -78 31 -8 55 10 55 40 0 38 -36 58
-67 38z m52 -21 c9 -29 -5 -52 -29 -49 -37 5 -34 68 3 68 11 0 22 -8 26 -19z"/>
<path d="M4675 2290 c-3 -5 -1 -10 4 -10 6 0 11 5 11 10 0 6 -2 10 -4 10 -3 0
-8 -4 -11 -10z"/>
<path d="M3553 2283 c-25 -5 -30 -19 -10 -26 21 -7 4 -14 -50 -20 -45 -5 -54
-3 -63 13 -9 17 -14 18 -43 7 l-32 -11 30 -7 c29 -6 29 -7 -7 -8 -28 -1 -38 3
-38 14 0 8 -9 15 -20 15 -11 0 -20 -7 -20 -15 0 -10 -11 -15 -32 -16 -18 0
-26 -3 -18 -6 8 -3 20 -11 26 -19 8 -10 42 -14 125 -15 93 -2 122 1 154 16 42
20 57 34 49 47 -3 4 3 8 13 8 11 0 28 7 39 15 17 13 15 14 -31 13 -27 0 -60
-3 -72 -5z"/>
<path d="M3706 2255 c-8 -8 -32 -16 -52 -17 -24 -2 -48 -12 -64 -27 l-25 -23
73 4 c39 3 72 1 72 -4 0 -4 11 -8 24 -8 19 0 23 5 22 30 -1 16 -4 30 -8 30 -4
0 -5 7 -2 15 8 20 -20 20 -40 0z"/>
<path d="M3540 2170 c0 -5 12 -10 28 -9 24 0 25 1 7 9 -27 12 -35 12 -35 0z"/>
<path d="M3210 2163 c0 -5 6 -18 14 -29 17 -22 35 -11 20 13 -12 19 -34 29
-34 16z"/>
<path d="M3737 2153 c-11 -10 -8 -43 3 -43 6 0 10 -7 10 -15 0 -8 5 -15 10
-15 6 0 10 18 10 40 0 38 -14 52 -33 33z"/>
<path d="M5040 2140 c-9 -6 -10 -10 -3 -10 6 0 15 5 18 10 8 12 4 12 -15 0z"/>
<path d="M3222 2103 c-10 -4 -10 -8 -1 -19 16 -20 29 -17 29 6 0 20 -5 23 -28
13z"/>
<path d="M4321 2074 c0 -11 3 -14 6 -6 3 7 2 16 -1 19 -3 4 -6 -2 -5 -13z"/>
<path d="M3710 2010 c0 -5 7 -10 15 -10 8 0 15 5 15 10 0 6 -7 10 -15 10 -8 0
-15 -4 -15 -10z"/>
<path d="M4825 2000 c3 -5 8 -10 11 -10 2 0 4 5 4 10 0 6 -5 10 -11 10 -5 0
-7 -4 -4 -10z"/>
<path d="M3354 1915 c36 -27 122 -40 193 -28 36 7 71 17 77 24 8 9 -16 10
-106 5 -77 -4 -118 -3 -118 4 0 5 -15 10 -32 10 -31 -1 -32 -2 -14 -15z"/>
<path d="M4635 1640 c-3 -5 -1 -10 4 -10 6 0 11 5 11 10 0 6 -2 10 -4 10 -3 0
-8 -4 -11 -10z"/>
<path d="M3000 1185 c0 -43 4 -75 10 -75 6 0 10 32 10 75 0 43 -4 75 -10 75
-6 0 -10 -32 -10 -75z"/>
<path d="M3148 1228 c-5 -39 3 -118 13 -118 5 0 9 32 9 70 0 66 -15 98 -22 48z"/>
<path d="M3560 1230 c0 -5 5 -10 10 -10 6 0 10 5 10 10 0 6 -4 10 -10 10 -5 0
-10 -4 -10 -10z"/>
<path d="M3500 1186 c0 -24 3 -51 6 -60 12 -33 19 -14 16 44 -4 69 -22 82 -22
16z"/>
<path d="M3106 1194 c-9 -8 -16 -22 -16 -30 0 -22 19 -54 32 -54 9 0 9 3 0 12
-7 7 -12 24 -12 38 0 14 5 31 12 38 7 7 9 12 6 12 -4 0 -14 -7 -22 -16z"/>
<path d="M3448 1165 c2 -25 8 -45 13 -45 10 0 12 50 3 74 -12 30 -19 16 -16
-29z"/>
<path d="M3616 1194 c-9 -8 -16 -22 -16 -30 0 -22 19 -54 32 -54 9 0 9 3 0 12
-7 7 -12 24 -12 38 0 14 5 31 12 38 7 7 9 12 6 12 -4 0 -14 -7 -22 -16z"/>
<path d="M3660 1195 c7 -8 10 -31 8 -51 -4 -32 -3 -34 9 -18 7 10 13 24 13 32
0 20 -19 52 -32 52 -7 0 -6 -5 2 -15z"/>
<path d="M3768 1203 c7 -3 12 -23 12 -49 0 -24 5 -44 10 -44 6 0 10 17 10 38
0 38 -14 63 -34 61 -6 0 -5 -3 2 -6z"/>
<path d="M3200 1181 c0 -31 18 -71 32 -70 10 0 10 2 1 6 -8 2 -13 22 -13 44 0
21 -4 39 -10 39 -5 0 -10 -9 -10 -19z"/>
<path d="M3270 1160 c0 -22 3 -40 8 -40 4 0 6 18 4 40 -2 22 -6 40 -8 40 -2 0
-4 -18 -4 -40z"/>
<path d="M3318 1194 c-12 -12 -9 -59 4 -72 7 -7 21 -12 33 -11 20 0 20 0 0 8
-13 5 -22 20 -25 45 -3 21 -8 34 -12 30z"/>
<path d="M3560 1155 c0 -25 5 -45 10 -45 6 0 10 20 10 45 0 25 -4 45 -10 45
-5 0 -10 -20 -10 -45z"/>
<path d="M3715 1155 c0 -25 3 -45 6 -45 4 0 9 20 11 45 2 26 -1 45 -7 45 -5 0
-10 -20 -10 -45z"/>
<path d="M3400 1155 c-10 -12 -10 -18 0 -30 7 -8 18 -15 24 -15 6 0 4 5 -4 10
-12 8 -13 13 -2 30 14 23 0 27 -18 5z"/>
<path d="M4305 1033 c11 -3 24 -10 28 -17 6 -7 7 -6 4 4 -2 8 -14 16 -28 17
-19 1 -20 1 -4 -4z"/>
<path d="M4310 990 c-23 -7 -23 -8 -3 -9 12 -1 25 4 28 9 3 6 5 10 3 9 -2 -1
-14 -5 -28 -9z"/>
<path d="M4282 883 l3 -48 43 -3 42 -3 0 50 0 51 -46 0 -45 0 3 -47z m78 -5
c0 -27 -2 -29 -32 -26 -27 2 -34 8 -36 30 -2 19 2 27 15 30 36 8 53 -3 53 -34z"/>
<path d="M4310 880 c0 -13 7 -20 20 -20 13 0 20 7 20 20 0 13 -7 20 -20 20
-13 0 -20 -7 -20 -20z"/>
<path d="M4425 921 c-3 -6 -13 -7 -21 -4 -13 5 -15 -3 -12 -48 3 -48 5 -54 23
-51 11 2 24 10 28 18 12 20 27 17 27 -6 0 -16 -7 -20 -30 -20 -16 0 -30 -5
-30 -11 0 -8 -4 -8 -13 -1 -7 6 -23 9 -35 5 -12 -3 -36 0 -54 6 -30 11 -32 10
-17 -4 22 -23 88 -36 111 -24 23 12 51 19 94 23 17 1 35 5 40 9 7 4 10 -12 8
-41 -1 -26 3 -53 9 -59 13 -18 37 -16 37 2 0 8 -6 12 -14 9 -7 -3 -16 2 -19
10 -5 12 -2 13 17 6 13 -5 26 -7 28 -5 2 2 5 -9 6 -26 2 -27 0 -30 -20 -24
-39 12 -43 11 -41 -17 1 -19 -3 -28 -13 -28 -8 0 -14 9 -14 20 0 11 -4 20 -9
20 -6 0 -7 -16 -4 -35 4 -28 2 -35 -11 -35 -20 0 -21 -14 -2 -30 8 -6 12 -18
9 -26 -3 -8 0 -14 7 -14 7 0 10 11 7 28 -2 15 -2 21 0 15 3 -7 9 -13 14 -13 9
0 12 12 10 40 0 10 1 11 5 2 8 -18 90 -53 108 -46 20 8 21 44 1 44 -17 0 -21
35 -5 45 13 8 13 55 0 55 -5 0 -9 -5 -7 -11 1 -6 -4 -13 -11 -15 -7 -1 -8 0
-3 2 5 3 7 14 4 24 -4 16 0 20 18 21 13 0 18 3 12 6 -9 3 -11 17 -7 43 l6 39
-48 3 c-47 3 -49 5 -54 35 l-5 33 -12 -25 c-8 -19 -8 -23 0 -18 7 3 3 -4 -8
-16 l-20 -23 -3 21 c-2 15 -13 24 -33 28 -29 5 -29 6 -12 26 18 19 17 19 -12
15 -16 -3 -24 -3 -17 -1 6 3 12 8 12 13 0 14 -18 21 -25 11z m20 -60 c3 -5 1
-12 -4 -15 -5 -3 -11 1 -15 9 -6 16 9 21 19 6z m195 -71 c0 -8 -5 -22 -10 -30
-8 -12 -10 -11 -10 8 0 12 -4 22 -10 22 -5 0 -10 -7 -10 -15 0 -8 -6 -15 -13
-15 -22 0 -27 11 -14 31 14 22 67 22 67 -1z m-70 -120 c0 -5 -5 -10 -11 -10
-5 0 -7 5 -4 10 3 6 8 10 11 10 2 0 4 -4 4 -10z m30 -40 c0 -13 -7 -20 -20
-20 -13 0 -20 7 -20 20 0 13 7 20 20 20 13 0 20 -7 20 -20z m60 -44 c0 -3 -4
-8 -10 -11 -5 -3 -10 -1 -10 4 0 6 5 11 10 11 6 0 10 -2 10 -4z"/>
<path d="M4500 926 c0 -9 39 -13 51 -5 10 6 4 9 -18 9 -18 0 -33 -2 -33 -4z"/>
<path d="M4578 913 c-2 -10 -2 -33 0 -51 4 -32 6 -33 46 -30 l41 3 3 48 3 47
-45 0 c-34 0 -45 -4 -48 -17z m80 -34 c-2 -19 -10 -25 -35 -27 -31 -3 -33 -1
-33 27 0 25 4 30 28 33 34 5 45 -4 40 -33z"/>
<path d="M4600 880 c0 -13 7 -20 20 -20 13 0 20 7 20 20 0 13 -7 20 -20 20
-13 0 -20 -7 -20 -20z"/>
<path d="M4504 889 c-3 -6 -2 -15 3 -20 5 -5 9 -1 9 11 0 23 -2 24 -12 9z"/>
<path d="M4348 813 c7 -3 16 -2 19 1 4 3 -2 6 -13 5 -11 0 -14 -3 -6 -6z"/>
<path d="M4280 781 c0 -6 4 -13 10 -16 6 -3 7 1 4 9 -7 18 -14 21 -14 7z"/>
<path d="M4327 752 c3 -7 0 -19 -7 -27 -26 -32 13 -39 68 -12 30 14 28 22 -5
24 -24 1 -25 1 -8 -7 16 -7 17 -9 3 -9 -20 -1 -32 15 -18 24 18 11 11 23 -14
21 -14 0 -22 -6 -19 -14z"/>
<path d="M4395 760 c3 -5 8 -10 11 -10 2 0 4 5 4 10 0 6 -5 10 -11 10 -5 0 -7
-4 -4 -10z"/>
<path d="M4440 741 c0 -6 3 -11 8 -12 41 -4 62 -3 62 3 0 4 -6 8 -12 8 -7 0
-23 3 -35 6 -14 4 -23 2 -23 -5z"/>
<path d="M4283 705 c-3 -9 -3 -18 -1 -21 3 -3 8 4 11 16 6 23 -1 27 -10 5z"/>
<path d="M4350 680 c0 -6 -10 -8 -24 -4 -13 3 -27 1 -30 -5 -4 -6 -4 -11 1
-12 4 0 26 -2 48 -4 28 -2 34 -1 20 5 -11 5 -14 9 -7 9 14 1 17 21 2 21 -5 0
-10 -5 -10 -10z"/>
<path d="M4423 663 c-7 -2 -13 -13 -13 -23 0 -10 -4 -20 -10 -22 -5 -1 -7 -13
-3 -26 5 -19 10 -22 32 -17 33 8 50 30 43 57 -3 14 -1 19 6 14 7 -4 12 -3 12
2 0 14 -34 25 -38 13 -2 -6 -8 -11 -13 -11 -6 0 -7 5 -4 10 7 11 6 11 -12 3z
m24 -59 c-3 -3 -12 -4 -19 -1 -8 3 -5 6 6 6 11 1 17 -2 13 -5z"/>
<path d="M4284 626 c-3 -8 -4 -29 -2 -48 3 -31 5 -33 46 -36 l42 -3 0 50 0 51
-40 0 c-26 0 -43 -5 -46 -14z m76 -36 c0 -28 -3 -30 -35 -30 -32 0 -35 2 -35
30 0 28 3 30 35 30 32 0 35 -2 35 -30z"/>
<path d="M4310 590 c0 -13 7 -20 20 -20 13 0 20 7 20 20 0 13 -7 20 -20 20
-13 0 -20 -7 -20 -20z"/>
<path d="M4436 555 c4 -8 10 -15 14 -15 4 0 13 7 20 15 11 13 8 15 -13 15 -19
0 -25 -4 -21 -15z"/>
<path d="M4540 555 c0 -10 7 -15 18 -13 21 4 19 22 -2 26 -10 2 -16 -3 -16
-13z"/>
<path d="M4390 550 c0 -5 5 -10 10 -10 6 0 10 5 10 10 0 6 -4 10 -10 10 -5 0
-10 -4 -10 -10z"/>
<path d="M4590 550 c0 -5 5 -10 10 -10 6 0 10 5 10 10 0 6 -4 10 -10 10 -5 0
-10 -4 -10 -10z"/>
<path d="M4283 405 c0 -22 2 -30 4 -17 2 12 2 30 0 40 -3 9 -5 -1 -4 -23z"/>
<path d="M4392 395 c0 -16 2 -22 5 -12 2 9 2 23 0 30 -3 6 -5 -1 -5 -18z"/>
<path d="M4512 400 c0 -14 2 -19 5 -12 2 6 2 18 0 25 -3 6 -5 1 -5 -13z"/>
<path d="M4552 395 c0 -16 2 -22 5 -12 2 9 2 23 0 30 -3 6 -5 -1 -5 -18z"/>
<path d="M4362 390 c0 -14 2 -19 5 -12 2 6 2 18 0 25 -3 6 -5 1 -5 -13z"/>
<path d="M4612 390 c0 -14 2 -19 5 -12 2 6 2 18 0 25 -3 6 -5 1 -5 -13z"/>
<path d="M4691 394 c0 -11 3 -14 6 -6 3 7 2 16 -1 19 -3 4 -6 -2 -5 -13z"/>
<path d="M4431 384 c0 -11 3 -14 6 -6 3 7 2 16 -1 19 -3 4 -6 -2 -5 -13z"/>
<path d="M3565 380 c-3 -5 1 -10 9 -10 9 0 16 5 16 10 0 6 -4 10 -9 10 -6 0
-13 -4 -16 -10z"/>
<path d="M3720 380 c0 -5 5 -10 11 -10 5 0 7 5 4 10 -3 6 -8 10 -11 10 -2 0
-4 -4 -4 -10z"/>
<path d="M3755 380 c3 -5 14 -10 23 -10 15 0 15 2 2 10 -20 13 -33 13 -25 0z"/>
<path d="M4450 373 c0 -5 11 -8 25 -8 14 0 25 3 25 8 0 4 -11 7 -25 7 -14 0
-25 -3 -25 -7z"/>
<path d="M4640 376 c0 -2 9 -6 20 -9 11 -3 20 -1 20 4 0 5 -9 9 -20 9 -11 0
-20 -2 -20 -4z"/>
<path d="M3455 320 c-3 -5 -1 -10 4 -10 6 0 11 5 11 10 0 6 -2 10 -4 10 -3 0
-8 -4 -11 -10z"/>
<path d="M3068 313 c7 -3 16 -2 19 1 4 3 -2 6 -13 5 -11 0 -14 -3 -6 -6z"/>
<path d="M3030 120 c0 -5 4 -10 9 -10 6 0 13 5 16 10 3 6 -1 10 -9 10 -9 0
-16 -4 -16 -10z"/>
<path d="M3340 120 c0 -5 5 -10 11 -10 5 0 7 5 4 10 -3 6 -8 10 -11 10 -2 0
-4 -4 -4 -10z"/>
<path d="M3500 120 c0 -5 5 -10 10 -10 6 0 10 5 10 10 0 6 -4 10 -10 10 -5 0
-10 -4 -10 -10z"/>
<path d="M3600 120 c0 -5 5 -10 10 -10 6 0 10 5 10 10 0 6 -4 10 -10 10 -5 0
-10 -4 -10 -10z"/>
<path d="M3815 121 c6 -11 45 -10 45 1 0 4 -12 8 -26 8 -14 0 -23 -4 -19 -9z"/>
</g>
</svg>
