<?xml version="1.0" standalone="no"?>
<!DOCTYPE svg PUBLIC "-//W3C//DTD SVG 20010904//EN"
 "http://www.w3.org/TR/2001/REC-SVG-20010904/DTD/svg10.dtd">
<svg version="1.0" xmlns="http://www.w3.org/2000/svg"
 width="1350.000000pt" height="608.000000pt" viewBox="0 0 1350.000000 608.000000"
 preserveAspectRatio="xMidYMid meet">

<g transform="translate(0.000000,608.000000) scale(0.100000,-0.100000)"
fill="#000000" stroke="none">
<path d="M13490 3045 l0 -3035 -6747 -3 -6748 -2 6753 -3 6752 -2 0 3040 c0
1672 -2 3040 -5 3040 -3 0 -5 -1366 -5 -3035z"/>
<path d="M6920 5633 c0 -21 3 -24 9 -14 5 8 7 20 4 28 -8 21 -13 15 -13 -14z"/>
<path d="M11088 5653 c6 -2 18 -2 25 0 6 3 1 5 -13 5 -14 0 -19 -2 -12 -5z"/>
<path d="M6890 5637 c0 -9 4 -18 9 -21 5 -4 8 1 7 9 -3 21 -16 31 -16 12z"/>
<path d="M6790 5626 c0 -9 5 -16 10 -16 6 0 10 4 10 9 0 6 -4 13 -10 16 -5 3
-10 -1 -10 -9z"/>
<path d="M6820 5631 c0 -10 26 -9 36 2 4 4 -2 7 -14 7 -12 0 -22 -4 -22 -9z"/>
<path d="M11073 5633 c9 -2 25 -2 35 0 9 3 1 5 -18 5 -19 0 -27 -2 -17 -5z"/>
<path d="M11088 5613 c6 -2 18 -2 25 0 6 3 1 5 -13 5 -14 0 -19 -2 -12 -5z"/>
<path d="M12058 5253 c7 -3 16 -2 19 1 4 3 -2 6 -13 5 -11 0 -14 -3 -6 -6z"/>
<path d="M10757 5243 c-3 -5 -1 -17 4 -28 7 -17 8 -17 8 8 1 27 -4 34 -12 20z"/>
<path d="M10674 5228 c-4 -6 -3 -8 4 -4 5 3 13 0 15 -6 3 -8 6 -6 6 5 1 19
-14 23 -25 5z"/>
<path d="M12048 5203 c6 -2 18 -2 25 0 6 3 1 5 -13 5 -14 0 -19 -2 -12 -5z"/>
<path d="M2210 5155 c0 -33 -2 -34 -28 -29 -37 8 -62 -17 -62 -61 0 -43 29
-63 66 -46 15 6 24 7 24 1 0 -6 5 -10 10 -10 6 0 10 37 10 90 0 53 -4 90 -10
90 -5 0 -10 -16 -10 -35z m-12 -57 c17 -17 15 -43 -4 -59 -31 -26 -70 25 -44
56 15 18 32 19 48 3z"/>
<path d="M2270 5175 c0 -8 5 -15 10 -15 6 0 10 7 10 15 0 8 -4 15 -10 15 -5 0
-10 -7 -10 -15z"/>
<path d="M787 5113 c-14 -38 -28 -76 -32 -85 -5 -12 -2 -18 8 -18 8 0 18 11
21 25 5 21 12 25 41 25 29 0 36 -4 41 -25 3 -14 12 -25 20 -25 17 0 17 0 1 41
-8 19 -22 55 -31 82 -10 26 -24 47 -31 47 -7 0 -24 -30 -38 -67z m58 -10 c5
-20 3 -23 -19 -23 -30 0 -29 0 -16 36 11 29 23 24 35 -13z"/>
<path d="M930 5095 c0 -50 4 -85 10 -85 6 0 10 35 10 85 0 50 -4 85 -10 85 -6
0 -10 -35 -10 -85z"/>
<path d="M1103 5170 c-50 -20 -60 -105 -17 -139 27 -21 50 -26 78 -15 27 10
17 24 -13 18 -54 -11 -91 55 -57 101 8 12 26 19 50 19 20 1 34 6 33 11 -5 13
-47 16 -74 5z"/>
<path d="M2000 5095 l0 -85 45 0 c25 0 45 5 45 10 0 6 -13 10 -30 10 -27 0
-30 3 -30 30 0 25 4 30 25 30 14 0 25 5 25 10 0 6 -11 10 -25 10 -20 0 -25 5
-25 25 0 21 5 25 30 25 17 0 30 5 30 10 0 6 -20 10 -45 10 l-45 0 0 -85z"/>
<path d="M1865 5155 c-5 -11 -13 -23 -19 -27 -8 -6 -7 -10 1 -16 6 -4 13 -28
15 -52 2 -38 7 -46 26 -48 12 -2 22 1 22 7 0 6 -7 11 -15 11 -11 0 -15 11 -15
40 0 29 4 40 15 40 8 0 15 5 15 10 0 6 -6 10 -14 10 -8 0 -16 10 -19 23 -3 21
-4 21 -12 2z"/>
<path d="M1500 5146 c0 -8 -6 -17 -12 -19 -10 -4 -10 -8 -1 -14 6 -4 13 -26
15 -47 3 -39 29 -69 45 -52 4 5 2 11 -4 13 -8 3 -13 21 -13 43 0 21 6 41 13
44 10 5 10 7 0 12 -7 3 -13 12 -13 20 0 8 -7 14 -15 14 -8 0 -15 -6 -15 -14z"/>
<path d="M2340 5146 c0 -8 -6 -17 -12 -20 -10 -5 -10 -7 0 -12 7 -3 12 -24 12
-49 0 -35 4 -45 21 -50 27 -9 39 4 16 16 -22 13 -24 79 -2 79 8 0 15 5 15 10
0 6 -7 10 -15 10 -8 0 -15 7 -15 15 0 8 -4 15 -10 15 -5 0 -10 -6 -10 -14z"/>
<path d="M1220 5110 c-11 -11 -20 -29 -20 -40 0 -25 34 -60 58 -60 31 0 62 29
62 59 0 55 -61 80 -100 41z m74 -22 c15 -25 -4 -53 -35 -53 -25 0 -37 30 -25
61 8 20 46 14 60 -8z"/>
<path d="M1350 5070 c0 -46 3 -60 14 -60 11 0 16 14 18 48 3 39 6 47 23 47 17
0 20 -8 23 -47 2 -34 7 -48 18 -48 17 0 20 71 4 101 -12 21 -40 25 -58 7 -9
-9 -12 -9 -12 0 0 7 -7 12 -15 12 -12 0 -15 -13 -15 -60z"/>
<path d="M1590 5110 c-11 -11 -20 -29 -20 -40 0 -28 35 -60 64 -60 37 0 41 18
4 22 -49 5 -48 28 1 28 45 0 51 11 25 48 -19 27 -48 28 -74 2z m64 -15 c4 -11
-2 -15 -24 -15 -29 0 -38 9 -23 23 12 12 41 7 47 -8z"/>
<path d="M1710 5070 c0 -33 4 -60 10 -60 6 0 10 17 10 39 0 41 20 67 45 57 10
-4 15 -19 15 -51 0 -25 5 -45 10 -45 6 0 10 22 10 49 0 59 -18 80 -55 63 -15
-7 -25 -8 -25 -2 0 6 -4 10 -10 10 -6 0 -10 -27 -10 -60z"/>
<path d="M2270 5070 c0 -33 4 -60 10 -60 6 0 10 27 10 60 0 33 -4 60 -10 60
-6 0 -10 -27 -10 -60z"/>
<path d="M2430 5110 c-27 -27 -26 -65 2 -84 30 -21 54 -20 78 4 27 27 26 65
-2 84 -30 21 -54 20 -78 -4z m70 -20 c14 -26 -3 -60 -30 -60 -11 0 -24 9 -30
20 -14 26 3 60 30 60 11 0 24 -9 30 -20z"/>
<path d="M2560 5070 c0 -68 17 -82 22 -17 2 32 8 44 26 52 12 5 22 13 22 17 0
12 -25 9 -38 -4 -9 -9 -12 -9 -12 0 0 7 -4 12 -10 12 -6 0 -10 -27 -10 -60z"/>
<path d="M7622 4876 c7 -8 15 -12 17 -11 5 6 -10 25 -20 25 -5 0 -4 -6 3 -14z"/>
<path d="M7745 4825 c0 -37 4 -65 10 -65 12 0 11 123 -1 127 -5 2 -9 -26 -9
-62z"/>
<path d="M7786 4876 c3 -9 11 -16 16 -16 13 0 5 23 -10 28 -7 2 -10 -2 -6 -12z"/>
<path d="M7995 4825 c0 -37 4 -65 10 -65 6 0 10 17 10 37 0 28 5 38 18 41 14
3 17 -4 17 -37 0 -23 5 -41 11 -41 6 0 9 17 7 43 -3 38 -6 42 -30 45 -20 2
-28 9 -28 23 0 10 -3 19 -7 19 -5 0 -8 -29 -8 -65z"/>
<path d="M8215 4880 c3 -5 8 -10 11 -10 2 0 4 5 4 10 0 6 -5 10 -11 10 -5 0
-7 -4 -4 -10z"/>
<path d="M8445 4825 c0 -37 4 -65 10 -65 6 0 9 26 7 65 -5 84 -17 84 -17 0z"/>
<path d="M8553 4883 c-23 -9 -14 -50 13 -68 18 -11 24 -23 21 -36 -4 -17 -3
-18 9 -8 21 17 17 30 -18 60 -26 21 -30 30 -21 40 10 10 16 9 29 -2 15 -12 17
-12 12 1 -5 16 -25 22 -45 13z"/>
<path d="M8635 4825 c0 -42 4 -65 12 -65 6 0 9 9 6 20 -3 11 0 20 5 20 6 0 16
-9 22 -20 6 -11 15 -20 21 -20 5 0 2 12 -8 26 -13 21 -14 30 -5 45 17 26 4 24
-19 -3 l-18 -23 -1 43 c0 23 -3 42 -8 42 -4 0 -7 -29 -7 -65z"/>
<path d="M8788 4840 c3 -30 -1 -57 -8 -65 -11 -13 -8 -15 16 -14 16 0 23 3 17
6 -9 3 -13 26 -13 64 0 32 -3 59 -7 59 -5 0 -6 -23 -5 -50z"/>
<path d="M8835 4825 c0 -37 4 -65 10 -65 6 0 9 26 7 65 -5 84 -17 84 -17 0z"/>
<path d="M9174 4874 c3 -8 6 -21 6 -26 0 -6 3 -8 7 -4 4 3 20 -15 37 -41 16
-27 30 -43 32 -38 7 28 10 125 3 118 -4 -4 -9 -26 -11 -48 l-3 -40 -24 42
c-24 42 -60 70 -47 37z"/>
<path d="M9555 4879 c-4 -6 -5 -12 -2 -15 2 -3 7 2 10 11 7 17 1 20 -8 4z"/>
<path d="M9588 4826 c-2 -54 0 -66 12 -66 12 0 14 12 12 57 -5 82 -20 87 -24
9z"/>
<path d="M9630 4881 c0 -5 5 -13 10 -16 6 -3 10 -2 10 4 0 5 -4 13 -10 16 -5
3 -10 2 -10 -4z"/>
<path d="M9835 4825 c0 -52 3 -65 15 -65 12 0 15 9 12 41 -4 36 -2 40 14 37
14 -2 20 -13 22 -41 2 -20 6 -37 10 -37 4 0 6 20 4 45 -4 40 -7 45 -28 45 -17
0 -24 6 -24 20 0 11 -6 20 -12 20 -9 0 -13 -20 -13 -65z"/>
<path d="M10060 4879 c0 -5 5 -7 10 -4 6 3 10 8 10 11 0 2 -4 4 -10 4 -5 0
-10 -5 -10 -11z"/>
<path d="M10288 4825 c-2 -53 0 -65 12 -65 12 0 14 12 12 65 -2 36 -7 65 -12
65 -5 0 -10 -29 -12 -65z"/>
<path d="M7579 4853 c-6 -17 -7 -40 -2 -58 7 -25 14 -30 38 -30 26 0 30 4 30
29 0 16 -5 31 -11 33 -7 2 -9 -8 -6 -28 4 -26 2 -30 -14 -27 -16 3 -19 12 -18
56 0 28 -1 52 -3 52 -2 0 -8 -12 -14 -27z"/>
<path d="M7700 4869 c0 -5 5 -7 10 -4 6 3 10 8 10 11 0 2 -4 4 -10 4 -5 0 -10
-5 -10 -11z"/>
<path d="M9040 4873 c0 -6 3 -13 7 -17 11 -11 32 -79 27 -88 -3 -4 4 -8 15 -8
17 0 19 3 11 18 -6 9 -16 35 -23 56 -12 36 -37 62 -37 39z"/>
<path d="M7814 4824 c-9 -34 6 -58 37 -61 l24 -3 -22 10 c-32 13 -30 40 3 40
36 0 29 34 -8 38 -23 3 -29 -2 -34 -24z m51 6 c3 -5 -3 -10 -14 -10 -12 0 -21
5 -21 10 0 6 6 10 14 10 8 0 18 -4 21 -10z"/>
<path d="M7909 4829 c-16 -30 3 -69 33 -68 l23 0 -22 9 c-17 7 -23 18 -23 41
0 28 2 31 25 25 14 -4 25 -2 25 4 0 19 -49 10 -61 -11z"/>
<path d="M8100 4804 c0 -29 4 -44 13 -44 7 0 12 14 12 37 0 28 5 38 18 41 14
3 17 -4 17 -37 0 -27 4 -41 13 -41 10 0 12 11 8 43 -6 41 -7 42 -43 44 l-38 1
0 -44z"/>
<path d="M8210 4805 c0 -29 4 -45 13 -45 8 0 11 14 9 45 -2 25 -8 45 -13 45
-5 0 -9 -20 -9 -45z"/>
<path d="M8267 4843 c-9 -8 -9 -46 -1 -67 4 -10 17 -15 33 -15 24 2 25 2 3 6
-21 4 -24 9 -20 44 3 37 -1 47 -15 32z"/>
<path d="M8305 4840 c3 -5 8 -10 11 -10 2 0 4 5 4 10 0 6 -5 10 -11 10 -5 0
-7 -4 -4 -10z"/>
<path d="M8350 4842 c0 -5 10 -8 22 -8 17 1 22 -4 21 -21 -2 -40 -3 -43 -19
-43 -12 0 -15 6 -11 21 3 13 1 19 -6 16 -7 -2 -12 -12 -12 -23 0 -15 8 -19 35
-20 l35 -2 -4 44 c-3 41 -5 44 -32 44 -16 0 -29 -4 -29 -8z"/>
<path d="M8735 4805 c0 -25 5 -45 10 -45 6 0 9 19 7 45 -2 25 -7 45 -11 45 -3
0 -6 -20 -6 -45z"/>
<path d="M8886 4835 c-3 -8 4 -21 16 -29 12 -9 18 -21 15 -30 -4 -9 -2 -16 4
-16 22 0 22 33 0 51 -12 10 -20 23 -16 29 3 5 2 10 -3 10 -6 0 -12 -7 -16 -15z"/>
<path d="M9022 4823 c-5 -15 -13 -36 -17 -45 -4 -10 -3 -18 2 -18 5 0 14 19
20 42 13 49 10 62 -5 21z"/>
<path d="M9304 4836 c-9 -25 0 -69 16 -74 12 -4 13 -2 3 9 -16 17 -17 51 -1
67 9 9 9 12 0 12 -7 0 -15 -6 -18 -14z"/>
<path d="M9348 4843 c15 -6 16 -55 0 -71 -7 -7 -8 -12 -2 -12 17 0 34 23 34
45 0 23 -18 45 -34 44 -6 0 -5 -3 2 -6z"/>
<path d="M9400 4806 c0 -30 4 -46 13 -46 7 0 12 14 12 37 0 28 5 38 18 41 14
3 17 -4 17 -37 0 -27 4 -41 13 -41 10 0 12 11 8 43 -6 40 -8 42 -43 45 l-38 3
0 -45z"/>
<path d="M9664 4837 c-3 -9 -4 -28 -2 -44 2 -23 8 -28 33 -30 19 -1 22 0 10 4
-42 11 -41 43 1 43 19 0 25 5 22 18 -4 22 -56 29 -64 9z m46 -7 c0 -5 -9 -10
-21 -10 -11 0 -17 5 -14 10 3 6 13 10 21 10 8 0 14 -4 14 -10z"/>
<path d="M9754 4836 c-3 -8 -4 -27 -2 -43 2 -23 8 -28 33 -30 20 -1 23 0 8 4
-24 5 -40 43 -28 63 4 7 16 10 26 7 11 -3 19 -1 19 4 0 15 -50 10 -56 -5z"/>
<path d="M9945 4805 c0 -53 21 -62 22 -9 1 41 6 49 28 41 9 -4 15 -19 15 -42
0 -19 3 -35 8 -35 4 0 6 20 4 45 -4 44 -4 45 -41 45 l-36 0 0 -45z"/>
<path d="M10055 4805 c0 -33 4 -45 15 -45 12 0 14 10 12 45 -2 25 -9 45 -16
45 -6 0 -11 -18 -11 -45z"/>
<path d="M10104 4823 c-9 -33 6 -57 37 -60 l24 -3 -22 10 c-17 7 -23 18 -23
41 0 29 2 31 26 25 17 -5 23 -3 19 4 -3 5 -17 10 -30 10 -18 0 -26 -7 -31 -27z"/>
<path d="M10200 4839 c0 -5 5 -7 10 -4 6 3 10 8 10 11 0 2 -4 4 -10 4 -5 0
-10 -5 -10 -11z"/>
<path d="M10238 4805 c2 -25 8 -45 14 -45 12 0 6 82 -7 87 -6 2 -9 -15 -7 -42z"/>
<path d="M9508 4803 c6 -2 18 -2 25 0 6 3 1 5 -13 5 -14 0 -19 -2 -12 -5z"/>
<path d="M10197 4803 c-16 -16 -6 -43 16 -43 19 1 20 2 5 11 -10 5 -15 16 -12
24 6 16 2 20 -9 8z"/>
<path d="M8540 4775 c0 -8 4 -15 10 -15 5 0 7 7 4 15 -4 8 -8 15 -10 15 -2 0
-4 -7 -4 -15z"/>
<path d="M9175 4770 c-3 -5 1 -10 10 -10 9 0 13 5 10 10 -3 6 -8 10 -10 10 -2
0 -7 -4 -10 -10z"/>
<path d="M11105 4685 c0 -45 4 -65 12 -65 9 0 11 10 7 30 -4 18 -1 36 6 45 9
10 9 15 1 15 -6 0 -11 9 -11 20 0 11 -3 20 -7 20 -5 0 -8 -29 -8 -65z"/>
<path d="M11320 4740 c0 -5 5 -10 10 -10 6 0 10 5 10 10 0 6 -4 10 -10 10 -5
0 -10 -4 -10 -10z"/>
<path d="M11548 4700 c3 -32 0 -55 -8 -65 -10 -12 -9 -15 6 -15 17 0 19 7 16
65 -2 36 -7 65 -11 65 -5 0 -6 -22 -3 -50z"/>
<path d="M11718 4685 c-2 -55 -1 -65 14 -65 11 0 15 6 11 20 -3 11 -1 20 4 20
6 0 18 -9 28 -20 10 -11 30 -20 44 -20 25 0 26 2 23 45 -5 56 -22 60 -22 5 0
-46 -19 -54 -40 -15 -11 20 -11 27 0 40 7 8 9 15 5 15 -4 0 -15 -10 -26 -22
l-18 -23 -1 43 c0 67 -18 49 -22 -23z"/>
<path d="M11825 4740 c3 -5 8 -10 11 -10 2 0 4 5 4 10 0 6 -5 10 -11 10 -5 0
-7 -4 -4 -10z"/>
<path d="M11868 4685 c-2 -53 0 -65 12 -65 12 0 14 12 12 65 -2 36 -7 65 -12
65 -5 0 -10 -29 -12 -65z"/>
<path d="M11918 4685 c-2 -53 0 -65 12 -65 12 0 14 12 12 65 -2 36 -7 65 -12
65 -5 0 -10 -29 -12 -65z"/>
<path d="M10710 4721 c-21 -41 -4 -101 29 -101 23 0 44 24 39 46 -5 29 -24 26
-23 -3 0 -18 -5 -28 -15 -28 -11 0 -15 12 -15 53 1 28 0 52 -2 52 -1 0 -7 -9
-13 -19z"/>
<path d="M10830 4729 c0 -5 5 -7 10 -4 6 3 10 8 10 11 0 2 -4 4 -10 4 -5 0
-10 -5 -10 -11z"/>
<path d="M10868 4680 c-2 -48 0 -60 12 -60 12 0 14 12 12 60 -2 33 -7 60 -12
60 -5 0 -10 -27 -12 -60z"/>
<path d="M10915 4730 c3 -5 8 -10 11 -10 2 0 4 5 4 10 0 6 -5 10 -11 10 -5 0
-7 -4 -4 -10z"/>
<path d="M11633 4723 c-4 -10 3 -24 20 -39 28 -24 36 -54 14 -54 -7 0 -19 6
-26 13 -11 10 -13 9 -9 -3 6 -21 49 -19 62 3 9 15 6 22 -18 42 -19 15 -27 29
-23 39 4 9 2 16 -4 16 -5 0 -12 -7 -16 -17z"/>
<path d="M10946 4704 c-32 -31 -14 -85 29 -83 19 0 19 1 -2 9 -31 13 -30 40 2
40 30 0 34 25 6 40 -15 7 -23 6 -35 -6z m34 -15 c0 -5 -7 -9 -15 -9 -15 0 -20
12 -9 23 8 8 24 -1 24 -14z"/>
<path d="M11037 4708 c-35 -19 -11 -99 25 -85 9 4 8 6 -3 6 -21 1 -31 38 -18
63 8 15 13 17 25 7 8 -7 14 -7 14 -1 0 15 -24 21 -43 10z"/>
<path d="M11153 4707 c4 -10 7 -34 7 -53 0 -21 5 -34 13 -34 18 0 9 76 -11 92
-13 11 -15 10 -9 -5z"/>
<path d="M11233 4713 c-17 -3 -22 -13 -25 -49 -2 -35 0 -44 12 -44 12 0 15 8
12 36 -3 23 0 39 9 44 20 13 29 2 29 -35 0 -19 5 -37 10 -40 14 -9 13 68 -2
83 -7 7 -14 11 -17 11 -4 -1 -16 -4 -28 -6z"/>
<path d="M11318 4665 c-2 -35 0 -45 12 -45 12 0 14 10 12 45 -2 25 -8 45 -12
45 -4 0 -10 -20 -12 -45z"/>
<path d="M11364 4686 c-8 -33 12 -66 39 -65 22 0 22 0 -2 10 -19 8 -23 15 -19
44 5 40 -8 48 -18 11z"/>
<path d="M11450 4700 c0 -5 5 -10 10 -10 6 0 10 5 10 10 0 6 -4 10 -10 10 -5
0 -10 -4 -10 -10z"/>
<path d="M11495 4668 c0 -23 5 -43 10 -45 7 -2 9 12 7 37 -5 54 -18 59 -17 8z"/>
<path d="M11970 4690 c0 -11 7 -23 15 -26 8 -4 15 -13 15 -21 0 -9 -6 -13 -15
-9 -8 3 -15 1 -15 -4 0 -16 40 -11 46 5 3 8 -6 29 -20 46 -23 27 -26 28 -26 9z"/>
<path d="M806 4691 c-4 -7 -5 -15 -2 -18 9 -9 19 4 14 18 -4 11 -6 11 -12 0z"/>
<path d="M1330 4682 c0 -13 -7 -18 -21 -18 -12 1 -24 -6 -26 -14 -4 -12 -3
-13 5 -1 12 17 42 7 42 -14 0 -21 -30 -31 -42 -14 -8 12 -9 11 -5 -1 2 -8 16
-15 30 -16 26 -1 27 1 27 47 0 27 -2 49 -5 49 -3 0 -5 -8 -5 -18z"/>
<path d="M1991 4655 c-1 -47 1 -51 24 -53 13 -1 26 2 29 6 3 5 -5 8 -17 8 -16
-1 -22 5 -22 19 0 14 6 20 22 19 12 0 19 4 16 9 -3 5 -14 7 -24 4 -12 -3 -19
2 -22 17 -2 11 -5 -2 -6 -29z"/>
<path d="M2862 4650 c0 -41 2 -47 7 -25 9 43 38 45 44 3 l5 -33 -2 35 c-1 28
-5 35 -21 35 -11 0 -23 9 -27 20 -3 11 -6 -4 -6 -35z"/>
<path d="M3945 4690 c-3 -5 -1 -10 4 -10 6 0 11 5 11 10 0 6 -2 10 -4 10 -3 0
-8 -4 -11 -10z"/>
<path d="M4013 4650 c0 -30 2 -43 4 -27 2 15 2 39 0 55 -2 15 -4 2 -4 -28z"/>
<path d="M2539 4679 c-2 -27 3 -64 9 -71 4 -4 6 11 5 33 -1 39 -12 67 -14 38z"/>
<path d="M2819 4679 c-2 -27 3 -64 9 -71 4 -4 6 11 5 33 -1 39 -12 67 -14 38z"/>
<path d="M851 4654 c0 -11 3 -14 6 -6 3 7 2 16 -1 19 -3 4 -6 -2 -5 -13z"/>
<path d="M893 4635 c0 -22 2 -30 4 -17 2 12 2 30 0 40 -3 9 -5 -1 -4 -23z"/>
<path d="M943 4635 c0 -22 2 -30 4 -17 2 12 2 30 0 40 -3 9 -5 -1 -4 -23z"/>
<path d="M968 4663 c6 -2 18 -2 25 0 6 3 1 5 -13 5 -14 0 -19 -2 -12 -5z"/>
<path d="M1027 4663 c-3 -5 5 -8 18 -8 13 0 21 3 18 8 -2 4 -10 7 -18 7 -8 0
-16 -3 -18 -7z"/>
<path d="M1153 4664 c21 -7 23 -24 3 -24 -8 0 -17 -4 -20 -9 -4 -5 3 -7 13 -4
13 3 21 -1 24 -14 3 -10 5 -2 4 17 -2 27 -7 35 -22 37 -16 1 -16 1 -2 -3z"/>
<path d="M1201 4630 l1 -35 7 30 c3 17 13 30 21 30 8 0 18 -13 21 -30 6 -27 7
-27 8 -5 1 34 -11 49 -37 47 -18 -1 -22 -7 -21 -37z"/>
<path d="M1407 4663 c-17 -16 -6 -33 21 -32 23 2 24 2 5 6 -13 2 -23 9 -23 15
0 6 9 8 20 5 11 -3 18 -1 14 4 -6 11 -28 12 -37 2z"/>
<path d="M1479 4654 c-14 -17 -3 -45 22 -52 8 -2 5 2 -5 10 -25 20 -14 53 14
45 11 -3 18 -1 14 4 -8 14 -30 11 -45 -7z"/>
<path d="M1563 4635 c0 -22 2 -30 4 -17 2 12 2 30 0 40 -3 9 -5 -1 -4 -23z"/>
<path d="M1588 4663 c6 -2 18 -2 25 0 6 3 1 5 -13 5 -14 0 -19 -2 -12 -5z"/>
<path d="M1670 4665 c0 -5 5 -17 10 -25 5 -8 10 -10 10 -5 0 6 -5 17 -10 25
-5 8 -10 11 -10 5z"/>
<path d="M1750 4655 c-22 -27 17 -72 41 -48 6 6 2 9 -13 9 -17 -1 -23 5 -23
19 0 14 6 20 22 19 12 0 20 3 17 8 -8 13 -30 9 -44 -7z"/>
<path d="M1873 4635 c0 -22 2 -30 4 -17 2 12 2 30 0 40 -3 9 -5 -1 -4 -23z"/>
<path d="M1915 4660 c-3 -6 1 -7 9 -4 18 7 21 14 7 14 -6 0 -13 -4 -16 -10z"/>
<path d="M2115 4660 c-4 -6 1 -7 11 -3 11 4 22 -1 30 -12 8 -10 14 -14 14 -9
0 26 -42 44 -55 24z"/>
<path d="M2196 4663 c-3 -3 -6 -11 -6 -17 0 -6 4 -5 9 3 11 17 41 7 41 -14 0
-21 -30 -31 -42 -14 -8 12 -9 11 -5 -1 2 -8 14 -15 26 -14 28 1 21 -19 -10
-27 -21 -6 -21 -7 -3 -8 29 -1 44 18 44 59 0 30 -4 36 -24 38 -13 1 -26 -1
-30 -5z"/>
<path d="M2311 4615 c1 -27 4 -40 6 -29 3 15 10 20 22 17 10 -3 21 -1 24 4 3
5 -4 9 -16 9 -16 -1 -22 5 -22 19 0 14 6 20 22 19 12 0 20 3 17 8 -3 4 -16 7
-29 6 -23 -2 -25 -6 -24 -53z"/>
<path d="M2400 4655 c-22 -27 17 -72 41 -48 6 6 2 9 -13 9 -17 -1 -23 5 -23
19 0 14 6 20 22 19 12 0 20 3 17 8 -8 13 -30 9 -44 -7z"/>
<path d="M2475 4660 c-8 -13 3 -30 18 -29 9 0 9 2 0 6 -18 7 -16 21 5 26 15 4
15 5 0 6 -9 0 -20 -3 -23 -9z"/>
<path d="M2584 4658 c-4 -6 0 -16 9 -23 22 -16 21 -22 0 -28 -16 -4 -16 -5 -1
-6 24 -2 34 20 15 34 -22 16 -21 22 1 28 15 4 15 5 0 6 -9 0 -20 -4 -24 -11z"/>
<path d="M2783 4635 c0 -22 2 -30 4 -17 2 12 2 30 0 40 -3 9 -5 -1 -4 -23z"/>
<path d="M2987 4663 c-17 -16 -6 -33 21 -32 23 2 24 2 5 6 -13 2 -23 9 -23 15
0 6 9 8 20 5 11 -3 18 -1 14 4 -6 11 -28 12 -37 2z"/>
<path d="M3060 4666 c0 -2 9 -6 20 -9 11 -3 20 -1 20 4 0 5 -9 9 -20 9 -11 0
-20 -2 -20 -4z"/>
<path d="M3125 4660 c-8 -13 3 -30 18 -29 9 0 9 2 0 6 -18 7 -16 21 5 26 15 4
15 5 0 6 -9 0 -20 -3 -23 -9z"/>
<path d="M3192 4658 c-19 -19 -14 -28 18 -28 17 0 30 4 30 9 0 4 -11 6 -25 3
-31 -6 -33 6 -2 18 13 5 16 9 7 9 -9 1 -21 -4 -28 -11z"/>
<path d="M3343 4635 c0 -22 2 -30 4 -17 2 12 2 30 0 40 -3 9 -5 -1 -4 -23z"/>
<path d="M3375 4660 c-8 -13 3 -30 18 -29 9 0 9 2 0 6 -18 7 -16 21 5 26 15 4
15 5 0 6 -9 0 -20 -3 -23 -9z"/>
<path d="M3473 4635 c0 -22 2 -30 4 -17 2 12 2 30 0 40 -3 9 -5 -1 -4 -23z"/>
<path d="M3490 4666 c0 -2 7 -7 16 -10 8 -3 12 -2 9 4 -6 10 -25 14 -25 6z"/>
<path d="M3557 4663 c-3 -5 5 -8 18 -8 13 0 21 3 18 8 -2 4 -10 7 -18 7 -8 0
-16 -3 -18 -7z"/>
<path d="M3675 4660 c-4 -6 1 -7 11 -3 11 4 22 -1 30 -12 8 -10 14 -14 14 -9
0 26 -42 44 -55 24z"/>
<path d="M3752 4642 c-2 -35 20 -54 40 -34 8 8 5 9 -10 5 -17 -4 -21 0 -25 29
l-4 33 -1 -33z"/>
<path d="M3833 4635 c0 -22 2 -30 4 -17 2 12 2 30 0 40 -3 9 -5 -1 -4 -23z"/>
<path d="M4071 4667 c2 -1 13 -9 24 -17 19 -14 19 -14 6 3 -7 9 -18 17 -24 17
-6 0 -8 -1 -6 -3z"/>
<path d="M4135 4660 c-4 -6 1 -7 11 -3 11 4 22 -1 30 -12 8 -10 14 -14 14 -9
0 26 -42 44 -55 24z"/>
<path d="M4317 4663 c-17 -16 -6 -33 21 -32 23 2 24 2 5 6 -13 2 -23 9 -23 15
0 6 9 8 20 5 11 -3 18 -1 14 4 -6 11 -28 12 -37 2z"/>
<path d="M4381 4630 c1 -27 3 -29 6 -10 2 14 11 30 20 37 13 10 13 12 -6 10
-17 -1 -21 -7 -20 -37z"/>
<path d="M4437 4663 c-18 -17 -5 -33 26 -32 30 2 30 2 5 6 -16 2 -28 9 -28 15
0 6 9 8 20 5 11 -3 18 -1 14 4 -6 11 -28 12 -37 2z"/>
<path d="M4509 4654 c-14 -17 -3 -45 22 -52 8 -2 5 2 -5 10 -25 20 -14 53 14
45 11 -3 18 -1 14 4 -8 14 -30 11 -45 -7z"/>
<path d="M4629 4654 c-16 -19 -1 -48 27 -51 15 -2 14 -1 -3 7 -13 5 -23 16
-23 25 0 9 10 20 23 25 15 6 17 9 6 9 -9 1 -22 -6 -30 -15z"/>
<path d="M4695 4660 c-4 -6 -4 -14 -1 -17 3 -4 6 -1 6 5 0 19 38 14 44 -5 4
-14 4 -14 3 2 -2 22 -41 33 -52 15z"/>
<path d="M4771 4631 c1 -36 1 -36 8 -6 8 40 38 46 44 8 4 -28 4 -28 3 2 -1 26
-5 30 -28 31 -26 1 -28 -2 -27 -35z"/>
<path d="M4858 4663 c7 -3 16 -2 19 1 4 3 -2 6 -13 5 -11 0 -14 -3 -6 -6z"/>
<path d="M4907 4663 c-17 -16 -6 -33 21 -32 23 2 24 2 5 6 -13 2 -23 9 -23 15
0 6 9 8 20 5 11 -3 18 -1 14 4 -6 11 -28 12 -37 2z"/>
<path d="M4971 4631 c1 -36 1 -36 8 -6 8 40 38 46 44 8 4 -28 4 -28 3 2 -1 26
-5 30 -28 31 -26 1 -28 -2 -27 -35z"/>
<path d="M5058 4663 c7 -3 16 -2 19 1 4 3 -2 6 -13 5 -11 0 -14 -3 -6 -6z"/>
<path d="M11444 4655 c-8 -19 3 -35 24 -35 14 0 14 2 3 9 -8 5 -11 16 -8 25 4
9 2 16 -4 16 -5 0 -12 -7 -15 -15z"/>
<path d="M1023 4633 c9 -2 25 -2 35 0 9 3 1 5 -18 5 -19 0 -27 -2 -17 -5z"/>
<path d="M3055 4630 c-3 -5 -3 -14 0 -20 8 -12 45 -13 45 -1 0 5 -9 7 -20 4
-11 -3 -20 -1 -20 5 0 6 10 13 23 15 22 4 22 4 0 6 -12 0 -25 -3 -28 -9z"/>
<path d="M3542 4631 c7 -25 36 -37 50 -23 11 11 9 12 -6 6 -13 -5 -24 -1 -34
12 -8 10 -12 13 -10 5z"/>
<path d="M3920 4632 c0 -5 14 -7 30 -4 17 2 30 6 30 8 0 2 -13 4 -30 4 -16 0
-30 -4 -30 -8z"/>
<path d="M4210 4635 c0 -5 5 -17 10 -25 5 -8 10 -10 10 -5 0 6 -5 17 -10 25
-5 8 -10 11 -10 5z"/>
<path d="M7702 4628 c-20 -20 -14 -48 13 -60 30 -13 34 -48 6 -48 -11 0 -22 5
-24 10 -3 6 -4 5 -3 -2 2 -7 16 -13 32 -13 40 0 46 37 10 61 -14 9 -26 25 -26
35 0 20 15 26 25 9 3 -5 11 -10 17 -10 7 0 6 6 -2 15 -15 18 -32 19 -48 3z"/>
<path d="M8338 4575 c-3 -64 -2 -65 22 -65 18 0 21 3 12 9 -8 4 -13 19 -12 32
4 48 0 89 -9 89 -5 0 -11 -29 -13 -65z"/>
<path d="M8400 4631 c0 -5 5 -13 10 -16 6 -3 10 -2 10 4 0 5 -4 13 -10 16 -5
3 -10 2 -10 -4z"/>
<path d="M8800 4620 c0 -15 -7 -20 -25 -20 -18 0 -26 -7 -31 -24 -7 -30 11
-66 34 -66 16 1 16 1 0 11 -26 15 -24 69 1 69 16 0 20 -8 23 -37 6 -66 23 -47
20 22 -2 36 -8 65 -13 65 -5 0 -9 -9 -9 -20z"/>
<path d="M9071 4603 c1 -21 3 -30 6 -20 7 27 16 21 43 -28 14 -25 28 -45 31
-45 10 0 16 121 7 126 -4 3 -8 -17 -10 -43 l-3 -48 -28 48 c-16 26 -33 47 -38
47 -5 0 -8 -17 -8 -37z"/>
<path d="M9437 4620 c3 -11 0 -20 -6 -20 -9 0 -9 -5 -1 -20 14 -27 3 -62 -18
-58 -21 4 -28 44 -11 64 6 8 9 17 6 20 -3 3 -13 -5 -21 -19 -26 -38 -7 -77 36
-75 l33 1 -3 64 c-2 34 -7 63 -12 63 -4 0 -6 -9 -3 -20z"/>
<path d="M9808 4576 c-2 -55 0 -66 13 -66 12 0 14 7 11 30 -4 28 -2 30 27 30
26 0 31 -4 31 -24 0 -13 -6 -27 -12 -29 -7 -3 0 -6 16 -6 24 -1 26 1 16 13 -6
9 -10 36 -9 62 2 31 -1 49 -9 52 -8 2 -10 -6 -6 -27 6 -29 5 -31 -25 -31 -29
0 -32 3 -29 27 2 14 -2 28 -9 30 -7 3 -12 -17 -15 -61z"/>
<path d="M770 4621 c0 -5 5 -13 10 -16 6 -3 10 -2 10 4 0 5 -4 13 -10 16 -5 3
-10 2 -10 -4z"/>
<path d="M837 4623 c-4 -3 -7 -11 -7 -17 0 -6 5 -5 12 2 6 6 9 14 7 17 -3 3
-9 2 -12 -2z"/>
<path d="M4094 4619 c-3 -6 -15 -9 -25 -6 -11 3 -17 1 -13 -4 8 -14 30 -11 44
6 7 8 10 15 7 15 -3 0 -9 -5 -13 -11z"/>
<path d="M4693 4620 c5 -18 35 -26 50 -11 7 7 3 8 -13 4 -13 -4 -26 0 -32 8
-8 12 -9 11 -5 -1z"/>
<path d="M1028 4608 c6 -6 18 -8 28 -6 14 3 12 5 -9 10 -19 3 -25 2 -19 -4z"/>
<path d="M1408 4608 c6 -6 18 -8 28 -6 14 3 12 5 -9 10 -19 3 -25 2 -19 -4z"/>
<path d="M1690 4601 c0 -11 -5 -22 -10 -24 -6 -3 -5 -4 1 -3 15 3 32 46 19 46
-6 0 -10 -9 -10 -19z"/>
<path d="M1830 4610 c0 -6 7 -10 15 -10 8 0 15 2 15 4 0 2 -7 6 -15 10 -8 3
-15 1 -15 -4z"/>
<path d="M2117 4608 c2 -5 10 -8 18 -8 8 0 16 3 18 8 3 4 -5 7 -18 7 -13 0
-21 -3 -18 -7z"/>
<path d="M2988 4608 c6 -6 18 -8 28 -6 14 3 12 5 -9 10 -19 3 -25 2 -19 -4z"/>
<path d="M3198 4608 c5 -5 16 -8 23 -6 8 3 3 7 -10 11 -17 4 -21 3 -13 -5z"/>
<path d="M3300 4610 c0 -6 7 -10 15 -10 8 0 15 2 15 4 0 2 -7 6 -15 10 -8 3
-15 1 -15 -4z"/>
<path d="M3677 4608 c2 -5 10 -8 18 -8 8 0 16 3 18 8 3 4 -5 7 -18 7 -13 0
-21 -3 -18 -7z"/>
<path d="M4137 4608 c2 -5 10 -8 18 -8 8 0 16 3 18 8 3 4 -5 7 -18 7 -13 0
-21 -3 -18 -7z"/>
<path d="M4318 4608 c6 -6 18 -8 28 -6 14 3 12 5 -9 10 -19 3 -25 2 -19 -4z"/>
<path d="M4438 4608 c6 -6 18 -8 28 -6 14 3 12 5 -9 10 -19 3 -25 2 -19 -4z"/>
<path d="M4908 4608 c6 -6 18 -8 28 -6 14 3 12 5 -9 10 -19 3 -25 2 -19 -4z"/>
<path d="M7787 4613 c-2 -5 -2 -29 1 -55 3 -36 8 -48 21 -48 13 0 13 2 2 9
-10 6 -12 21 -8 50 4 36 -5 64 -16 44z"/>
<path d="M8020 4609 c0 -6 -8 -9 -20 -6 -11 3 -22 1 -25 -4 -3 -4 -11 -6 -18
-3 -9 3 -12 -9 -13 -41 0 -39 3 -45 20 -45 15 0 17 3 8 9 -8 5 -12 21 -10 37
2 23 8 29 31 31 25 2 27 -1 27 -38 0 -34 3 -39 23 -38 12 0 16 3 10 6 -8 3
-13 23 -13 48 0 24 -4 47 -10 50 -5 3 -10 1 -10 -6z"/>
<path d="M9604 4607 c-3 -8 -4 -32 -2 -53 2 -30 8 -40 23 -42 15 -2 17 -1 6 6
-10 7 -12 22 -8 51 5 40 -8 66 -19 38z"/>
<path d="M1138 4603 c7 -3 16 -2 19 1 4 3 -2 6 -13 5 -11 0 -14 -3 -6 -6z"/>
<path d="M2478 4603 c6 -2 18 -2 25 0 6 3 1 5 -13 5 -14 0 -19 -2 -12 -5z"/>
<path d="M3128 4603 c6 -2 18 -2 25 0 6 3 1 5 -13 5 -14 0 -19 -2 -12 -5z"/>
<path d="M3378 4603 c6 -2 18 -2 25 0 6 3 1 5 -13 5 -14 0 -19 -2 -12 -5z"/>
<path d="M8680 4600 c0 -6 5 -10 10 -10 6 0 10 -18 10 -40 0 -31 4 -40 17 -40
13 0 14 3 5 12 -7 7 -12 26 -12 44 0 19 -6 34 -15 38 -8 3 -15 1 -15 -4z"/>
<path d="M8866 4597 c-12 -9 -17 -24 -14 -47 3 -31 6 -35 33 -37 18 -1 22 1 8
3 -34 8 -36 31 -2 38 33 6 39 30 10 45 -13 7 -23 6 -35 -2z m27 -28 c-17 -17
-37 -1 -22 17 8 10 15 12 23 4 7 -7 7 -13 -1 -21z"/>
<path d="M8980 4600 c0 -13 18 -22 24 -11 3 5 -1 11 -9 15 -8 3 -15 1 -15 -4z"/>
<path d="M9206 4594 c-19 -18 -21 -55 -4 -72 14 -14 44 -16 52 -4 3 5 -4 8
-16 8 -12 -1 -23 5 -25 12 -3 7 4 12 16 12 26 0 39 27 21 43 -10 10 -12 8 -7
-5 7 -21 -10 -35 -25 -20 -8 8 -7 16 2 27 16 20 6 20 -14 -1z"/>
<path d="M9300 4590 c-23 -23 -24 -33 -10 -61 7 -12 21 -19 38 -18 27 1 27 1
3 8 -30 8 -40 31 -14 31 28 0 44 15 38 33 -10 25 -34 28 -55 7z m33 -21 c-17
-17 -37 -1 -22 17 8 10 15 12 23 4 7 -7 7 -13 -1 -21z"/>
<path d="M9516 4597 c3 -10 9 -15 12 -12 3 3 0 11 -7 18 -10 9 -11 8 -5 -6z"/>
<path d="M9708 4599 c6 -7 12 -28 12 -46 0 -26 -4 -33 -20 -33 -11 0 -21 5
-21 10 -1 6 -2 16 -3 23 -1 6 2 20 7 31 7 14 6 17 -5 14 -18 -6 -23 -55 -7
-74 15 -18 48 -15 62 7 13 21 1 65 -20 73 -15 6 -16 5 -5 -5z"/>
<path d="M10146 4594 c-19 -18 -21 -55 -4 -72 14 -14 44 -16 52 -4 3 5 -4 8
-16 8 -31 -1 -33 21 -3 28 30 8 33 31 6 46 -15 7 -23 6 -35 -6z m34 -28 c-13
-13 -35 7 -25 24 5 8 11 8 21 -1 10 -8 12 -15 4 -23z"/>
<path d="M7850 4589 c0 -5 5 -7 10 -4 6 3 10 8 10 11 0 2 -4 4 -10 4 -5 0 -10
-5 -10 -11z"/>
<path d="M7892 4559 c2 -23 8 -44 13 -46 7 -2 9 12 7 37 -6 55 -24 64 -20 9z"/>
<path d="M8080 4568 c0 -46 10 -57 48 -56 24 1 32 5 27 15 -3 8 -5 28 -5 44 0
16 -3 29 -7 29 -5 0 -8 -17 -8 -37 0 -28 -5 -38 -17 -41 -15 -3 -18 4 -18 37
0 23 -4 41 -10 41 -5 0 -10 -15 -10 -32z"/>
<path d="M8190 4536 c0 -49 4 -66 14 -66 9 0 12 8 9 24 -4 21 -2 23 21 19 20
-4 26 -1 31 20 12 46 3 62 -38 65 l-37 3 0 -65z m60 18 c0 -28 -3 -35 -17 -32
-12 2 -19 14 -21 36 -3 27 0 32 17 32 17 0 21 -6 21 -36z"/>
<path d="M8429 4579 c-18 -34 4 -71 39 -67 23 2 28 8 30 37 2 18 -1 38 -6 43
-6 6 -9 -5 -8 -29 1 -32 -2 -38 -19 -38 -17 0 -20 6 -19 38 1 43 -1 45 -17 16z"/>
<path d="M8530 4568 c0 -46 10 -57 48 -56 24 1 32 5 27 15 -3 8 -5 28 -5 44 0
16 -3 29 -7 29 -5 0 -8 -17 -8 -37 0 -28 -5 -38 -17 -41 -15 -3 -18 4 -18 37
0 23 -4 41 -10 41 -5 0 -10 -15 -10 -32z"/>
<path d="M8638 4555 c-2 -35 0 -45 12 -45 12 0 14 10 12 45 -2 25 -8 45 -12
45 -4 0 -10 -20 -12 -45z"/>
<path d="M8945 4555 c0 -38 3 -45 20 -45 15 0 17 2 6 9 -10 6 -12 19 -7 45 5
26 3 36 -6 36 -9 0 -13 -15 -13 -45z"/>
<path d="M9486 4591 c-5 -8 0 -22 14 -36 12 -13 19 -28 15 -34 -3 -6 -1 -11 5
-11 21 0 23 32 3 49 -11 9 -23 23 -25 31 -3 11 -6 11 -12 1z"/>
<path d="M9986 4565 c3 -35 -8 -51 -26 -40 -8 5 -7 12 2 23 11 13 11 14 -2 10
-8 -2 -16 -14 -18 -26 -3 -19 1 -21 32 -20 38 1 44 14 30 66 -10 34 -21 26
-18 -13z"/>
<path d="M10035 4583 c4 -10 12 -30 17 -45 11 -31 23 -36 32 -12 3 8 2 13 -3
10 -10 -7 -33 49 -24 58 4 3 -2 6 -11 6 -13 0 -16 -5 -11 -17z"/>
<path d="M10100 4589 c0 -5 5 -7 10 -4 6 3 10 8 10 11 0 2 -4 4 -10 4 -5 0
-10 -5 -10 -11z"/>
<path d="M3570 4580 c-23 -7 -23 -8 -3 -9 12 -1 25 4 28 9 3 6 5 10 3 9 -2 -1
-14 -5 -28 -9z"/>
<path d="M7844 4545 c-8 -19 3 -35 24 -35 14 0 14 2 3 9 -8 5 -11 16 -8 25 4
9 2 16 -4 16 -5 0 -12 -7 -15 -15z"/>
<path d="M9068 4538 c-4 -23 -2 -28 15 -28 14 0 17 3 10 13 -6 6 -12 19 -15
27 -3 9 -7 4 -10 -12z"/>
<path d="M9480 4520 c0 -5 5 -10 11 -10 5 0 7 5 4 10 -3 6 -8 10 -11 10 -2 0
-4 -4 -4 -10z"/>
<path d="M10762 4505 c-16 -35 -15 -43 2 -20 12 17 14 14 27 -33 7 -29 16 -52
21 -52 11 0 10 10 -8 66 -22 64 -28 70 -42 39z"/>
<path d="M10888 4465 c2 -36 7 -65 12 -65 4 0 5 20 2 45 -2 25 -1 45 4 45 5 0
20 -18 34 -40 27 -44 40 -50 40 -19 0 11 -4 18 -8 15 -4 -2 -20 15 -36 40 -40
63 -52 58 -48 -21z"/>
<path d="M10966 4515 c4 -8 7 -15 9 -15 2 0 5 7 9 15 3 9 0 15 -9 15 -9 0 -12
-6 -9 -15z"/>
<path d="M11260 4513 c0 -15 2 -16 10 -3 16 26 32 -4 29 -54 -3 -26 0 -47 7
-50 7 -3 9 16 6 55 -4 48 -2 59 11 59 8 0 18 -6 20 -12 3 -8 6 -6 6 5 1 14 -8
17 -44 17 -36 0 -45 -3 -45 -17z"/>
<path d="M11536 4470 c1 -33 5 -60 9 -60 7 0 9 27 6 100 -1 11 -4 20 -8 20 -5
0 -7 -27 -7 -60z"/>
<path d="M11750 4519 c0 -5 5 -7 10 -4 6 3 10 8 10 11 0 2 -4 4 -10 4 -5 0
-10 -5 -10 -11z"/>
<path d="M11970 4471 c0 -33 5 -63 10 -66 6 -4 10 18 10 59 0 37 -4 66 -10 66
-6 0 -10 -26 -10 -59z"/>
<path d="M880 4482 c0 -13 -7 -18 -21 -18 -12 1 -24 -6 -26 -14 -4 -12 -3 -13
5 -1 12 17 42 7 42 -14 0 -21 -30 -31 -42 -14 -8 12 -9 11 -5 -1 2 -8 16 -15
30 -16 26 -1 27 1 27 47 0 27 -2 49 -5 49 -3 0 -5 -8 -5 -18z"/>
<path d="M1200 4450 c0 -48 1 -50 28 -49 23 2 24 2 5 6 -27 5 -31 39 -5 46 16
4 16 5 0 6 -10 0 -18 7 -18 15 0 8 8 17 18 19 13 4 11 5 -5 6 -21 1 -23 -3
-23 -49z"/>
<path d="M3193 4450 c0 -30 2 -43 4 -27 2 15 2 39 0 55 -2 15 -4 2 -4 -28z"/>
<path d="M3602 4483 c-4 -10 -5 -34 -1 -53 l6 -35 3 35 c1 19 2 39 1 44 -1 5
4 13 11 17 9 6 10 9 1 9 -7 0 -16 -8 -21 -17z"/>
<path d="M3873 4450 c0 -30 2 -43 4 -27 2 15 2 39 0 55 -2 15 -4 2 -4 -28z"/>
<path d="M4093 4450 c0 -30 1 -47 4 -37 5 18 5 18 26 0 22 -18 22 -18 5 3 -17
19 -17 21 0 39 17 19 17 19 -5 1 -21 -18 -22 -18 -26 16 -2 20 -4 11 -4 -22z"/>
<path d="M11022 4488 c-19 -19 -15 -66 7 -78 11 -5 22 -10 25 -10 12 0 36 33
36 50 0 21 -25 50 -44 50 -6 0 -17 -5 -24 -12z m43 -39 c0 -24 -5 -34 -15 -34
-16 0 -25 37 -16 62 10 26 31 8 31 -28z"/>
<path d="M11110 4455 c0 -59 17 -67 22 -10 2 29 -1 46 -9 50 -9 3 -13 -8 -13
-40z"/>
<path d="M11158 4488 c7 -7 12 -27 12 -45 0 -18 5 -33 10 -33 6 0 10 15 10 33
0 33 -15 57 -34 57 -6 0 -5 -5 2 -12z"/>
<path d="M11371 4486 c-28 -33 11 -108 40 -79 8 8 6 11 -7 10 -15 -2 -19 6
-21 36 -2 26 2 37 10 34 7 -2 11 -12 11 -21 -1 -9 4 -16 12 -16 17 0 18 22 2
38 -16 16 -33 15 -47 -2z"/>
<path d="M11462 4488 c-26 -26 -8 -88 25 -88 8 0 6 7 -7 20 -31 31 -21 77 15
64 13 -5 16 -4 11 4 -9 15 -29 15 -44 0z"/>
<path d="M11578 4488 c7 -7 12 -27 12 -44 0 -18 5 -36 10 -39 14 -9 13 68 -2
83 -7 7 -17 12 -22 12 -6 0 -5 -5 2 -12z"/>
<path d="M11640 4458 c0 -21 0 -41 -1 -45 0 -4 4 -9 10 -11 5 -2 11 16 13 40
4 55 31 61 36 8 2 -19 7 -39 12 -44 6 -6 7 7 4 30 -9 60 -11 63 -44 61 -28 -2
-30 -5 -30 -39z"/>
<path d="M11748 4456 c-2 -28 1 -47 8 -50 8 -3 10 11 8 41 -5 61 -11 65 -16 9z"/>
<path d="M11800 4480 c-21 -40 15 -99 43 -71 6 6 2 9 -9 8 -15 -2 -20 6 -22
36 -2 27 1 37 12 37 8 0 17 -5 19 -10 3 -6 4 -5 3 2 -4 22 -34 20 -46 -2z"/>
<path d="M11887 4493 c-4 -3 -7 -11 -7 -17 0 -6 5 -5 12 2 21 21 28 13 28 -28
0 -22 5 -40 10 -40 17 0 12 77 -6 84 -20 8 -29 8 -37 -1z"/>
<path d="M948 4477 c-7 -21 6 -70 20 -73 7 -1 8 0 2 3 -12 6 -13 50 -1 55 5 2
3 8 -4 15 -10 9 -14 9 -17 0z"/>
<path d="M1869 4479 c-2 -27 3 -64 9 -71 4 -4 6 11 5 33 -1 39 -12 67 -14 38z"/>
<path d="M2388 4477 c-7 -21 6 -70 20 -73 7 -1 8 0 2 3 -12 6 -13 50 -1 55 5
2 3 8 -4 15 -10 9 -14 9 -17 0z"/>
<path d="M767 4463 c-3 -5 5 -8 18 -8 13 0 21 3 18 8 -2 4 -10 7 -18 7 -8 0
-16 -3 -18 -7z"/>
<path d="M913 4435 c0 -22 2 -30 4 -17 2 12 2 30 0 40 -3 9 -5 -1 -4 -23z"/>
<path d="M1000 4455 c-22 -27 17 -72 41 -48 6 6 2 9 -13 9 -17 -1 -23 5 -23
19 0 14 6 20 22 19 12 0 20 3 17 8 -8 13 -30 9 -44 -7z"/>
<path d="M1083 4435 c0 -22 2 -30 4 -17 2 12 2 30 0 40 -3 9 -5 -1 -4 -23z"/>
<path d="M1297 4463 c6 -4 13 -22 16 -38 4 -27 5 -27 3 4 0 21 -7 36 -16 38
-10 3 -11 2 -3 -4z"/>
<path d="M1385 4460 c-4 -6 1 -7 11 -3 11 4 22 -1 30 -12 8 -10 14 -14 14 -9
0 26 -42 44 -55 24z"/>
<path d="M1565 4460 c-8 -13 3 -30 18 -29 9 0 9 2 0 6 -18 7 -16 21 5 26 15 4
15 5 0 6 -9 0 -20 -3 -23 -9z"/>
<path d="M1662 4456 c7 -8 15 -12 17 -11 5 6 -10 25 -20 25 -5 0 -4 -6 3 -14z"/>
<path d="M1697 4463 c6 -4 13 -22 16 -38 4 -27 5 -27 3 4 0 21 -7 36 -16 38
-10 3 -11 2 -3 -4z"/>
<path d="M1750 4466 c0 -2 9 -6 20 -9 11 -3 20 -1 20 4 0 5 -9 9 -20 9 -11 0
-20 -2 -20 -4z"/>
<path d="M1823 4435 c0 -22 2 -30 4 -17 2 12 2 30 0 40 -3 9 -5 -1 -4 -23z"/>
<path d="M1954 4458 c-4 -6 0 -16 9 -23 22 -16 21 -22 0 -28 -16 -4 -16 -5 -1
-6 24 -2 34 20 15 34 -22 16 -21 22 1 28 15 4 15 5 0 6 -9 0 -20 -4 -24 -11z"/>
<path d="M2012 4442 c-2 -35 20 -54 40 -34 8 8 5 9 -10 5 -17 -4 -21 0 -25 29
l-4 33 -1 -33z"/>
<path d="M2096 4463 c-3 -3 -6 -11 -6 -17 0 -6 4 -5 9 3 11 17 41 7 41 -14 0
-21 -30 -31 -42 -14 -8 12 -9 11 -5 -1 2 -8 14 -15 26 -14 28 1 21 -19 -10
-27 -21 -6 -21 -7 -3 -8 29 -1 44 18 44 59 0 30 -4 36 -24 38 -13 1 -26 -1
-30 -5z"/>
<path d="M2174 4456 c-9 -23 0 -51 16 -52 9 0 10 1 3 3 -20 7 -16 51 5 56 16
4 16 5 -1 6 -10 0 -20 -5 -23 -13z"/>
<path d="M2220 4430 c-4 -37 -9 -45 -30 -51 -22 -6 -22 -7 -4 -8 31 -1 46 22
42 66 l-4 38 -4 -45z"/>
<path d="M2262 4458 c-19 -19 -14 -28 18 -28 17 0 30 4 30 9 0 4 -11 6 -25 3
-31 -6 -33 6 -2 18 13 5 16 9 7 9 -9 1 -21 -4 -28 -11z"/>
<path d="M2338 4463 c7 -3 16 -2 19 1 4 3 -2 6 -13 5 -11 0 -14 -3 -6 -6z"/>
<path d="M2475 4460 c-4 -6 -4 -14 -1 -17 3 -4 6 -1 6 5 0 19 38 14 44 -5 4
-14 4 -14 3 2 -2 22 -41 33 -52 15z"/>
<path d="M2551 4430 l1 -35 7 30 c3 17 13 30 21 30 8 0 18 -13 21 -30 6 -27 7
-27 8 -5 1 34 -11 49 -37 47 -18 -1 -22 -7 -21 -37z"/>
<path d="M2634 4458 c-4 -6 0 -16 9 -23 22 -16 21 -22 0 -28 -16 -4 -16 -5 -1
-6 24 -2 34 20 15 34 -22 16 -21 22 1 28 15 4 15 5 0 6 -9 0 -20 -4 -24 -11z"/>
<path d="M2730 4466 c0 -2 9 -6 20 -9 11 -3 20 -1 20 4 0 5 -9 9 -20 9 -11 0
-20 -2 -20 -4z"/>
<path d="M2801 4430 l1 -35 7 30 c3 17 13 30 21 30 8 0 18 -13 21 -30 6 -27 7
-27 8 -5 1 34 -11 49 -37 47 -18 -1 -22 -7 -21 -37z"/>
<path d="M2887 4463 c-3 -5 5 -8 18 -8 13 0 21 3 18 8 -2 4 -10 7 -18 7 -8 0
-16 -3 -18 -7z"/>
<path d="M3003 4435 c0 -22 2 -30 4 -17 2 12 2 30 0 40 -3 9 -5 -1 -4 -23z"/>
<path d="M3057 4463 c-3 -5 5 -8 18 -8 13 0 21 3 18 8 -2 4 -10 7 -18 7 -8 0
-16 -3 -18 -7z"/>
<path d="M3143 4464 c23 -7 22 -20 -3 -27 -30 -8 -25 -37 6 -37 23 0 25 3 22
32 -2 24 -8 33 -23 35 -16 1 -16 1 -2 -3z m17 -44 c0 -5 -7 -10 -15 -10 -8 0
-15 5 -15 10 0 6 7 10 15 10 8 0 15 -4 15 -10z"/>
<path d="M3288 4463 c7 -3 16 -2 19 1 4 3 -2 6 -13 5 -11 0 -14 -3 -6 -6z"/>
<path d="M3333 4435 c0 -22 2 -30 4 -17 2 12 2 30 0 40 -3 9 -5 -1 -4 -23z"/>
<path d="M3402 4456 c7 -8 15 -12 17 -11 5 6 -10 25 -20 25 -5 0 -4 -6 3 -14z"/>
<path d="M3437 4463 c6 -4 13 -22 16 -38 4 -27 5 -27 3 4 0 21 -7 36 -16 38
-10 3 -11 2 -3 -4z"/>
<path d="M3492 4458 c-19 -19 -14 -28 18 -28 17 0 30 4 30 9 0 4 -11 6 -25 3
-31 -6 -33 6 -2 18 13 5 16 9 7 9 -9 1 -21 -4 -28 -11z"/>
<path d="M3647 4463 c-17 -16 -6 -33 21 -32 23 2 24 2 5 6 -13 2 -23 9 -23 15
0 6 9 8 20 5 11 -3 18 -1 14 4 -6 11 -28 12 -37 2z"/>
<path d="M3717 4463 c-18 -17 -5 -33 26 -32 30 2 30 2 5 6 -16 2 -28 9 -28 15
0 6 9 8 20 5 11 -3 18 -1 14 4 -6 11 -28 12 -37 2z"/>
<path d="M3789 4454 c-14 -17 -3 -45 22 -52 8 -2 5 2 -5 10 -25 20 -14 53 14
45 11 -3 18 -1 14 4 -8 14 -30 11 -45 -7z"/>
<path d="M3898 4463 c7 -3 16 -2 19 1 4 3 -2 6 -13 5 -11 0 -14 -3 -6 -6z"/>
<path d="M3973 4464 c21 -7 23 -24 3 -24 -8 0 -17 -4 -20 -9 -4 -5 3 -7 13 -4
13 3 21 -1 24 -14 3 -10 5 -2 4 17 -2 27 -7 35 -22 37 -16 1 -16 1 -2 -3z"/>
<path d="M4048 4463 c7 -3 16 -2 19 1 4 3 -2 6 -13 5 -11 0 -14 -3 -6 -6z"/>
<path d="M10740 4449 c0 -5 5 -7 10 -4 6 3 10 8 10 11 0 2 -4 4 -10 4 -5 0
-10 -5 -10 -11z"/>
<path d="M11218 4453 c6 -2 18 -2 25 0 6 3 1 5 -13 5 -14 0 -19 -2 -12 -5z"/>
<path d="M3921 4438 c-1 -9 -9 -22 -18 -27 -10 -6 -13 -11 -7 -11 17 0 37 27
31 42 -4 8 -6 7 -6 -4z"/>
<path d="M4024 4425 c1 -13 8 -20 24 -21 17 -1 18 -1 3 3 -11 2 -22 12 -24 21
-3 12 -4 11 -3 -3z"/>
<path d="M11875 4440 c-4 -7 0 -19 9 -28 20 -21 26 -13 10 16 -8 16 -14 20
-19 12z"/>
<path d="M763 4433 c9 -2 25 -2 35 0 9 3 1 5 -18 5 -19 0 -27 -2 -17 -5z"/>
<path d="M1745 4430 c-3 -5 -3 -14 0 -20 8 -12 45 -13 45 -1 0 5 -9 7 -20 4
-11 -3 -20 -1 -20 5 0 6 10 13 23 15 22 4 22 4 0 6 -12 0 -25 -3 -28 -9z"/>
<path d="M2350 4433 c15 -7 12 -21 -5 -26 -11 -4 -10 -4 2 -3 21 2 25 28 5 32
-7 1 -8 0 -2 -3z"/>
<path d="M2748 4433 c7 -3 16 -2 19 1 4 3 -2 6 -13 5 -11 0 -14 -3 -6 -6z"/>
<path d="M3053 4433 c9 -2 25 -2 35 0 9 3 1 5 -18 5 -19 0 -27 -2 -17 -5z"/>
<path d="M3238 4433 c7 -3 16 -2 19 1 4 3 -2 6 -13 5 -11 0 -14 -3 -6 -6z"/>
<path d="M1476 4417 c3 -10 9 -15 12 -12 3 3 0 11 -7 18 -10 9 -11 8 -5 -6z"/>
<path d="M2473 4420 c5 -18 35 -26 50 -11 7 7 3 8 -13 4 -13 -4 -26 0 -32 8
-8 12 -9 11 -5 -1z"/>
<path d="M10726 4421 c-3 -5 1 -11 9 -14 9 -4 12 -1 8 9 -6 16 -10 17 -17 5z"/>
<path d="M768 4408 c6 -6 18 -8 28 -6 14 3 12 5 -9 10 -19 3 -25 2 -19 -4z"/>
<path d="M1387 4408 c2 -5 10 -8 18 -8 8 0 16 3 18 8 3 4 -5 7 -18 7 -13 0
-21 -3 -18 -7z"/>
<path d="M2268 4408 c5 -5 16 -8 23 -6 8 3 3 7 -10 11 -17 4 -21 3 -13 -5z"/>
<path d="M2727 4408 c2 -5 10 -8 18 -8 8 0 16 3 18 8 3 4 -5 7 -18 7 -13 0
-21 -3 -18 -7z"/>
<path d="M2887 4408 c2 -5 10 -8 18 -8 8 0 16 3 18 8 3 4 -5 7 -18 7 -13 0
-21 -3 -18 -7z"/>
<path d="M3058 4408 c6 -6 18 -8 28 -6 14 3 12 5 -9 10 -19 3 -25 2 -19 -4z"/>
<path d="M3498 4408 c5 -5 16 -8 23 -6 8 3 3 7 -10 11 -17 4 -21 3 -13 -5z"/>
<path d="M3648 4408 c6 -6 18 -8 28 -6 14 3 12 5 -9 10 -19 3 -25 2 -19 -4z"/>
<path d="M3718 4408 c6 -6 18 -8 28 -6 14 3 12 5 -9 10 -19 3 -25 2 -19 -4z"/>
<path d="M1568 4403 c6 -2 18 -2 25 0 6 3 1 5 -13 5 -14 0 -19 -2 -12 -5z"/>
<path d="M3958 4403 c7 -3 16 -2 19 1 4 3 -2 6 -13 5 -11 0 -14 -3 -6 -6z"/>
<path d="M1330 4380 c-9 -6 -10 -10 -3 -10 6 0 15 5 18 10 8 12 4 12 -15 0z"/>
<path d="M1460 4380 c-9 -6 -10 -10 -3 -10 6 0 15 5 18 10 8 12 4 12 -15 0z"/>
<path d="M11801 4255 c-1 -47 2 -65 11 -65 10 0 12 17 10 65 -5 84 -19 84 -21
0z"/>
<path d="M10737 4303 c-15 -14 -6 -43 19 -59 17 -11 24 -24 21 -36 -5 -19 8
-25 18 -8 10 17 -5 49 -26 55 -16 5 -20 13 -16 31 4 23 -3 31 -16 17z"/>
<path d="M10775 4300 c3 -5 8 -10 11 -10 2 0 4 5 4 10 0 6 -5 10 -11 10 -5 0
-7 -4 -4 -10z"/>
<path d="M11355 4250 c0 -49 3 -60 17 -60 11 0 15 6 11 21 -4 12 0 25 8 30 10
6 10 9 2 9 -7 0 -13 12 -13 26 0 23 3 26 25 22 14 -3 25 -1 25 3 0 5 -17 9
-37 9 l-38 0 0 -60z"/>
<path d="M10825 4287 c-9 -22 -2 -90 10 -94 6 -2 9 18 8 48 -1 53 -9 72 -18
46z"/>
<path d="M11049 4286 c-7 -7 2 -96 10 -96 4 0 7 15 8 33 1 17 3 38 5 46 3 13
-14 26 -23 17z"/>
<path d="M10885 4271 c-4 -7 3 -10 17 -8 21 2 23 -2 22 -35 -1 -24 3 -38 10
-38 9 0 11 13 7 43 -5 33 -10 43 -28 45 -11 2 -24 -2 -28 -7z"/>
<path d="M10970 4233 c0 -28 4 -43 13 -43 7 0 12 14 12 37 0 31 3 37 18 35 9
-2 17 2 17 7 0 6 -13 9 -30 8 -28 -2 -30 -4 -30 -44z"/>
<path d="M11109 4238 c6 -41 8 -43 41 -44 l35 -2 -4 44 c-1 24 -8 44 -13 44
-6 0 -8 -12 -5 -28 7 -34 -6 -57 -27 -49 -10 4 -16 19 -16 42 0 19 -4 35 -8
35 -5 0 -6 -19 -3 -42z"/>
<path d="M11210 4216 c0 -50 3 -66 14 -66 9 0 12 7 9 20 -4 16 0 20 21 20 19
0 27 6 32 27 8 29 -6 57 -27 59 -9 1 -10 0 -1 -3 6 -3 12 -20 12 -39 0 -27 -4
-34 -20 -34 -16 0 -20 7 -20 34 0 19 -4 38 -10 41 -6 4 -10 -18 -10 -59z"/>
<path d="M11451 4266 c-15 -18 -10 -68 7 -74 9 -3 10 3 4 20 -12 32 -4 60 16
56 12 -3 17 -14 17 -41 0 -43 1 -44 15 -18 24 45 -28 94 -59 57z"/>
<path d="M11542 4238 c3 -41 4 -43 38 -46 l35 -3 -3 46 c-5 54 -17 60 -17 8 0
-28 -5 -38 -17 -41 -15 -3 -18 4 -18 32 0 19 -5 38 -11 41 -7 5 -9 -8 -7 -37z"/>
<path d="M11645 4234 c0 -24 5 -44 10 -44 7 0 9 15 7 35 -3 26 0 36 13 41 21
8 36 -12 33 -45 -2 -13 2 -26 8 -28 7 -2 8 11 5 39 -6 41 -8 43 -41 44 -35 2
-35 2 -35 -42z"/>
<path d="M11754 4266 c-11 -29 1 -71 21 -74 18 -2 18 -2 3 8 -10 6 -18 22 -18
35 0 13 8 29 18 34 16 10 16 10 -1 11 -10 0 -20 -6 -23 -14z"/>
<path d="M11854 4266 c-3 -8 -4 -27 -2 -43 2 -23 8 -28 33 -30 18 -1 22 1 8 3
-31 7 -39 34 -9 34 30 0 37 9 25 31 -11 22 -47 25 -55 5z m46 -11 c0 -8 -7
-15 -15 -15 -8 0 -15 7 -15 15 0 8 7 15 15 15 8 0 15 -7 15 -15z"/>
<path d="M11940 4233 c0 -28 4 -43 13 -43 7 0 12 14 12 37 0 30 4 38 18 37 9
-1 17 2 17 6 0 5 -13 8 -30 8 -29 -1 -30 -3 -30 -45z"/>
<path d="M10880 4225 c-6 -8 -9 -19 -5 -25 11 -18 20 -11 20 15 0 29 1 29 -15
10z"/>
<path d="M10730 4205 c0 -8 4 -15 10 -15 5 0 7 7 4 15 -4 8 -8 15 -10 15 -2 0
-4 -7 -4 -15z"/>
<path d="M11170 4080 c0 -13 -7 -20 -19 -20 -10 0 -24 -7 -31 -16 -18 -21 -1
-68 25 -72 19 -4 19 -3 2 10 -23 17 -19 61 5 66 13 2 17 -5 20 -34 5 -67 23
-48 20 21 -2 36 -8 65 -13 65 -5 0 -9 -9 -9 -20z"/>
<path d="M10815 4030 c0 -35 4 -60 10 -60 7 0 9 15 7 34 -7 58 3 61 34 13 28
-45 44 -58 44 -38 0 15 -74 111 -85 111 -6 0 -10 -27 -10 -60z"/>
<path d="M10895 4080 c4 -6 11 -8 16 -5 14 9 11 15 -7 15 -8 0 -12 -5 -9 -10z"/>
<path d="M11528 4030 c-2 -48 0 -60 12 -60 12 0 15 13 15 60 0 81 -22 81 -27
0z"/>
<path d="M11605 4030 c-1 -35 3 -60 10 -60 6 0 10 25 10 60 0 33 -4 60 -10 60
-6 0 -10 -27 -10 -60z"/>
<path d="M11338 4068 c-6 -18 2 -98 11 -98 7 0 6 99 -2 106 -2 3 -7 -1 -9 -8z"/>
<path d="M10944 4046 c-3 -8 -4 -27 -2 -43 2 -22 9 -29 28 -30 24 -3 24 -2 3
7 -27 11 -26 63 2 69 13 2 16 -1 12 -13 -4 -10 -1 -16 9 -16 12 0 12 4 4 20
-12 23 -48 27 -56 6z"/>
<path d="M11030 4039 c-17 -30 2 -69 32 -68 l23 0 -22 9 c-16 7 -21 16 -19 37
2 16 9 28 17 28 8 0 13 -6 12 -12 -2 -7 2 -13 8 -13 6 0 9 8 7 18 -5 26 -44
27 -58 1z"/>
<path d="M11221 4042 c-1 -12 6 -25 14 -28 25 -10 19 -37 -6 -29 -15 5 -19 4
-15 -4 11 -17 46 -13 53 6 4 10 -1 22 -14 32 -11 9 -22 23 -26 31 -3 10 -6 7
-6 -8z"/>
<path d="M11390 4041 c-7 -13 -7 -28 0 -46 8 -21 16 -26 38 -23 24 3 27 7 27
42 0 24 -5 41 -13 44 -11 3 -12 0 -2 -17 14 -28 4 -63 -18 -59 -13 3 -17 14
-16 41 1 42 -1 45 -16 18z"/>
<path d="M11665 4050 c-3 -5 -1 -10 4 -10 6 0 11 5 11 10 0 6 -2 10 -4 10 -3
0 -8 -4 -11 -10z"/>
<path d="M11704 4018 c1 -23 7 -43 12 -45 11 -4 5 75 -6 82 -5 3 -7 -14 -6
-37z"/>
<path d="M11750 4050 c0 -24 30 -81 40 -75 5 3 10 11 10 16 0 6 -4 8 -9 4 -6
-3 -13 10 -17 30 -6 31 -24 50 -24 25z"/>
<path d="M11807 4038 c-9 -31 -2 -33 11 -3 6 14 8 25 3 25 -5 0 -11 -10 -14
-22z"/>
<path d="M11844 4036 c-8 -33 12 -66 39 -65 l22 0 -23 9 c-19 8 -22 16 -19 45
5 40 -9 48 -19 11z"/>
<path d="M11887 4041 c3 -12 10 -21 15 -21 13 0 6 32 -9 37 -7 3 -9 -3 -6 -16z"/>
<path d="M11658 4008 c-8 -20 2 -38 20 -38 14 0 14 2 3 9 -8 5 -11 16 -8 25 4
9 2 16 -2 16 -5 0 -11 -6 -13 -12z"/>
<path d="M8637 3954 c-4 -4 -4 -18 -1 -30 4 -15 2 -24 -5 -24 -6 0 -11 8 -11
18 -1 16 -1 16 -11 0 -7 -12 -6 -24 1 -38 13 -25 27 -26 33 -2 3 9 5 4 4 -13
-2 -24 2 -31 21 -33 33 -5 54 15 41 39 -8 16 -6 19 13 16 18 -1 22 2 20 18 -6
33 -33 55 -67 55 -17 0 -35 -3 -38 -6z m71 -28 c1 -18 -4 -25 -24 -29 -18 -3
-24 -1 -20 9 3 7 0 14 -6 16 -19 7 1 28 25 28 17 0 23 -6 25 -24z"/>
<path d="M1680 3635 c0 -8 5 -15 10 -15 6 0 10 7 10 15 0 8 -4 15 -10 15 -5 0
-10 -7 -10 -15z"/>
<path d="M1957 3644 c-8 -8 1 -24 14 -24 5 0 9 7 9 15 0 15 -12 20 -23 9z"/>
<path d="M780 3622 c-30 -24 -20 -53 25 -75 19 -9 35 -23 35 -31 0 -18 -33
-30 -60 -21 -11 4 -20 2 -20 -4 0 -17 49 -25 76 -12 38 17 32 57 -11 83 -45
26 -43 52 3 56 18 2 30 8 27 13 -10 15 -51 10 -75 -9z"/>
<path d="M900 3555 l0 -85 45 0 c25 0 45 5 45 10 0 6 -16 10 -35 10 -32 0 -35
2 -35 30 0 27 3 30 30 30 17 0 30 5 30 10 0 6 -13 10 -30 10 -25 0 -30 4 -30
25 0 21 5 25 30 25 17 0 30 5 30 10 0 6 -18 10 -40 10 l-40 0 0 -85z"/>
<path d="M1053 3628 c-28 -13 -47 -60 -39 -93 23 -93 140 -84 153 12 5 35 2
45 -20 67 -27 27 -57 32 -94 14z m71 -24 c34 -33 11 -114 -31 -114 -50 0 -73
85 -31 114 28 20 43 20 62 0z"/>
<path d="M1300 3627 c-34 -17 -50 -79 -29 -115 44 -79 167 -26 145 63 -14 57
-63 79 -116 52z m68 -23 c43 -30 18 -114 -35 -114 -39 0 -58 77 -26 112 20 22
32 23 61 2z"/>
<path d="M1600 3606 c0 -8 -6 -17 -12 -20 -10 -5 -10 -7 0 -12 7 -3 12 -24 12
-49 0 -35 4 -45 21 -50 27 -9 39 4 16 16 -22 13 -24 79 -2 79 8 0 15 5 15 10
0 6 -7 10 -15 10 -8 0 -15 7 -15 15 0 8 -4 15 -10 15 -5 0 -10 -6 -10 -14z"/>
<path d="M1450 3500 c0 -53 4 -90 10 -90 6 0 10 19 10 42 0 33 3 39 12 30 29
-29 78 3 78 51 0 26 -23 57 -41 57 -6 0 -19 -5 -30 -10 -13 -7 -19 -7 -19 0 0
5 -4 10 -10 10 -6 0 -10 -37 -10 -90z m84 48 c15 -25 -4 -53 -35 -53 -17 0
-25 6 -27 23 -7 46 38 67 62 30z"/>
<path d="M1680 3530 c0 -33 4 -60 10 -60 6 0 10 27 10 60 0 33 -4 60 -10 60
-6 0 -10 -27 -10 -60z"/>
<path d="M1740 3530 c0 -46 3 -60 14 -60 11 0 16 14 18 48 3 39 6 47 23 47 17
0 20 -8 23 -47 4 -59 20 -63 24 -7 2 27 9 46 21 53 23 15 37 -6 37 -56 0 -21
5 -38 11 -38 6 0 9 20 7 51 -3 60 -24 82 -58 61 -16 -9 -24 -10 -39 0 -15 9
-23 9 -35 -1 -11 -9 -16 -10 -16 -2 0 6 -7 11 -15 11 -12 0 -15 -13 -15 -60z"/>
<path d="M1950 3530 c0 -47 3 -60 15 -60 12 0 15 13 15 60 0 47 -3 60 -15 60
-12 0 -15 -13 -15 -60z"/>
<path d="M2010 3580 c0 -5 14 -10 31 -10 l31 0 -37 -50 -37 -50 51 0 c28 0 51
5 51 10 0 6 -14 10 -30 10 l-31 0 31 44 c16 25 30 47 30 50 0 3 -20 6 -45 6
-25 0 -45 -4 -45 -10z"/>
<path d="M2140 3570 c-11 -11 -20 -29 -20 -40 0 -28 35 -60 64 -60 37 0 41 18
4 22 -49 5 -48 28 1 28 45 0 51 11 25 48 -19 27 -48 28 -74 2z m64 -15 c4 -11
-2 -15 -24 -15 -29 0 -38 9 -23 23 12 12 41 7 47 -8z"/>
<path d="M2260 3530 c0 -71 16 -80 22 -12 5 51 1 72 -13 72 -5 0 -9 -27 -9
-60z"/>
<path d="M2295 3580 c-3 -5 1 -10 9 -10 9 0 16 5 16 10 0 6 -4 10 -9 10 -6 0
-13 -4 -16 -10z"/>
<path d="M7800 3398 c0 -8 7 -38 15 -66 19 -64 40 -67 56 -9 l12 42 12 -40
c16 -54 41 -58 54 -8 24 90 24 96 11 91 -8 -2 -19 -22 -25 -44 -11 -42 -18
-39 -30 14 -3 17 -13 32 -20 32 -7 0 -17 -15 -20 -32 -12 -53 -19 -56 -30 -14
-11 39 -35 62 -35 34z"/>
<path d="M11036 3196 c3 -8 1 -17 -5 -21 -21 -12 -11 -25 20 -25 24 0 30 4 25
16 -3 8 -2 12 4 9 6 -3 10 -14 10 -23 0 -13 -9 -18 -41 -18 -41 -1 -41 -1 -37
32 4 36 -2 43 -21 20 -8 -10 -9 -15 -1 -18 6 -2 3 -12 -9 -25 -17 -18 -18 -22
-5 -27 9 -3 24 -6 35 -6 16 0 18 -4 10 -18 -6 -11 -6 -24 0 -33 8 -12 10 -12
19 1 9 13 11 13 21 0 9 -13 10 -13 6 2 -7 21 25 50 47 42 10 -4 16 -1 16 9 0
9 -8 18 -17 20 -17 4 -17 5 0 6 24 1 21 16 -10 46 -30 27 -76 35 -67 11z"/>
<path d="M760 3111 c0 -44 3 -51 19 -51 11 0 22 4 25 9 4 5 -3 7 -14 4 -16 -4
-20 0 -20 17 0 17 5 21 18 17 15 -3 19 1 18 22 -1 19 -7 27 -23 29 -21 3 -23
0 -23 -47z m40 24 c0 -8 -7 -15 -15 -15 -8 0 -15 7 -15 15 0 8 7 15 15 15 8 0
15 -7 15 -15z"/>
<path d="M1461 3115 c-1 -47 1 -51 24 -53 13 -1 26 2 29 6 3 5 -5 8 -17 8 -16
-1 -22 5 -22 19 0 14 6 20 22 19 12 0 19 4 16 9 -3 5 -14 7 -24 4 -12 -3 -19
2 -22 17 -2 11 -5 -2 -6 -29z"/>
<path d="M2073 3110 c0 -30 2 -43 4 -27 2 15 2 39 0 55 -2 15 -4 2 -4 -28z"/>
<path d="M2593 3110 c0 -30 2 -43 4 -27 2 15 2 39 0 55 -2 15 -4 2 -4 -28z"/>
<path d="M2980 3150 c0 -5 5 -10 11 -10 5 0 7 5 4 10 -3 6 -8 10 -11 10 -2 0
-4 -4 -4 -10z"/>
<path d="M3053 3110 c0 -30 2 -43 4 -27 2 15 2 39 0 55 -2 15 -4 2 -4 -28z"/>
<path d="M3567 3153 c-14 -13 -6 -31 21 -47 l27 -17 -22 20 c-13 10 -23 24
-23 29 0 6 10 13 23 15 20 4 20 4 1 6 -11 0 -24 -2 -27 -6z"/>
<path d="M3640 3110 c0 -48 1 -50 28 -49 23 2 24 2 5 6 -27 5 -31 39 -5 46 16
4 16 5 0 6 -10 0 -18 7 -18 15 0 8 8 17 18 19 13 4 11 5 -5 6 -21 1 -23 -3
-23 -49z"/>
<path d="M3716 3144 c-9 -8 -15 -25 -15 -37 1 -20 2 -21 6 -2 8 32 25 47 50
42 12 -2 20 0 17 4 -8 14 -41 10 -58 -7z"/>
<path d="M4538 3153 c6 -2 18 -2 25 0 6 3 1 5 -13 5 -14 0 -19 -2 -12 -5z"/>
<path d="M845 3120 c-4 -6 1 -7 11 -3 11 4 22 -1 30 -12 8 -10 14 -14 14 -9 0
26 -42 44 -55 24z"/>
<path d="M925 3120 c-4 -6 -4 -14 -1 -17 3 -4 6 -1 6 5 0 19 38 14 44 -5 4
-14 4 -14 3 2 -2 22 -41 33 -52 15z"/>
<path d="M1004 3118 c-4 -6 0 -16 9 -23 22 -16 21 -22 0 -28 -16 -4 -16 -5 -1
-6 24 -2 34 20 15 34 -22 16 -21 22 1 28 15 4 15 5 0 6 -9 0 -20 -4 -24 -11z"/>
<path d="M1058 3123 c6 -2 18 -2 25 0 6 3 1 5 -13 5 -14 0 -19 -2 -12 -5z"/>
<path d="M1140 3125 c0 -5 5 -17 10 -25 5 -8 10 -10 10 -5 0 6 -5 17 -10 25
-5 8 -10 11 -10 5z"/>
<path d="M1220 3115 c-22 -27 17 -72 41 -48 6 6 2 9 -13 9 -17 -1 -23 5 -23
19 0 14 6 20 22 19 12 0 20 3 17 8 -8 13 -30 9 -44 -7z"/>
<path d="M1343 3095 c0 -22 2 -30 4 -17 2 12 2 30 0 40 -3 9 -5 -1 -4 -23z"/>
<path d="M1385 3120 c-3 -6 1 -7 9 -4 18 7 21 14 7 14 -6 0 -13 -4 -16 -10z"/>
<path d="M1585 3120 c-4 -6 -4 -14 -1 -17 3 -4 6 -1 6 5 0 19 38 14 44 -5 4
-14 4 -14 3 2 -2 22 -41 33 -52 15z"/>
<path d="M1664 3116 c-9 -23 0 -51 16 -52 9 0 10 1 3 3 -20 7 -16 51 5 56 16
4 16 5 -1 6 -10 0 -20 -5 -23 -13z"/>
<path d="M1710 3090 c-4 -37 -9 -45 -30 -51 -22 -6 -22 -7 -4 -8 31 -1 46 22
42 66 l-4 38 -4 -45z"/>
<path d="M1775 3120 c-8 -13 3 -30 18 -29 9 0 9 2 0 6 -18 7 -16 21 5 26 15 4
15 5 0 6 -9 0 -20 -3 -23 -9z"/>
<path d="M1943 3095 c0 -22 2 -30 4 -17 2 12 2 30 0 40 -3 9 -5 -1 -4 -23z"/>
<path d="M1975 3120 c-8 -13 3 -30 18 -29 9 0 9 2 0 6 -18 7 -16 21 5 26 15 4
15 5 0 6 -9 0 -20 -3 -23 -9z"/>
<path d="M2098 3123 c7 -3 16 -2 19 1 4 3 -2 6 -13 5 -11 0 -14 -3 -6 -6z"/>
<path d="M2153 3095 c0 -22 2 -30 4 -17 2 12 2 30 0 40 -3 9 -5 -1 -4 -23z"/>
<path d="M2223 3095 c0 -22 2 -30 4 -17 2 12 2 30 0 40 -3 9 -5 -1 -4 -23z"/>
<path d="M2258 3123 c7 -3 16 -2 19 1 4 3 -2 6 -13 5 -11 0 -14 -3 -6 -6z"/>
<path d="M2513 3095 c0 -22 2 -30 4 -17 2 12 2 30 0 40 -3 9 -5 -1 -4 -23z"/>
<path d="M2538 3123 c6 -2 18 -2 25 0 6 3 1 5 -13 5 -14 0 -19 -2 -12 -5z"/>
<path d="M2610 3126 c0 -2 7 -7 16 -10 8 -3 12 -2 9 4 -6 10 -25 14 -25 6z"/>
<path d="M2710 3115 c-22 -27 17 -72 41 -48 6 6 2 9 -13 9 -17 -1 -23 5 -23
19 0 14 6 20 22 19 12 0 20 3 17 8 -8 13 -30 9 -44 -7z"/>
<path d="M2833 3095 c0 -22 2 -30 4 -17 2 12 2 30 0 40 -3 9 -5 -1 -4 -23z"/>
<path d="M2873 3095 c0 -22 2 -30 4 -17 2 12 2 30 0 40 -3 9 -5 -1 -4 -23z"/>
<path d="M3147 3123 c-3 -5 5 -8 18 -8 13 0 21 3 18 8 -2 4 -10 7 -18 7 -8 0
-16 -3 -18 -7z"/>
<path d="M3223 3095 c0 -22 2 -30 4 -17 2 12 2 30 0 40 -3 9 -5 -1 -4 -23z"/>
<path d="M3273 3095 c0 -22 2 -30 4 -17 2 12 2 30 0 40 -3 9 -5 -1 -4 -23z"/>
<path d="M3377 3123 c-17 -16 -6 -33 21 -32 23 2 24 2 5 6 -13 2 -23 9 -23 15
0 6 9 8 20 5 11 -3 18 -1 14 4 -6 11 -28 12 -37 2z"/>
<path d="M3441 3091 c1 -36 1 -36 8 -6 8 40 38 46 44 8 4 -28 4 -28 3 2 -1 26
-5 30 -28 31 -26 1 -28 -2 -27 -35z"/>
<path d="M3782 3110 c0 -14 2 -19 5 -12 2 6 2 18 0 25 -3 6 -5 1 -5 -13z"/>
<path d="M3855 3120 c-4 -6 -4 -14 -1 -17 3 -4 6 -1 6 5 0 19 38 14 44 -5 4
-14 4 -14 3 2 -2 22 -41 33 -52 15z"/>
<path d="M3931 3075 c1 -27 4 -40 6 -29 3 15 10 20 22 17 10 -3 21 -1 24 4 3
5 -4 9 -16 9 -16 -1 -22 5 -22 19 0 14 6 20 22 19 12 0 20 3 17 8 -3 4 -16 7
-29 6 -23 -2 -25 -6 -24 -53z"/>
<path d="M4018 3123 c7 -3 16 -2 19 1 4 3 -2 6 -13 5 -11 0 -14 -3 -6 -6z"/>
<path d="M4063 3095 c0 -22 2 -30 4 -17 2 12 2 30 0 40 -3 9 -5 -1 -4 -23z"/>
<path d="M4132 3116 c7 -8 15 -12 17 -11 5 6 -10 25 -20 25 -5 0 -4 -6 3 -14z"/>
<path d="M4167 3123 c6 -4 13 -22 16 -38 4 -27 5 -27 3 4 0 21 -7 36 -16 38
-10 3 -11 2 -3 -4z"/>
<path d="M4263 3123 c9 -2 14 -9 11 -15 -4 -7 -2 -8 4 -4 20 12 13 26 -10 25
-18 -1 -19 -2 -5 -6z"/>
<path d="M4317 3123 c-18 -17 -5 -33 26 -32 30 2 30 2 5 6 -16 2 -28 9 -28 15
0 6 9 8 20 5 11 -3 18 -1 14 4 -6 11 -28 12 -37 2z"/>
<path d="M4395 3120 c-3 -6 1 -7 9 -4 18 7 21 14 7 14 -6 0 -13 -4 -16 -10z"/>
<path d="M4501 3110 c0 -15 4 -31 11 -38 7 -7 23 -11 38 -11 23 1 23 2 -5 8
-23 5 -31 13 -36 36 -6 28 -7 28 -8 5z"/>
<path d="M4607 3123 c-17 -16 -6 -33 21 -32 23 2 24 2 5 6 -13 2 -23 9 -23 15
0 6 9 8 20 5 11 -3 18 -1 14 4 -6 11 -28 12 -37 2z"/>
<path d="M4678 3123 c7 -3 16 -2 19 1 4 3 -2 6 -13 5 -11 0 -14 -3 -6 -6z"/>
<path d="M2121 3098 c-1 -9 -9 -22 -18 -27 -10 -6 -13 -11 -7 -11 17 0 37 27
31 42 -4 8 -6 7 -6 -4z"/>
<path d="M2960 3099 c0 -4 14 -9 30 -11 17 -3 30 -1 30 3 0 4 -13 9 -30 11
-16 3 -30 1 -30 -3z"/>
<path d="M3088 3093 c6 -2 18 -2 25 0 6 3 1 5 -13 5 -14 0 -19 -2 -12 -5z"/>
<path d="M923 3080 c5 -18 35 -26 50 -11 7 7 3 8 -13 4 -13 -4 -26 0 -32 8 -8
12 -9 11 -5 -1z"/>
<path d="M1583 3080 c5 -18 35 -26 50 -11 7 7 3 8 -13 4 -13 -4 -26 0 -32 8
-8 12 -9 11 -5 -1z"/>
<path d="M2316 3077 c3 -10 9 -15 12 -12 3 3 0 11 -7 18 -10 9 -11 8 -5 -6z"/>
<path d="M2416 3077 c3 -10 9 -15 12 -12 3 3 0 11 -7 18 -10 9 -11 8 -5 -6z"/>
<path d="M2465 3079 c-4 -6 -5 -12 -2 -15 2 -3 7 2 10 11 7 17 1 20 -8 4z"/>
<path d="M3853 3080 c5 -18 35 -26 50 -11 7 7 3 8 -13 4 -13 -4 -26 0 -32 8
-8 12 -9 11 -5 -1z"/>
<path d="M4250 3075 c-11 -13 -8 -15 21 -14 24 1 27 3 11 6 -12 2 -20 9 -17
14 10 15 -1 10 -15 -6z"/>
<path d="M847 3068 c2 -5 10 -8 18 -8 8 0 16 3 18 8 3 4 -5 7 -18 7 -13 0 -21
-3 -18 -7z"/>
<path d="M1160 3061 c0 -11 -5 -22 -10 -24 -6 -3 -5 -4 1 -3 15 3 32 46 19 46
-6 0 -10 -9 -10 -19z"/>
<path d="M1307 3069 c7 -7 15 -10 18 -7 3 3 -2 9 -12 12 -14 6 -15 5 -6 -5z"/>
<path d="M2797 3069 c7 -7 15 -10 18 -7 3 3 -2 9 -12 12 -14 6 -15 5 -6 -5z"/>
<path d="M3147 3068 c2 -5 10 -8 18 -8 8 0 16 3 18 8 3 4 -5 7 -18 7 -13 0
-21 -3 -18 -7z"/>
<path d="M3378 3068 c6 -6 18 -8 28 -6 14 3 12 5 -9 10 -19 3 -25 2 -19 -4z"/>
<path d="M3580 3070 c-23 -7 -23 -8 -3 -9 12 -1 25 4 28 9 3 6 5 10 3 9 -2 -1
-14 -5 -28 -9z"/>
<path d="M3750 3070 c-23 -7 -23 -8 -3 -9 12 -1 25 4 28 9 3 6 5 10 3 9 -2 -1
-14 -5 -28 -9z"/>
<path d="M4318 3068 c6 -6 18 -8 28 -6 14 3 12 5 -9 10 -19 3 -25 2 -19 -4z"/>
<path d="M4608 3068 c6 -6 18 -8 28 -6 14 3 12 5 -9 10 -19 3 -25 2 -19 -4z"/>
<path d="M1778 3063 c6 -2 18 -2 25 0 6 3 1 5 -13 5 -14 0 -19 -2 -12 -5z"/>
<path d="M1978 3063 c6 -2 18 -2 25 0 6 3 1 5 -13 5 -14 0 -19 -2 -12 -5z"/>
<path d="M2300 3040 c-9 -6 -10 -10 -3 -10 6 0 15 5 18 10 8 12 4 12 -15 0z"/>
<path d="M763 2910 c0 -30 1 -47 4 -37 5 18 5 18 26 0 22 -18 22 -18 5 3 -17
19 -17 21 0 39 17 19 17 19 -5 1 -21 -18 -22 -18 -26 16 -2 20 -4 11 -4 -22z"/>
<path d="M1250 2942 c0 -13 -7 -18 -21 -18 -12 1 -24 -6 -26 -14 -4 -12 -3
-13 5 -1 12 17 42 7 42 -14 0 -21 -30 -31 -42 -14 -8 12 -9 11 -5 -1 2 -8 16
-15 30 -16 26 -1 27 1 27 47 0 27 -2 49 -5 49 -3 0 -5 -8 -5 -18z"/>
<path d="M1758 2937 c-7 -21 6 -70 20 -73 7 -1 8 0 2 3 -12 6 -13 50 -1 55 5
2 3 8 -4 15 -10 9 -14 9 -17 0z"/>
<path d="M3189 2939 c-2 -27 3 -64 9 -71 4 -4 6 11 5 33 -1 39 -12 67 -14 38z"/>
<path d="M837 2923 c-3 -5 5 -8 18 -8 13 0 21 3 18 8 -2 4 -10 7 -18 7 -8 0
-16 -3 -18 -7z"/>
<path d="M1075 2920 c-4 -6 -4 -14 -1 -17 3 -4 6 -1 6 5 0 19 38 14 44 -5 4
-14 4 -14 3 2 -2 22 -41 33 -52 15z"/>
<path d="M1151 2890 c1 -27 3 -29 6 -10 2 14 11 30 20 37 13 10 13 12 -6 10
-17 -1 -21 -7 -20 -37z"/>
<path d="M1324 2918 c-4 -6 0 -16 9 -23 22 -16 21 -22 0 -28 -16 -4 -16 -5 -1
-6 24 -2 34 20 15 34 -22 16 -21 22 1 28 15 4 15 5 0 6 -9 0 -20 -4 -24 -11z"/>
<path d="M1382 2902 c-2 -35 20 -54 40 -34 8 8 5 9 -10 5 -17 -4 -21 0 -25 29
l-4 33 -1 -33z"/>
<path d="M1466 2923 c-3 -3 -6 -11 -6 -17 0 -6 4 -5 9 3 11 17 41 7 41 -14 0
-21 -30 -31 -42 -14 -8 12 -9 11 -5 -1 2 -8 14 -15 26 -14 28 1 21 -19 -10
-27 -21 -6 -21 -7 -3 -8 29 -1 44 18 44 59 0 30 -4 36 -24 38 -13 1 -26 -1
-30 -5z"/>
<path d="M1544 2916 c-9 -23 0 -51 16 -52 9 0 10 1 3 3 -20 7 -16 51 5 56 16
4 16 5 -1 6 -10 0 -20 -5 -23 -13z"/>
<path d="M1590 2890 c-4 -37 -9 -45 -30 -51 -22 -6 -22 -7 -4 -8 31 -1 46 22
42 66 l-4 38 -4 -45z"/>
<path d="M1632 2918 c-19 -19 -14 -28 18 -28 17 0 30 4 30 9 0 4 -11 6 -25 3
-31 -6 -33 6 -2 18 13 5 16 9 7 9 -9 1 -21 -4 -28 -11z"/>
<path d="M1708 2923 c7 -3 16 -2 19 1 4 3 -2 6 -13 5 -11 0 -14 -3 -6 -6z"/>
<path d="M1845 2920 c-4 -6 1 -7 11 -3 11 4 22 -1 30 -12 8 -10 14 -14 14 -9
0 26 -42 44 -55 24z"/>
<path d="M1921 2890 l1 -35 7 30 c3 17 13 30 21 30 8 0 18 -13 21 -30 6 -27 7
-27 8 -5 1 34 -11 49 -37 47 -18 -1 -22 -7 -21 -37z"/>
<path d="M2004 2918 c-4 -6 0 -16 9 -23 22 -16 21 -22 0 -28 -16 -4 -16 -5 -1
-6 24 -2 34 20 15 34 -22 16 -21 22 1 28 15 4 15 5 0 6 -9 0 -20 -4 -24 -11z"/>
<path d="M2100 2926 c0 -2 9 -6 20 -9 11 -3 20 -1 20 4 0 5 -9 9 -20 9 -11 0
-20 -2 -20 -4z"/>
<path d="M2173 2895 c0 -22 2 -30 4 -17 2 12 2 30 0 40 -3 9 -5 -1 -4 -23z"/>
<path d="M2190 2926 c0 -2 7 -7 16 -10 8 -3 12 -2 9 4 -6 10 -25 14 -25 6z"/>
<path d="M2257 2923 c-3 -5 5 -8 18 -8 13 0 21 3 18 8 -2 4 -10 7 -18 7 -8 0
-16 -3 -18 -7z"/>
<path d="M2375 2920 c-4 -6 1 -7 11 -3 11 4 22 -1 30 -12 8 -10 14 -14 14 -9
0 26 -42 44 -55 24z"/>
<path d="M2452 2876 l1 -51 4 43 c4 45 27 66 45 41 8 -12 9 -11 5 1 -2 8 -16
15 -30 16 -26 1 -27 -1 -25 -50z"/>
<path d="M2538 2923 c7 -3 16 -2 19 1 4 3 -2 6 -13 5 -11 0 -14 -3 -6 -6z"/>
<path d="M2583 2895 c0 -22 2 -30 4 -17 2 12 2 30 0 40 -3 9 -5 -1 -4 -23z"/>
<path d="M2652 2916 c7 -8 15 -12 17 -11 5 6 -10 25 -20 25 -5 0 -4 -6 3 -14z"/>
<path d="M2687 2923 c6 -4 13 -22 16 -38 4 -27 5 -27 3 4 0 21 -7 36 -16 38
-10 3 -11 2 -3 -4z"/>
<path d="M2773 2923 c9 -2 23 -2 30 0 6 3 -1 5 -18 5 -16 0 -22 -2 -12 -5z"/>
<path d="M2853 2924 c23 -7 22 -20 -3 -27 -30 -8 -25 -37 6 -37 23 0 25 3 22
32 -2 24 -8 33 -23 35 -16 1 -16 1 -2 -3z m17 -44 c0 -5 -7 -10 -15 -10 -8 0
-15 5 -15 10 0 6 7 10 15 10 8 0 15 -4 15 -10z"/>
<path d="M2908 2923 c7 -3 16 -2 19 1 4 3 -2 6 -13 5 -11 0 -14 -3 -6 -6z"/>
<path d="M2953 2895 c0 -22 2 -30 4 -17 2 12 2 30 0 40 -3 9 -5 -1 -4 -23z"/>
<path d="M2990 2915 c-22 -27 17 -72 41 -48 6 6 2 9 -13 9 -17 -1 -23 5 -23
19 0 14 6 20 22 19 12 0 20 3 17 8 -8 13 -30 9 -44 -7z"/>
<path d="M3073 2895 c0 -22 2 -30 4 -17 2 12 2 30 0 40 -3 9 -5 -1 -4 -23z"/>
<path d="M3090 2926 c0 -2 7 -7 16 -10 8 -3 12 -2 9 4 -6 10 -25 14 -25 6z"/>
<path d="M3233 2895 c0 -22 2 -30 4 -17 2 12 2 30 0 40 -3 9 -5 -1 -4 -23z"/>
<path d="M3291 2927 c2 -1 13 -9 24 -17 19 -14 19 -14 6 3 -7 9 -18 17 -24 17
-6 0 -8 -1 -6 -3z"/>
<path d="M3358 2923 c7 -3 16 -2 19 1 4 3 -2 6 -13 5 -11 0 -14 -3 -6 -6z"/>
<path d="M833 2893 c9 -2 25 -2 35 0 9 3 1 5 -18 5 -19 0 -27 -2 -17 -5z"/>
<path d="M970 2895 c0 -5 5 -17 10 -25 5 -8 10 -10 10 -5 0 6 -5 17 -10 25 -5
8 -10 11 -10 5z"/>
<path d="M1720 2893 c15 -7 12 -21 -5 -26 -11 -4 -10 -4 2 -3 21 2 25 28 5 32
-7 1 -8 0 -2 -3z"/>
<path d="M2118 2893 c7 -3 16 -2 19 1 4 3 -2 6 -13 5 -11 0 -14 -3 -6 -6z"/>
<path d="M3370 2893 c15 -7 12 -21 -5 -26 -11 -4 -10 -4 2 -3 21 2 25 28 5 32
-7 1 -8 0 -2 -3z"/>
<path d="M916 2877 c3 -10 9 -15 12 -12 3 3 0 11 -7 18 -10 9 -11 8 -5 -6z"/>
<path d="M1073 2880 c5 -18 35 -26 50 -11 7 7 3 8 -13 4 -13 -4 -26 0 -32 8
-8 12 -9 11 -5 -1z"/>
<path d="M2500 2882 c0 -6 -8 -13 -17 -15 -16 -4 -16 -5 -1 -6 18 -1 34 16 24
26 -3 4 -6 1 -6 -5z"/>
<path d="M3314 2879 c-3 -6 -15 -9 -25 -6 -11 3 -17 1 -13 -4 8 -14 30 -11 44
6 7 8 10 15 7 15 -3 0 -9 -5 -13 -11z"/>
<path d="M838 2868 c6 -6 18 -8 28 -6 14 3 12 5 -9 10 -19 3 -25 2 -19 -4z"/>
<path d="M1638 2868 c5 -5 16 -8 23 -6 8 3 3 7 -10 11 -17 4 -21 3 -13 -5z"/>
<path d="M1847 2868 c2 -5 10 -8 18 -8 8 0 16 3 18 8 3 4 -5 7 -18 7 -13 0
-21 -3 -18 -7z"/>
<path d="M2097 2868 c2 -5 10 -8 18 -8 8 0 16 3 18 8 3 4 -5 7 -18 7 -13 0
-21 -3 -18 -7z"/>
<path d="M2257 2868 c2 -5 10 -8 18 -8 8 0 16 3 18 8 3 4 -5 7 -18 7 -13 0
-21 -3 -18 -7z"/>
<path d="M2377 2868 c2 -5 10 -8 18 -8 8 0 16 3 18 8 3 4 -5 7 -18 7 -13 0
-21 -3 -18 -7z"/>
<path d="M2764 2869 c-3 -5 6 -9 20 -9 31 0 34 6 6 13 -11 3 -23 1 -26 -4z"/>
<path d="M900 2840 c-9 -6 -10 -10 -3 -10 6 0 15 5 18 10 8 12 4 12 -15 0z"/>
<path d="M10634 2583 c4 -10 14 -50 23 -90 14 -66 18 -73 40 -73 13 0 25 6 28
13 2 6 10 35 17 62 l14 50 15 -60 c13 -52 18 -60 39 -60 21 0 26 8 47 85 12
47 22 86 23 88 0 1 -9 2 -19 2 -16 0 -22 -12 -32 -55 -7 -31 -16 -58 -20 -60
-4 -3 -13 21 -21 53 -11 45 -18 57 -33 57 -16 0 -23 -12 -35 -57 -8 -32 -17
-58 -20 -58 -3 0 -12 27 -18 60 -11 50 -16 60 -33 60 -16 0 -19 -4 -15 -17z"/>
<path d="M10962 2310 c0 -14 2 -19 5 -12 2 6 2 18 0 25 -3 6 -5 1 -5 -13z"/>
<path d="M6528 2293 c6 -2 18 -2 25 0 6 3 1 5 -13 5 -14 0 -19 -2 -12 -5z"/>
<path d="M6490 2174 c-13 -33 -13 -54 0 -34 8 13 10 13 10 -1 0 -17 26 -18 63
-4 10 4 17 3 17 -4 0 -6 7 -11 15 -11 11 0 15 11 14 43 0 32 -2 37 -9 22 -7
-17 -9 -17 -9 -2 -1 10 -9 17 -22 17 -12 0 -28 -8 -35 -17 -13 -17 -13 -17
-14 0 0 26 -19 21 -30 -9z"/>
<path d="M6558 2093 c-4 -49 14 -144 26 -140 13 4 18 47 6 47 -6 0 -10 27 -10
59 0 67 -17 93 -22 34z"/>
<path d="M7818 2095 c2 -19 6 -35 8 -35 2 0 4 16 4 35 0 19 -4 35 -8 35 -4 0
-6 -16 -4 -35z"/>
<path d="M7921 2114 c0 -11 3 -14 6 -6 3 7 2 16 -1 19 -3 4 -6 -2 -5 -13z"/>
<path d="M8169 2125 c-5 -20 -3 -65 4 -65 4 0 7 16 7 35 0 29 -7 48 -11 30z"/>
<path d="M8062 2090 c0 -19 2 -27 5 -17 2 9 2 25 0 35 -3 9 -5 1 -5 -18z"/>
<path d="M8312 2090 c0 -19 2 -27 5 -17 2 9 2 25 0 35 -3 9 -5 1 -5 -18z"/>
<path d="M8340 2096 c0 -14 4 -27 8 -30 5 -3 6 8 4 25 -5 35 -12 38 -12 5z"/>
<path d="M8376 2095 c8 -37 14 -45 14 -19 0 10 -5 26 -10 34 -8 11 -9 7 -4
-15z"/>
<path d="M8412 2090 c0 -19 2 -27 5 -17 2 9 2 25 0 35 -3 9 -5 1 -5 -18z"/>
<path d="M8440 2110 c0 -5 5 -10 11 -10 5 0 7 5 4 10 -3 6 -8 10 -11 10 -2 0
-4 -4 -4 -10z"/>
<path d="M8479 2088 c4 -28 6 -29 9 -9 2 13 0 27 -5 32 -6 6 -7 -3 -4 -23z"/>
<path d="M8510 2095 c0 -14 4 -25 9 -25 4 0 6 11 3 25 -2 14 -6 25 -8 25 -2 0
-4 -11 -4 -25z"/>
<path d="M1160 2020 c0 -53 4 -90 10 -90 6 0 10 37 10 90 0 53 -4 90 -10 90
-6 0 -10 -37 -10 -90z"/>
<path d="M1452 2101 c4 -13 18 -16 19 -4 0 4 -5 9 -11 12 -7 2 -11 -2 -8 -8z"/>
<path d="M2350 2020 c0 -53 4 -90 10 -90 6 0 10 37 10 90 0 53 -4 90 -10 90
-6 0 -10 -37 -10 -90z"/>
<path d="M2620 2095 c0 -8 5 -15 10 -15 6 0 10 7 10 15 0 8 -4 15 -10 15 -5 0
-10 -7 -10 -15z"/>
<path d="M8032 2085 c0 -16 2 -22 5 -12 2 9 2 23 0 30 -3 6 -5 -1 -5 -18z"/>
<path d="M8110 2091 c0 -11 4 -22 9 -25 4 -3 6 6 3 19 -5 30 -12 33 -12 6z"/>
<path d="M8208 2085 c-3 -14 -1 -25 3 -25 5 0 9 11 9 25 0 14 -2 25 -4 25 -2
0 -6 -11 -8 -25z"/>
<path d="M8277 2103 c-3 -5 -1 -17 4 -28 7 -17 8 -17 8 8 1 27 -4 34 -12 20z"/>
<path d="M770 2015 c0 -50 4 -85 10 -85 6 0 10 16 10 35 0 24 5 35 14 35 14 0
51 -39 58 -62 2 -6 10 -9 17 -7 9 3 5 15 -13 41 -21 31 -22 39 -10 49 20 17
17 57 -5 69 -11 5 -33 10 -50 10 l-31 0 0 -85z m70 55 c20 -13 2 -44 -29 -48
-18 -3 -21 2 -21 27 0 33 19 41 50 21z"/>
<path d="M1310 2090 c0 -5 9 -10 20 -10 18 0 20 -7 20 -75 0 -60 3 -75 15 -75
12 0 15 15 15 75 0 73 1 75 25 75 14 0 25 5 25 10 0 6 -27 10 -60 10 -33 0
-60 -4 -60 -10z"/>
<path d="M1966 2092 c-8 -13 -56 -144 -56 -153 0 -20 20 -7 26 16 5 21 12 25
44 25 32 0 39 -4 44 -25 4 -14 11 -25 16 -25 14 0 13 7 -17 93 -25 69 -43 91
-57 69z m31 -62 c11 -29 10 -30 -17 -30 -27 0 -28 1 -17 30 6 17 14 30 17 30
3 0 11 -13 17 -30z"/>
<path d="M7970 2086 c0 -8 5 -18 10 -21 6 -3 10 1 10 9 0 8 -4 18 -10 21 -5 3
-10 -1 -10 -9z"/>
<path d="M6361 2044 c3 -66 -7 -82 -32 -50 -10 13 -19 32 -19 41 0 9 -4 14 -9
11 -5 -4 -12 0 -14 6 -3 8 -6 5 -8 -7 -4 -37 -5 -40 -17 -62 -11 -19 -10 -23
3 -23 12 0 14 -8 10 -40 -3 -27 -1 -40 7 -40 6 0 8 -3 5 -7 -4 -3 0 -15 10
-25 9 -10 12 -18 6 -18 -5 0 -18 9 -28 20 -10 11 -25 20 -33 20 -11 0 -14 10
-10 45 3 25 2 45 -2 45 -13 0 -16 -21 -16 -95 l1 -69 38 -3 c26 -3 39 1 43 12
9 23 23 18 35 -12 8 -20 13 -24 16 -13 3 8 12 29 20 47 11 24 12 36 3 52 -12
23 -25 27 -35 11 -3 -5 -13 -10 -22 -10 -14 0 -14 3 2 20 19 21 7 28 -13 8 -9
-9 -9 -5 0 15 13 27 28 36 28 16 0 -5 5 -7 12 -3 6 4 9 3 6 -2 -6 -11 28 -45
36 -37 6 6 36 -15 36 -26 0 -3 -10 -17 -23 -31 -29 -32 -31 -71 -2 -69 55 4
62 0 63 -36 1 -26 -3 -35 -15 -35 -15 0 -15 -2 1 -19 16 -17 16 -19 -4 -24
-11 -3 -18 -1 -15 3 3 5 -1 24 -9 42 -8 18 -15 26 -15 17 -1 -9 -8 -22 -16
-29 -12 -10 -15 -9 -16 6 0 16 -2 16 -9 -3 -5 -13 -12 -23 -15 -23 -15 0 -31
26 -27 44 4 13 1 17 -7 12 -7 -5 -10 -20 -7 -37 2 -16 1 -27 -4 -24 -22 14
-49 -96 -30 -125 16 -26 40 17 29 54 -9 32 -6 42 10 31 15 -9 13 -74 -4 -110
-9 -20 -14 -24 -14 -12 -1 14 -4 15 -19 6 -39 -24 -7 -81 48 -84 22 -1 29 2
26 12 -3 7 1 13 10 13 8 0 17 13 20 30 8 40 24 29 18 -13 -5 -37 21 -81 35
-59 4 7 6 25 4 40 -2 15 0 20 4 12 10 -24 46 -45 70 -42 17 3 24 -3 29 -22 3
-14 3 -29 0 -34 -3 -6 5 -5 18 1 18 9 23 19 22 43 -1 24 2 30 15 27 15 -4 17
8 18 102 1 67 -2 104 -8 101 -5 -4 -15 2 -21 11 -9 14 -12 15 -17 5 -8 -19
-43 42 -44 76 0 26 0 27 -10 4 -5 -13 -10 -36 -11 -52 -3 -40 -14 -25 -23 29
-5 27 -4 41 2 38 6 -4 9 5 7 21 -2 15 -1 19 2 10 7 -22 18 -23 39 -2 17 18 17
18 33 -11 l11 -20 1 20 c0 16 2 17 10 5 16 -25 25 -1 28 80 4 74 3 78 -16 74
-15 -4 -21 1 -26 20 -3 13 -15 28 -26 31 -11 3 -20 14 -20 23 0 15 2 15 10 2
8 -13 10 -12 10 3 0 9 -7 17 -15 17 -10 0 -14 -10 -13 -35 1 -40 -9 -56 -23
-35 -8 13 -10 13 -19 0 -5 -8 -8 -21 -5 -28 3 -7 0 -10 -5 -7 -6 3 -10 17 -10
30 0 31 -20 43 -21 13 -1 -23 -1 -23 -9 2 -4 14 -8 19 -9 13 -1 -7 -5 -13 -11
-13 -5 0 -10 21 -10 48 0 26 -7 56 -16 67 -14 19 -15 17 -13 -31z m189 -143
c-1 -3 -9 -17 -20 -29 -18 -22 -21 -23 -36 -8 -11 12 -13 20 -6 29 11 12 62
20 62 8z m-310 -61 c0 -5 -2 -10 -4 -10 -3 0 -8 5 -11 10 -3 6 -1 10 4 10 6 0
11 -4 11 -10z m232 -22 c-9 -9 -12 -7 -12 12 0 19 3 21 12 12 9 -9 9 -15 0
-24z m110 10 c-7 -7 -12 -8 -12 -2 0 14 12 26 19 19 2 -3 -1 -11 -7 -17z
m-148 -4 c4 -10 1 -14 -6 -12 -15 5 -23 28 -10 28 5 0 13 -7 16 -16z m150
-249 c3 -8 1 -15 -4 -15 -6 0 -10 7 -10 15 0 8 2 15 4 15 2 0 6 -7 10 -15z
m-210 -10 c3 -8 1 -15 -4 -15 -6 0 -10 7 -10 15 0 8 2 15 4 15 2 0 6 -7 10
-15z m146 -22 c0 -6 -4 -15 -10 -18 -5 -3 -10 1 -10 10 0 9 -4 13 -10 10 -17
-11 -31 5 -18 19 14 15 48 0 48 -21z m60 -32 c0 -11 6 -22 13 -24 7 -4 6 -6
-4 -6 -9 -1 -20 6 -23 15 -9 23 -7 34 4 34 6 0 10 -9 10 -19z m-250 -11 c0 -5
-5 -10 -11 -10 -5 0 -7 5 -4 10 3 6 8 10 11 10 2 0 4 -4 4 -10z"/>
<path d="M7930 2080 c0 -5 5 -10 11 -10 5 0 7 5 4 10 -3 6 -8 10 -11 10 -2 0
-4 -4 -4 -10z"/>
<path d="M8251 2074 c0 -11 3 -14 6 -6 3 7 2 16 -1 19 -3 4 -6 -2 -5 -13z"/>
<path d="M2540 2066 c0 -8 -6 -17 -12 -20 -10 -5 -10 -7 0 -12 7 -3 12 -24 12
-49 0 -35 4 -45 21 -50 27 -9 39 4 16 16 -22 13 -24 79 -2 79 8 0 15 5 15 10
0 6 -7 10 -15 10 -8 0 -15 7 -15 15 0 8 -4 15 -10 15 -5 0 -10 -6 -10 -14z"/>
<path d="M6218 2058 c-2 -13 -1 -36 2 -53 6 -28 6 -27 12 15 7 46 -6 81 -14
38z"/>
<path d="M8440 2070 c0 -5 5 -10 11 -10 5 0 7 5 4 10 -3 6 -8 10 -11 10 -2 0
-4 -4 -4 -10z"/>
<path d="M920 2030 c-50 -50 11 -128 70 -90 11 7 8 10 -16 10 -17 0 -37 7 -44
15 -11 13 -6 15 34 15 50 0 57 10 30 48 -19 27 -48 28 -74 2z m58 -17 c2 -9
-7 -13 -28 -13 -28 0 -31 2 -20 15 15 18 41 16 48 -2z"/>
<path d="M1047 2043 c-14 -13 -6 -20 17 -16 37 8 41 -15 4 -25 -26 -6 -34 -14
-36 -35 -4 -32 21 -46 49 -28 12 7 19 7 19 1 0 -5 5 -10 10 -10 6 0 10 24 10
54 0 40 -4 55 -16 60 -21 8 -49 8 -57 -1z m51 -70 c-4 -22 -48 -31 -48 -10 0
19 10 27 32 27 13 0 18 -6 16 -17z"/>
<path d="M1450 1990 c0 -47 3 -60 15 -60 12 0 15 13 15 60 0 47 -3 60 -15 60
-12 0 -15 -13 -15 -60z"/>
<path d="M1510 1990 c0 -46 3 -60 14 -60 11 0 16 14 18 48 3 39 6 47 23 47 17
0 20 -8 23 -47 3 -52 22 -67 22 -17 0 37 16 69 34 69 17 0 26 -22 26 -66 0
-19 5 -34 10 -34 6 0 10 22 10 49 0 58 -18 80 -53 64 -16 -8 -29 -8 -42 -1
-13 8 -24 7 -37 -1 -11 -7 -18 -7 -18 -1 0 5 -7 10 -15 10 -12 0 -15 -13 -15
-60z"/>
<path d="M1740 2030 c-50 -50 11 -128 70 -90 11 7 8 10 -16 10 -17 0 -37 7
-44 15 -11 13 -6 15 34 15 50 0 57 10 30 48 -19 27 -48 28 -74 2z m58 -17 c2
-9 -7 -13 -28 -13 -28 0 -31 2 -20 15 15 18 41 16 48 -2z"/>
<path d="M2080 1990 c0 -46 3 -60 14 -60 11 0 16 14 18 48 3 39 6 47 23 47 17
0 20 -8 23 -47 2 -34 7 -48 18 -48 15 0 19 45 8 87 -7 27 -40 39 -59 23 -11
-9 -15 -9 -15 -1 0 6 -7 11 -15 11 -12 0 -15 -13 -15 -60z"/>
<path d="M2237 2043 c-14 -13 -6 -20 17 -16 35 7 41 -14 6 -22 -36 -8 -52 -32
-39 -57 11 -21 39 -24 57 -6 9 9 12 9 12 0 0 -7 5 -12 10 -12 14 0 12 94 -2
108 -13 13 -50 16 -61 5z m51 -70 c-4 -22 -48 -31 -48 -10 0 19 10 27 32 27
13 0 18 -6 16 -17z"/>
<path d="M2400 2044 c0 -4 10 -34 22 -67 l22 -60 -24 -19 c-24 -20 -22 -35 5
-24 15 6 24 23 66 127 13 35 16 50 7 47 -7 -3 -20 -24 -29 -48 -17 -46 -20
-45 -38 13 -7 20 -17 37 -22 37 -5 0 -9 -3 -9 -6z"/>
<path d="M2620 1990 c0 -33 4 -60 10 -60 6 0 10 27 10 60 0 33 -4 60 -10 60
-6 0 -10 -27 -10 -60z"/>
<path d="M2697 2032 c-38 -42 -13 -102 42 -102 28 0 27 18 0 22 -12 2 -27 11
-33 21 -14 22 3 51 33 55 11 2 21 8 21 13 0 16 -46 10 -63 -9z"/>
<path d="M2800 2035 c-17 -20 -6 -43 25 -55 31 -12 24 -30 -11 -30 -13 0 -24
-4 -24 -10 0 -13 36 -13 61 0 28 15 23 37 -11 55 -37 19 -39 35 -5 35 14 0 25
5 25 10 0 16 -46 12 -60 -5z"/>
<path d="M12234 1998 c3 -21 2 -38 -2 -38 -4 0 -7 -11 -7 -25 0 -23 7 -29 28
-26 4 0 7 -9 7 -21 0 -18 2 -20 9 -9 7 10 3 23 -10 39 -14 18 -16 28 -9 37 8
9 6 23 -5 47 l-15 33 4 -37z"/>
<path d="M1220 2000 c0 -5 14 -10 30 -10 17 0 30 5 30 10 0 6 -13 10 -30 10
-16 0 -30 -4 -30 -10z"/>
<path d="M12185 2001 c-3 -5 -1 -12 5 -16 5 -3 10 1 10 9 0 18 -6 21 -15 7z"/>
<path d="M12441 1974 c0 -11 3 -14 6 -6 3 7 2 16 -1 19 -3 4 -6 -2 -5 -13z"/>
<path d="M12326 1971 c-4 -5 -2 -12 3 -15 5 -4 12 -2 15 3 4 5 2 12 -3 15 -5
4 -12 2 -15 -3z"/>
<path d="M12520 1970 c0 -5 5 -10 10 -10 6 0 10 5 10 10 0 6 -4 10 -10 10 -5
0 -10 -4 -10 -10z"/>
<path d="M12183 1933 c-8 -3 -13 -21 -12 -46 1 -23 4 -33 6 -22 3 11 10 23 15
26 14 9 5 47 -9 42z"/>
<path d="M12543 1907 c1 -17 7 -27 17 -26 28 3 30 -1 9 -22 -14 -14 -29 -19
-46 -16 -19 3 -27 0 -30 -13 -5 -18 -6 -18 -40 1 -40 23 -53 18 -54 -19 0 -15
-3 -21 -6 -14 -6 16 -23 15 -23 -2 0 -28 -26 -23 -41 8 l-14 31 -3 -32 c-2
-18 -8 -33 -13 -33 -6 0 -7 -5 -4 -10 4 -6 15 -8 26 -5 15 5 17 3 12 -11 -5
-14 -3 -15 15 -5 12 7 22 16 22 21 0 6 7 10 15 10 8 0 12 -6 10 -12 -3 -7 -1
-19 4 -27 7 -11 13 -12 23 -3 8 6 23 11 33 10 11 0 29 3 39 7 13 6 17 5 12 -3
-10 -17 36 -19 63 -3 21 13 25 13 36 -2 11 -16 13 -16 29 1 11 14 16 36 15 83
0 35 -3 58 -6 52 -2 -7 -8 -13 -13 -13 -4 0 -8 6 -7 13 0 6 -1 25 -1 41 -2 24
-4 27 -17 16 -9 -7 -15 -8 -15 -2 0 5 -11 9 -24 8 -21 -1 -24 -6 -23 -29z m62
-57 c3 -5 1 -10 -4 -10 -6 0 -11 5 -11 10 0 6 2 10 4 10 3 0 8 -4 11 -10z
m-85 -53 c0 -5 -4 -5 -10 -2 -5 3 -10 14 -10 23 0 15 2 15 10 2 5 -8 10 -19
10 -23z m-84 7 c-8 -21 4 -41 14 -24 10 15 30 4 30 -16 0 -10 -5 -12 -12 -7
-7 4 -17 8 -23 9 -5 0 -16 2 -22 2 -20 3 -16 52 3 52 11 0 14 -5 10 -16z"/>
<path d="M12415 1908 c1 -13 6 -22 11 -21 5 1 15 -3 22 -9 8 -7 12 -7 12 0 0
6 -4 13 -10 17 -5 3 -7 12 -3 20 3 10 -1 15 -14 15 -14 0 -19 -6 -18 -22z"/>
<path d="M12370 1901 c0 -5 5 -13 10 -16 6 -3 10 -2 10 4 0 5 -4 13 -10 16 -5
3 -10 2 -10 -4z"/>
<path d="M12315 1880 c-4 -6 -3 -16 3 -22 13 -13 23 4 13 21 -7 10 -10 10 -16
1z"/>
<path d="M12470 1880 c0 -5 5 -10 10 -10 6 0 10 5 10 10 0 6 -4 10 -10 10 -5
0 -10 -4 -10 -10z"/>
<path d="M12250 1836 c0 -9 5 -16 10 -16 6 0 10 4 10 9 0 6 -4 13 -10 16 -5 3
-10 -1 -10 -9z"/>
<path d="M12281 1825 c1 -19 18 -51 18 -35 0 8 -4 22 -9 30 -5 8 -9 11 -9 5z"/>
<path d="M12250 1784 c0 -8 5 -12 10 -9 6 4 8 11 5 16 -9 14 -15 11 -15 -7z"/>
<path d="M6532 1740 c0 -14 2 -19 5 -12 2 6 2 18 0 25 -3 6 -5 1 -5 -13z"/>
<path d="M6267 1711 c6 -23 -14 -38 -30 -22 -17 17 -27 13 -27 -13 0 -29 24
-40 44 -21 8 8 19 15 24 15 4 0 7 14 4 30 -2 17 -8 30 -12 30 -5 0 -6 -8 -3
-19z"/>
<path d="M6576 1685 c4 -8 10 -15 15 -15 4 0 6 7 3 15 -4 8 -10 15 -15 15 -4
0 -6 -7 -3 -15z"/>
<path d="M763 1613 c13 -3 17 -16 19 -51 l1 -47 4 45 c3 24 10 48 16 52 7 4
-4 7 -23 7 -19 -1 -27 -3 -17 -6z"/>
<path d="M1002 1570 c0 -32 2 -47 7 -37 6 17 8 17 20 3 7 -9 18 -16 24 -16 6
0 1 7 -11 16 -23 16 -23 17 -5 38 18 21 18 21 -4 3 -21 -19 -22 -19 -26 15 -2
21 -4 13 -5 -22z"/>
<path d="M1433 1570 c0 -30 2 -43 4 -27 2 15 2 39 0 55 -2 15 -4 2 -4 -28z"/>
<path d="M1513 1570 c0 -30 2 -43 4 -27 2 15 2 39 0 55 -2 15 -4 2 -4 -28z"/>
<path d="M2853 1570 c0 -30 2 -43 4 -27 2 15 2 39 0 55 -2 15 -4 2 -4 -28z"/>
<path d="M3163 1570 c0 -30 2 -43 4 -27 2 15 2 39 0 55 -2 15 -4 2 -4 -28z"/>
<path d="M3783 1570 c0 -30 2 -43 4 -27 2 15 2 39 0 55 -2 15 -4 2 -4 -28z"/>
<path d="M4164 1570 c1 -38 4 -45 22 -48 11 -2 27 5 34 15 12 15 12 16 0 6
-29 -27 -49 -15 -53 30 l-4 42 1 -45z"/>
<path d="M4222 1590 c0 -19 2 -27 5 -17 2 9 2 25 0 35 -3 9 -5 1 -5 -18z"/>
<path d="M4383 1570 c0 -30 2 -43 4 -27 2 15 2 39 0 55 -2 15 -4 2 -4 -28z"/>
<path d="M3248 1597 c-7 -21 6 -70 20 -73 7 -1 8 0 2 3 -12 6 -13 50 -1 55 5
2 3 8 -4 15 -10 9 -14 9 -17 0z"/>
<path d="M3889 1599 c-2 -27 3 -64 9 -71 4 -4 6 11 5 33 -1 39 -12 67 -14 38z"/>
<path d="M4598 1597 c-7 -21 6 -70 20 -73 7 -1 8 0 2 3 -12 6 -13 50 -1 55 5
2 3 8 -4 15 -10 9 -14 9 -17 0z"/>
<path d="M823 1555 c0 -22 2 -30 4 -17 2 12 2 30 0 40 -3 9 -5 -1 -4 -23z"/>
<path d="M870 1586 c0 -2 9 -6 20 -9 11 -3 20 -1 20 4 0 5 -9 9 -20 9 -11 0
-20 -2 -20 -4z"/>
<path d="M946 1581 c-4 -5 3 -7 14 -4 23 6 26 13 6 13 -8 0 -17 -4 -20 -9z"/>
<path d="M1185 1580 c-4 -6 -4 -14 -1 -17 3 -4 6 -1 6 5 0 19 38 14 44 -5 4
-14 4 -14 3 2 -2 22 -41 33 -52 15z"/>
<path d="M1262 1562 c-2 -35 20 -54 40 -34 8 8 5 9 -10 5 -17 -4 -21 0 -25 29
l-4 33 -1 -33z"/>
<path d="M1343 1555 c0 -22 2 -30 4 -17 2 12 2 30 0 40 -3 9 -5 -1 -4 -23z"/>
<path d="M1458 1583 c7 -3 16 -2 19 1 4 3 -2 6 -13 5 -11 0 -14 -3 -6 -6z"/>
<path d="M1544 1576 c-14 -37 22 -74 48 -48 6 6 0 8 -16 5 -23 -5 -26 -2 -26
21 0 19 5 26 19 26 11 0 22 -5 24 -10 3 -6 4 -5 3 2 -4 19 -45 22 -52 4z"/>
<path d="M1630 1575 c-15 -18 -3 -55 18 -55 16 1 15 2 0 11 -10 5 -18 16 -18
24 0 8 8 19 18 24 9 6 12 11 6 11 -6 0 -17 -7 -24 -15z"/>
<path d="M1744 1578 c-4 -6 0 -16 9 -23 22 -16 21 -22 0 -28 -16 -4 -16 -5 -1
-6 24 -2 34 20 15 34 -22 16 -21 22 1 28 15 4 15 5 0 6 -9 0 -20 -4 -24 -11z"/>
<path d="M1843 1540 c0 -30 2 -43 4 -27 2 15 2 39 0 55 -2 15 -4 2 -4 -28z"/>
<path d="M1868 1583 c7 -3 16 -2 19 1 4 3 -2 6 -13 5 -11 0 -14 -3 -6 -6z"/>
<path d="M1927 1583 c-17 -16 -6 -33 21 -32 23 2 24 2 5 6 -13 2 -23 9 -23 15
0 6 9 8 20 5 11 -3 18 -1 14 4 -6 11 -28 12 -37 2z"/>
<path d="M1991 1550 c1 -27 3 -29 6 -10 2 14 11 30 20 37 13 10 13 12 -6 10
-17 -1 -21 -7 -20 -37z"/>
<path d="M2048 1583 c7 -3 16 -2 19 1 4 3 -2 6 -13 5 -11 0 -14 -3 -6 -6z"/>
<path d="M2090 1575 c-22 -27 17 -72 41 -48 6 6 2 9 -13 9 -17 -1 -23 5 -23
19 0 14 6 20 22 19 12 0 20 3 17 8 -8 13 -30 9 -44 -7z"/>
<path d="M2173 1555 c0 -22 2 -30 4 -17 2 12 2 30 0 40 -3 9 -5 -1 -4 -23z"/>
<path d="M2223 1555 c0 -22 2 -30 4 -17 2 12 2 30 0 40 -3 9 -5 -1 -4 -23z"/>
<path d="M2247 1583 c6 -4 13 -22 16 -38 4 -27 5 -27 3 4 0 21 -7 36 -16 38
-10 3 -11 2 -3 -4z"/>
<path d="M2287 1583 c6 -4 13 -22 16 -38 4 -27 5 -27 3 4 0 21 -7 36 -16 38
-10 3 -11 2 -3 -4z"/>
<path d="M2340 1586 c0 -2 9 -6 20 -9 11 -3 20 -1 20 4 0 5 -9 9 -20 9 -11 0
-20 -2 -20 -4z"/>
<path d="M2413 1555 c0 -22 2 -30 4 -17 2 12 2 30 0 40 -3 9 -5 -1 -4 -23z"/>
<path d="M2430 1586 c0 -2 7 -7 16 -10 8 -3 12 -2 9 4 -6 10 -25 14 -25 6z"/>
<path d="M2496 1581 c-4 -5 3 -7 14 -4 23 6 26 13 6 13 -8 0 -17 -4 -20 -9z"/>
<path d="M2557 1583 c-18 -17 -5 -33 26 -32 30 2 30 2 5 6 -16 2 -28 9 -28 15
0 6 9 8 20 5 11 -3 18 -1 14 4 -6 11 -28 12 -37 2z"/>
<path d="M2798 1583 c6 -2 18 -2 25 0 6 3 1 5 -13 5 -14 0 -19 -2 -12 -5z"/>
<path d="M2870 1586 c0 -2 7 -7 16 -10 8 -3 12 -2 9 4 -6 10 -25 14 -25 6z"/>
<path d="M2975 1580 c-3 -6 1 -7 9 -4 18 7 21 14 7 14 -6 0 -13 -4 -16 -10z"/>
<path d="M3017 1583 c-18 -17 -5 -33 26 -32 30 2 30 2 5 6 -16 2 -28 9 -28 15
0 6 9 8 20 5 11 -3 18 -1 14 4 -6 11 -28 12 -37 2z"/>
<path d="M3090 1586 c0 -2 9 -6 20 -9 11 -3 20 -1 20 4 0 5 -9 9 -20 9 -11 0
-20 -2 -20 -4z"/>
<path d="M3333 1555 c0 -22 2 -30 4 -17 2 12 2 30 0 40 -3 9 -5 -1 -4 -23z"/>
<path d="M3357 1583 c6 -4 13 -22 16 -38 4 -27 5 -27 3 4 0 21 -7 36 -16 38
-10 3 -11 2 -3 -4z"/>
<path d="M3397 1583 c6 -4 13 -22 16 -38 4 -27 5 -27 3 4 0 21 -7 36 -16 38
-10 3 -11 2 -3 -4z"/>
<path d="M3457 1583 c-17 -16 -6 -33 21 -32 23 2 24 2 5 6 -13 2 -23 9 -23 15
0 6 9 8 20 5 11 -3 18 -1 14 4 -6 11 -28 12 -37 2z"/>
<path d="M3583 1584 c21 -7 23 -24 3 -24 -8 0 -17 -4 -20 -9 -4 -5 3 -7 13 -4
13 3 21 -1 24 -14 3 -10 5 -2 4 17 -2 27 -7 35 -22 37 -16 1 -16 1 -2 -3z"/>
<path d="M3631 1551 c1 -36 1 -36 8 -6 8 40 38 46 44 8 4 -28 4 -28 3 2 -1 26
-5 30 -28 31 -26 1 -28 -2 -27 -35z"/>
<path d="M3733 1584 c21 -7 23 -24 3 -24 -8 0 -17 -4 -20 -9 -4 -5 3 -7 13 -4
13 3 21 -1 24 -14 3 -10 5 -2 4 17 -2 27 -7 35 -22 37 -16 1 -16 1 -2 -3z"/>
<path d="M3933 1555 c0 -22 2 -30 4 -17 2 12 2 30 0 40 -3 9 -5 -1 -4 -23z"/>
<path d="M3969 1574 c-16 -19 -1 -48 27 -51 15 -2 14 -1 -3 7 -13 5 -23 16
-23 25 0 9 10 20 23 25 15 6 17 9 6 9 -9 1 -22 -6 -30 -15z"/>
<path d="M4034 1578 c-4 -6 0 -16 9 -23 22 -16 21 -22 0 -28 -16 -4 -16 -5 -1
-6 24 -2 34 20 15 34 -22 16 -21 22 1 28 15 4 15 5 0 6 -9 0 -20 -4 -24 -11z"/>
<path d="M4287 1583 c6 -4 13 -22 16 -38 4 -27 5 -27 3 4 0 21 -7 36 -16 38
-10 3 -11 2 -3 -4z"/>
<path d="M4334 1576 c-9 -23 0 -51 16 -52 9 0 10 1 3 3 -20 7 -16 51 5 56 16
4 16 5 -1 6 -10 0 -20 -5 -23 -13z"/>
<path d="M4422 1578 c-19 -19 -14 -28 18 -28 17 0 30 4 30 9 0 4 -11 6 -25 3
-31 -6 -33 6 -2 18 13 5 16 9 7 9 -9 1 -21 -4 -28 -11z"/>
<path d="M4493 1555 c0 -22 2 -30 4 -17 2 12 2 30 0 40 -3 9 -5 -1 -4 -23z"/>
<path d="M4548 1583 c7 -3 16 -2 19 1 4 3 -2 6 -13 5 -11 0 -14 -3 -6 -6z"/>
<path d="M4650 1586 c0 -2 9 -6 20 -9 11 -3 20 -1 20 4 0 5 -9 9 -20 9 -11 0
-20 -2 -20 -4z"/>
<path d="M4747 1583 c6 -4 13 -22 16 -38 4 -27 5 -27 3 4 0 21 -7 36 -16 38
-10 3 -11 2 -3 -4z"/>
<path d="M4799 1574 c-14 -17 -3 -45 22 -52 8 -2 5 2 -5 10 -25 20 -14 53 14
45 11 -3 18 -1 14 4 -8 14 -30 11 -45 -7z"/>
<path d="M4984 1576 c-14 -37 22 -74 48 -48 6 6 0 8 -16 5 -23 -5 -26 -2 -26
21 0 19 5 26 19 26 11 0 22 -5 24 -10 3 -6 4 -5 3 2 -4 19 -45 22 -52 4z"/>
<path d="M5113 1555 c0 -22 2 -30 4 -17 2 12 2 30 0 40 -3 9 -5 -1 -4 -23z"/>
<path d="M5155 1580 c-3 -6 1 -7 9 -4 18 7 21 14 7 14 -6 0 -13 -4 -16 -10z"/>
<path d="M1481 1558 c-1 -9 -9 -22 -18 -27 -10 -6 -13 -11 -7 -11 17 0 37 27
31 42 -4 8 -6 7 -6 -4z"/>
<path d="M1891 1558 c-1 -9 -9 -22 -18 -27 -10 -6 -13 -11 -7 -11 17 0 37 27
31 42 -4 8 -6 7 -6 -4z"/>
<path d="M888 1553 c7 -3 16 -2 19 1 4 3 -2 6 -13 5 -11 0 -14 -3 -6 -6z"/>
<path d="M2358 1553 c7 -3 16 -2 19 1 4 3 -2 6 -13 5 -11 0 -14 -3 -6 -6z"/>
<path d="M3085 1550 c-3 -5 -3 -14 0 -20 8 -12 45 -13 45 -1 0 5 -9 7 -20 4
-11 -3 -20 -1 -20 5 0 6 10 13 23 15 22 4 22 4 0 6 -12 0 -25 -3 -28 -9z"/>
<path d="M3198 1553 c7 -3 16 -2 19 1 4 3 -2 6 -13 5 -11 0 -14 -3 -6 -6z"/>
<path d="M3821 1555 c1 -19 18 -51 18 -35 0 8 -4 22 -9 30 -5 8 -9 11 -9 5z"/>
<path d="M4560 1553 c15 -7 12 -21 -5 -26 -11 -4 -10 -4 2 -3 21 2 25 28 5 32
-7 1 -8 0 -2 -3z"/>
<path d="M4645 1550 c-3 -5 -3 -14 0 -20 8 -12 45 -13 45 -1 0 5 -9 7 -20 4
-11 -3 -20 -1 -20 5 0 6 10 13 23 15 22 4 22 4 0 6 -12 0 -25 -3 -28 -9z"/>
<path d="M4921 1555 c1 -19 18 -51 18 -35 0 8 -4 22 -9 30 -5 8 -9 11 -9 5z"/>
<path d="M1126 1537 c3 -10 9 -15 12 -12 3 3 0 11 -7 18 -10 9 -11 8 -5 -6z"/>
<path d="M1183 1540 c5 -18 35 -26 50 -11 7 7 3 8 -13 4 -13 -4 -26 0 -32 8
-8 12 -9 11 -5 -1z"/>
<path d="M2676 1537 c3 -10 9 -15 12 -12 3 3 0 11 -7 18 -10 9 -11 8 -5 -6z"/>
<path d="M2725 1539 c-4 -6 -5 -12 -2 -15 2 -3 7 2 10 11 7 17 1 20 -8 4z"/>
<path d="M867 1528 c2 -5 10 -8 18 -8 8 0 16 3 18 8 3 4 -5 7 -18 7 -13 0 -21
-3 -18 -7z"/>
<path d="M948 1528 c5 -5 16 -8 23 -6 8 3 3 7 -10 11 -17 4 -21 3 -13 -5z"/>
<path d="M1928 1528 c6 -6 18 -8 28 -6 14 3 12 5 -9 10 -19 3 -25 2 -19 -4z"/>
<path d="M2337 1528 c2 -5 10 -8 18 -8 8 0 16 3 18 8 3 4 -5 7 -18 7 -13 0
-21 -3 -18 -7z"/>
<path d="M2498 1528 c5 -5 16 -8 23 -6 8 3 3 7 -10 11 -17 4 -21 3 -13 -5z"/>
<path d="M2558 1528 c6 -6 18 -8 28 -6 14 3 12 5 -9 10 -19 3 -25 2 -19 -4z"/>
<path d="M3018 1528 c6 -6 18 -8 28 -6 14 3 12 5 -9 10 -19 3 -25 2 -19 -4z"/>
<path d="M3458 1528 c6 -6 18 -8 28 -6 14 3 12 5 -9 10 -19 3 -25 2 -19 -4z"/>
<path d="M4428 1528 c5 -5 16 -8 23 -6 8 3 3 7 -10 11 -17 4 -21 3 -13 -5z"/>
<path d="M5070 1530 c0 -6 7 -10 15 -10 8 0 15 2 15 4 0 2 -7 6 -15 10 -8 3
-15 1 -15 -4z"/>
<path d="M3568 1523 c7 -3 16 -2 19 1 4 3 -2 6 -13 5 -11 0 -14 -3 -6 -6z"/>
<path d="M3718 1523 c7 -3 16 -2 19 1 4 3 -2 6 -13 5 -11 0 -14 -3 -6 -6z"/>
<path d="M1670 1512 c0 -7 -10 -13 -22 -13 -19 -1 -20 -2 -4 -6 20 -5 44 12
33 24 -4 3 -7 1 -7 -5z"/>
<path d="M1110 1500 c-9 -6 -10 -10 -3 -10 6 0 15 5 18 10 8 12 4 12 -15 0z"/>
<path d="M6216 1475 c-9 -26 -7 -32 5 -12 6 10 9 21 6 23 -2 3 -7 -2 -11 -11z"/>
<path d="M6365 1430 c3 -5 8 -10 11 -10 2 0 4 5 4 10 0 6 -5 10 -11 10 -5 0
-7 -4 -4 -10z"/>
<path d="M1553 1370 c0 -30 2 -43 4 -27 2 15 2 39 0 55 -2 15 -4 2 -4 -28z"/>
<path d="M12608 1404 c-13 -12 -10 -164 3 -161 6 1 14 -4 17 -12 3 -8 0 -11
-7 -7 -13 8 -19 -6 -24 -49 -2 -16 -8 -39 -14 -51 -16 -28 -1 -46 33 -42 l29
3 2 88 c1 78 -11 166 -18 127 -1 -8 -5 14 -8 48 -3 35 -9 60 -13 56z"/>
<path d="M760 1386 c0 -2 9 -6 20 -9 11 -3 20 -1 20 4 0 5 -9 9 -20 9 -11 0
-20 -2 -20 -4z"/>
<path d="M873 1355 c0 -22 2 -30 4 -17 2 12 2 30 0 40 -3 9 -5 -1 -4 -23z"/>
<path d="M917 1383 c-3 -5 5 -8 18 -8 13 0 21 3 18 8 -2 4 -10 7 -18 7 -8 0
-16 -3 -18 -7z"/>
<path d="M993 1355 c0 -22 2 -30 4 -17 2 12 2 30 0 40 -3 9 -5 -1 -4 -23z"/>
<path d="M1032 1378 c-19 -19 -14 -28 18 -28 17 0 30 4 30 9 0 4 -11 6 -25 3
-31 -6 -33 6 -2 18 13 5 16 9 7 9 -9 1 -21 -4 -28 -11z"/>
<path d="M1103 1355 c0 -22 2 -30 4 -17 2 12 2 30 0 40 -3 9 -5 -1 -4 -23z"/>
<path d="M1120 1386 c0 -2 7 -7 16 -10 8 -3 12 -2 9 4 -6 10 -25 14 -25 6z"/>
<path d="M1186 1381 c-4 -5 3 -7 14 -4 23 6 26 13 6 13 -8 0 -17 -4 -20 -9z"/>
<path d="M1247 1383 c-18 -17 -5 -33 26 -32 30 2 30 2 5 6 -16 2 -28 9 -28 15
0 6 9 8 20 5 11 -3 18 -1 14 4 -6 11 -28 12 -37 2z"/>
<path d="M1373 1384 c23 -7 22 -20 -3 -27 -30 -8 -25 -37 6 -37 23 0 25 3 22
32 -2 24 -8 33 -23 35 -16 1 -16 1 -2 -3z m17 -44 c0 -5 -7 -10 -15 -10 -8 0
-15 5 -15 10 0 6 7 10 15 10 8 0 15 -4 15 -10z"/>
<path d="M1457 1383 c6 -4 13 -22 16 -38 4 -27 5 -27 3 4 0 21 -7 36 -16 38
-10 3 -11 2 -3 -4z"/>
<path d="M1504 1376 c-9 -23 0 -51 16 -52 9 0 10 1 3 3 -20 7 -16 51 5 56 16
4 16 5 -1 6 -10 0 -20 -5 -23 -13z"/>
<path d="M1662 1376 c7 -8 15 -12 17 -11 5 6 -10 25 -20 25 -5 0 -4 -6 3 -14z"/>
<path d="M1697 1383 c6 -4 13 -22 16 -38 4 -27 5 -27 3 4 0 21 -7 36 -16 38
-10 3 -11 2 -3 -4z"/>
<path d="M1750 1386 c0 -2 9 -6 20 -9 11 -3 20 -1 20 4 0 5 -9 9 -20 9 -11 0
-20 -2 -20 -4z"/>
<path d="M1845 1380 c-3 -6 1 -7 9 -4 18 7 21 14 7 14 -6 0 -13 -4 -16 -10z"/>
<path d="M1892 1378 c-19 -19 -14 -28 18 -28 17 0 30 4 30 9 0 4 -11 6 -25 3
-31 -6 -33 6 -2 18 13 5 16 9 7 9 -9 1 -21 -4 -28 -11z"/>
<path d="M2007 1383 c-3 -5 5 -8 18 -8 13 0 21 3 18 8 -2 4 -10 7 -18 7 -8 0
-16 -3 -18 -7z"/>
<path d="M2103 1384 c21 -7 23 -24 3 -24 -8 0 -17 -4 -20 -9 -4 -5 3 -7 13 -4
13 3 21 -1 24 -14 3 -10 5 -2 4 17 -2 27 -7 35 -22 37 -16 1 -16 1 -2 -3z"/>
<path d="M2148 1383 c6 -2 18 -2 25 0 6 3 1 5 -13 5 -14 0 -19 -2 -12 -5z"/>
<path d="M2200 1386 c0 -2 9 -6 20 -9 11 -3 20 -1 20 4 0 5 -9 9 -20 9 -11 0
-20 -2 -20 -4z"/>
<path d="M2329 1374 c-14 -17 -3 -45 22 -52 8 -2 5 2 -5 10 -25 20 -14 53 14
45 11 -3 18 -1 14 4 -8 14 -30 11 -45 -7z"/>
<path d="M2413 1355 c0 -22 2 -30 4 -17 2 12 2 30 0 40 -3 9 -5 -1 -4 -23z"/>
<path d="M2463 1355 c0 -22 2 -30 4 -17 2 12 2 30 0 40 -3 9 -5 -1 -4 -23z"/>
<path d="M2567 1383 c-3 -5 5 -8 18 -8 13 0 21 3 18 8 -2 4 -10 7 -18 7 -8 0
-16 -3 -18 -7z"/>
<path d="M2631 1350 l1 -35 7 30 c3 17 13 30 21 30 8 0 18 -13 21 -30 6 -27 7
-27 8 -5 1 34 -11 49 -37 47 -18 -1 -22 -7 -21 -37z"/>
<path d="M2757 1383 c-3 -5 5 -8 18 -8 13 0 21 3 18 8 -2 4 -10 7 -18 7 -8 0
-16 -3 -18 -7z"/>
<path d="M2837 1383 c-17 -16 -6 -33 21 -32 23 2 24 2 5 6 -13 2 -23 9 -23 15
0 6 9 8 20 5 11 -3 18 -1 14 4 -6 11 -28 12 -37 2z"/>
<path d="M2909 1374 c-16 -19 -1 -48 27 -51 15 -2 14 -1 -3 7 -13 5 -23 16
-23 25 0 9 10 20 23 25 15 6 17 9 6 9 -9 1 -22 -6 -30 -15z"/>
<path d="M2973 1355 c0 -22 2 -30 4 -17 2 12 2 30 0 40 -3 9 -5 -1 -4 -23z"/>
<path d="M3004 1378 c-4 -6 0 -16 9 -23 22 -16 21 -22 0 -28 -16 -4 -16 -5 -1
-6 24 -2 34 20 15 34 -22 16 -21 22 1 28 15 4 15 5 0 6 -9 0 -20 -4 -24 -11z"/>
<path d="M3063 1355 c0 -22 2 -30 4 -17 2 12 2 30 0 40 -3 9 -5 -1 -4 -23z"/>
<path d="M3100 1375 c-22 -27 17 -72 41 -48 6 6 2 9 -13 9 -17 -1 -23 5 -23
19 0 14 6 20 22 19 12 0 20 3 17 8 -8 13 -30 9 -44 -7z"/>
<path d="M3183 1355 c0 -22 2 -30 4 -17 2 12 2 30 0 40 -3 9 -5 -1 -4 -23z"/>
<path d="M3200 1386 c0 -2 7 -7 16 -10 8 -3 12 -2 9 4 -6 10 -25 14 -25 6z"/>
<path d="M3268 1383 c7 -3 16 -2 19 1 4 3 -2 6 -13 5 -11 0 -14 -3 -6 -6z"/>
<path d="M778 1353 c7 -3 16 -2 19 1 4 3 -2 6 -13 5 -11 0 -14 -3 -6 -6z"/>
<path d="M1745 1350 c-3 -5 -3 -14 0 -20 8 -12 45 -13 45 -1 0 5 -9 7 -20 4
-11 -3 -20 -1 -20 5 0 6 10 13 23 15 22 4 22 4 0 6 -12 0 -25 -3 -28 -9z"/>
<path d="M1840 1340 c11 -11 23 -20 27 -20 3 0 -2 9 -12 20 -10 11 -22 20 -27
20 -4 0 1 -9 12 -20z"/>
<path d="M2218 1353 c7 -3 16 -2 19 1 4 3 -2 6 -13 5 -11 0 -14 -3 -6 -6z"/>
<path d="M2278 1353 c7 -3 16 -2 19 1 4 3 -2 6 -13 5 -11 0 -14 -3 -6 -6z"/>
<path d="M2563 1353 c9 -2 25 -2 35 0 9 3 1 5 -18 5 -19 0 -27 -2 -17 -5z"/>
<path d="M3280 1353 c15 -7 12 -21 -5 -26 -11 -4 -10 -4 2 -3 21 2 25 28 5 32
-7 1 -8 0 -2 -3z"/>
<path d="M6420 1326 c0 -25 5 -35 19 -39 11 -3 22 -18 26 -38 l7 -32 14 31
c15 36 19 39 28 17 3 -8 -1 -20 -8 -28 -17 -17 -32 -97 -18 -97 6 0 8 -9 5
-20 -8 -29 -36 -24 -61 10 -21 27 -21 30 -5 30 17 1 17 1 1 14 -10 7 -18 18
-18 25 0 6 -5 11 -11 11 -5 0 -7 5 -4 11 5 6 11 4 19 -7 16 -21 30 -3 21 27
-5 14 -12 18 -26 14 -19 -6 -22 -1 -21 40 1 15 0 16 -4 3 -3 -11 -14 -16 -31
-15 -20 2 -29 11 -39 37 -7 19 -13 27 -13 18 -1 -10 -6 -18 -12 -18 -8 0 -8
-4 0 -14 9 -11 9 -15 0 -18 -15 -5 -19 -58 -7 -74 5 -7 8 -16 7 -20 -4 -26 3
-54 13 -51 7 1 19 -13 27 -30 18 -41 57 -48 47 -8 -4 14 -2 25 3 25 6 0 8 7 4
16 -5 14 -3 14 15 3 22 -14 26 -53 5 -45 -7 3 -13 -1 -13 -9 0 -12 20 -15 111
-13 l110 1 -4 106 c-3 90 -23 209 -26 160 -1 -8 -8 -24 -17 -35 -15 -18 -15
-18 -9 9 5 26 4 27 -16 16 -17 -9 -23 -8 -30 2 -7 12 -9 11 -10 -1 -1 -8 -1
-20 0 -27 3 -23 -19 -23 -25 0 -4 18 -11 23 -25 20 -15 -4 -18 -2 -13 11 3 9
1 16 -5 16 -6 0 -11 -15 -11 -34z m150 -66 c0 -5 -2 -10 -4 -10 -3 0 -8 5 -11
10 -3 6 -1 10 4 10 6 0 11 -4 11 -10z m-7 -53 c-3 -5 -10 -4 -15 1 -6 6 -7 16
-3 22 6 9 9 9 16 -1 4 -7 5 -17 2 -22z m-3 -32 c0 -8 -7 -15 -16 -15 -8 0 -13
-4 -10 -8 2 -4 1 -14 -4 -21 -6 -11 -11 -9 -20 9 -6 12 -10 22 -8 23 2 1 12 7
23 14 27 16 35 16 35 -2z"/>
<path d="M757 1328 c2 -5 10 -8 18 -8 8 0 16 3 18 8 3 4 -5 7 -18 7 -13 0 -21
-3 -18 -7z"/>
<path d="M837 1329 c7 -7 15 -10 18 -7 3 3 -2 9 -12 12 -14 6 -15 5 -6 -5z"/>
<path d="M917 1328 c2 -5 10 -8 18 -8 8 0 16 3 18 8 3 4 -5 7 -18 7 -13 0 -21
-3 -18 -7z"/>
<path d="M1038 1328 c5 -5 16 -8 23 -6 8 3 3 7 -10 11 -17 4 -21 3 -13 -5z"/>
<path d="M1188 1328 c5 -5 16 -8 23 -6 8 3 3 7 -10 11 -17 4 -21 3 -13 -5z"/>
<path d="M1248 1328 c6 -6 18 -8 28 -6 14 3 12 5 -9 10 -19 3 -25 2 -19 -4z"/>
<path d="M1898 1328 c5 -5 16 -8 23 -6 8 3 3 7 -10 11 -17 4 -21 3 -13 -5z"/>
<path d="M2007 1328 c2 -5 10 -8 18 -8 8 0 16 3 18 8 3 4 -5 7 -18 7 -13 0
-21 -3 -18 -7z"/>
<path d="M2197 1328 c2 -5 10 -8 18 -8 8 0 16 3 18 8 3 4 -5 7 -18 7 -13 0
-21 -3 -18 -7z"/>
<path d="M2505 1330 c3 -5 8 -10 11 -10 2 0 4 5 4 10 0 6 -5 10 -11 10 -5 0
-7 -4 -4 -10z"/>
<path d="M2568 1328 c6 -6 18 -8 28 -6 14 3 12 5 -9 10 -19 3 -25 2 -19 -4z"/>
<path d="M2757 1328 c2 -5 10 -8 18 -8 8 0 16 3 18 8 3 4 -5 7 -18 7 -13 0
-21 -3 -18 -7z"/>
<path d="M2838 1328 c6 -6 18 -8 28 -6 14 3 12 5 -9 10 -19 3 -25 2 -19 -4z"/>
<path d="M2088 1323 c7 -3 16 -2 19 1 4 3 -2 6 -13 5 -11 0 -14 -3 -6 -6z"/>
<path d="M6225 1290 c4 -11 2 -20 -4 -20 -7 0 -11 -33 -11 -90 0 -83 2 -90 20
-90 16 0 19 5 13 30 -5 25 -3 29 11 24 9 -3 16 -1 16 5 0 6 -7 11 -15 11 -17
0 -20 16 -5 25 19 12 0 125 -21 125 -6 0 -8 -9 -4 -20z"/>
<path d="M12171 1188 l-1 -108 25 0 c22 0 25 3 19 25 -6 25 -5 26 35 24 41 -3
59 -19 21 -19 -11 0 -20 -6 -20 -14 0 -12 24 -15 133 -14 84 1 135 5 139 12 5
8 8 7 8 -1 0 -22 17 -14 22 10 4 20 1 22 -27 19 -26 -3 -31 0 -32 20 0 12 1
17 4 11 9 -24 22 -13 21 17 -1 31 -18 55 -18 25 0 -24 -28 -30 -50 -10 -10 9
-24 15 -31 13 -9 -3 -8 -8 3 -18 17 -16 12 -47 -10 -69 -12 -12 -13 -12 -12 0
4 28 0 49 -10 49 -5 0 -10 -10 -10 -22 0 -17 -3 -19 -9 -9 -7 11 -9 11 -14 0
-3 -8 -7 4 -8 26 -2 22 -4 49 -5 60 -1 11 -3 34 -4 50 -2 28 -3 27 -11 -10 -4
-22 -6 -52 -3 -67 7 -35 -3 -36 -16 -3 -5 14 -15 25 -22 25 -10 0 -10 -2 1 -9
10 -6 10 -13 2 -28 -5 -11 -8 -23 -5 -26 3 -3 -3 -3 -15 0 -14 3 -21 13 -21
28 0 13 -11 30 -26 40 -26 16 -26 16 -19 -7 4 -12 4 -20 0 -16 -5 4 -14 29
-21 55 -12 47 -13 47 -13 -59z m50 -15 c-12 -20 -14 -14 -5 12 4 9 9 14 11 11
3 -2 0 -13 -6 -23z m258 -75 c1 -5 -3 -8 -9 -8 -5 0 -10 12 -9 28 0 24 1 25 9
7 5 -11 9 -23 9 -27z"/>
<path d="M11111 1214 c0 -11 3 -14 6 -6 3 7 2 16 -1 19 -3 4 -6 -2 -5 -13z"/>
<path d="M6457 1209 c7 -7 15 -10 18 -7 3 3 -2 9 -12 12 -14 6 -15 5 -6 -5z"/>
<path d="M12465 1200 c3 -5 8 -10 11 -10 2 0 4 5 4 10 0 6 -5 10 -11 10 -5 0
-7 -4 -4 -10z"/>
<path d="M12530 1150 c0 -5 5 -10 10 -10 6 0 10 5 10 10 0 6 -4 10 -10 10 -5
0 -10 -4 -10 -10z"/>
<path d="M9246 784 c-9 -8 -16 -19 -16 -24 0 -11 29 -40 40 -40 11 0 40 29 40
40 0 11 -29 40 -40 40 -5 0 -16 -7 -24 -16z"/>
<path d="M960 455 l0 -55 33 1 c23 1 26 3 10 6 -20 4 -23 11 -23 54 0 27 -4
49 -10 49 -5 0 -10 -25 -10 -55z"/>
<path d="M1400 455 c0 -30 5 -55 10 -55 6 0 10 19 11 43 l0 42 21 -45 20 -45
22 45 21 45 6 -45 6 -45 1 58 c1 31 -2 57 -8 57 -5 0 -18 -19 -28 -42 l-19
-43 -18 43 c-25 61 -45 56 -45 -13z"/>
<path d="M1039 456 c-14 -31 2 -56 35 -55 21 0 21 0 -1 9 -31 13 -29 30 3 30
19 0 25 5 22 18 -5 28 -46 27 -59 -2z m46 4 c3 -5 -3 -10 -15 -10 -12 0 -18 5
-15 10 3 6 10 10 15 10 5 0 12 -4 15 -10z"/>
<path d="M1150 469 l25 -11 -28 -10 c-30 -11 -34 -37 -7 -46 12 -4 13 -3 3 10
-14 16 -8 28 15 28 8 0 12 -6 9 -15 -4 -8 -2 -17 4 -21 7 -4 9 8 7 32 -3 33
-7 39 -28 41 l-25 3 25 -11z"/>
<path d="M1211 435 c2 -33 3 -35 6 -10 2 17 11 35 20 42 13 10 13 12 -6 10
-18 -1 -21 -7 -20 -42z"/>
<path d="M1260 439 c0 -47 17 -52 22 -6 4 44 31 43 40 -3 l6 -35 -1 40 c-2 38
-4 40 -34 42 -32 1 -33 0 -33 -38z"/>
<path d="M1556 465 c-19 -20 -20 -26 -3 -49 26 -36 84 4 61 42 -15 23 -38 26
-58 7z m44 -11 c11 -12 11 -18 -2 -31 -19 -18 -38 -10 -38 16 0 33 20 40 40
15z"/>
<path d="M1651 435 c2 -33 3 -35 6 -10 2 17 11 35 20 42 13 10 13 12 -6 10
-18 -1 -21 -7 -20 -42z"/>
<path d="M1712 468 c-25 -25 -6 -68 30 -68 10 0 18 4 18 10 0 5 -6 7 -13 4 -8
-3 -20 2 -27 11 -11 13 -8 15 19 15 17 0 31 4 31 8 0 12 -22 32 -35 32 -6 0
-16 -5 -23 -12z m38 -8 c0 -5 -9 -10 -21 -10 -11 0 -17 5 -14 10 3 6 13 10 21
10 8 0 14 -4 14 -10z"/>
<path d="M750 265 c0 -13 74 -15 610 -15 536 0 610 2 610 15 0 13 -74 15 -610
15 -536 0 -610 -2 -610 -15z"/>
</g>
</svg>
