<?xml version="1.0" standalone="no"?>
<!DOCTYPE svg PUBLIC "-//W3C//DTD SVG 20010904//EN"
 "http://www.w3.org/TR/2001/REC-SVG-20010904/DTD/svg10.dtd">
<svg version="1.0" xmlns="http://www.w3.org/2000/svg"
 width="1351.000000pt" height="558.000000pt" viewBox="0 0 1351.000000 558.000000"
 preserveAspectRatio="xMidYMid meet">

<g transform="translate(0.000000,558.000000) scale(0.100000,-0.100000)"
fill="#000000" stroke="none">
<path d="M13490 2795 l0 -2785 -6747 -3 -6748 -2 6758 -3 6757 -2 0 2790 c0
1853 -3 2790 -10 2790 -7 0 -10 -935 -10 -2785z"/>
<path d="M4480 5015 l0 -135 25 0 c24 0 25 3 25 59 0 66 18 93 48 74 12 -7 18
-27 20 -72 3 -57 4 -61 27 -61 24 0 25 2 25 70 0 57 -4 74 -20 90 -24 24 -48
25 -78 4 l-22 -15 0 60 c0 58 -1 61 -25 61 l-25 0 0 -135z"/>
<path d="M6030 5015 l0 -135 30 0 30 0 0 135 0 135 -30 0 -30 0 0 -135z"/>
<path d="M6140 5135 c-11 -13 -11 -19 3 -32 21 -21 49 -9 45 19 -4 28 -30 35
-48 13z"/>
<path d="M8150 5015 l0 -135 25 0 c14 0 25 5 25 10 0 7 6 7 19 0 79 -42 149
69 90 144 -23 29 -54 33 -87 10 l-22 -15 0 60 c0 58 -1 61 -25 61 l-25 0 0
-135z m124 -17 c14 -23 -4 -72 -27 -76 -26 -5 -47 16 -47 47 0 49 49 68 74 29z"/>
<path d="M4100 5130 c0 -6 9 -48 21 -93 43 -172 36 -159 72 -155 34 3 29 -6
68 138 l12 45 14 -55 c35 -138 31 -130 63 -130 19 0 31 6 34 18 3 9 19 68 35
130 l29 112 -28 0 c-27 0 -28 -2 -46 -95 -10 -53 -21 -90 -24 -83 -4 7 -15 50
-25 96 -18 83 -19 83 -48 80 -29 -3 -31 -6 -56 -98 -14 -52 -27 -88 -29 -80
-1 8 -11 51 -20 95 -16 75 -19 80 -44 83 -16 2 -28 -2 -28 -8z"/>
<path d="M5873 5125 c-67 -29 -94 -126 -53 -192 23 -38 80 -59 134 -49 29 6
36 11 36 30 0 22 -3 23 -44 19 -57 -7 -86 19 -86 77 0 57 28 83 86 78 39 -3
44 -1 44 18 0 36 -57 45 -117 19z"/>
<path d="M7078 5124 c-30 -16 -44 -50 -33 -83 3 -12 29 -33 56 -46 34 -18 49
-31 49 -45 0 -27 -40 -35 -79 -16 l-31 17 0 -30 c0 -26 4 -31 35 -37 78 -14
135 16 135 72 0 34 -16 51 -79 86 -36 20 -39 33 -10 48 14 8 29 8 50 1 27 -9
29 -8 29 13 0 13 -7 27 -16 30 -27 10 -78 6 -106 -10z"/>
<path d="M7922 5018 c-23 -68 -42 -126 -42 -130 0 -5 11 -8 26 -8 19 0 28 7
35 30 10 27 15 30 55 30 41 0 46 -3 55 -30 9 -24 17 -30 40 -30 l28 0 -39 113
c-21 61 -42 120 -45 130 -5 11 -18 17 -39 17 -31 0 -31 -1 -74 -122z m102 -15
c7 -21 4 -23 -29 -23 -20 0 -34 3 -32 8 3 4 11 27 17 52 l13 45 12 -30 c7 -16
16 -40 19 -52z"/>
<path d="M4923 5102 c-15 -2 -23 -10 -23 -23 0 -10 -7 -19 -15 -19 -8 0 -15
-9 -15 -20 0 -11 7 -20 15 -20 11 0 15 -13 15 -53 0 -63 21 -90 67 -85 35 4
41 30 11 43 -18 8 -24 20 -26 53 -3 39 -1 42 22 42 19 0 26 5 26 20 0 15 -7
20 -24 20 -18 0 -26 6 -28 23 -2 16 -9 21 -25 19z"/>
<path d="M6683 5099 c-13 -5 -23 -15 -23 -24 0 -8 -7 -15 -15 -15 -8 0 -15 -9
-15 -20 0 -11 7 -20 15 -20 11 0 15 -12 15 -50 0 -60 26 -93 68 -88 33 4 42
33 12 41 -16 4 -20 13 -20 51 0 39 3 46 20 46 13 0 20 7 20 20 0 13 -7 20 -20
20 -13 0 -20 7 -20 19 0 26 -10 31 -37 20z"/>
<path d="M8843 5102 c-15 -2 -23 -10 -23 -23 0 -10 -7 -19 -15 -19 -8 0 -15
-9 -15 -20 0 -11 7 -20 15 -20 11 0 15 -13 15 -53 0 -63 21 -90 67 -85 35 4
41 30 11 43 -18 8 -24 20 -26 53 -3 39 -1 42 22 42 19 0 26 5 26 20 0 15 -7
20 -24 20 -18 0 -26 6 -28 23 -2 16 -9 21 -25 19z"/>
<path d="M4723 5053 c-14 -3 -23 -12 -23 -22 0 -16 6 -18 45 -13 37 4 45 2 45
-12 0 -12 -9 -16 -35 -16 -62 0 -97 -57 -57 -93 21 -19 45 -21 73 -7 13 7 19
7 19 0 0 -5 11 -10 25 -10 24 0 25 2 25 70 0 99 -25 121 -117 103z m63 -119
c-7 -19 -51 -15 -51 6 0 15 48 32 53 18 2 -5 1 -16 -2 -24z"/>
<path d="M5165 5048 c-32 -17 -45 -39 -45 -76 0 -45 13 -67 49 -82 100 -41
185 67 112 141 -32 31 -78 38 -116 17z m80 -44 c11 -12 14 -25 10 -43 -15 -60
-85 -53 -85 9 0 47 42 66 75 34z"/>
<path d="M5350 4987 c0 -59 4 -77 18 -90 23 -21 51 -22 80 -1 20 14 22 14 22
0 0 -10 9 -16 25 -16 25 0 25 1 25 90 0 89 0 90 -25 90 -23 0 -25 -4 -25 -44
0 -65 -15 -98 -43 -94 -20 3 -22 9 -25 71 -3 64 -4 67 -27 67 -24 0 -25 -2
-25 -73z"/>
<path d="M5570 4970 c0 -89 0 -90 25 -90 24 0 25 3 25 53 0 55 12 77 42 77 13
0 18 8 18 25 0 29 -16 32 -42 8 -17 -15 -18 -15 -18 0 0 11 -8 17 -25 17 -25
0 -25 -1 -25 -90z"/>
<path d="M6140 4970 c0 -89 0 -90 25 -90 25 0 25 1 25 90 0 89 0 90 -25 90
-25 0 -25 -1 -25 -90z"/>
<path d="M6275 5048 c-11 -6 -25 -19 -32 -27 -17 -22 -16 -82 2 -108 28 -40
135 -43 135 -5 0 15 -7 17 -35 14 -34 -4 -65 10 -65 29 0 5 28 9 61 9 l62 0
-7 33 c-11 57 -70 84 -121 55z m73 -45 c2 -9 -8 -13 -32 -13 -28 0 -34 3 -29
16 7 18 54 16 61 -3z"/>
<path d="M6430 4970 l0 -90 30 0 30 0 0 64 c0 56 3 66 20 71 33 10 40 -3 40
-71 l0 -64 30 0 c30 0 30 1 30 54 0 58 -13 106 -33 118 -20 13 -49 9 -69 -9
-17 -15 -18 -15 -18 0 0 12 -9 17 -30 17 l-30 0 0 -90z"/>
<path d="M6802 5044 c-36 -25 -26 -64 21 -87 49 -24 48 -40 -3 -35 -32 3 -40
0 -40 -13 0 -32 70 -40 108 -13 36 25 26 65 -20 87 -48 23 -48 37 -2 37 28 0
35 3 32 18 -4 23 -66 28 -96 6z"/>
<path d="M7278 5053 c-10 -2 -18 -12 -18 -22 0 -14 8 -18 38 -17 48 1 55 -17
9 -25 -48 -8 -67 -25 -67 -60 0 -39 37 -58 77 -40 19 9 29 9 31 2 2 -6 15 -11
28 -11 23 0 24 3 24 65 0 57 -3 69 -25 90 -23 24 -54 30 -97 18z m72 -101 c0
-14 -23 -32 -42 -32 -11 0 -18 7 -18 20 0 16 7 20 30 20 17 0 30 -4 30 -8z"/>
<path d="M7429 5038 c5 -13 21 -52 36 -87 30 -72 24 -111 -16 -111 -28 0 -21
-34 7 -38 38 -5 72 38 114 147 22 58 40 106 40 108 0 2 -11 3 -24 3 -21 0 -27
-8 -41 -52 -10 -29 -21 -57 -25 -61 -3 -4 -14 20 -23 53 -16 56 -19 60 -47 60
-26 0 -29 -2 -21 -22z"/>
<path d="M7652 5044 c-36 -25 -26 -64 21 -87 49 -24 48 -40 -3 -35 -36 3 -40
1 -38 -17 2 -15 12 -21 38 -23 52 -3 85 17 85 53 0 25 -7 33 -37 48 -48 23
-48 37 -2 37 28 0 35 3 32 18 -4 23 -66 28 -96 6z"/>
<path d="M8389 5031 c-62 -63 -21 -151 71 -151 39 0 90 47 90 84 0 88 -98 129
-161 67z m103 -36 c24 -53 -27 -98 -66 -59 -31 30 -9 84 35 84 11 0 24 -11 31
-25z"/>
<path d="M8590 4987 c0 -59 4 -77 18 -90 23 -21 51 -22 80 -1 20 14 22 14 22
0 0 -10 9 -16 25 -16 25 0 25 1 25 90 0 89 0 90 -25 90 -24 0 -25 -3 -25 -53
0 -64 -19 -98 -47 -81 -14 8 -19 26 -21 73 -3 57 -4 61 -27 61 -24 0 -25 -2
-25 -73z"/>
<path d="M9050 4987 c0 -59 4 -77 18 -90 23 -21 51 -22 80 -1 20 14 22 14 22
0 0 -10 9 -16 25 -16 25 0 25 1 25 90 0 89 0 90 -25 90 -23 0 -25 -4 -25 -44
0 -65 -15 -98 -43 -94 -20 3 -22 9 -25 71 -3 64 -4 67 -27 67 -24 0 -25 -2
-25 -73z"/>
<path d="M9283 5048 c-49 -24 -40 -69 18 -92 53 -22 51 -39 -6 -34 -37 3 -45
0 -45 -14 0 -40 113 -34 132 7 15 33 4 53 -37 71 -46 19 -46 37 0 32 32 -4 36
-2 33 16 -2 16 -11 21 -38 23 -19 1 -45 -3 -57 -9z"/>
<path d="M2945 3957 c-3 -6 -4 -167 -3 -357 l3 -345 28 -3 27 -3 0 360 0 361
-25 0 c-14 0 -28 -6 -30 -13z"/>
<path d="M7045 3957 c-3 -6 -4 -167 -3 -357 l3 -345 28 -3 27 -3 0 360 0 361
-25 0 c-14 0 -28 -6 -30 -13z"/>
<path d="M11155 3957 c-3 -6 -4 -167 -3 -357 l3 -345 28 -3 27 -3 0 360 0 361
-25 0 c-14 0 -28 -6 -30 -13z"/>
<path d="M2340 3899 c-46 -18 -60 -48 -60 -125 0 -64 3 -74 26 -98 l27 -26
239 0 240 0 30 30 c29 29 30 34 26 100 -3 60 -8 74 -31 98 l-27 27 -223 2
c-133 2 -232 -2 -247 -8z m454 -62 c13 -10 17 -24 14 -67 l-3 -55 -230 0 -230
0 -3 55 c-3 43 1 57 14 67 25 18 413 18 438 0z"/>
<path d="M6440 3899 c-46 -18 -60 -48 -60 -125 0 -64 3 -74 26 -98 l27 -26
239 0 240 0 30 30 c29 29 30 34 26 100 -3 60 -8 74 -31 98 l-27 27 -223 2
c-133 2 -232 -2 -247 -8z m454 -62 c13 -10 17 -24 14 -67 l-3 -55 -230 0 -230
0 -3 55 c-5 80 -5 80 233 80 148 0 206 -3 219 -13z"/>
<path d="M10550 3899 c-46 -18 -60 -48 -60 -125 0 -64 3 -74 26 -98 l27 -26
239 0 240 0 30 30 c29 29 30 34 26 100 -3 60 -8 74 -31 98 l-27 27 -223 2
c-133 2 -232 -2 -247 -8z m454 -62 c13 -10 17 -24 14 -67 l-3 -55 -230 0 -230
0 -3 55 c-5 80 -5 80 233 80 148 0 206 -3 219 -13z"/>
<path d="M2543 3546 c-24 -21 -28 -32 -31 -93 -4 -67 -3 -72 26 -104 l30 -34
122 0 122 0 30 34 c29 32 30 37 26 104 -3 61 -7 72 -31 93 -26 22 -36 24 -147
24 -111 0 -121 -2 -147 -24z m265 -96 c4 -72 -7 -80 -116 -80 -111 0 -122 7
-122 74 0 29 3 56 7 60 4 3 57 5 117 4 l111 -3 3 -55z"/>
<path d="M6643 3546 c-24 -21 -28 -32 -31 -93 -4 -67 -3 -72 26 -104 l30 -34
122 0 122 0 30 34 c29 32 30 37 26 104 -3 61 -7 72 -31 93 -26 22 -36 24 -147
24 -111 0 -121 -2 -147 -24z m265 -96 c4 -72 -7 -80 -116 -80 -111 0 -122 7
-122 74 0 29 3 56 7 60 4 3 57 5 117 4 l111 -3 3 -55z"/>
<path d="M10753 3546 c-24 -21 -28 -32 -31 -93 -4 -67 -3 -72 26 -104 l30 -34
122 0 122 0 30 34 c29 32 30 37 26 104 -3 61 -7 72 -31 93 -26 22 -36 24 -147
24 -111 0 -121 -2 -147 -24z m265 -96 c4 -72 -7 -80 -116 -80 -111 0 -122 7
-122 74 0 29 3 56 7 60 4 3 57 5 117 4 l111 -3 3 -55z"/>
<path d="M1163 3033 c9 -2 25 -2 35 0 9 3 1 5 -18 5 -19 0 -27 -2 -17 -5z"/>
<path d="M1233 2990 c0 -30 2 -43 4 -27 2 15 2 39 0 55 -2 15 -4 2 -4 -28z"/>
<path d="M1933 2990 c-1 -41 1 -47 6 -25 5 22 12 30 28 29 12 0 19 4 16 9 -3
5 -14 7 -24 4 -12 -3 -19 2 -22 17 -2 11 -4 -4 -4 -34z"/>
<path d="M2642 3023 c-4 -10 -5 -34 -1 -53 l6 -35 3 35 c1 19 2 39 1 44 -1 5
4 13 11 17 9 6 10 9 1 9 -7 0 -16 -8 -21 -17z"/>
<path d="M2973 2990 c0 -30 2 -43 4 -27 2 15 2 39 0 55 -2 15 -4 2 -4 -28z"/>
<path d="M3363 2990 c0 -30 2 -43 4 -27 2 15 2 39 0 55 -2 15 -4 2 -4 -28z"/>
<path d="M5267 3032 c6 -4 13 -28 16 -52 l4 -45 1 47 c1 26 7 49 15 51 6 3 -1
6 -18 6 -17 0 -25 -3 -18 -7z"/>
<path d="M6313 2990 c0 -30 2 -43 4 -27 2 15 2 39 0 55 -2 15 -4 2 -4 -28z"/>
<path d="M9373 3033 c9 -2 25 -2 35 0 9 3 1 5 -18 5 -19 0 -27 -2 -17 -5z"/>
<path d="M9803 2990 c-1 -41 1 -47 6 -25 5 22 12 30 28 29 12 0 19 4 16 9 -3
5 -14 7 -24 4 -12 -3 -19 2 -22 17 -2 11 -4 -4 -4 -34z"/>
<path d="M10333 2990 c0 -30 2 -43 4 -27 2 15 2 39 0 55 -2 15 -4 2 -4 -28z"/>
<path d="M10693 2990 c0 -30 2 -43 4 -27 2 15 2 39 0 55 -2 15 -4 2 -4 -28z"/>
<path d="M2589 3019 c-2 -27 3 -64 9 -71 4 -4 6 11 5 33 -1 39 -12 67 -14 38z"/>
<path d="M8029 3019 c-2 -27 3 -64 9 -71 4 -4 6 11 5 33 -1 39 -12 67 -14 38z"/>
<path d="M9979 3019 c-2 -27 3 -64 9 -71 4 -4 6 11 5 33 -1 39 -12 67 -14 38z"/>
<path d="M10799 3019 c-2 -27 3 -64 9 -71 4 -4 6 11 5 33 -1 39 -12 67 -14 38z"/>
<path d="M12129 3019 c-2 -27 3 -64 9 -71 4 -4 6 11 5 33 -1 39 -12 67 -14 38z"/>
<path d="M1258 3003 c7 -3 16 -2 19 1 4 3 -2 6 -13 5 -11 0 -14 -3 -6 -6z"/>
<path d="M1316 3001 c-4 -5 3 -7 14 -4 23 6 26 13 6 13 -8 0 -17 -4 -20 -9z"/>
<path d="M1688 3003 c7 -3 16 -2 19 1 4 3 -2 6 -13 5 -11 0 -14 -3 -6 -6z"/>
<path d="M1778 3003 c7 -3 16 -2 19 1 4 3 -2 6 -13 5 -11 0 -14 -3 -6 -6z"/>
<path d="M1826 3001 c-4 -5 3 -7 14 -4 23 6 26 13 6 13 -8 0 -17 -4 -20 -9z"/>
<path d="M2012 2985 c0 -16 2 -22 5 -12 2 9 2 23 0 30 -3 6 -5 -1 -5 -18z"/>
<path d="M2093 2975 c0 -22 2 -30 4 -17 2 12 2 30 0 40 -3 9 -5 -1 -4 -23z"/>
<path d="M2167 3003 c-3 -5 5 -8 18 -8 13 0 21 3 18 8 -2 4 -10 7 -18 7 -8 0
-16 -3 -18 -7z"/>
<path d="M2247 3003 c-3 -5 5 -8 18 -8 13 0 21 3 18 8 -2 4 -10 7 -18 7 -8 0
-16 -3 -18 -7z"/>
<path d="M2402 2955 l1 -50 6 45 c5 38 9 45 28 44 12 0 20 3 17 8 -3 4 -16 7
-29 6 -23 -2 -25 -6 -23 -53z"/>
<path d="M2538 3003 c7 -3 16 -2 19 1 4 3 -2 6 -13 5 -11 0 -14 -3 -6 -6z"/>
<path d="M2686 3001 c-3 -4 6 -6 19 -3 14 2 25 6 25 8 0 8 -39 4 -44 -5z"/>
<path d="M2813 2975 c0 -22 2 -30 4 -17 2 12 2 30 0 40 -3 9 -5 -1 -4 -23z"/>
<path d="M2844 2998 c8 -4 25 -4 38 1 20 8 18 9 -15 8 -24 -1 -32 -4 -23 -9z"/>
<path d="M2998 3003 c7 -3 16 -2 19 1 4 3 -2 6 -13 5 -11 0 -14 -3 -6 -6z"/>
<path d="M3056 3001 c-4 -5 3 -7 14 -4 23 6 26 13 6 13 -8 0 -17 -4 -20 -9z"/>
<path d="M3246 3001 c-4 -5 3 -7 14 -4 23 6 26 13 6 13 -8 0 -17 -4 -20 -9z"/>
<path d="M3447 3003 c-3 -5 6 -9 20 -10 19 -1 22 1 12 8 -17 11 -26 11 -32 2z"/>
<path d="M3676 3001 c-4 -5 3 -7 14 -4 23 6 26 13 6 13 -8 0 -17 -4 -20 -9z"/>
<path d="M3733 2975 c0 -22 2 -30 4 -17 2 12 2 30 0 40 -3 9 -5 -1 -4 -23z"/>
<path d="M3786 3001 c-4 -5 3 -7 14 -4 23 6 26 13 6 13 -8 0 -17 -4 -20 -9z"/>
<path d="M3868 3003 c7 -3 16 -2 19 1 4 3 -2 6 -13 5 -11 0 -14 -3 -6 -6z"/>
<path d="M3928 3003 c7 -3 16 -2 19 1 4 3 -2 6 -13 5 -11 0 -14 -3 -6 -6z"/>
<path d="M3977 3003 c-3 -5 5 -8 18 -8 13 0 21 3 18 8 -2 4 -10 7 -18 7 -8 0
-16 -3 -18 -7z"/>
<path d="M4098 3003 c7 -3 16 -2 19 1 4 3 -2 6 -13 5 -11 0 -14 -3 -6 -6z"/>
<path d="M5346 3001 c-4 -5 3 -7 14 -4 23 6 26 13 6 13 -8 0 -17 -4 -20 -9z"/>
<path d="M5648 3003 c7 -3 16 -2 19 1 4 3 -2 6 -13 5 -11 0 -14 -3 -6 -6z"/>
<path d="M5843 2975 c0 -22 2 -30 4 -17 2 12 2 30 0 40 -3 9 -5 -1 -4 -23z"/>
<path d="M5878 3003 c7 -3 16 -2 19 1 4 3 -2 6 -13 5 -11 0 -14 -3 -6 -6z"/>
<path d="M5927 3003 c-3 -5 5 -8 18 -8 13 0 21 3 18 8 -2 4 -10 7 -18 7 -8 0
-16 -3 -18 -7z"/>
<path d="M6060 3006 c0 -2 7 -7 16 -10 8 -3 12 -2 9 4 -6 10 -25 14 -25 6z"/>
<path d="M6163 2975 c0 -22 2 -30 4 -17 2 12 2 30 0 40 -3 9 -5 -1 -4 -23z"/>
<path d="M6368 3003 c7 -3 16 -2 19 1 4 3 -2 6 -13 5 -11 0 -14 -3 -6 -6z"/>
<path d="M6638 3003 c7 -3 16 -2 19 1 4 3 -2 6 -13 5 -11 0 -14 -3 -6 -6z"/>
<path d="M6698 3003 c7 -3 16 -2 19 1 4 3 -2 6 -13 5 -11 0 -14 -3 -6 -6z"/>
<path d="M6748 3003 c7 -3 16 -2 19 1 4 3 -2 6 -13 5 -11 0 -14 -3 -6 -6z"/>
<path d="M6800 3006 c0 -2 9 -6 20 -9 11 -3 18 -1 14 4 -5 9 -34 13 -34 5z"/>
<path d="M6952 2996 c7 -8 15 -12 17 -11 5 6 -10 25 -20 25 -5 0 -4 -6 3 -14z"/>
<path d="M6987 3003 c6 -4 13 -22 16 -38 4 -27 5 -27 3 4 0 21 -7 36 -16 38
-10 3 -11 2 -3 -4z"/>
<path d="M7086 3001 c-4 -5 3 -7 14 -4 23 6 26 13 6 13 -8 0 -17 -4 -20 -9z"/>
<path d="M7262 2955 l1 -50 6 45 c5 38 9 45 28 44 12 0 20 3 17 8 -3 4 -16 7
-29 6 -23 -2 -25 -6 -23 -53z"/>
<path d="M7572 2996 c7 -8 15 -12 17 -11 5 6 -10 25 -20 25 -5 0 -4 -6 3 -14z"/>
<path d="M7607 3003 c6 -4 13 -22 16 -38 4 -27 5 -27 3 4 0 21 -7 36 -16 38
-10 3 -11 2 -3 -4z"/>
<path d="M7678 3003 c7 -3 16 -2 19 1 4 3 -2 6 -13 5 -11 0 -14 -3 -6 -6z"/>
<path d="M7776 3001 c-4 -5 3 -7 14 -4 23 6 26 13 6 13 -8 0 -17 -4 -20 -9z"/>
<path d="M7887 3003 c-3 -5 5 -8 18 -8 13 0 21 3 18 8 -2 4 -10 7 -18 7 -8 0
-16 -3 -18 -7z"/>
<path d="M7960 3006 c0 -2 9 -6 20 -9 11 -3 18 -1 14 4 -5 9 -34 13 -34 5z"/>
<path d="M8190 3006 c0 -2 9 -6 20 -9 11 -3 18 -1 14 4 -5 9 -34 13 -34 5z"/>
<path d="M9460 3006 c0 -2 7 -7 16 -10 8 -3 12 -2 9 4 -6 10 -25 14 -25 6z"/>
<path d="M9538 3003 c7 -3 16 -2 19 1 4 3 -2 6 -13 5 -11 0 -14 -3 -6 -6z"/>
<path d="M9736 3001 c-4 -5 3 -7 14 -4 23 6 26 13 6 13 -8 0 -17 -4 -20 -9z"/>
<path d="M9887 3003 c-12 -12 -7 -22 16 -33 20 -10 20 -10 5 3 -10 8 -18 17
-18 20 0 3 8 8 18 10 14 4 14 5 1 6 -9 0 -19 -2 -22 -6z"/>
<path d="M10048 3003 c7 -3 16 -2 19 1 4 3 -2 6 -13 5 -11 0 -14 -3 -6 -6z"/>
<path d="M10456 3001 c-4 -5 3 -7 14 -4 23 6 26 13 6 13 -8 0 -17 -4 -20 -9z"/>
<path d="M10523 2975 c0 -22 2 -30 4 -17 2 12 2 30 0 40 -3 9 -5 -1 -4 -23z"/>
<path d="M10730 3006 c0 -2 9 -6 20 -9 11 -3 18 -1 14 4 -5 9 -34 13 -34 5z"/>
<path d="M10848 3003 c7 -3 16 -2 19 1 4 3 -2 6 -13 5 -11 0 -14 -3 -6 -6z"/>
<path d="M10896 3001 c-4 -5 3 -7 14 -4 23 6 26 13 6 13 -8 0 -17 -4 -20 -9z"/>
<path d="M11052 2996 c7 -8 15 -12 17 -11 5 6 -10 25 -20 25 -5 0 -4 -6 3 -14z"/>
<path d="M11080 3006 c0 -2 7 -7 16 -10 8 -3 12 -2 9 4 -6 10 -25 14 -25 6z"/>
<path d="M11200 3006 c0 -2 7 -7 16 -10 8 -3 12 -2 9 4 -6 10 -25 14 -25 6z"/>
<path d="M11278 3003 c7 -3 16 -2 19 1 4 3 -2 6 -13 5 -11 0 -14 -3 -6 -6z"/>
<path d="M11390 3006 c0 -2 7 -7 16 -10 8 -3 12 -2 9 4 -6 10 -25 14 -25 6z"/>
<path d="M11468 3003 c7 -3 16 -2 19 1 4 3 -2 6 -13 5 -11 0 -14 -3 -6 -6z"/>
<path d="M11527 3003 c-3 -5 5 -8 18 -8 13 0 21 3 18 8 -2 4 -10 7 -18 7 -8 0
-16 -3 -18 -7z"/>
<path d="M11672 2996 c7 -8 15 -12 17 -11 5 6 -10 25 -20 25 -5 0 -4 -6 3 -14z"/>
<path d="M11700 3006 c0 -2 7 -7 16 -10 8 -3 12 -2 9 4 -6 10 -25 14 -25 6z"/>
<path d="M11767 3003 c-3 -5 5 -8 18 -8 13 0 21 3 18 8 -2 4 -10 7 -18 7 -8 0
-16 -3 -18 -7z"/>
<path d="M12008 3003 c7 -3 16 -2 19 1 4 3 -2 6 -13 5 -11 0 -14 -3 -6 -6z"/>
<path d="M12078 3003 c7 -3 16 -2 19 1 4 3 -2 6 -13 5 -11 0 -14 -3 -6 -6z"/>
<path d="M12198 3003 c7 -3 16 -2 19 1 4 3 -2 6 -13 5 -11 0 -14 -3 -6 -6z"/>
<path d="M12308 3003 c7 -3 16 -2 19 1 4 3 -2 6 -13 5 -11 0 -14 -3 -6 -6z"/>
<path d="M1520 2979 c0 -5 11 -9 25 -9 14 0 25 2 25 4 0 2 -11 6 -25 8 -14 3
-25 1 -25 -3z"/>
<path d="M3550 2979 c0 -5 11 -9 25 -9 14 0 25 2 25 4 0 2 -11 6 -25 8 -14 3
-25 1 -25 -3z"/>
<path d="M3875 2980 c-16 -7 -17 -9 -3 -9 9 -1 19 -9 21 -18 3 -11 5 -7 6 10
0 15 0 27 -1 26 -2 0 -12 -4 -23 -9z"/>
<path d="M4105 2980 c-16 -7 -17 -9 -3 -9 9 -1 19 -9 21 -18 3 -11 5 -7 6 10
0 15 0 27 -1 26 -2 0 -12 -4 -23 -9z"/>
<path d="M5382 2965 c0 -16 2 -22 5 -12 2 9 2 23 0 30 -3 6 -5 -1 -5 -18z"/>
<path d="M5410 2979 c0 -5 11 -9 25 -9 14 0 25 2 25 4 0 2 -11 6 -25 8 -14 3
-25 1 -25 -3z"/>
<path d="M5793 2977 c21 -17 21 -24 2 -30 -12 -4 -11 -5 1 -3 27 2 28 23 2 36
-21 10 -21 10 -5 -3z"/>
<path d="M6645 2980 c-16 -7 -17 -9 -3 -9 9 -1 19 -9 21 -18 3 -11 5 -7 6 10
0 15 0 27 -1 26 -2 0 -12 -4 -23 -9z"/>
<path d="M7122 2965 c0 -16 2 -22 5 -12 2 9 2 23 0 30 -3 6 -5 -1 -5 -18z"/>
<path d="M7150 2979 c0 -5 11 -9 25 -9 14 0 25 2 25 4 0 2 -11 6 -25 8 -14 3
-25 1 -25 -3z"/>
<path d="M7340 2979 c0 -5 11 -9 25 -9 14 0 25 2 25 4 0 2 -11 6 -25 8 -14 3
-25 1 -25 -3z"/>
<path d="M8070 2979 c0 -5 11 -9 25 -9 14 0 25 2 25 4 0 2 -11 6 -25 8 -14 3
-25 1 -25 -3z"/>
<path d="M1323 2973 c9 -2 23 -2 30 0 6 3 -1 5 -18 5 -16 0 -22 -2 -12 -5z"/>
<path d="M1833 2973 c9 -2 23 -2 30 0 6 3 -1 5 -18 5 -16 0 -22 -2 -12 -5z"/>
<path d="M2253 2973 c9 -2 23 -2 30 0 6 3 -1 5 -18 5 -16 0 -22 -2 -12 -5z"/>
<path d="M2538 2973 c7 -3 16 -2 19 1 4 3 -2 6 -13 5 -11 0 -14 -3 -6 -6z"/>
<path d="M3063 2973 c9 -2 23 -2 30 0 6 3 -1 5 -18 5 -16 0 -22 -2 -12 -5z"/>
<path d="M3253 2973 c9 -2 23 -2 30 0 6 3 -1 5 -18 5 -16 0 -22 -2 -12 -5z"/>
<path d="M3793 2973 c9 -2 23 -2 30 0 6 3 -1 5 -18 5 -16 0 -22 -2 -12 -5z"/>
<path d="M3983 2973 c9 -2 23 -2 30 0 6 3 -1 5 -18 5 -16 0 -22 -2 -12 -5z"/>
<path d="M5633 2973 c9 -2 25 -2 35 0 9 3 1 5 -18 5 -19 0 -27 -2 -17 -5z"/>
<path d="M5933 2973 c9 -2 23 -2 30 0 6 3 -1 5 -18 5 -16 0 -22 -2 -12 -5z"/>
<path d="M6353 2973 c9 -2 25 -2 35 0 9 3 1 5 -18 5 -19 0 -27 -2 -17 -5z"/>
<path d="M7663 2973 c9 -2 25 -2 35 0 9 3 1 5 -18 5 -19 0 -27 -2 -17 -5z"/>
<path d="M7893 2973 c9 -2 23 -2 30 0 6 3 -1 5 -18 5 -16 0 -22 -2 -12 -5z"/>
<path d="M7978 2973 c7 -3 16 -2 19 1 4 3 -2 6 -13 5 -11 0 -14 -3 -6 -6z"/>
<path d="M8208 2973 c7 -3 16 -2 19 1 4 3 -2 6 -13 5 -11 0 -14 -3 -6 -6z"/>
<path d="M9523 2973 c9 -2 25 -2 35 0 9 3 1 5 -18 5 -19 0 -27 -2 -17 -5z"/>
<path d="M9743 2973 c9 -2 23 -2 30 0 6 3 -1 5 -18 5 -16 0 -22 -2 -12 -5z"/>
<path d="M10033 2973 c9 -2 25 -2 35 0 9 3 1 5 -18 5 -19 0 -27 -2 -17 -5z"/>
<path d="M10463 2973 c9 -2 23 -2 30 0 6 3 -1 5 -18 5 -16 0 -22 -2 -12 -5z"/>
<path d="M10748 2973 c7 -3 16 -2 19 1 4 3 -2 6 -13 5 -11 0 -14 -3 -6 -6z"/>
<path d="M11263 2973 c9 -2 25 -2 35 0 9 3 1 5 -18 5 -19 0 -27 -2 -17 -5z"/>
<path d="M11453 2973 c9 -2 25 -2 35 0 9 3 1 5 -18 5 -19 0 -27 -2 -17 -5z"/>
<path d="M11773 2973 c9 -2 23 -2 30 0 6 3 -1 5 -18 5 -16 0 -22 -2 -12 -5z"/>
<path d="M11993 2973 c9 -2 25 -2 35 0 9 3 1 5 -18 5 -19 0 -27 -2 -17 -5z"/>
<path d="M12078 2973 c7 -3 16 -2 19 1 4 3 -2 6 -13 5 -11 0 -14 -3 -6 -6z"/>
<path d="M12183 2973 c9 -2 25 -2 35 0 9 3 1 5 -18 5 -19 0 -27 -2 -17 -5z"/>
<path d="M12308 2973 c7 -3 16 -2 19 1 4 3 -2 6 -13 5 -11 0 -14 -3 -6 -6z"/>
<path d="M3313 2960 c2 -8 12 -16 23 -17 13 -2 15 -1 4 4 -8 3 -19 11 -23 17
-6 7 -7 6 -4 -4z"/>
<path d="M6263 2960 c2 -8 12 -16 23 -17 13 -2 15 -1 4 4 -8 3 -19 11 -23 17
-6 7 -7 6 -4 -4z"/>
<path d="M9636 2957 c3 -10 9 -15 12 -12 3 3 0 11 -7 18 -10 9 -11 8 -5 -6z"/>
<path d="M1318 2948 c5 -5 16 -8 23 -6 8 3 3 7 -10 11 -17 4 -21 3 -13 -5z"/>
<path d="M1630 2950 c-9 -6 -10 -10 -3 -10 6 0 15 5 18 10 8 12 4 12 -15 0z"/>
<path d="M1828 2948 c5 -5 16 -8 23 -6 8 3 3 7 -10 11 -17 4 -21 3 -13 -5z"/>
<path d="M2035 2950 c-16 -7 -17 -9 -3 -9 9 -1 20 4 23 9 7 11 7 11 -20 0z"/>
<path d="M2167 2949 c7 -7 15 -10 18 -7 3 3 -2 9 -12 12 -14 6 -15 5 -6 -5z"/>
<path d="M2248 2948 c6 -6 18 -8 28 -6 14 3 12 5 -9 10 -19 3 -25 2 -19 -4z"/>
<path d="M2688 2948 c5 -5 16 -8 23 -6 8 3 3 7 -10 11 -17 4 -21 3 -13 -5z"/>
<path d="M3058 2948 c5 -5 16 -8 23 -6 8 3 3 7 -10 11 -17 4 -21 3 -13 -5z"/>
<path d="M3190 2950 c-9 -6 -10 -10 -3 -10 6 0 15 5 18 10 8 12 4 12 -15 0z"/>
<path d="M3248 2948 c5 -5 16 -8 23 -6 8 3 3 7 -10 11 -17 4 -21 3 -13 -5z"/>
<path d="M3678 2948 c5 -5 16 -8 23 -6 8 3 3 7 -10 11 -17 4 -21 3 -13 -5z"/>
<path d="M3788 2948 c5 -5 16 -8 23 -6 8 3 3 7 -10 11 -17 4 -21 3 -13 -5z"/>
<path d="M3978 2948 c6 -6 18 -8 28 -6 14 3 12 5 -9 10 -19 3 -25 2 -19 -4z"/>
<path d="M5928 2948 c6 -6 18 -8 28 -6 14 3 12 5 -9 10 -19 3 -25 2 -19 -4z"/>
<path d="M6065 2950 c-16 -7 -17 -9 -3 -9 9 -1 20 4 23 9 7 11 7 11 -20 0z"/>
<path d="M6540 2950 c-9 -6 -10 -10 -3 -10 6 0 15 5 18 10 8 12 4 12 -15 0z"/>
<path d="M6815 2950 c-16 -7 -17 -9 -3 -9 9 -1 20 4 23 9 7 11 7 11 -20 0z"/>
<path d="M7778 2948 c5 -5 16 -8 23 -6 8 3 3 7 -10 11 -17 4 -21 3 -13 -5z"/>
<path d="M7888 2948 c6 -6 18 -8 28 -6 14 3 12 5 -9 10 -19 3 -25 2 -19 -4z"/>
<path d="M7957 2948 c2 -5 10 -8 18 -8 8 0 16 3 18 8 3 4 -5 7 -18 7 -13 0
-21 -3 -18 -7z"/>
<path d="M8187 2948 c2 -5 10 -8 18 -8 8 0 16 3 18 8 3 4 -5 7 -18 7 -13 0
-21 -3 -18 -7z"/>
<path d="M9738 2948 c5 -5 16 -8 23 -6 8 3 3 7 -10 11 -17 4 -21 3 -13 -5z"/>
<path d="M10170 2950 c-9 -6 -10 -10 -3 -10 6 0 15 5 18 10 8 12 4 12 -15 0z"/>
<path d="M10227 2949 c7 -7 15 -10 18 -7 3 3 -2 9 -12 12 -14 6 -15 5 -6 -5z"/>
<path d="M10458 2948 c5 -5 16 -8 23 -6 8 3 3 7 -10 11 -17 4 -21 3 -13 -5z"/>
<path d="M10727 2948 c2 -5 10 -8 18 -8 8 0 16 3 18 8 3 4 -5 7 -18 7 -13 0
-21 -3 -18 -7z"/>
<path d="M10898 2948 c5 -5 16 -8 23 -6 8 3 3 7 -10 11 -17 4 -21 3 -13 -5z"/>
<path d="M11395 2950 c-16 -7 -17 -9 -3 -9 9 -1 20 4 23 9 7 11 7 11 -20 0z"/>
<path d="M11527 2949 c7 -7 15 -10 18 -7 3 3 -2 9 -12 12 -14 6 -15 5 -6 -5z"/>
<path d="M11768 2948 c6 -6 18 -8 28 -6 14 3 12 5 -9 10 -19 3 -25 2 -19 -4z"/>
<path d="M11878 2948 c5 -5 16 -8 23 -6 8 3 3 7 -10 11 -17 4 -21 3 -13 -5z"/>
<path d="M1538 2943 c6 -2 18 -2 25 0 6 3 1 5 -13 5 -14 0 -19 -2 -12 -5z"/>
<path d="M1688 2943 c7 -3 16 -2 19 1 4 3 -2 6 -13 5 -11 0 -14 -3 -6 -6z"/>
<path d="M1958 2943 c7 -3 16 -2 19 1 4 3 -2 6 -13 5 -11 0 -14 -3 -6 -6z"/>
<path d="M2428 2943 c7 -3 16 -2 19 1 4 3 -2 6 -13 5 -11 0 -14 -3 -6 -6z"/>
<path d="M2528 2943 c7 -3 16 -2 19 1 4 3 -2 6 -13 5 -11 0 -14 -3 -6 -6z"/>
<path d="M3568 2943 c6 -2 18 -2 25 0 6 3 1 5 -13 5 -14 0 -19 -2 -12 -5z"/>
<path d="M3858 2943 c7 -3 16 -2 19 1 4 3 -2 6 -13 5 -11 0 -14 -3 -6 -6z"/>
<path d="M4088 2943 c7 -3 16 -2 19 1 4 3 -2 6 -13 5 -11 0 -14 -3 -6 -6z"/>
<path d="M5428 2943 c6 -2 18 -2 25 0 6 3 1 5 -13 5 -14 0 -19 -2 -12 -5z"/>
<path d="M5648 2943 c7 -3 16 -2 19 1 4 3 -2 6 -13 5 -11 0 -14 -3 -6 -6z"/>
<path d="M6368 2943 c7 -3 16 -2 19 1 4 3 -2 6 -13 5 -11 0 -14 -3 -6 -6z"/>
<path d="M6628 2943 c7 -3 16 -2 19 1 4 3 -2 6 -13 5 -11 0 -14 -3 -6 -6z"/>
<path d="M7168 2943 c6 -2 18 -2 25 0 6 3 1 5 -13 5 -14 0 -19 -2 -12 -5z"/>
<path d="M7288 2943 c7 -3 16 -2 19 1 4 3 -2 6 -13 5 -11 0 -14 -3 -6 -6z"/>
<path d="M7358 2943 c6 -2 18 -2 25 0 6 3 1 5 -13 5 -14 0 -19 -2 -12 -5z"/>
<path d="M7678 2943 c7 -3 16 -2 19 1 4 3 -2 6 -13 5 -11 0 -14 -3 -6 -6z"/>
<path d="M8088 2943 c6 -2 18 -2 25 0 6 3 1 5 -13 5 -14 0 -19 -2 -12 -5z"/>
<path d="M9538 2943 c7 -3 16 -2 19 1 4 3 -2 6 -13 5 -11 0 -14 -3 -6 -6z"/>
<path d="M9828 2943 c7 -3 16 -2 19 1 4 3 -2 6 -13 5 -11 0 -14 -3 -6 -6z"/>
<path d="M9888 2943 c7 -3 16 -2 19 1 4 3 -2 6 -13 5 -11 0 -14 -3 -6 -6z"/>
<path d="M10048 2943 c7 -3 16 -2 19 1 4 3 -2 6 -13 5 -11 0 -14 -3 -6 -6z"/>
<path d="M11278 2943 c7 -3 16 -2 19 1 4 3 -2 6 -13 5 -11 0 -14 -3 -6 -6z"/>
<path d="M11468 2943 c7 -3 16 -2 19 1 4 3 -2 6 -13 5 -11 0 -14 -3 -6 -6z"/>
<path d="M12008 2943 c7 -3 16 -2 19 1 4 3 -2 6 -13 5 -11 0 -14 -3 -6 -6z"/>
<path d="M12068 2943 c7 -3 16 -2 19 1 4 3 -2 6 -13 5 -11 0 -14 -3 -6 -6z"/>
<path d="M12198 2943 c7 -3 16 -2 19 1 4 3 -2 6 -13 5 -11 0 -14 -3 -6 -6z"/>
<path d="M12298 2943 c7 -3 16 -2 19 1 4 3 -2 6 -13 5 -11 0 -14 -3 -6 -6z"/>
<path d="M1893 2790 c-1 -41 1 -47 6 -25 5 22 12 30 28 29 12 0 19 4 16 9 -3
5 -14 7 -24 4 -12 -3 -19 2 -22 17 -2 11 -4 -4 -4 -34z"/>
<path d="M2232 2823 c-4 -10 -5 -34 -1 -53 l6 -35 3 35 c1 19 2 39 1 44 -1 5
4 13 11 17 9 6 10 9 1 9 -7 0 -16 -8 -21 -17z"/>
<path d="M8413 2790 c0 -30 2 -43 4 -27 2 15 2 39 0 55 -2 15 -4 2 -4 -28z"/>
<path d="M9853 2790 c0 -30 2 -43 4 -27 2 15 2 39 0 55 -2 15 -4 2 -4 -28z"/>
<path d="M10873 2790 c-1 -41 1 -47 6 -25 5 22 12 30 28 29 12 0 19 4 16 9 -3
5 -14 7 -24 4 -12 -3 -19 2 -22 17 -2 11 -4 -4 -4 -34z"/>
<path d="M12033 2790 c0 -30 2 -43 4 -27 2 15 2 39 0 55 -2 15 -4 2 -4 -28z"/>
<path d="M12343 2790 c0 -30 2 -43 4 -27 2 15 2 39 0 55 -2 15 -4 2 -4 -28z"/>
<path d="M2069 2819 c-2 -27 3 -64 9 -71 4 -4 6 11 5 33 -1 39 -12 67 -14 38z"/>
<path d="M6169 2819 c-2 -27 3 -64 9 -71 4 -4 6 11 5 33 -1 39 -12 67 -14 38z"/>
<path d="M6328 2813 c-2 -5 -1 -24 2 -43 l6 -35 5 38 c5 34 -4 59 -13 40z"/>
<path d="M9388 2813 c-2 -5 -1 -24 2 -43 l6 -35 5 38 c5 34 -4 59 -13 40z"/>
<path d="M1053 2775 c0 -22 2 -30 4 -17 2 12 2 30 0 40 -3 9 -5 -1 -4 -23z"/>
<path d="M1106 2801 c-4 -5 3 -7 14 -4 23 6 26 13 6 13 -8 0 -17 -4 -20 -9z"/>
<path d="M1188 2803 c7 -3 16 -2 19 1 4 3 -2 6 -13 5 -11 0 -14 -3 -6 -6z"/>
<path d="M1268 2803 c7 -3 16 -2 19 1 4 3 -2 6 -13 5 -11 0 -14 -3 -6 -6z"/>
<path d="M1328 2803 c7 -3 16 -2 19 1 4 3 -2 6 -13 5 -11 0 -14 -3 -6 -6z"/>
<path d="M1416 2801 c-3 -4 6 -6 19 -3 14 2 25 6 25 8 0 8 -39 4 -44 -5z"/>
<path d="M1506 2801 c-4 -5 3 -7 14 -4 23 6 26 13 6 13 -8 0 -17 -4 -20 -9z"/>
<path d="M1593 2804 c21 -7 23 -24 3 -24 -8 0 -17 -4 -20 -9 -4 -5 3 -7 13 -4
13 3 21 -1 24 -14 3 -10 5 -2 4 17 -2 27 -7 35 -22 37 -16 1 -16 1 -2 -3z"/>
<path d="M1838 2803 c7 -3 16 -2 19 1 4 3 -2 6 -13 5 -11 0 -14 -3 -6 -6z"/>
<path d="M1977 2803 c-12 -12 -7 -22 16 -33 20 -10 20 -10 5 3 -10 8 -18 17
-18 20 0 3 8 8 18 10 14 4 14 5 1 6 -9 0 -19 -2 -22 -6z"/>
<path d="M2033 2775 c0 -22 2 -30 4 -17 2 12 2 30 0 40 -3 9 -5 -1 -4 -23z"/>
<path d="M2276 2801 c-4 -5 3 -7 14 -4 23 6 26 13 6 13 -8 0 -17 -4 -20 -9z"/>
<path d="M2353 2775 c0 -22 2 -30 4 -17 2 12 2 30 0 40 -3 9 -5 -1 -4 -23z"/>
<path d="M2472 2796 c7 -8 15 -12 17 -11 5 6 -10 25 -20 25 -5 0 -4 -6 3 -14z"/>
<path d="M2500 2806 c0 -2 7 -7 16 -10 8 -3 12 -2 9 4 -6 10 -25 14 -25 6z"/>
<path d="M2690 2806 c0 -2 7 -7 16 -10 8 -3 12 -2 9 4 -6 10 -25 14 -25 6z"/>
<path d="M2793 2775 c0 -22 2 -30 4 -17 2 12 2 30 0 40 -3 9 -5 -1 -4 -23z"/>
<path d="M2838 2803 c7 -3 16 -2 19 1 4 3 -2 6 -13 5 -11 0 -14 -3 -6 -6z"/>
<path d="M2910 2806 c0 -2 7 -7 16 -10 8 -3 12 -2 9 4 -6 10 -25 14 -25 6z"/>
<path d="M3008 2803 c7 -3 16 -2 19 1 4 3 -2 6 -13 5 -11 0 -14 -3 -6 -6z"/>
<path d="M3068 2803 c7 -3 16 -2 19 1 4 3 -2 6 -13 5 -11 0 -14 -3 -6 -6z"/>
<path d="M3630 2806 c0 -2 9 -6 20 -9 11 -3 18 -1 14 4 -5 9 -34 13 -34 5z"/>
<path d="M3720 2806 c0 -2 7 -7 16 -10 8 -3 12 -2 9 4 -6 10 -25 14 -25 6z"/>
<path d="M3918 2803 c7 -3 16 -2 19 1 4 3 -2 6 -13 5 -11 0 -14 -3 -6 -6z"/>
<path d="M3988 2803 c7 -3 16 -2 19 1 4 3 -2 6 -13 5 -11 0 -14 -3 -6 -6z"/>
<path d="M4103 2775 c0 -22 2 -30 4 -17 2 12 2 30 0 40 -3 9 -5 -1 -4 -23z"/>
<path d="M5072 2755 l1 -50 6 45 c5 38 9 45 28 44 12 0 20 3 17 8 -3 4 -16 7
-29 6 -23 -2 -25 -6 -23 -53z"/>
<path d="M5206 2801 c-3 -4 6 -6 19 -3 14 2 25 6 25 8 0 8 -39 4 -44 -5z"/>
<path d="M5288 2803 c7 -3 16 -2 19 1 4 3 -2 6 -13 5 -11 0 -14 -3 -6 -6z"/>
<path d="M5483 2775 c0 -22 2 -30 4 -17 2 12 2 30 0 40 -3 9 -5 -1 -4 -23z"/>
<path d="M5530 2806 c0 -2 9 -6 20 -9 11 -3 18 -1 14 4 -5 9 -34 13 -34 5z"/>
<path d="M5620 2806 c0 -2 7 -7 16 -10 8 -3 12 -2 9 4 -6 10 -25 14 -25 6z"/>
<path d="M5680 2806 c0 -2 9 -6 20 -9 11 -3 18 -1 14 4 -5 9 -34 13 -34 5z"/>
<path d="M5927 2803 c-3 -5 5 -8 18 -8 13 0 21 3 18 8 -2 4 -10 7 -18 7 -8 0
-16 -3 -18 -7z"/>
<path d="M6020 2806 c0 -2 7 -7 16 -10 8 -3 12 -2 9 4 -6 10 -25 14 -25 6z"/>
<path d="M6088 2803 c7 -3 16 -2 19 1 4 3 -2 6 -13 5 -11 0 -14 -3 -6 -6z"/>
<path d="M6238 2803 c7 -3 16 -2 19 1 4 3 -2 6 -13 5 -11 0 -14 -3 -6 -6z"/>
<path d="M6376 2801 c-3 -4 6 -6 19 -3 14 2 25 6 25 8 0 8 -39 4 -44 -5z"/>
<path d="M6543 2775 c0 -22 2 -30 4 -17 2 12 2 30 0 40 -3 9 -5 -1 -4 -23z"/>
<path d="M6574 2798 c8 -4 25 -4 38 1 20 8 18 9 -15 8 -24 -1 -32 -4 -23 -9z"/>
<path d="M6854 2781 c0 -21 7 -36 16 -38 10 -3 11 -2 3 4 -6 4 -13 22 -16 38
-4 27 -5 27 -3 -4z"/>
<path d="M6938 2803 c7 -3 16 -2 19 1 4 3 -2 6 -13 5 -11 0 -14 -3 -6 -6z"/>
<path d="M7010 2806 c0 -2 7 -7 16 -10 8 -3 12 -2 9 4 -6 10 -25 14 -25 6z"/>
<path d="M7267 2803 c-3 -5 5 -8 18 -8 13 0 21 3 18 8 -2 4 -10 7 -18 7 -8 0
-16 -3 -18 -7z"/>
<path d="M7344 2781 c0 -21 7 -36 16 -38 10 -3 11 -2 3 4 -6 4 -13 22 -16 38
-4 27 -5 27 -3 -4z"/>
<path d="M7423 2775 c0 -22 2 -30 4 -17 2 12 2 30 0 40 -3 9 -5 -1 -4 -23z"/>
<path d="M7478 2803 c7 -3 16 -2 19 1 4 3 -2 6 -13 5 -11 0 -14 -3 -6 -6z"/>
<path d="M7748 2803 c7 -3 16 -2 19 1 4 3 -2 6 -13 5 -11 0 -14 -3 -6 -6z"/>
<path d="M7803 2775 c0 -22 2 -30 4 -17 2 12 2 30 0 40 -3 9 -5 -1 -4 -23z"/>
<path d="M7828 2803 c7 -3 16 -2 19 1 4 3 -2 6 -13 5 -11 0 -14 -3 -6 -6z"/>
<path d="M7887 2803 c-3 -5 5 -8 18 -8 13 0 21 3 18 8 -2 4 -10 7 -18 7 -8 0
-16 -3 -18 -7z"/>
<path d="M8007 2803 c-3 -5 5 -8 18 -8 13 0 21 3 18 8 -2 4 -10 7 -18 7 -8 0
-16 -3 -18 -7z"/>
<path d="M8093 2804 c21 -7 23 -24 3 -24 -8 0 -17 -4 -20 -9 -4 -5 3 -7 13 -4
13 3 21 -1 24 -14 3 -10 5 -2 4 17 -2 27 -7 35 -22 37 -16 1 -16 1 -2 -3z"/>
<path d="M8147 2803 c-12 -12 -7 -22 16 -33 20 -10 20 -10 5 3 -10 8 -18 17
-18 20 0 3 8 8 18 10 14 4 14 5 1 6 -9 0 -19 -2 -22 -6z"/>
<path d="M9200 2806 c0 -2 7 -7 16 -10 8 -3 12 -2 9 4 -6 10 -25 14 -25 6z"/>
<path d="M9317 2803 c-3 -5 5 -8 18 -8 13 0 21 3 18 8 -2 4 -10 7 -18 7 -8 0
-16 -3 -18 -7z"/>
<path d="M9433 2775 c0 -22 2 -30 4 -17 2 12 2 30 0 40 -3 9 -5 -1 -4 -23z"/>
<path d="M9478 2803 c7 -3 16 -2 19 1 4 3 -2 6 -13 5 -11 0 -14 -3 -6 -6z"/>
<path d="M9527 2803 c-12 -12 -7 -22 16 -33 20 -10 20 -10 5 3 -10 8 -18 17
-18 20 0 3 8 8 18 10 14 4 14 5 1 6 -9 0 -19 -2 -22 -6z"/>
<path d="M9626 2801 c-4 -5 3 -7 14 -4 23 6 26 13 6 13 -8 0 -17 -4 -20 -9z"/>
<path d="M9703 2775 c0 -22 2 -30 4 -17 2 12 2 30 0 40 -3 9 -5 -1 -4 -23z"/>
<path d="M9728 2803 c7 -3 16 -2 19 1 4 3 -2 6 -13 5 -11 0 -14 -3 -6 -6z"/>
<path d="M9798 2803 c7 -3 16 -2 19 1 4 3 -2 6 -13 5 -11 0 -14 -3 -6 -6z"/>
<path d="M10188 2803 c7 -3 16 -2 19 1 4 3 -2 6 -13 5 -11 0 -14 -3 -6 -6z"/>
<path d="M10278 2803 c7 -3 16 -2 19 1 4 3 -2 6 -13 5 -11 0 -14 -3 -6 -6z"/>
<path d="M10327 2803 c-3 -5 5 -8 18 -8 13 0 21 3 18 8 -2 4 -10 7 -18 7 -8 0
-16 -3 -18 -7z"/>
<path d="M10438 2803 c7 -3 16 -2 19 1 4 3 -2 6 -13 5 -11 0 -14 -3 -6 -6z"/>
<path d="M10487 2803 c-3 -5 5 -8 18 -8 13 0 21 3 18 8 -2 4 -10 7 -18 7 -8 0
-16 -3 -18 -7z"/>
<path d="M10657 2803 c-3 -5 6 -9 20 -10 19 -1 22 1 12 8 -17 11 -26 11 -32 2z"/>
<path d="M10952 2785 c0 -16 2 -22 5 -12 2 9 2 23 0 30 -3 6 -5 -1 -5 -18z"/>
<path d="M11037 2803 c-12 -12 -7 -22 16 -33 20 -10 20 -10 5 3 -10 8 -18 17
-18 20 0 3 8 8 18 10 14 4 14 5 1 6 -9 0 -19 -2 -22 -6z"/>
<path d="M11093 2775 c0 -22 2 -30 4 -17 2 12 2 30 0 40 -3 9 -5 -1 -4 -23z"/>
<path d="M11118 2803 c7 -3 16 -2 19 1 4 3 -2 6 -13 5 -11 0 -14 -3 -6 -6z"/>
<path d="M11173 2775 c0 -22 2 -30 4 -17 2 12 2 30 0 40 -3 9 -5 -1 -4 -23z"/>
<path d="M11218 2803 c7 -3 16 -2 19 1 4 3 -2 6 -13 5 -11 0 -14 -3 -6 -6z"/>
<path d="M11267 2803 c-12 -12 -7 -22 16 -33 20 -10 20 -10 5 3 -10 8 -18 17
-18 20 0 3 8 8 18 10 14 4 14 5 1 6 -9 0 -19 -2 -22 -6z"/>
<path d="M11413 2760 c0 -30 2 -43 4 -27 2 15 2 39 0 55 -2 15 -4 2 -4 -28z"/>
<path d="M11493 2775 c0 -22 2 -30 4 -17 2 12 2 30 0 40 -3 9 -5 -1 -4 -23z"/>
<path d="M11566 2801 c-4 -5 3 -7 14 -4 23 6 26 13 6 13 -8 0 -17 -4 -20 -9z"/>
<path d="M11646 2792 c-15 -18 -15 -20 6 -38 23 -19 23 -19 6 2 -17 19 -17 21
-1 37 10 9 15 17 12 17 -3 0 -13 -8 -23 -18z"/>
<path d="M11853 2804 c21 -7 23 -24 3 -24 -8 0 -17 -4 -20 -9 -4 -5 3 -7 13
-4 13 3 21 -1 24 -14 3 -10 5 -2 4 17 -2 27 -7 35 -22 37 -16 1 -16 1 -2 -3z"/>
<path d="M11916 2801 c-4 -5 3 -7 14 -4 23 6 26 13 6 13 -8 0 -17 -4 -20 -9z"/>
<path d="M12180 2806 c0 -2 9 -6 20 -9 11 -3 18 -1 14 4 -5 9 -34 13 -34 5z"/>
<path d="M12258 2803 c7 -3 16 -2 19 1 4 3 -2 6 -13 5 -11 0 -14 -3 -6 -6z"/>
<path d="M1542 2765 c0 -16 2 -22 5 -12 2 9 2 23 0 30 -3 6 -5 -1 -5 -18z"/>
<path d="M2110 2779 c0 -5 11 -9 25 -9 14 0 25 2 25 4 0 2 -11 6 -25 8 -14 3
-25 1 -25 -3z"/>
<path d="M3995 2780 c-16 -7 -17 -9 -3 -9 9 -1 19 -9 21 -18 3 -11 5 -7 6 10
0 15 0 27 -1 26 -2 0 -12 -4 -23 -9z"/>
<path d="M4053 2777 c21 -17 21 -24 2 -30 -12 -4 -11 -5 1 -3 27 2 28 23 2 36
-21 10 -21 10 -5 -3z"/>
<path d="M5373 2777 c21 -17 21 -24 2 -30 -12 -4 -11 -5 1 -3 27 2 28 23 2 36
-21 10 -21 10 -5 -3z"/>
<path d="M5433 2777 c21 -17 21 -24 2 -30 -12 -4 -11 -5 1 -3 27 2 28 23 2 36
-21 10 -21 10 -5 -3z"/>
<path d="M7113 2777 c21 -17 21 -24 2 -30 -12 -4 -11 -5 1 -3 27 2 28 23 2 36
-21 10 -21 10 -5 -3z"/>
<path d="M7173 2777 c21 -17 21 -24 2 -30 -12 -4 -11 -5 1 -3 27 2 28 23 2 36
-21 10 -21 10 -5 -3z"/>
<path d="M10020 2779 c0 -5 11 -9 25 -9 14 0 25 2 25 4 0 2 -11 6 -25 8 -14 3
-25 1 -25 -3z"/>
<path d="M11952 2765 c0 -16 2 -22 5 -12 2 9 2 23 0 30 -3 6 -5 -1 -5 -18z"/>
<path d="M12100 2779 c0 -5 11 -9 25 -9 14 0 25 2 25 4 0 2 -11 6 -25 8 -14 3
-25 1 -25 -3z"/>
<path d="M1823 2773 c9 -2 25 -2 35 0 9 3 1 5 -18 5 -19 0 -27 -2 -17 -5z"/>
<path d="M3648 2773 c7 -3 16 -2 19 1 4 3 -2 6 -13 5 -11 0 -14 -3 -6 -6z"/>
<path d="M3903 2773 c9 -2 25 -2 35 0 9 3 1 5 -18 5 -19 0 -27 -2 -17 -5z"/>
<path d="M5698 2773 c7 -3 16 -2 19 1 4 3 -2 6 -13 5 -11 0 -14 -3 -6 -6z"/>
<path d="M5933 2773 c9 -2 23 -2 30 0 6 3 -1 5 -18 5 -16 0 -22 -2 -12 -5z"/>
<path d="M6223 2773 c9 -2 25 -2 35 0 9 3 1 5 -18 5 -19 0 -27 -2 -17 -5z"/>
<path d="M7521 2777 c2 -1 15 -11 29 -22 l25 -20 -19 23 c-11 12 -24 22 -29
22 -6 0 -8 -1 -6 -3z"/>
<path d="M7748 2773 c7 -3 16 -2 19 1 4 3 -2 6 -13 5 -11 0 -14 -3 -6 -6z"/>
<path d="M8013 2773 c9 -2 23 -2 30 0 6 3 -1 5 -18 5 -16 0 -22 -2 -12 -5z"/>
<path d="M9798 2773 c7 -3 16 -2 19 1 4 3 -2 6 -13 5 -11 0 -14 -3 -6 -6z"/>
<path d="M10333 2773 c9 -2 23 -2 30 0 6 3 -1 5 -18 5 -16 0 -22 -2 -12 -5z"/>
<path d="M12198 2773 c7 -3 16 -2 19 1 4 3 -2 6 -13 5 -11 0 -14 -3 -6 -6z"/>
<path d="M5826 2757 c3 -10 9 -15 12 -12 3 3 0 11 -7 18 -10 9 -11 8 -5 -6z"/>
<path d="M7636 2757 c3 -10 9 -15 12 -12 3 3 0 11 -7 18 -10 9 -11 8 -5 -6z"/>
<path d="M11363 2760 c2 -8 12 -16 23 -17 13 -2 15 -1 4 4 -8 3 -19 11 -23 17
-6 7 -7 6 -4 -4z"/>
<path d="M11983 2760 c2 -8 12 -16 23 -17 13 -2 15 -1 4 4 -8 3 -19 11 -23 17
-6 7 -7 6 -4 -4z"/>
<path d="M1108 2748 c5 -5 16 -8 23 -6 8 3 3 7 -10 11 -17 4 -21 3 -13 -5z"/>
<path d="M1418 2748 c5 -5 16 -8 23 -6 8 3 3 7 -10 11 -17 4 -21 3 -13 -5z"/>
<path d="M2278 2748 c5 -5 16 -8 23 -6 8 3 3 7 -10 11 -17 4 -21 3 -13 -5z"/>
<path d="M2695 2750 c-16 -7 -17 -9 -3 -9 9 -1 20 4 23 9 7 11 7 11 -20 0z"/>
<path d="M3247 2749 c7 -7 15 -10 18 -7 3 3 -2 9 -12 12 -14 6 -15 5 -6 -5z"/>
<path d="M3358 2748 c5 -5 16 -8 23 -6 8 3 3 7 -10 11 -17 4 -21 3 -13 -5z"/>
<path d="M3627 2748 c2 -5 10 -8 18 -8 8 0 16 3 18 8 3 4 -5 7 -18 7 -13 0
-21 -3 -18 -7z"/>
<path d="M5208 2748 c5 -5 16 -8 23 -6 8 3 3 7 -10 11 -17 4 -21 3 -13 -5z"/>
<path d="M5545 2750 c-16 -7 -17 -9 -3 -9 9 -1 20 4 23 9 7 11 7 11 -20 0z"/>
<path d="M5677 2748 c2 -5 10 -8 18 -8 8 0 16 3 18 8 3 4 -5 7 -18 7 -13 0
-21 -3 -18 -7z"/>
<path d="M5928 2748 c6 -6 18 -8 28 -6 14 3 12 5 -9 10 -19 3 -25 2 -19 -4z"/>
<path d="M6025 2750 c-16 -7 -17 -9 -3 -9 9 -1 20 4 23 9 7 11 7 11 -20 0z"/>
<path d="M6378 2748 c5 -5 16 -8 23 -6 8 3 3 7 -10 11 -17 4 -21 3 -13 -5z"/>
<path d="M7267 2749 c7 -7 15 -10 18 -7 3 3 -2 9 -12 12 -14 6 -15 5 -6 -5z"/>
<path d="M7887 2749 c7 -7 15 -10 18 -7 3 3 -2 9 -12 12 -14 6 -15 5 -6 -5z"/>
<path d="M8008 2748 c6 -6 18 -8 28 -6 14 3 12 5 -9 10 -19 3 -25 2 -19 -4z"/>
<path d="M9205 2750 c-16 -7 -17 -9 -3 -9 9 -1 20 4 23 9 7 11 7 11 -20 0z"/>
<path d="M9317 2748 c2 -5 10 -8 18 -8 8 0 16 3 18 8 3 4 -5 7 -18 7 -13 0
-21 -3 -18 -7z"/>
<path d="M9628 2748 c5 -5 16 -8 23 -6 8 3 3 7 -10 11 -17 4 -21 3 -13 -5z"/>
<path d="M10130 2750 c-9 -6 -10 -10 -3 -10 6 0 15 5 18 10 8 12 4 12 -15 0z"/>
<path d="M10328 2748 c6 -6 18 -8 28 -6 14 3 12 5 -9 10 -19 3 -25 2 -19 -4z"/>
<path d="M10487 2748 c2 -5 10 -8 18 -8 8 0 16 3 18 8 3 4 -5 7 -18 7 -13 0
-21 -3 -18 -7z"/>
<path d="M10781 2744 c0 -11 3 -14 6 -6 3 7 2 16 -1 19 -3 4 -6 -2 -5 -13z"/>
<path d="M10975 2750 c-16 -7 -17 -9 -3 -9 9 -1 20 4 23 9 7 11 7 11 -20 0z"/>
<path d="M11568 2748 c5 -5 16 -8 23 -6 8 3 3 7 -10 11 -17 4 -21 3 -13 -5z"/>
<path d="M11741 2744 c0 -11 3 -14 6 -6 3 7 2 16 -1 19 -3 4 -6 -2 -5 -13z"/>
<path d="M12177 2748 c2 -5 10 -8 18 -8 8 0 16 3 18 8 3 4 -5 7 -18 7 -13 0
-21 -3 -18 -7z"/>
<path d="M12391 2744 c0 -11 3 -14 6 -6 3 7 2 16 -1 19 -3 4 -6 -2 -5 -13z"/>
<path d="M1268 2743 c7 -3 16 -2 19 1 4 3 -2 6 -13 5 -11 0 -14 -3 -6 -6z"/>
<path d="M1328 2743 c7 -3 16 -2 19 1 4 3 -2 6 -13 5 -11 0 -14 -3 -6 -6z"/>
<path d="M1838 2743 c7 -3 16 -2 19 1 4 3 -2 6 -13 5 -11 0 -14 -3 -6 -6z"/>
<path d="M1918 2743 c7 -3 16 -2 19 1 4 3 -2 6 -13 5 -11 0 -14 -3 -6 -6z"/>
<path d="M1978 2743 c7 -3 16 -2 19 1 4 3 -2 6 -13 5 -11 0 -14 -3 -6 -6z"/>
<path d="M2128 2743 c6 -2 18 -2 25 0 6 3 1 5 -13 5 -14 0 -19 -2 -12 -5z"/>
<path d="M3008 2743 c7 -3 16 -2 19 1 4 3 -2 6 -13 5 -11 0 -14 -3 -6 -6z"/>
<path d="M3068 2743 c7 -3 16 -2 19 1 4 3 -2 6 -13 5 -11 0 -14 -3 -6 -6z"/>
<path d="M3918 2743 c7 -3 16 -2 19 1 4 3 -2 6 -13 5 -11 0 -14 -3 -6 -6z"/>
<path d="M3978 2743 c7 -3 16 -2 19 1 4 3 -2 6 -13 5 -11 0 -14 -3 -6 -6z"/>
<path d="M5098 2743 c7 -3 16 -2 19 1 4 3 -2 6 -13 5 -11 0 -14 -3 -6 -6z"/>
<path d="M6238 2743 c7 -3 16 -2 19 1 4 3 -2 6 -13 5 -11 0 -14 -3 -6 -6z"/>
<path d="M6938 2743 c7 -3 16 -2 19 1 4 3 -2 6 -13 5 -11 0 -14 -3 -6 -6z"/>
<path d="M7738 2743 c7 -3 16 -2 19 1 4 3 -2 6 -13 5 -11 0 -14 -3 -6 -6z"/>
<path d="M8148 2743 c7 -3 16 -2 19 1 4 3 -2 6 -13 5 -11 0 -14 -3 -6 -6z"/>
<path d="M9528 2743 c7 -3 16 -2 19 1 4 3 -2 6 -13 5 -11 0 -14 -3 -6 -6z"/>
<path d="M9788 2743 c7 -3 16 -2 19 1 4 3 -2 6 -13 5 -11 0 -14 -3 -6 -6z"/>
<path d="M10038 2743 c6 -2 18 -2 25 0 6 3 1 5 -13 5 -14 0 -19 -2 -12 -5z"/>
<path d="M10188 2743 c7 -3 16 -2 19 1 4 3 -2 6 -13 5 -11 0 -14 -3 -6 -6z"/>
<path d="M10898 2743 c7 -3 16 -2 19 1 4 3 -2 6 -13 5 -11 0 -14 -3 -6 -6z"/>
<path d="M11038 2743 c7 -3 16 -2 19 1 4 3 -2 6 -13 5 -11 0 -14 -3 -6 -6z"/>
<path d="M11268 2743 c7 -3 16 -2 19 1 4 3 -2 6 -13 5 -11 0 -14 -3 -6 -6z"/>
<path d="M12118 2743 c6 -2 18 -2 25 0 6 3 1 5 -13 5 -14 0 -19 -2 -12 -5z"/>
<path d="M12258 2743 c7 -3 16 -2 19 1 4 3 -2 6 -13 5 -11 0 -14 -3 -6 -6z"/>
<path d="M2083 2590 c0 -30 2 -43 4 -27 2 15 2 39 0 55 -2 15 -4 2 -4 -28z"/>
<path d="M3042 2623 c-4 -10 -5 -34 -1 -53 l6 -35 3 35 c1 19 2 39 1 44 -1 5
4 13 11 17 9 6 10 9 1 9 -7 0 -16 -8 -21 -17z"/>
<path d="M5843 2590 c0 -30 2 -43 4 -27 2 15 2 39 0 55 -2 15 -4 2 -4 -28z"/>
<path d="M10573 2590 c0 -30 2 -43 4 -27 2 15 2 39 0 55 -2 15 -4 2 -4 -28z"/>
<path d="M11173 2590 c0 -30 2 -43 4 -27 2 15 2 39 0 55 -2 15 -4 2 -4 -28z"/>
<path d="M6139 2619 c-2 -27 3 -64 9 -71 4 -4 6 11 5 33 -1 39 -12 67 -14 38z"/>
<path d="M7329 2619 c-2 -27 3 -64 9 -71 4 -4 6 11 5 33 -1 39 -12 67 -14 38z"/>
<path d="M10239 2619 c-2 -27 3 -64 9 -71 4 -4 6 11 5 33 -1 39 -12 67 -14 38z"/>
<path d="M7138 2613 c-2 -5 -1 -24 2 -43 l6 -35 5 38 c5 34 -4 59 -13 40z"/>
<path d="M1776 2601 c-3 -4 6 -6 19 -3 14 2 25 6 25 8 0 8 -39 4 -44 -5z"/>
<path d="M1927 2603 c-3 -5 5 -8 18 -8 13 0 21 3 18 8 -2 4 -10 7 -18 7 -8 0
-16 -3 -18 -7z"/>
<path d="M2038 2603 c7 -3 16 -2 19 1 4 3 -2 6 -13 5 -11 0 -14 -3 -6 -6z"/>
<path d="M2108 2603 c7 -3 16 -2 19 1 4 3 -2 6 -13 5 -11 0 -14 -3 -6 -6z"/>
<path d="M2166 2601 c-4 -5 3 -7 14 -4 23 6 26 13 6 13 -8 0 -17 -4 -20 -9z"/>
<path d="M2480 2606 c0 -2 7 -7 16 -10 8 -3 12 -2 9 4 -6 10 -25 14 -25 6z"/>
<path d="M2547 2603 c-3 -5 5 -8 18 -8 13 0 21 3 18 8 -2 4 -10 7 -18 7 -8 0
-16 -3 -18 -7z"/>
<path d="M2727 2603 c-3 -5 5 -8 18 -8 13 0 21 3 18 8 -2 4 -10 7 -18 7 -8 0
-16 -3 -18 -7z"/>
<path d="M2847 2603 c-3 -5 5 -8 18 -8 13 0 21 3 18 8 -2 4 -10 7 -18 7 -8 0
-16 -3 -18 -7z"/>
<path d="M3086 2601 c-4 -5 3 -7 14 -4 23 6 26 13 6 13 -8 0 -17 -4 -20 -9z"/>
<path d="M3173 2604 c21 -7 23 -24 3 -24 -8 0 -17 -4 -20 -9 -4 -5 3 -7 13 -4
13 3 21 -1 24 -14 3 -10 5 -2 4 17 -2 27 -7 35 -22 37 -16 1 -16 1 -2 -3z"/>
<path d="M3228 2603 c7 -3 16 -2 19 1 4 3 -2 6 -13 5 -11 0 -14 -3 -6 -6z"/>
<path d="M3274 2581 c0 -21 7 -36 16 -38 10 -3 11 -2 3 4 -6 4 -13 22 -16 38
-4 27 -5 27 -3 -4z"/>
<path d="M3353 2575 c0 -22 2 -30 4 -17 2 12 2 30 0 40 -3 9 -5 -1 -4 -23z"/>
<path d="M3406 2601 c-4 -5 3 -7 14 -4 23 6 26 13 6 13 -8 0 -17 -4 -20 -9z"/>
<path d="M3477 2603 c-12 -12 -7 -22 16 -33 20 -10 20 -10 5 3 -10 8 -18 17
-18 20 0 3 8 8 18 10 14 4 14 5 1 6 -9 0 -19 -2 -22 -6z"/>
<path d="M5887 2603 c-3 -5 5 -8 18 -8 13 0 21 3 18 8 -2 4 -10 7 -18 7 -8 0
-16 -3 -18 -7z"/>
<path d="M6196 2601 c-4 -5 3 -7 14 -4 23 6 26 13 6 13 -8 0 -17 -4 -20 -9z"/>
<path d="M6646 2601 c-3 -4 6 -6 19 -3 14 2 25 6 25 8 0 8 -39 4 -44 -5z"/>
<path d="M6968 2603 c7 -3 16 -2 19 1 4 3 -2 6 -13 5 -11 0 -14 -3 -6 -6z"/>
<path d="M7027 2603 c-3 -5 5 -8 18 -8 13 0 21 3 18 8 -2 4 -10 7 -18 7 -8 0
-16 -3 -18 -7z"/>
<path d="M7260 2606 c0 -2 9 -6 20 -9 11 -3 18 -1 14 4 -5 9 -34 13 -34 5z"/>
<path d="M7423 2575 c0 -22 2 -30 4 -17 2 12 2 30 0 40 -3 9 -5 -1 -4 -23z"/>
<path d="M7588 2603 c7 -3 16 -2 19 1 4 3 -2 6 -13 5 -11 0 -14 -3 -6 -6z"/>
<path d="M9986 2601 c-4 -5 3 -7 14 -4 23 6 26 13 6 13 -8 0 -17 -4 -20 -9z"/>
<path d="M10136 2601 c-4 -5 3 -7 14 -4 23 6 26 13 6 13 -8 0 -17 -4 -20 -9z"/>
<path d="M10310 2606 c0 -2 7 -7 16 -10 8 -3 12 -2 9 4 -6 10 -25 14 -25 6z"/>
<path d="M10388 2603 c7 -3 16 -2 19 1 4 3 -2 6 -13 5 -11 0 -14 -3 -6 -6z"/>
<path d="M10662 2555 l1 -50 6 45 c5 38 9 45 28 44 12 0 20 3 17 8 -3 4 -16 7
-29 6 -23 -2 -25 -6 -23 -53z"/>
<path d="M10760 2606 c0 -2 9 -6 20 -9 11 -3 18 -1 14 4 -5 9 -34 13 -34 5z"/>
<path d="M10948 2603 c7 -3 16 -2 19 1 4 3 -2 6 -13 5 -11 0 -14 -3 -6 -6z"/>
<path d="M11003 2575 c0 -22 2 -30 4 -17 2 12 2 30 0 40 -3 9 -5 -1 -4 -23z"/>
<path d="M11056 2601 c-4 -5 3 -7 14 -4 23 6 26 13 6 13 -8 0 -17 -4 -20 -9z"/>
<path d="M11126 2601 c-4 -5 3 -7 14 -4 23 6 26 13 6 13 -8 0 -17 -4 -20 -9z"/>
<path d="M11248 2603 c7 -3 16 -2 19 1 4 3 -2 6 -13 5 -11 0 -14 -3 -6 -6z"/>
<path d="M11308 2603 c7 -3 16 -2 19 1 4 3 -2 6 -13 5 -11 0 -14 -3 -6 -6z"/>
<path d="M11378 2603 c7 -3 16 -2 19 1 4 3 -2 6 -13 5 -11 0 -14 -3 -6 -6z"/>
<path d="M11438 2603 c7 -3 16 -2 19 1 4 3 -2 6 -13 5 -11 0 -14 -3 -6 -6z"/>
<path d="M11628 2603 c7 -3 16 -2 19 1 4 3 -2 6 -13 5 -11 0 -14 -3 -6 -6z"/>
<path d="M11688 2603 c7 -3 16 -2 19 1 4 3 -2 6 -13 5 -11 0 -14 -3 -6 -6z"/>
<path d="M2305 2583 c-34 -8 -38 -20 -5 -15 16 2 30 8 30 13 0 5 -1 8 -2 8 -2
-1 -12 -3 -23 -6z"/>
<path d="M6020 2579 c0 -5 11 -9 25 -9 14 0 25 2 25 4 0 2 -11 6 -25 8 -14 3
-25 1 -25 -3z"/>
<path d="M6232 2565 c0 -16 2 -22 5 -12 2 9 2 23 0 30 -3 6 -5 -1 -5 -18z"/>
<path d="M6260 2579 c0 -5 11 -9 25 -9 14 0 25 2 25 4 0 2 -11 6 -25 8 -14 3
-25 1 -25 -3z"/>
<path d="M6380 2579 c0 -4 13 -9 29 -11 18 -3 27 0 25 6 -4 12 -54 16 -54 5z"/>
<path d="M6820 2579 c0 -5 11 -9 25 -9 14 0 25 2 25 4 0 2 -11 6 -25 8 -14 3
-25 1 -25 -3z"/>
<path d="M7180 2579 c0 -5 11 -9 25 -9 14 0 25 2 25 4 0 2 -11 6 -25 8 -14 3
-25 1 -25 -3z"/>
<path d="M7500 2579 c0 -5 11 -9 25 -9 14 0 25 2 25 4 0 2 -11 6 -25 8 -14 3
-25 1 -25 -3z"/>
<path d="M1933 2573 c9 -2 23 -2 30 0 6 3 -1 5 -18 5 -16 0 -22 -2 -12 -5z"/>
<path d="M2173 2573 c9 -2 23 -2 30 0 6 3 -1 5 -18 5 -16 0 -22 -2 -12 -5z"/>
<path d="M2408 2573 c7 -3 16 -2 19 1 4 3 -2 6 -13 5 -11 0 -14 -3 -6 -6z"/>
<path d="M2733 2573 c9 -2 23 -2 30 0 6 3 -1 5 -18 5 -16 0 -22 -2 -12 -5z"/>
<path d="M2853 2573 c9 -2 23 -2 30 0 6 3 -1 5 -18 5 -16 0 -22 -2 -12 -5z"/>
<path d="M3093 2573 c9 -2 23 -2 30 0 6 3 -1 5 -18 5 -16 0 -22 -2 -12 -5z"/>
<path d="M3413 2573 c9 -2 23 -2 30 0 6 3 -1 5 -18 5 -16 0 -22 -2 -12 -5z"/>
<path d="M6508 2573 c7 -3 16 -2 19 1 4 3 -2 6 -13 5 -11 0 -14 -3 -6 -6z"/>
<path d="M6953 2573 c9 -2 25 -2 35 0 9 3 1 5 -18 5 -19 0 -27 -2 -17 -5z"/>
<path d="M7278 2573 c7 -3 16 -2 19 1 4 3 -2 6 -13 5 -11 0 -14 -3 -6 -6z"/>
<path d="M10143 2573 c9 -2 23 -2 30 0 6 3 -1 5 -18 5 -16 0 -22 -2 -12 -5z"/>
<path d="M10373 2573 c9 -2 25 -2 35 0 9 3 1 5 -18 5 -19 0 -27 -2 -17 -5z"/>
<path d="M10493 2573 c9 -2 25 -2 35 0 9 3 1 5 -18 5 -19 0 -27 -2 -17 -5z"/>
<path d="M10618 2573 c7 -3 16 -2 19 1 4 3 -2 6 -13 5 -11 0 -14 -3 -6 -6z"/>
<path d="M10933 2573 c9 -2 25 -2 35 0 9 3 1 5 -18 5 -19 0 -27 -2 -17 -5z"/>
<path d="M11063 2573 c9 -2 23 -2 30 0 6 3 -1 5 -18 5 -16 0 -22 -2 -12 -5z"/>
<path d="M11293 2573 c9 -2 25 -2 35 0 9 3 1 5 -18 5 -19 0 -27 -2 -17 -5z"/>
<path d="M11378 2573 c7 -3 16 -2 19 1 4 3 -2 6 -13 5 -11 0 -14 -3 -6 -6z"/>
<path d="M11613 2573 c9 -2 25 -2 35 0 9 3 1 5 -18 5 -19 0 -27 -2 -17 -5z"/>
<path d="M2626 2557 c3 -10 9 -15 12 -12 3 3 0 11 -7 18 -10 9 -11 8 -5 -6z"/>
<path d="M1778 2548 c5 -5 16 -8 23 -6 8 3 3 7 -10 11 -17 4 -21 3 -13 -5z"/>
<path d="M1928 2548 c6 -6 18 -8 28 -6 14 3 12 5 -9 10 -19 3 -25 2 -19 -4z"/>
<path d="M2168 2548 c5 -5 16 -8 23 -6 8 3 3 7 -10 11 -17 4 -21 3 -13 -5z"/>
<path d="M2485 2550 c-16 -7 -17 -9 -3 -9 9 -1 20 4 23 9 7 11 7 11 -20 0z"/>
<path d="M2547 2548 c2 -5 10 -8 18 -8 8 0 16 3 18 8 3 4 -5 7 -18 7 -13 0
-21 -3 -18 -7z"/>
<path d="M2728 2548 c6 -6 18 -8 28 -6 14 3 12 5 -9 10 -19 3 -25 2 -19 -4z"/>
<path d="M2848 2548 c6 -6 18 -8 28 -6 14 3 12 5 -9 10 -19 3 -25 2 -19 -4z"/>
<path d="M3088 2548 c5 -5 16 -8 23 -6 8 3 3 7 -10 11 -17 4 -21 3 -13 -5z"/>
<path d="M3408 2548 c5 -5 16 -8 23 -6 8 3 3 7 -10 11 -17 4 -21 3 -13 -5z"/>
<path d="M5887 2548 c2 -5 10 -8 18 -8 8 0 16 3 18 8 3 4 -5 7 -18 7 -13 0
-21 -3 -18 -7z"/>
<path d="M6648 2548 c5 -5 16 -8 23 -6 8 3 3 7 -10 11 -17 4 -21 3 -13 -5z"/>
<path d="M7027 2549 c7 -7 15 -10 18 -7 3 3 -2 9 -12 12 -14 6 -15 5 -6 -5z"/>
<path d="M7257 2548 c2 -5 10 -8 18 -8 8 0 16 3 18 8 3 4 -5 7 -18 7 -13 0
-21 -3 -18 -7z"/>
<path d="M9988 2548 c5 -5 16 -8 23 -6 8 3 3 7 -10 11 -17 4 -21 3 -13 -5z"/>
<path d="M10138 2548 c5 -5 16 -8 23 -6 8 3 3 7 -10 11 -17 4 -21 3 -13 -5z"/>
<path d="M10775 2550 c-16 -7 -17 -9 -3 -9 9 -1 20 4 23 9 7 11 7 11 -20 0z"/>
<path d="M11058 2548 c5 -5 16 -8 23 -6 8 3 3 7 -10 11 -17 4 -21 3 -13 -5z"/>
<path d="M11128 2548 c5 -5 16 -8 23 -6 8 3 3 7 -10 11 -17 4 -21 3 -13 -5z"/>
<path d="M11487 2549 c7 -7 15 -10 18 -7 3 3 -2 9 -12 12 -14 6 -15 5 -6 -5z"/>
<path d="M3478 2543 c7 -3 16 -2 19 1 4 3 -2 6 -13 5 -11 0 -14 -3 -6 -6z"/>
<path d="M6038 2543 c6 -2 18 -2 25 0 6 3 1 5 -13 5 -14 0 -19 -2 -12 -5z"/>
<path d="M6278 2543 c6 -2 18 -2 25 0 6 3 1 5 -13 5 -14 0 -19 -2 -12 -5z"/>
<path d="M6838 2543 c6 -2 18 -2 25 0 6 3 1 5 -13 5 -14 0 -19 -2 -12 -5z"/>
<path d="M6968 2543 c7 -3 16 -2 19 1 4 3 -2 6 -13 5 -11 0 -14 -3 -6 -6z"/>
<path d="M7198 2543 c6 -2 18 -2 25 0 6 3 1 5 -13 5 -14 0 -19 -2 -12 -5z"/>
<path d="M7518 2543 c6 -2 18 -2 25 0 6 3 1 5 -13 5 -14 0 -19 -2 -12 -5z"/>
<path d="M10388 2543 c7 -3 16 -2 19 1 4 3 -2 6 -13 5 -11 0 -14 -3 -6 -6z"/>
<path d="M10688 2543 c7 -3 16 -2 19 1 4 3 -2 6 -13 5 -11 0 -14 -3 -6 -6z"/>
<path d="M10948 2543 c7 -3 16 -2 19 1 4 3 -2 6 -13 5 -11 0 -14 -3 -6 -6z"/>
<path d="M11308 2543 c7 -3 16 -2 19 1 4 3 -2 6 -13 5 -11 0 -14 -3 -6 -6z"/>
<path d="M11368 2543 c7 -3 16 -2 19 1 4 3 -2 6 -13 5 -11 0 -14 -3 -6 -6z"/>
<path d="M11628 2543 c7 -3 16 -2 19 1 4 3 -2 6 -13 5 -11 0 -14 -3 -6 -6z"/>
<path d="M11688 2543 c7 -3 16 -2 19 1 4 3 -2 6 -13 5 -11 0 -14 -3 -6 -6z"/>
<path d="M2005 2359 c-4 -6 -3 -15 2 -20 5 -5 265 -8 639 -7 551 3 629 5 629
18 0 13 -78 15 -632 18 -449 1 -634 -1 -638 -9z"/>
<path d="M6105 2359 c-4 -6 -3 -15 2 -20 5 -5 265 -8 639 -7 551 3 629 5 629
18 0 13 -78 15 -632 18 -449 1 -634 -1 -638 -9z"/>
<path d="M10215 2359 c-4 -6 -3 -15 2 -20 5 -5 265 -8 639 -7 551 3 629 5 629
18 0 13 -78 15 -632 18 -449 1 -634 -1 -638 -9z"/>
<path d="M2543 2192 c-37 -15 -52 -31 -113 -127 -38 -60 -70 -118 -70 -128 0
-11 -10 -27 -22 -37 -21 -17 -21 -20 -9 -76 34 -150 155 -247 311 -248 88 0
163 29 219 84 31 31 32 35 16 47 -10 7 -21 10 -25 8 -9 -6 -35 23 -28 30 3 3
21 -2 41 -10 46 -19 44 -20 61 13 14 27 11 34 -97 228 -62 111 -118 208 -126
217 -18 22 -102 22 -158 -1z m136 -53 c34 -22 44 -50 65 -184 8 -51 17 -79 24
-78 7 2 12 -2 12 -7 0 -5 -6 -10 -14 -10 -8 0 -17 -14 -21 -31 -5 -23 -10 -28
-18 -20 -14 14 -16 84 -2 93 5 4 -4 6 -22 4 -29 -3 -31 -1 -30 23 2 20 8 26
27 26 20 0 25 6 26 28 1 27 -6 31 -53 28 -11 -1 -24 3 -28 8 -3 6 -1 11 5 11
7 0 8 6 1 18 -11 20 11 58 28 47 6 -3 11 -1 11 4 0 6 -7 11 -15 11 -8 0 -30 8
-49 17 -29 14 -40 14 -62 4 -33 -15 -46 -5 -19 16 23 17 101 12 134 -8z m-184
-59 c-9 -16 -18 -30 -21 -30 -2 0 2 14 11 30 9 17 18 30 21 30 2 0 -2 -13 -11
-30z m111 -26 c-4 -12 -2 -15 9 -10 8 3 15 1 15 -4 0 -6 -5 -10 -11 -10 -5 0
-8 -4 -4 -9 3 -6 -4 -15 -16 -22 -17 -9 -19 -13 -8 -20 10 -6 5 -9 -16 -10
-29 0 -29 -1 10 -15 49 -18 67 -34 40 -35 -17 0 -17 -2 3 -10 20 -7 23 -14 17
-39 -6 -28 -5 -30 24 -30 23 0 29 -4 25 -15 -4 -8 -17 -15 -29 -15 -30 0 -39
-14 -19 -30 11 -10 23 -11 49 -2 43 13 47 -5 10 -42 -30 -30 -32 -46 -5 -39
29 8 25 -21 -6 -46 -64 -50 -144 -10 -144 72 0 24 -6 65 -14 91 -8 27 -12 55
-9 64 4 14 3 14 -5 3 -15 -22 -44 5 -41 38 1 14 -2 34 -6 44 -4 10 -5 21 -1
24 3 4 6 -1 6 -9 0 -9 11 -23 25 -32 28 -18 28 -19 26 56 -1 51 13 67 58 68
17 0 22 -4 17 -16z m167 -85 c-5 -16 -8 -18 -14 -7 -13 20 -11 38 5 32 8 -3
12 -13 9 -25z m39 -237 c-5 -27 -5 -27 -22 11 -10 21 -22 43 -29 50 -6 6 -11
15 -11 21 0 5 15 -5 34 -23 26 -25 32 -38 28 -59z m-365 -8 c-16 -9 -31 -13
-34 -10 -3 3 5 10 18 15 37 15 47 12 16 -5z"/>
<path d="M2496 1923 c-11 -11 -6 -23 9 -23 8 0 15 4 15 9 0 13 -16 22 -24 14z"/>
<path d="M6636 2191 c-104 -42 -167 -108 -202 -213 -32 -98 3 -234 81 -313
121 -120 329 -120 450 0 121 122 121 328 0 450 -84 83 -227 116 -329 76z m187
-128 c12 -11 17 -31 17 -65 0 -29 4 -48 11 -48 14 0 5 -70 -9 -79 -5 -3 -12
-16 -16 -28 -5 -15 -1 -25 15 -37 20 -13 21 -18 9 -45 -21 -51 -90 -83 -90
-42 0 11 11 33 25 49 14 17 25 36 25 43 0 10 -3 10 -8 3 -20 -31 -92 -34 -92
-4 0 5 10 10 23 10 18 0 19 2 7 10 -11 7 -7 10 20 11 20 1 26 3 15 6 -46 10
-48 13 -24 33 21 16 21 19 6 20 -10 0 -20 7 -23 15 -9 21 -24 8 -24 -21 0 -16
-6 -24 -17 -24 -9 0 -13 3 -10 6 3 4 0 16 -8 28 -22 30 -19 36 20 36 46 0 55
23 23 58 -13 15 -25 39 -26 54 -2 27 -1 27 56 27 37 -1 63 -6 75 -16z"/>
<path d="M6764 1975 c-8 -20 4 -35 26 -35 28 0 36 21 15 37 -24 17 -34 17 -41
-2z"/>
<path d="M2752 2185 c3 -10 187 -346 194 -354 2 -2 4 5 4 15 0 11 -37 83 -82
161 -79 133 -122 200 -116 178z"/>
<path d="M10993 2146 c-13 -6 -23 -19 -23 -29 0 -10 -7 -20 -15 -23 -12 -5
-12 -10 -3 -27 7 -12 13 -28 14 -35 1 -8 6 -21 10 -30 4 -9 6 -24 5 -34 -1 -9
3 -19 9 -23 5 -3 10 -11 10 -18 0 -6 -12 5 -26 25 -21 29 -29 34 -39 25 -10
-10 -9 -17 6 -36 11 -13 18 -35 18 -50 -1 -14 -3 -19 -5 -11 -4 12 -14 15 -39
12 -20 -2 -38 -9 -41 -14 -8 -13 15 -28 41 -28 20 1 20 1 1 15 -19 15 -19 15
2 15 15 0 24 -8 28 -25 3 -13 13 -30 22 -37 10 -8 13 -9 9 -1 -4 6 -3 14 2 17
5 3 7 16 4 29 -4 17 -3 19 6 11 16 -15 10 -80 -6 -76 -7 1 -13 -3 -13 -9 0 -6
-7 -4 -15 4 -8 9 -33 18 -55 22 -39 7 -40 8 -40 46 0 25 -5 39 -13 39 -31 0
-67 25 -65 45 3 17 10 19 52 16 37 -2 47 1 44 11 -3 7 -10 13 -15 13 -6 0 -15
4 -20 9 -4 5 4 7 20 4 15 -3 27 -1 27 3 0 13 -48 11 -55 -2 -12 -18 -28 -4
-31 29 -7 60 59 64 105 7 11 -15 18 -31 15 -36 -3 -5 2 -6 10 -3 22 9 20 35
-3 41 -11 3 -22 15 -25 26 -11 46 -106 71 -167 45 -68 -29 -97 -36 -108 -25
-47 47 -115 -155 -90 -268 6 -28 17 -59 24 -69 13 -17 16 -16 60 17 65 50 109
63 140 43 32 -21 58 -72 49 -98 -3 -11 -1 -23 5 -27 6 -4 8 -22 4 -46 -6 -36
-7 -37 -13 -15 -4 14 -3 30 1 35 8 11 -14 48 -23 39 -4 -3 -6 1 -5 8 1 40 -5
58 -24 68 -30 16 -63 5 -112 -38 -23 -20 -36 -29 -28 -19 9 11 10 17 2 17 -6
0 -14 -7 -18 -16 -8 -21 45 -74 74 -74 24 0 55 -14 88 -41 30 -24 75 -30 76
-10 0 12 2 11 9 -4 8 -17 9 -16 11 10 1 24 3 26 6 8 5 -25 31 -31 38 -10 3 6
1 35 -4 62 -5 28 -9 41 -10 30 -1 -16 -5 -13 -18 13 -12 25 -18 30 -29 21 -21
-17 -16 3 7 31 17 21 19 22 15 5 -8 -30 8 -52 27 -37 12 10 16 7 21 -19 3 -17
6 -51 6 -75 0 -42 0 -42 28 -35 113 33 201 141 216 266 11 86 -32 204 -96 265
-34 32 -50 37 -75 26z m-283 -476 c11 -7 5 -10 -22 -10 -21 0 -38 5 -38 10 0
13 40 13 60 0z m77 -24 c-3 -8 -1 -16 4 -18 6 -2 7 -11 4 -21 -10 -23 -22 -13
-19 15 1 13 3 26 3 31 1 4 4 7 7 7 3 0 4 -6 1 -14z"/>
<path d="M10641 2129 c-21 -17 -22 -22 -10 -30 7 -5 21 -9 29 -9 13 0 13 2 1
9 -12 8 -11 10 1 12 10 3 13 10 9 21 -5 15 -8 15 -30 -3z"/>
<path d="M2861 2082 c65 -114 89 -148 89 -127 0 45 -72 166 -106 179 -10 4 -4
-14 17 -52z"/>
<path d="M10895 1921 c-3 -5 -1 -12 4 -15 12 -8 41 3 41 15 0 12 -37 12 -45 0z"/>
<path d="M2250 1396 c0 -2 13 -6 29 -8 17 -2 28 -1 25 4 -5 8 -54 12 -54 4z"/>
<path d="M2563 1350 c0 -30 2 -43 4 -27 2 15 2 39 0 55 -2 15 -4 2 -4 -28z"/>
<path d="M2652 1370 c0 -19 2 -27 5 -17 2 9 2 25 0 35 -3 9 -5 1 -5 -18z"/>
<path d="M6482 1358 c-1 -26 -7 -49 -14 -51 -10 -4 -10 -6 0 -6 18 -1 24 20
19 65 -4 38 -4 37 -5 -8z"/>
<path d="M6603 1350 c0 -30 2 -43 4 -27 2 15 2 39 0 55 -2 15 -4 2 -4 -28z"/>
<path d="M6800 1350 c0 -46 2 -50 23 -49 16 1 18 2 5 6 -13 3 -18 15 -18 44 0
32 3 39 20 39 10 0 24 -8 29 -17 6 -10 11 -13 11 -7 0 17 -23 34 -47 34 -21 0
-23 -4 -23 -50z"/>
<path d="M10542 1358 c-1 -26 -7 -49 -14 -51 -10 -4 -10 -6 0 -6 18 -1 24 20
19 65 -4 38 -4 37 -5 -8z"/>
<path d="M10847 1393 c-14 -13 -6 -31 21 -47 l27 -17 -22 20 c-13 10 -23 24
-23 29 0 6 10 13 23 15 20 4 20 4 1 6 -11 0 -24 -2 -27 -6z"/>
<path d="M11068 1377 c-7 -21 6 -70 20 -73 7 -1 8 0 2 3 -12 6 -13 50 -1 55 5
2 3 8 -4 15 -10 9 -14 9 -17 0z"/>
<path d="M2312 1350 c0 -14 2 -19 5 -12 2 6 2 18 0 25 -3 6 -5 1 -5 -13z"/>
<path d="M2363 1364 c21 -7 23 -24 3 -24 -8 0 -17 -4 -20 -9 -4 -5 3 -7 14 -4
11 3 20 1 20 -5 0 -6 -10 -13 -22 -15 -19 -4 -18 -4 5 -6 26 -1 28 2 25 31 -2
24 -8 33 -23 35 -16 1 -16 1 -2 -3z"/>
<path d="M2483 1335 c0 -22 2 -30 4 -17 2 12 2 30 0 40 -3 9 -5 -1 -4 -23z"/>
<path d="M2514 1356 c-9 -23 0 -51 16 -52 9 0 10 1 3 3 -20 7 -16 51 5 56 16
4 16 5 -1 6 -10 0 -20 -5 -23 -13z"/>
<path d="M2684 1356 c-14 -37 22 -74 48 -48 6 6 0 8 -16 5 -23 -5 -26 -2 -26
21 0 19 5 26 19 26 11 0 22 -5 24 -10 3 -6 4 -5 3 2 -4 19 -45 22 -52 4z"/>
<path d="M2797 1363 c6 -4 13 -22 16 -38 4 -27 5 -27 3 4 0 21 -7 36 -16 38
-10 3 -11 2 -3 -4z"/>
<path d="M2845 1360 c-8 -13 3 -30 18 -29 9 0 9 2 0 6 -18 7 -16 21 5 26 15 4
15 5 0 6 -9 0 -20 -3 -23 -9z"/>
<path d="M2910 1355 c-22 -27 17 -72 41 -48 6 6 2 9 -13 9 -17 -1 -23 5 -23
19 0 14 6 20 22 19 12 0 20 3 17 8 -8 13 -30 9 -44 -7z"/>
<path d="M2993 1335 c0 -22 2 -30 4 -17 2 12 2 30 0 40 -3 9 -5 -1 -4 -23z"/>
<path d="M3010 1366 c0 -2 7 -7 16 -10 8 -3 12 -2 9 4 -6 10 -25 14 -25 6z"/>
<path d="M6520 1355 c-22 -27 17 -72 41 -48 6 6 2 9 -13 9 -17 -1 -23 5 -23
19 0 14 6 20 22 19 12 0 20 3 17 8 -8 13 -30 9 -44 -7z"/>
<path d="M6620 1366 c0 -2 7 -7 16 -10 8 -3 12 -2 9 4 -6 10 -25 14 -25 6z"/>
<path d="M6683 1335 c0 -22 2 -30 4 -17 2 12 2 30 0 40 -3 9 -5 -1 -4 -23z"/>
<path d="M6700 1366 c0 -2 7 -7 16 -10 8 -3 12 -2 9 4 -6 10 -25 14 -25 6z"/>
<path d="M6894 1356 c-14 -37 22 -74 48 -48 6 6 0 8 -16 5 -23 -5 -26 -2 -26
21 0 19 5 26 19 26 11 0 22 -5 24 -10 3 -6 4 -5 3 2 -4 19 -45 22 -52 4z"/>
<path d="M6979 1354 c-16 -19 -1 -48 27 -51 13 -2 11 1 -6 9 l-25 12 28 4 c15
2 27 7 27 11 0 5 -11 6 -25 3 -31 -6 -33 6 -2 18 15 6 17 9 6 9 -9 1 -22 -6
-30 -15z"/>
<path d="M10580 1366 c0 -2 9 -6 20 -9 11 -3 20 -1 20 4 0 5 -9 9 -20 9 -11 0
-20 -2 -20 -4z"/>
<path d="M10653 1335 c0 -22 2 -30 4 -17 2 12 2 30 0 40 -3 9 -5 -1 -4 -23z"/>
<path d="M10670 1366 c0 -2 7 -7 16 -10 8 -3 12 -2 9 4 -6 10 -25 14 -25 6z"/>
<path d="M10736 1361 c-3 -5 3 -7 14 -4 11 3 20 1 20 -5 0 -6 -12 -13 -27 -15
-26 -4 -25 -4 5 -6 27 -1 33 2 30 16 -4 20 -33 29 -42 14z"/>
<path d="M10911 1330 c1 -35 1 -35 8 -5 5 25 11 30 39 31 51 3 49 12 -2 11
-46 -2 -46 -2 -45 -37z"/>
<path d="M11147 1363 c6 -4 13 -22 16 -38 4 -27 5 -27 3 4 0 21 -7 36 -16 38
-10 3 -11 2 -3 -4z"/>
<path d="M11002 1325 c0 -16 2 -22 5 -12 2 9 2 23 0 30 -3 6 -5 -1 -5 -18z"/>
<path d="M2440 1331 c0 -7 -4 -9 -10 -6 -5 3 -10 2 -10 -4 0 -5 4 -12 9 -15
10 -6 25 24 16 32 -3 3 -5 0 -5 -7z"/>
<path d="M6856 1323 c-6 -14 -5 -15 5 -6 7 7 10 15 7 18 -3 3 -9 -2 -12 -12z"/>
<path d="M10598 1333 c7 -3 16 -2 19 1 4 3 -2 6 -13 5 -11 0 -14 -3 -6 -6z"/>
<path d="M2270 1310 c-21 -7 -21 -8 -5 -9 11 0 27 4 35 9 18 11 5 11 -30 0z"/>
<path d="M2630 1310 c-9 -6 -10 -10 -3 -10 6 0 15 5 18 10 8 12 4 12 -15 0z"/>
<path d="M10577 1308 c2 -5 13 -8 24 -8 10 0 19 3 19 8 0 4 -11 7 -24 7 -13 0
-22 -3 -19 -7z"/>
<path d="M10738 1308 c6 -6 18 -8 28 -6 14 3 12 5 -9 10 -19 3 -25 2 -19 -4z"/>
<path d="M10860 1310 c-23 -7 -23 -8 -3 -9 12 -1 25 4 28 9 3 6 5 10 3 9 -2
-1 -14 -5 -28 -9z"/>
<path d="M2848 1303 c6 -2 18 -2 25 0 6 3 1 5 -13 5 -14 0 -19 -2 -12 -5z"/>
<path d="M3575 801 c-174 -44 -218 -241 -76 -338 70 -48 182 -48 252 0 120 82
110 250 -20 316 -44 23 -115 33 -156 22z m125 -68 c0 -4 -25 -32 -55 -63 l-55
-56 55 -54 c56 -55 65 -70 43 -70 -15 0 -128 110 -128 124 0 15 112 126 127
126 7 0 13 -3 13 -7z"/>
<path d="M10085 801 c-174 -44 -218 -241 -76 -338 70 -48 182 -48 252 0 120
82 110 250 -20 316 -44 23 -115 33 -156 22z m57 -118 c32 -32 58 -62 58 -67 0
-15 -112 -126 -127 -126 -23 0 -14 15 42 70 l55 54 -55 56 c-48 48 -59 70 -36
70 3 0 31 -26 63 -57z"/>
<path d="M6712 685 c-21 -9 -38 -27 -48 -50 -20 -49 1 -100 51 -120 31 -14 39
-14 70 0 78 32 78 138 1 170 -41 18 -33 18 -74 0z"/>
</g>
</svg>
