<?xml version="1.0" standalone="no"?>
<!DOCTYPE svg PUBLIC "-//W3C//DTD SVG 20010904//EN"
 "http://www.w3.org/TR/2001/REC-SVG-20010904/DTD/svg10.dtd">
<svg version="1.0" xmlns="http://www.w3.org/2000/svg"
 width="1350.000000pt" height="609.000000pt" viewBox="0 0 1350.000000 609.000000"
 preserveAspectRatio="xMidYMid meet">

<g transform="translate(0.000000,609.000000) scale(0.100000,-0.100000)"
fill="#000000" stroke="none">
<path d="M13490 3055 l0 -3035 -6745 0 c-4490 0 -6745 -3 -6745 -10 0 -7 2257
-10 6750 -10 l6750 0 0 3045 c0 1675 -2 3045 -5 3045 -3 0 -5 -1366 -5 -3035z"/>
<path d="M5118 4283 c7 -3 16 -2 19 1 4 3 -2 6 -13 5 -11 0 -14 -3 -6 -6z"/>
<path d="M5165 4280 c-3 -5 -2 -10 4 -10 5 0 13 5 16 10 3 6 2 10 -4 10 -5 0
-13 -4 -16 -10z"/>
<path d="M5202 4265 c0 -16 2 -22 5 -12 2 9 2 23 0 30 -3 6 -5 -1 -5 -18z"/>
<path d="M3400 3837 c0 -10 -7 -20 -15 -23 -8 -4 -15 -12 -15 -19 0 -7 -4 -15
-8 -17 -4 -1 -18 -18 -31 -35 -25 -36 -15 -45 14 -13 10 11 21 18 24 15 13
-13 7 -35 -14 -55 -17 -16 -28 -19 -42 -12 -10 5 -35 10 -55 10 -29 1 -36 -2
-31 -13 3 -9 -1 -15 -11 -15 -10 0 -13 -6 -9 -16 3 -8 0 -26 -7 -40 -18 -32
-9 -39 18 -14 24 23 42 26 42 7 0 -12 -73 -97 -84 -97 -3 0 -6 8 -6 18 0 14
-2 15 -10 2 -8 -12 -12 -12 -18 -2 -17 25 -46 -25 -47 -81 -1 -56 -11 -87 -28
-87 -5 0 -3 8 7 18 16 18 15 19 -16 20 -18 0 -34 6 -36 11 -6 19 -17 12 -31
-20 -16 -36 -8 -48 17 -26 40 36 42 15 3 -24 -22 -23 -41 -46 -41 -51 0 -5 -4
-7 -9 -4 -5 3 -7 16 -4 29 4 22 4 22 -9 2 -7 -12 -20 -19 -28 -18 -20 5 -39
-27 -30 -52 6 -17 7 -16 14 8 4 18 13 27 26 27 11 0 20 -3 20 -8 0 -13 -88
-92 -92 -82 -2 6 -9 5 -18 0 -13 -9 -13 -11 -1 -19 12 -8 12 -12 3 -24 -9 -10
-12 -48 -10 -121 l3 -107 111 108 c62 59 151 145 198 191 48 46 84 86 82 91
-3 4 16 28 42 52 26 24 34 29 18 12 -17 -18 -25 -33 -19 -33 16 0 51 52 46 68
-4 10 34 12 186 12 l191 -2 180 -186 c146 -152 180 -182 179 -162 0 14 -3 19
-6 11 -4 -9 -16 -2 -39 25 -30 34 -39 58 -36 103 0 8 -10 27 -23 42 l-23 28
-4 -29 c-2 -16 0 -37 5 -47 5 -10 -11 2 -37 27 -41 39 -46 49 -46 88 0 25 -6
50 -15 58 -8 9 -15 30 -15 47 0 23 -7 36 -22 46 -22 13 -23 13 -5 -6 13 -15
17 -35 16 -84 l-2 -63 -60 64 c-59 62 -61 63 -108 61 l-49 -2 0 121 c0 71 4
120 10 120 5 0 7 7 4 15 -8 20 -189 22 -197 3 -3 -7 -6 -3 -6 9 -1 12 4 25 9
28 6 3 10 19 10 34 0 20 6 30 20 34 21 5 28 27 9 27 -7 0 -18 8 -25 18 -13 16
-13 16 -14 -1z m170 -172 c0 -12 -14 -15 -69 -15 -52 0 -70 4 -75 15 -4 13 7
15 69 15 60 0 75 -3 75 -15z m-1 -102 c-1 -43 -3 -70 -6 -60 -4 16 -14 18 -74
15 -63 -3 -69 -1 -69 16 0 11 -3 16 -7 12 -5 -4 -8 -31 -8 -59 0 -52 0 -52
-33 -55 -32 -3 -34 -2 -28 25 3 15 11 56 17 91 9 49 15 62 30 62 10 0 24 7 31
15 9 10 34 14 81 15 l67 0 -1 -77z m-59 -86 c0 -18 -2 -19 -10 -7 -8 13 -10
12 -10 -4 0 -11 -2 -17 -5 -14 -4 3 -3 17 1 32 7 30 24 25 24 -7z m-340 15 c0
-5 -13 -21 -30 -37 l-30 -29 0 27 c0 25 21 46 48 47 6 0 12 -4 12 -8z m297
-35 c-3 -8 5 -14 21 -15 45 -4 37 -12 -11 -12 -47 0 -61 16 -27 32 22 10 23 9
17 -5z m-287 -60 c0 -7 -7 -22 -15 -33 -16 -20 -16 -18 0 31 5 18 15 20 15 2z
m-170 -130 c0 -2 -10 -12 -21 -23 -22 -19 -22 -19 -10 4 10 18 31 31 31 19z
m-110 -116 c-11 -21 -30 -37 -30 -25 0 8 30 44 37 44 2 0 -1 -9 -7 -19z"/>
<path d="M2306 3615 c-3 -8 -2 -30 1 -48 7 -31 7 -31 14 -7 10 36 10 70 0 70
-5 0 -11 -7 -15 -15z"/>
<path d="M2234 3585 c-9 -23 3 -45 25 -45 26 0 45 32 29 48 -17 17 -48 15 -54
-3z m41 -15 c0 -7 -6 -15 -12 -17 -8 -3 -13 4 -13 17 0 13 5 20 13 18 6 -3 12
-11 12 -18z"/>
<path d="M4470 3498 l0 -82 29 46 c30 47 68 79 123 103 32 14 30 14 -59 15
l-93 0 0 -82z"/>
<path d="M3736 3525 c4 -8 13 -15 22 -15 9 0 26 -10 39 -22 34 -32 41 -13 8
22 -30 32 -79 42 -69 15z"/>
<path d="M3750 3490 c0 -5 5 -10 11 -10 5 0 7 5 4 10 -3 6 -8 10 -11 10 -2 0
-4 -4 -4 -10z"/>
<path d="M2031 3439 c0 -36 3 -47 8 -34 9 23 8 72 -2 82 -4 3 -7 -18 -6 -48z"/>
<path d="M1738 3469 c-22 -13 -23 -52 -2 -70 14 -11 21 -11 45 3 16 10 29 13
29 9 0 -13 28 -21 46 -14 9 3 14 15 12 32 -4 33 -36 40 -57 13 -9 -12 -29 -24
-44 -28 -26 -6 -28 -4 -25 17 2 20 8 24 33 21 29 -2 29 -2 11 13 -23 18 -25
18 -48 4z m112 -44 c0 -8 -4 -15 -9 -15 -13 0 -22 16 -14 24 11 11 23 6 23 -9z"/>
<path d="M2700 3471 c0 -5 -10 -11 -22 -13 -18 -2 -23 -10 -23 -33 0 -27 3
-30 33 -32 32 -1 32 -1 32 43 0 24 -4 44 -10 44 -5 0 -10 -4 -10 -9z m-2 -43
c-6 -18 -28 -21 -28 -4 0 9 7 16 16 16 9 0 14 -5 12 -12z"/>
<path d="M2125 3433 c8 -45 10 -47 25 -38 9 6 9 10 -1 16 -11 7 -12 12 -2 28
10 16 9 20 -3 25 -25 10 -27 8 -19 -31z"/>
<path d="M1885 3452 c-9 -9 -5 -51 5 -57 6 -4 10 5 10 19 0 16 6 26 15 26 9 0
15 -9 15 -25 0 -14 5 -25 11 -25 6 0 9 14 7 33 -3 27 -7 32 -30 33 -15 1 -30
-1 -33 -4z"/>
<path d="M1967 3453 c-13 -12 -7 -24 16 -33 l22 -9 -24 0 c-19 -1 -22 -4 -14
-12 15 -15 43 -4 43 15 0 8 -8 17 -17 19 -17 4 -17 5 0 6 10 0 15 6 12 11 -7
11 -28 13 -38 3z"/>
<path d="M2064 3448 c-4 -6 1 -17 11 -25 18 -13 18 -13 0 -13 -14 0 -16 -3 -8
-11 7 -7 19 -9 27 -6 20 8 21 37 1 37 -8 0 -15 4 -15 10 0 5 7 6 17 3 11 -4
14 -3 9 5 -9 15 -33 15 -42 0z"/>
<path d="M2172 3448 c-7 -7 -12 -17 -12 -24 0 -19 28 -37 47 -29 17 7 16 8 -2
15 -19 8 -19 9 3 9 12 1 22 5 22 9 0 12 -22 32 -35 32 -6 0 -16 -5 -23 -12z
m35 -14 c-3 -3 -12 -4 -19 -1 -8 3 -5 6 6 6 11 1 17 -2 13 -5z"/>
<path d="M2240 3424 c0 -19 5 -34 10 -34 6 0 10 11 10 25 0 16 6 25 15 25 10
0 15 -10 15 -27 0 -21 3 -24 12 -15 19 19 -5 60 -36 60 -23 0 -26 -5 -26 -34z"/>
<path d="M2326 3453 c-10 -10 -7 -51 4 -58 6 -3 20 -3 33 1 l22 8 -23 5 c-30
8 -28 24 3 33 22 5 25 2 31 -27 3 -19 3 -38 -1 -44 -3 -6 -1 -11 5 -11 9 0 50
79 50 96 0 14 -19 0 -24 -18 -7 -23 -7 -23 -16 -2 -6 15 -18 21 -43 22 -19 1
-37 -2 -41 -5z"/>
<path d="M2494 3446 c-12 -31 1 -51 34 -53 30 -1 32 1 32 33 0 31 -2 34 -30
34 -17 0 -33 -6 -36 -14z m46 -21 c0 -8 -7 -15 -15 -15 -8 0 -15 7 -15 15 0 8
7 15 15 15 8 0 15 -7 15 -15z"/>
<path d="M2570 3430 c0 -16 5 -32 10 -35 6 -4 10 5 10 19 0 16 6 26 15 26 9 0
15 -9 15 -25 0 -14 5 -25 11 -25 6 0 9 14 7 33 -3 28 -7 32 -35 34 -30 1 -33
-1 -33 -27z"/>
<path d="M5074 3435 c-7 -16 2 -35 17 -35 5 0 9 7 9 15 0 8 -6 15 -12 15 -9 0
-8 4 2 10 10 7 11 10 2 10 -7 0 -15 -7 -18 -15z"/>
<path d="M8970 3315 c0 -128 1 -135 20 -135 18 0 20 7 20 59 0 41 5 65 16 75
38 39 64 10 64 -71 0 -56 2 -63 20 -63 18 0 20 7 20 70 0 57 -4 74 -20 90 -24
24 -48 25 -78 4 l-22 -15 0 60 c0 54 -2 61 -20 61 -19 0 -20 -7 -20 -135z"/>
<path d="M6733 3425 c-90 -39 -96 -188 -8 -229 54 -26 125 -18 125 14 0 16 -4
17 -32 9 -43 -12 -98 15 -111 55 -12 37 5 97 35 115 12 7 41 13 65 13 30 -1
43 3 43 12 0 28 -64 34 -117 11z"/>
<path d="M7922 3423 c2 -10 10 -18 18 -18 8 0 16 8 18 18 2 12 -3 17 -18 17
-15 0 -20 -5 -18 -17z"/>
<path d="M8750 3419 c0 -14 5 -19 17 -17 26 5 29 38 4 38 -15 0 -21 -6 -21
-21z"/>
<path d="M9290 3310 l0 -130 65 0 c50 0 65 3 65 14 0 11 -14 16 -47 18 l-48 3
0 40 c0 40 0 40 43 43 28 2 42 8 42 18 0 10 -13 14 -46 14 l-45 0 3 38 c3 37
3 37 51 40 33 2 47 7 47 18 0 11 -15 14 -65 14 l-65 0 0 -130z"/>
<path d="M7288 3402 c-10 -2 -18 -12 -18 -23 0 -10 -7 -19 -15 -19 -8 0 -15
-7 -15 -15 0 -8 7 -15 15 -15 12 0 15 -13 15 -59 0 -66 15 -91 56 -91 29 0 32
25 4 33 -17 4 -20 14 -20 61 0 49 2 56 20 56 11 0 20 7 20 15 0 8 -9 15 -19
15 -13 0 -21 8 -23 23 -2 15 -9 21 -20 19z"/>
<path d="M8868 3402 c-10 -2 -18 -12 -18 -23 0 -10 -7 -19 -15 -19 -8 0 -15
-7 -15 -15 0 -8 7 -15 15 -15 12 0 15 -13 15 -59 0 -66 15 -91 56 -91 29 0 32
25 4 33 -17 4 -20 14 -20 61 0 49 2 56 20 56 11 0 20 7 20 15 0 8 -9 15 -19
15 -13 0 -21 8 -23 23 -2 15 -9 21 -20 19z"/>
<path d="M3860 3387 c0 -8 10 -22 22 -33 19 -15 20 -16 9 -1 -11 14 -11 17 2
17 8 0 20 -7 27 -15 23 -28 32 -15 10 15 -22 31 -70 42 -70 17z"/>
<path d="M3363 3383 c-19 -7 -16 -53 2 -53 10 0 15 10 15 30 0 17 -1 30 -2 29
-2 0 -9 -3 -15 -6z"/>
<path d="M3613 3373 c0 -20 15 -43 28 -43 16 0 10 48 -7 54 -21 8 -21 8 -21
-11z"/>
<path d="M4659 3384 c0 -5 0 -28 1 -51 2 -49 -2 -51 -31 -22 -14 14 -27 18
-42 13 -43 -13 -48 -29 -47 -151 0 -80 -1 -83 -23 -83 -14 0 -24 6 -24 14 0 8
6 12 14 9 21 -8 14 11 -11 29 l-24 18 -6 -73 c-3 -39 -4 -112 -3 -162 l2 -90
258 -3 257 -2 -2 142 c0 79 -3 128 -5 110 -3 -20 -8 -30 -15 -26 -6 4 -8 3 -5
-3 6 -9 -59 -63 -75 -63 -3 0 -5 47 -4 105 1 97 -1 106 -21 120 -13 9 -20 22
-17 30 4 10 0 15 -14 15 -11 0 -22 6 -25 14 -3 8 -18 16 -34 18 -19 2 -28 8
-27 21 1 9 -2 17 -6 17 -10 0 -19 -60 -26 -172 -5 -66 -9 -88 -20 -88 -10 0
-14 15 -14 60 0 41 4 60 13 60 8 0 8 3 1 8 -6 4 -11 47 -13 97 -1 49 -4 91 -6
94 -3 2 -5 0 -6 -5z"/>
<path d="M3706 3352 c-3 -5 9 -22 26 -38 18 -16 27 -22 20 -13 -6 9 -10 19 -7
22 3 4 2 5 -2 2 -9 -7 -34 16 -27 26 3 5 3 9 0 9 -3 0 -7 -4 -10 -8z"/>
<path d="M6892 3284 c3 -60 7 -79 23 -90 25 -19 54 -18 77 3 17 15 18 15 18 0
0 -10 8 -17 20 -17 19 0 20 7 20 90 0 83 -2 90 -20 90 -17 0 -19 -8 -22 -66
-3 -74 -21 -99 -55 -78 -14 8 -19 27 -21 78 -3 59 -5 66 -24 66 -19 0 -20 -5
-16 -76z"/>
<path d="M7123 3345 c-37 -26 -30 -61 18 -85 48 -25 46 -45 -5 -45 -27 0 -36
-4 -34 -15 4 -21 64 -25 94 -5 42 28 27 65 -39 93 -38 16 -29 37 17 37 27 0
36 4 34 15 -4 21 -58 24 -85 5z"/>
<path d="M7410 3332 c-61 -61 -22 -152 66 -152 38 0 84 51 84 93 0 48 -26 77
-77 84 -37 5 -46 2 -73 -25z m91 -12 c14 -8 19 -21 19 -50 0 -29 -5 -42 -19
-50 -43 -22 -81 1 -81 50 0 49 38 72 81 50z"/>
<path d="M7610 3270 c0 -73 3 -90 15 -90 11 0 15 13 15 54 0 66 27 108 57 90
14 -9 19 -26 21 -78 3 -58 5 -66 22 -66 18 0 20 7 20 64 0 67 13 91 47 84 20
-4 31 -36 32 -100 1 -36 5 -48 16 -48 24 0 21 141 -3 163 -23 21 -52 22 -77 3
-16 -12 -22 -12 -43 2 -20 13 -29 14 -55 4 -21 -8 -33 -9 -35 -2 -2 5 -10 10
-18 10 -11 0 -14 -19 -14 -90z"/>
<path d="M7920 3270 c0 -83 1 -90 20 -90 19 0 20 7 20 90 0 83 -1 90 -20 90
-19 0 -20 -7 -20 -90z"/>
<path d="M8010 3345 c0 -11 11 -15 40 -15 22 0 40 -3 40 -6 0 -3 -20 -32 -45
-64 -25 -32 -45 -63 -45 -69 0 -7 28 -11 75 -11 59 0 75 3 75 14 0 11 -14 16
-49 18 l-50 3 49 65 c27 36 50 68 50 73 0 4 -31 7 -70 7 -56 0 -70 -3 -70 -15z"/>
<path d="M8205 3335 c-36 -35 -35 -105 1 -134 27 -21 52 -25 92 -15 38 11 27
34 -13 27 -26 -4 -41 -1 -55 12 -32 29 -24 35 46 35 l67 0 -7 33 c-13 65 -85
89 -131 42z m85 -20 c18 -22 9 -27 -41 -23 -41 3 -42 4 -25 21 22 21 49 22 66
2z"/>
<path d="M8460 3348 c0 -7 10 -47 23 -88 17 -57 27 -76 42 -78 17 -2 23 8 39
64 21 72 26 70 46 -14 10 -45 15 -53 33 -50 17 2 26 18 43 78 27 91 28 100 9
100 -14 0 -26 -33 -41 -109 -8 -41 -17 -28 -34 52 -18 78 -42 79 -64 3 -9 -30
-16 -59 -16 -65 0 -6 -4 -11 -8 -11 -5 0 -15 28 -23 62 -10 44 -19 64 -32 66
-9 2 -17 -2 -17 -10z"/>
<path d="M8750 3270 c0 -83 1 -90 20 -90 19 0 20 7 20 90 0 83 -1 90 -20 90
-19 0 -20 -7 -20 -90z"/>
<path d="M9488 3349 c-26 -15 -24 -43 1 -29 30 16 59 12 70 -9 9 -15 7 -20
-12 -25 -12 -3 -32 -6 -44 -6 -13 0 -30 -11 -39 -25 -15 -23 -15 -27 0 -50 18
-27 45 -32 79 -14 16 9 22 9 25 0 2 -6 10 -11 18 -11 11 0 14 17 14 74 0 66
-3 77 -22 90 -26 18 -65 20 -90 5z m82 -98 c0 -16 -31 -41 -50 -41 -22 0 -34
15 -26 35 6 17 76 21 76 6z"/>
<path d="M9673 3350 c-23 -9 -38 -43 -28 -60 4 -6 24 -19 46 -31 50 -25 46
-44 -10 -43 -27 0 -41 -4 -41 -12 0 -33 102 -28 120 6 15 27 2 48 -42 71 -47
24 -45 43 6 47 23 2 36 8 33 15 -5 15 -55 19 -84 7z"/>
<path d="M9843 3350 c-28 -12 -43 -40 -43 -85 0 -63 63 -103 124 -79 32 12 17
31 -25 30 -32 -1 -44 4 -56 22 l-15 22 67 0 68 0 -7 33 c-11 56 -57 79 -113
57z m67 -35 c18 -22 9 -27 -41 -23 -41 3 -42 4 -25 21 22 21 49 22 66 2z"/>
<path d="M3239 3313 c-13 -16 -12 -17 4 -4 16 13 21 21 13 21 -2 0 -10 -8 -17
-17z"/>
<path d="M3911 3313 c7 -10 15 -20 16 -22 2 -2 3 3 3 11 0 9 -7 19 -16 22 -15
6 -15 4 -3 -11z"/>
<path d="M3426 3253 c6 -57 5 -63 -12 -64 -15 0 -16 -2 -4 -7 16 -7 17 -11 19
-82 1 -39 2 -40 36 -40 l35 0 0 118 0 118 41 -4 c32 -3 40 -1 37 9 -3 10 -25
14 -82 14 l-77 0 7 -62z"/>
<path d="M3282 3298 c-7 -7 -12 -34 -12 -60 0 -31 -4 -48 -12 -48 -7 0 -25
-12 -40 -27 l-28 -27 0 39 c0 37 0 38 -20 20 -14 -12 -20 -31 -20 -59 -1 -32
-6 -45 -25 -59 l-25 -18 0 31 c0 59 -40 26 -41 -34 0 -34 -6 -46 -35 -69 l-34
-29 0 31 c0 29 -2 30 -20 19 -11 -7 -20 -24 -21 -38 0 -14 -5 -34 -10 -45 -7
-16 -9 -14 -6 13 4 34 1 37 -21 23 -9 -5 -11 -19 -7 -43 5 -25 2 -38 -9 -47
-14 -12 -16 -9 -16 20 l-1 34 -23 -27 c-21 -23 -22 -32 -16 -75 5 -26 13 -61
19 -77 10 -26 13 -27 29 -14 112 96 340 298 351 311 8 10 28 17 48 17 28 0 33
3 29 18 -15 51 -17 72 -7 90 8 15 8 23 0 27 -6 5 -8 26 -3 61 6 54 0 66 -24
42z m-15 -160 c-3 -8 -6 -5 -6 6 -1 11 2 17 5 13 3 -3 4 -12 1 -19z m-25 -20
c-8 -8 -9 -4 -5 13 4 13 8 18 11 10 2 -7 -1 -18 -6 -23z m-30 -20 c-7 -7 -12
-8 -12 -2 0 6 3 14 7 17 3 4 9 5 12 2 2 -3 -1 -11 -7 -17z"/>
<path d="M3226 3261 c-11 -12 -16 -24 -12 -28 9 -9 39 22 34 37 -2 7 -10 4
-22 -9z"/>
<path d="M3785 3260 c20 -23 29 -21 19 4 -3 9 -13 16 -22 16 -13 0 -12 -3 3
-20z"/>
<path d="M3975 3261 c-3 -6 7 -25 23 -43 16 -18 32 -40 35 -48 4 -10 6 -7 6 8
1 12 -3 22 -9 22 -12 0 -34 40 -26 47 3 4 15 -2 26 -12 16 -14 20 -15 20 -4 0
32 -59 55 -75 30z"/>
<path d="M5073 3214 c-6 -17 13 -42 24 -30 4 4 1 11 -7 17 -13 8 -13 10 0 19
11 7 11 10 2 10 -7 0 -15 -7 -19 -16z"/>
<path d="M5124 3211 c0 -11 4 -17 8 -15 4 3 8 12 8 20 0 8 -4 14 -8 14 -4 0
-8 -9 -8 -19z"/>
<path d="M3348 3183 c6 -2 10 -9 6 -14 -3 -5 3 -9 14 -9 10 0 19 7 19 15 0 10
-10 15 -26 14 -14 0 -20 -3 -13 -6z"/>
<path d="M3510 3175 c0 -10 10 -15 34 -15 21 0 36 6 40 15 4 12 -3 15 -34 15
-29 0 -40 -4 -40 -15z"/>
<path d="M3616 3175 c4 -8 12 -15 19 -15 7 0 15 7 19 15 4 11 -1 15 -19 15
-18 0 -23 -4 -19 -15z"/>
<path d="M3718 3183 c20 -4 22 -10 22 -63 0 -47 3 -60 18 -64 9 -3 33 -21 52
-39 83 -77 229 -207 234 -207 3 0 6 21 6 46 0 37 -6 53 -30 81 -16 18 -30 44
-30 57 0 29 -10 39 -26 25 -18 -15 -34 -3 -34 27 0 13 -4 24 -10 24 -5 0 -10
-8 -10 -17 0 -14 -4 -13 -25 7 -21 20 -23 25 -9 34 13 10 10 16 -17 41 l-32
30 5 -27 c5 -28 5 -28 -38 12 -31 28 -52 40 -71 39 -24 -2 -25 -2 -5 -6z m63
-60 c13 -16 12 -17 -3 -4 -10 7 -18 15 -18 17 0 8 8 3 21 -13z m69 -75 c0 -16
-19 -7 -34 14 -26 37 -19 54 9 22 14 -16 25 -32 25 -36z m27 -30 c-3 -8 -6 -5
-6 6 -1 11 2 17 5 13 3 -3 4 -12 1 -19z"/>
<path d="M3123 3159 c-7 -9 -9 -20 -3 -29 12 -19 22 -7 18 21 -2 19 -5 20 -15
8z"/>
<path d="M3352 3105 c-2 -37 1 -45 16 -45 14 0 18 8 17 39 0 22 -4 37 -9 34
-4 -3 -11 0 -15 6 -4 7 -8 -9 -9 -34z"/>
<path d="M3510 3108 l0 -48 35 0 c31 0 35 3 35 26 0 27 -29 67 -31 42 0 -7 -4
-4 -9 7 -6 13 -9 15 -9 5 -1 -13 -2 -13 -11 0 -7 11 -10 2 -10 -32z"/>
<path d="M3633 3135 c-19 -21 -17 -75 2 -75 12 0 15 11 13 45 0 25 -2 45 -2
45 -1 -1 -7 -7 -13 -15z"/>
<path d="M3926 3122 c-3 -6 -1 -14 5 -17 14 -9 20 -2 10 14 -6 8 -11 9 -15 3z"/>
<path d="M3228 3012 c-3 -11 -81 -81 -174 -157 -93 -76 -170 -144 -172 -151
-2 -8 6 -27 17 -43 12 -16 21 -33 21 -39 0 -5 7 -15 15 -22 13 -11 15 -8 15
20 l0 33 20 -26 c12 -14 20 -40 20 -61 0 -20 5 -36 10 -36 6 0 10 35 10 85 0
47 4 85 9 85 5 0 7 -43 6 -95 -3 -94 3 -117 29 -96 9 8 13 7 13 -4 0 -8 -4
-12 -9 -9 -4 3 -8 1 -8 -5 0 -22 23 -21 60 3 22 14 44 26 49 26 5 0 14 7 22
16 7 8 37 32 68 52 32 21 49 38 40 40 -12 2 -14 25 -11 144 4 123 2 140 -11
135 -11 -4 -10 3 6 28 12 19 27 34 34 35 12 0 21 -56 26 -155 2 -43 5 -50 25
-53 22 -3 22 -1 22 97 0 69 4 102 13 108 17 10 199 14 216 4 9 -6 15 -41 20
-107 l6 -99 18 27 c13 18 21 54 24 108 5 67 9 80 22 78 10 -2 18 -17 22 -38 5
-34 6 -34 16 -11 l9 24 33 -29 c24 -22 34 -41 40 -79 7 -40 9 -44 10 -17 0 18
5 31 10 28 5 -3 11 1 15 9 10 27 47 16 101 -30 32 -27 56 -42 60 -35 8 13 -3
32 -15 25 -5 -3 -14 4 -20 15 -6 11 -16 17 -22 14 -6 -4 -8 -3 -5 3 11 17 -18
33 -59 35 -49 1 -137 62 -129 89 10 29 -29 34 -273 30 -159 -2 -237 1 -246 8
-10 9 -15 7 -18 -7z m13 -154 c1 -13 1 -67 0 -121 -1 -60 2 -96 8 -93 5 3 8
-2 6 -11 -1 -10 -9 -17 -16 -16 -8 2 -25 -7 -39 -20 -14 -12 -21 -20 -15 -17
6 3 2 -3 -8 -12 -26 -24 -40 -13 -33 26 3 17 6 68 7 114 2 98 8 134 21 126 5
-3 18 6 29 20 25 32 39 33 40 4z m-133 -161 l-2 -62 -3 53 c-5 68 -23 58 -23
-13 0 -30 -5 -57 -12 -61 -8 -5 -9 12 -4 67 6 68 18 95 38 83 4 -3 7 -33 6
-67z m19 -152 c0 -8 -4 -12 -9 -9 -5 3 -6 10 -3 15 9 13 12 11 12 -6z m-30
-20 c0 -8 -4 -12 -9 -9 -5 3 -6 10 -3 15 9 13 12 11 12 -6z"/>
<path d="M4020 3023 c0 -6 8 -17 18 -24 16 -13 16 -13 2 6 -8 11 -16 22 -17
24 -2 2 -3 0 -3 -6z"/>
<path d="M5125 2985 c0 -13 3 -21 8 -18 4 2 7 10 7 18 0 8 -3 16 -7 18 -5 3
-8 -5 -8 -18z"/>
<path d="M5070 2981 c0 -12 6 -21 15 -21 8 0 15 3 15 6 0 3 -7 12 -15 20 -13
14 -15 13 -15 -5z"/>
<path d="M3420 2951 c0 -5 38 -11 85 -13 63 -2 85 0 85 10 0 9 -24 12 -85 12
-47 0 -85 -4 -85 -9z"/>
<path d="M3760 2896 c0 -9 7 -19 15 -23 25 -9 27 2 5 22 -18 17 -20 17 -20 1z"/>
<path d="M3758 2823 c5 -59 10 -63 11 -10 1 26 -3 47 -7 47 -4 0 -6 -17 -4
-37z"/>
<path d="M3860 2821 c0 -58 13 -151 21 -151 11 0 12 68 3 134 -7 50 -24 63
-24 17z"/>
<path d="M7641 2735 c-1 -58 0 -61 24 -63 13 -1 26 2 29 6 3 5 -5 8 -17 8 -17
-1 -22 5 -22 24 0 33 32 39 44 8 7 -15 10 -17 10 -7 1 22 -25 43 -43 36 -10
-4 -16 2 -19 21 -2 15 -5 0 -6 -33z"/>
<path d="M8222 2770 c-4 -11 -5 -39 -3 -63 l6 -42 3 35 c2 19 9 38 15 42 9 6
9 8 0 8 -7 0 -13 6 -13 14 0 8 6 17 13 19 9 4 9 6 -1 6 -7 1 -16 -8 -20 -19z"/>
<path d="M8761 2734 c-1 -60 0 -61 25 -60 51 2 59 71 8 71 -12 0 -21 9 -25 25
-4 16 -7 3 -8 -36z m54 -24 c0 -16 -6 -26 -18 -28 -19 -4 -32 20 -23 44 9 25
41 13 41 -16z"/>
<path d="M9140 2766 c0 -18 -4 -23 -18 -19 -24 6 -44 -19 -40 -49 2 -18 10
-23 36 -24 l32 -1 0 59 c0 32 -2 58 -5 58 -3 0 -5 -11 -5 -24z m-5 -56 c0 -29
-32 -41 -41 -16 -9 24 4 48 23 44 12 -2 18 -12 18 -28z"/>
<path d="M9432 2730 c1 -48 2 -56 7 -30 8 48 38 54 44 8 l4 -33 -1 35 c-1 28
-5 35 -21 35 -13 0 -22 9 -26 25 -4 14 -7 -2 -7 -40z"/>
<path d="M10513 2730 c0 -36 2 -50 4 -32 2 17 2 47 0 65 -2 17 -4 3 -4 -33z"/>
<path d="M11073 2730 c0 -36 2 -50 4 -32 2 17 2 47 0 65 -2 17 -4 3 -4 -33z"/>
<path d="M11230 2767 c0 -18 -5 -23 -21 -23 -12 1 -26 -7 -33 -16 -15 -25 4
-53 38 -54 25 -1 26 1 26 57 0 33 -2 59 -5 59 -3 0 -5 -10 -5 -23z m-5 -57 c0
-16 -6 -26 -18 -28 -19 -4 -32 20 -23 44 9 25 41 13 41 -16z"/>
<path d="M11895 2780 c-3 -6 1 -7 9 -4 18 7 21 14 7 14 -6 0 -13 -4 -16 -10z"/>
<path d="M6662 2773 c13 -3 18 -18 21 -56 l3 -52 2 52 c2 40 6 53 20 56 9 3
-1 5 -23 5 -22 0 -32 -2 -23 -5z"/>
<path d="M7838 2757 c-7 -22 7 -80 20 -83 7 -1 8 0 2 3 -12 6 -13 60 -1 65 5
2 3 8 -4 15 -10 9 -14 9 -17 0z"/>
<path d="M8018 2757 c-2 -7 -1 -25 3 -42 7 -30 7 -30 8 -3 0 14 5 28 10 30 5
2 3 8 -4 15 -10 9 -14 9 -17 0z"/>
<path d="M8298 2757 c-2 -7 -1 -25 3 -42 7 -30 7 -30 8 -3 0 14 5 28 10 30 5
2 3 8 -4 15 -10 9 -14 9 -17 0z"/>
<path d="M9378 2757 c-7 -22 7 -80 20 -83 7 -1 8 0 2 3 -12 6 -13 60 -1 65 5
2 3 8 -4 15 -10 9 -14 9 -17 0z"/>
<path d="M9978 2757 c-7 -22 7 -80 20 -83 7 -1 8 0 2 3 -12 6 -13 60 -1 65 5
2 3 8 -4 15 -10 9 -14 9 -17 0z"/>
<path d="M10158 2757 c-2 -7 -1 -25 3 -42 7 -30 7 -30 8 -3 0 14 5 28 10 30 5
2 3 8 -4 15 -10 9 -14 9 -17 0z"/>
<path d="M11688 2757 c-7 -22 7 -80 20 -83 7 -1 8 0 2 3 -12 6 -13 60 -1 65 5
2 3 8 -4 15 -10 9 -14 9 -17 0z"/>
<path d="M3428 2733 c-6 -49 1 -63 33 -63 25 0 29 4 29 26 0 15 -8 33 -17 41
-17 14 -17 14 0 9 9 -3 17 -1 17 4 0 6 -13 10 -29 10 -24 0 -29 -5 -33 -27z"/>
<path d="M3546 2745 c-3 -8 -12 -15 -20 -15 -10 0 -14 -10 -14 -30 1 -27 4
-30 35 -30 33 0 33 1 33 45 0 32 -4 45 -14 45 -8 0 -16 -7 -20 -15z"/>
<path d="M4010 2742 c0 -5 9 -17 20 -27 16 -14 20 -15 20 -4 0 16 -19 39 -32
39 -4 0 -8 -4 -8 -8z"/>
<path d="M6748 2743 c30 -6 28 -19 -4 -27 -35 -9 -29 -41 9 -42 26 -1 28 1 25
35 -3 30 -7 36 -28 38 -22 1 -22 1 -2 -4z m22 -43 c0 -12 -28 -25 -36 -17 -9
9 6 27 22 27 8 0 14 -5 14 -10z"/>
<path d="M6813 2710 c0 -25 2 -35 4 -22 2 12 2 32 0 45 -2 12 -4 2 -4 -23z"/>
<path d="M6892 2738 c-24 -24 -7 -69 28 -67 9 0 6 4 -8 10 -17 6 -22 15 -20
31 3 26 36 37 50 16 8 -10 9 -10 5 2 -5 19 -39 24 -55 8z"/>
<path d="M6983 2710 c0 -25 2 -35 4 -22 2 12 2 32 0 45 -2 12 -4 2 -4 -23z"/>
<path d="M7125 2739 c-4 -6 -5 -12 -2 -15 2 -3 7 2 10 11 7 17 1 20 -8 4z"/>
<path d="M7162 2738 c-24 -24 -7 -69 28 -67 9 0 6 4 -8 10 -17 6 -22 15 -20
31 3 26 36 37 50 16 8 -10 9 -10 5 2 -5 19 -39 24 -55 8z"/>
<path d="M7300 2720 c0 -34 -26 -52 -42 -29 -8 12 -9 11 -5 -1 2 -8 16 -15 30
-16 25 -1 27 2 27 37 0 22 -2 39 -5 39 -3 0 -5 -14 -5 -30z"/>
<path d="M7341 2705 c2 -33 3 -35 6 -10 2 17 11 35 20 42 13 10 13 12 -6 10
-18 -1 -21 -7 -20 -42z"/>
<path d="M7476 2742 c-4 -7 0 -19 8 -28 17 -17 19 -11 7 20 -5 14 -10 16 -15
8z"/>
<path d="M7562 2738 c-24 -24 -6 -69 28 -67 9 0 6 4 -7 9 -31 13 -29 30 5 31
l27 1 -30 8 c-24 5 -27 8 -13 14 9 4 22 4 29 0 8 -4 9 -3 5 4 -9 15 -29 15
-44 0z"/>
<path d="M7737 2743 c-13 -13 -7 -32 13 -38 27 -9 25 -25 -2 -26 -19 -1 -20
-2 -4 -6 10 -3 23 0 30 7 8 9 6 16 -11 27 -28 19 -29 30 -5 36 14 4 14 5 1 6
-9 0 -19 -2 -22 -6z"/>
<path d="M7803 2710 c0 -25 2 -35 4 -22 2 12 2 32 0 45 -2 12 -4 2 -4 -23z"/>
<path d="M7923 2744 c27 -8 20 -27 -9 -21 -22 4 -25 1 -22 -22 2 -19 9 -27 28
-28 25 -3 25 -3 3 7 -31 13 -29 30 3 30 19 0 25 5 22 17 -2 10 -12 19 -23 20
-16 1 -16 1 -2 -3z"/>
<path d="M8082 2738 c-24 -24 -7 -69 28 -67 9 0 6 4 -8 10 -17 6 -22 15 -20
31 3 26 36 37 50 16 8 -10 9 -10 5 2 -5 19 -39 24 -55 8z"/>
<path d="M8263 2710 c0 -25 2 -35 4 -22 2 12 2 32 0 45 -2 12 -4 2 -4 -23z"/>
<path d="M8390 2745 c0 -5 5 -17 10 -25 5 -8 10 -10 10 -5 0 6 -5 17 -10 25
-5 8 -10 11 -10 5z"/>
<path d="M8487 2743 c-3 -5 8 -8 23 -8 15 0 26 3 23 8 -2 4 -13 7 -23 7 -10 0
-21 -3 -23 -7z"/>
<path d="M8574 2710 c1 -31 4 -35 29 -36 25 -1 27 1 26 40 l-2 41 -6 -35 c-8
-48 -38 -54 -44 -8 l-4 33 1 -35z"/>
<path d="M8661 2705 c2 -33 3 -35 6 -10 2 17 11 35 20 42 13 10 13 12 -6 10
-18 -1 -21 -7 -20 -42z"/>
<path d="M8933 2744 c20 -6 23 -24 3 -24 -7 0 -20 -8 -27 -17 -11 -15 -11 -16
1 -5 21 18 38 15 43 -10 3 -13 4 -5 4 17 -2 32 -6 40 -22 42 -16 1 -16 1 -2
-3z"/>
<path d="M8990 2711 c0 -23 2 -41 4 -41 8 0 12 71 4 76 -4 3 -8 -13 -8 -35z"/>
<path d="M9033 2739 c10 -6 17 -23 18 -42 1 -18 3 -24 6 -14 8 30 -6 67 -25
67 -16 -1 -16 -1 1 -11z"/>
<path d="M9257 2736 c-9 -24 -9 -28 3 -21 6 3 10 1 10 -6 0 -7 2 -10 5 -7 3 3
2 15 -3 28 -8 20 -9 21 -15 6z"/>
<path d="M9570 2735 c-26 -31 13 -82 44 -56 21 17 21 57 0 65 -23 9 -30 8 -44
-9z m45 -25 c0 -29 -32 -41 -41 -16 -9 24 4 48 23 44 12 -2 18 -12 18 -28z"/>
<path d="M9710 2720 c0 -34 -26 -52 -42 -29 -8 12 -9 11 -5 -1 2 -8 16 -15 30
-16 25 -1 27 2 27 37 0 22 -2 39 -5 39 -3 0 -5 -14 -5 -30z"/>
<path d="M9753 2710 c0 -25 2 -35 4 -22 2 12 2 32 0 45 -2 12 -4 2 -4 -23z"/>
<path d="M9853 2710 c0 -25 2 -35 4 -22 2 12 2 32 0 45 -2 12 -4 2 -4 -23z"/>
<path d="M9923 2739 c10 -6 17 -23 18 -42 1 -18 3 -24 6 -14 8 30 -6 67 -25
67 -16 -1 -16 -1 1 -11z"/>
<path d="M10034 2710 c1 -31 4 -35 29 -36 25 -1 27 1 26 40 l-2 41 -6 -35 c-8
-48 -38 -54 -44 -8 l-4 33 1 -35z"/>
<path d="M10123 2710 c0 -25 2 -35 4 -22 2 12 2 32 0 45 -2 12 -4 2 -4 -23z"/>
<path d="M10213 2710 c0 -25 2 -35 4 -22 2 12 2 32 0 45 -2 12 -4 2 -4 -23z"/>
<path d="M10246 2737 c3 -10 9 -15 12 -12 3 3 0 11 -7 18 -10 9 -11 8 -5 -6z"/>
<path d="M10296 2735 c-9 -26 -7 -32 5 -12 6 10 9 21 6 23 -2 3 -7 -2 -11 -11z"/>
<path d="M10336 2742 c-3 -5 6 -7 19 -4 14 2 25 0 25 -6 0 -6 -12 -13 -27 -15
-26 -4 -25 -4 5 -6 27 -1 33 2 30 17 -3 18 -42 29 -52 14z"/>
<path d="M10466 2741 c-4 -5 3 -7 14 -4 23 6 26 13 6 13 -8 0 -17 -4 -20 -9z"/>
<path d="M10551 2705 c2 -33 3 -35 6 -10 2 17 11 35 20 42 13 10 13 12 -6 10
-18 -1 -21 -7 -20 -42z"/>
<path d="M10633 2744 c23 -7 21 -17 -5 -29 -26 -11 -31 -39 -8 -41 10 -1 10 1
2 3 -17 6 -10 27 11 31 9 2 17 -6 20 -20 3 -13 4 -5 4 17 -2 32 -6 40 -22 42
-16 1 -16 1 -2 -3z"/>
<path d="M10696 2741 c-4 -5 3 -7 14 -4 23 6 26 13 6 13 -8 0 -17 -4 -20 -9z"/>
<path d="M10740 2700 c-4 -48 -8 -55 -30 -61 -22 -6 -22 -7 -4 -8 33 -2 46 22
42 76 l-4 48 -4 -55z"/>
<path d="M10868 2743 c30 -6 28 -19 -4 -27 -35 -9 -29 -41 9 -42 26 -1 28 1
25 35 -3 30 -7 36 -28 38 -22 1 -22 1 -2 -4z m22 -43 c0 -12 -28 -25 -36 -17
-9 9 6 27 22 27 8 0 14 -5 14 -10z"/>
<path d="M10931 2706 l2 -41 6 35 c8 48 38 54 44 8 l4 -33 -1 35 c-1 31 -4 35
-28 36 -26 1 -28 -1 -27 -40z"/>
<path d="M11026 2741 c-4 -5 3 -7 14 -4 23 6 26 13 6 13 -8 0 -17 -4 -20 -9z"/>
<path d="M11271 2705 c2 -33 3 -35 6 -10 2 17 11 35 20 42 13 10 13 12 -6 10
-18 -1 -21 -7 -20 -42z"/>
<path d="M11332 2738 c-24 -24 -7 -69 28 -67 9 0 6 4 -8 10 -17 6 -22 15 -20
31 3 26 36 37 50 16 8 -10 9 -10 5 2 -5 19 -39 24 -55 8z"/>
<path d="M11421 2686 c1 -39 4 -52 8 -36 4 16 13 25 25 25 51 0 43 69 -8 71
-25 1 -26 0 -25 -60z m54 24 c0 -29 -32 -41 -41 -16 -9 24 4 48 23 44 12 -2
18 -12 18 -28z"/>
<path d="M11563 2710 c0 -25 2 -35 4 -22 2 12 2 32 0 45 -2 12 -4 2 -4 -23z"/>
<path d="M11601 2706 l2 -41 6 35 c8 48 38 54 44 8 l4 -33 -1 35 c-1 31 -4 35
-28 36 -26 1 -28 -1 -27 -40z"/>
<path d="M11746 2742 c-3 -5 6 -7 19 -4 14 2 25 0 25 -6 0 -6 -12 -13 -27 -15
-26 -4 -25 -4 5 -6 27 -1 33 2 30 17 -3 18 -42 29 -52 14z"/>
<path d="M11878 2743 c6 -2 18 -2 25 0 6 3 1 5 -13 5 -14 0 -19 -2 -12 -5z"/>
<path d="M11953 2744 c20 -6 23 -24 3 -24 -7 0 -20 -8 -27 -17 -11 -15 -11
-16 1 -5 21 18 38 15 43 -10 3 -13 4 -5 4 17 -2 32 -6 40 -22 42 -16 1 -16 1
-2 -3z"/>
<path d="M12022 2738 c-24 -24 -6 -69 28 -67 9 0 6 4 -7 9 -14 6 -23 18 -23
30 0 12 9 24 23 30 13 5 16 9 7 9 -9 1 -21 -4 -28 -11z"/>
<path d="M12092 2738 c-24 -24 -6 -69 28 -67 9 0 6 4 -7 9 -31 13 -29 30 5 31
l27 1 -30 8 c-24 5 -27 8 -13 14 9 4 22 4 29 0 8 -4 9 -3 5 4 -9 15 -29 15
-44 0z"/>
<path d="M9301 2724 c0 -11 3 -14 6 -6 3 7 2 16 -1 19 -3 4 -6 -2 -5 -13z"/>
<path d="M7441 2710 c0 -8 3 -21 8 -28 7 -11 9 -10 14 3 4 9 3 13 -2 10 -5 -3
-12 3 -14 12 -3 13 -5 14 -6 3z"/>
<path d="M10451 2709 c-1 -21 24 -43 41 -36 8 3 6 6 -5 6 -10 1 -22 11 -27 24
-6 15 -9 17 -9 6z"/>
<path d="M10681 2709 c-1 -21 24 -43 41 -36 8 3 6 6 -5 6 -10 1 -22 11 -27 24
-6 15 -9 17 -9 6z"/>
<path d="M10788 2713 c6 -2 18 -2 25 0 6 3 1 5 -13 5 -14 0 -19 -2 -12 -5z"/>
<path d="M11011 2709 c-1 -21 24 -43 41 -36 8 3 6 6 -5 6 -10 1 -22 11 -27 24
-6 15 -9 17 -9 6z"/>
<path d="M11118 2713 c6 -2 18 -2 25 0 6 3 1 5 -13 5 -14 0 -19 -2 -12 -5z"/>
<path d="M7506 2694 c-4 -9 -4 -19 -1 -22 2 -3 7 3 11 12 4 9 4 19 1 22 -2 3
-7 -3 -11 -12z"/>
<path d="M10267 2692 c1 -8 3 -16 3 -18 0 -3 5 -2 10 1 6 3 10 11 10 16 0 6
-4 8 -9 5 -5 -4 -11 -3 -14 1 -2 5 -2 2 0 -5z"/>
<path d="M3791 2692 c0 -7 -5 -11 -10 -8 -5 3 -11 -5 -13 -18 -4 -17 -1 -23 9
-19 7 3 13 -2 13 -12 0 -9 4 -14 9 -11 5 4 12 0 14 -6 3 -7 6 7 6 32 0 30 -2
40 -8 31 -7 -11 -10 -10 -14 5 -2 10 -5 13 -6 6z"/>
<path d="M4010 2663 c0 -34 1 -35 14 -18 7 10 11 27 8 37 -8 31 -22 20 -22
-19z"/>
<path d="M4951 2684 c0 -11 3 -14 6 -6 3 7 2 16 -1 19 -3 4 -6 -2 -5 -13z"/>
<path d="M4981 2684 c0 -11 3 -14 6 -6 3 7 2 16 -1 19 -3 4 -6 -2 -5 -13z"/>
<path d="M8415 2684 c3 -13 -1 -28 -10 -38 -9 -9 -12 -16 -6 -16 19 0 33 39
21 58 -10 15 -10 14 -5 -4z"/>
<path d="M9237 2693 c-4 -3 -7 -11 -7 -17 0 -6 5 -5 12 2 6 6 9 14 7 17 -3 3
-9 2 -12 -2z"/>
<path d="M9287 2693 c-4 -3 -7 -11 -7 -17 0 -6 5 -5 12 2 6 6 9 14 7 17 -3 3
-9 2 -12 -2z"/>
<path d="M10333 2690 c2 -8 14 -16 28 -17 19 -1 20 -1 4 4 -11 3 -24 10 -28
17 -6 7 -7 6 -4 -4z"/>
<path d="M11743 2690 c2 -8 14 -16 28 -17 19 -1 20 -1 4 4 -11 3 -24 10 -28
17 -6 7 -7 6 -4 -4z"/>
<path d="M8487 2678 c2 -5 13 -8 23 -8 10 0 21 3 23 8 3 4 -8 7 -23 7 -15 0
-26 -3 -23 -7z"/>
<path d="M8918 2673 c7 -3 16 -2 19 1 4 3 -2 6 -13 5 -11 0 -14 -3 -6 -6z"/>
<path d="M11938 2673 c7 -3 16 -2 19 1 4 3 -2 6 -13 5 -11 0 -14 -3 -6 -6z"/>
<path d="M7082 2644 c-7 -8 -8 -14 -3 -14 10 0 25 19 20 25 -2 1 -10 -3 -17
-11z"/>
<path d="M1740 2599 c0 -5 5 -7 10 -4 14 9 12 -8 -2 -25 -11 -12 -10 -12 5 -1
21 16 22 41 2 41 -8 0 -15 -5 -15 -11z"/>
<path d="M1787 2603 c-12 -11 -8 -23 7 -23 8 0 17 -6 19 -12 4 -10 6 -10 6 0
1 7 -6 15 -15 19 -13 5 -13 7 -2 14 7 5 8 9 2 9 -6 0 -14 -3 -17 -7z"/>
<path d="M1860 2603 c5 -2 8 -8 6 -12 -3 -4 0 -13 5 -21 7 -11 8 -9 6 9 -2 14
-9 26 -16 27 -6 1 -7 0 -1 -3z"/>
<path d="M1890 2595 c0 -8 6 -15 14 -15 8 0 17 -6 19 -12 4 -10 6 -10 6 0 1 7
-6 15 -15 19 -13 5 -13 7 -2 14 10 7 9 9 -4 9 -10 0 -18 -7 -18 -15z"/>
<path d="M2087 2590 c4 -15 9 -18 18 -10 6 5 14 8 16 6 2 -2 10 2 17 10 11 12
7 14 -22 14 -29 0 -33 -3 -29 -20z"/>
<path d="M2280 2606 c0 -2 7 -7 16 -10 8 -3 12 -2 9 4 -6 10 -25 14 -25 6z"/>
<path d="M2472 2598 c6 -18 28 -21 28 -4 0 9 -7 16 -16 16 -9 0 -14 -5 -12
-12z"/>
<path d="M2588 2583 c5 -21 7 -23 10 -9 2 10 0 22 -6 28 -6 6 -7 0 -4 -19z"/>
<path d="M3322 2598 c7 -20 58 -23 58 -4 0 11 -10 16 -31 16 -20 0 -29 -4 -27
-12z"/>
<path d="M3635 2600 c3 -5 15 -10 26 -10 10 0 19 5 19 10 0 6 -12 10 -26 10
-14 0 -23 -4 -19 -10z"/>
<path d="M2625 2591 c-3 -5 -1 -12 5 -16 5 -3 10 1 10 9 0 18 -6 21 -15 7z"/>
<path d="M1940 2573 c0 -14 2 -15 9 -4 5 8 14 10 21 6 9 -5 11 -4 6 3 -11 18
-36 14 -36 -5z"/>
<path d="M8113 2490 c0 -36 2 -50 4 -32 2 17 2 47 0 65 -2 17 -4 3 -4 -33z"/>
<path d="M8782 2490 c1 -48 2 -56 7 -30 8 48 38 54 44 8 l4 -33 -1 35 c-1 28
-5 35 -21 35 -13 0 -22 9 -26 25 -4 14 -7 -2 -7 -40z"/>
<path d="M9055 2540 c-3 -6 1 -7 9 -4 18 7 21 14 7 14 -6 0 -13 -4 -16 -10z"/>
<path d="M9673 2490 c0 -36 2 -50 4 -32 2 17 2 47 0 65 -2 17 -4 3 -4 -33z"/>
<path d="M9913 2490 c0 -36 2 -50 4 -32 2 17 2 47 0 65 -2 17 -4 3 -4 -33z"/>
<path d="M6662 2483 c1 -51 2 -53 5 -15 2 23 8 40 14 37 11 -7 11 -3 3 19 -13
34 -24 13 -22 -41z"/>
<path d="M6757 2533 c-2 -5 -1 -30 3 -58 l7 -50 2 58 c1 54 -2 67 -12 50z"/>
<path d="M3430 2517 c0 -17 152 -16 158 1 3 9 -20 12 -77 12 -60 0 -81 -3 -81
-13z"/>
<path d="M8218 2517 c-7 -22 7 -80 20 -83 7 -1 8 0 2 3 -12 6 -13 60 -1 65 5
2 3 8 -4 15 -10 9 -14 9 -17 0z"/>
<path d="M8728 2517 c-7 -22 7 -80 20 -83 7 -1 8 0 2 3 -12 6 -13 60 -1 65 5
2 3 8 -4 15 -10 9 -14 9 -17 0z"/>
<path d="M4022 2490 c-1 -16 2 -31 8 -35 6 -4 10 6 10 24 0 39 -15 48 -18 11z"/>
<path d="M3190 2490 c-14 -10 -22 -22 -18 -25 10 -10 48 14 48 30 0 19 0 19
-30 -5z"/>
<path d="M6830 2498 c24 -10 24 -10 5 -18 -18 -8 -18 -9 -2 -9 22 -1 17 -25
-5 -29 -9 -2 -19 5 -22 15 -4 15 -5 15 -3 -2 2 -14 10 -20 30 -21 22 -1 27 3
27 22 0 37 -11 54 -34 53 -19 0 -19 -1 4 -11z"/>
<path d="M6911 2490 l-23 -20 23 -20 c13 -10 28 -19 33 -20 4 0 -2 9 -15 19
-23 19 -24 19 -5 40 24 26 18 26 -13 1z"/>
<path d="M6972 2498 c-24 -24 -6 -69 28 -67 9 0 6 4 -7 9 -31 13 -29 30 5 31
l27 1 -30 8 c-24 5 -27 8 -13 14 9 4 22 4 29 0 8 -4 9 -3 5 4 -9 15 -29 15
-44 0z"/>
<path d="M7102 2498 c-24 -24 -6 -69 28 -67 9 0 6 4 -7 9 -14 6 -23 18 -23 30
0 12 9 24 23 30 13 5 16 9 7 9 -9 1 -21 -4 -28 -11z"/>
<path d="M7203 2499 c10 -6 17 -23 18 -42 1 -18 3 -24 6 -14 8 30 -6 67 -25
67 -16 -1 -16 -1 1 -11z"/>
<path d="M7278 2503 c30 -6 28 -19 -4 -27 -35 -9 -29 -41 9 -42 26 -1 28 1 25
35 -3 30 -7 36 -28 38 -22 1 -22 1 -2 -4z m22 -43 c0 -12 -28 -25 -36 -17 -9
9 6 27 22 27 8 0 14 -5 14 -10z"/>
<path d="M7341 2466 l2 -41 6 35 c8 48 38 54 44 8 l4 -33 -1 35 c-1 31 -4 35
-28 36 -26 1 -28 -1 -27 -40z"/>
<path d="M7436 2501 c-4 -5 3 -7 14 -4 23 6 26 13 6 13 -8 0 -17 -4 -20 -9z"/>
<path d="M7480 2460 c-4 -48 -8 -55 -30 -61 -22 -6 -22 -7 -4 -8 33 -2 46 22
42 76 l-4 48 -4 -55z"/>
<path d="M7553 2504 c27 -8 20 -27 -9 -21 -22 4 -25 1 -22 -22 2 -19 9 -27 28
-28 25 -3 25 -3 3 7 -31 13 -29 30 3 30 19 0 25 5 22 17 -2 10 -12 19 -23 20
-16 1 -16 1 -2 -3z"/>
<path d="M7604 2498 c-4 -6 2 -19 14 -29 28 -22 28 -29 0 -30 -19 -1 -20 -2
-4 -6 10 -3 23 0 30 7 8 9 6 16 -11 27 -13 9 -23 19 -23 24 0 4 10 10 23 12
22 4 22 4 0 6 -12 0 -25 -4 -29 -11z"/>
<path d="M7723 2470 c0 -25 2 -35 4 -22 2 12 2 32 0 45 -2 12 -4 2 -4 -23z"/>
<path d="M7761 2466 l2 -41 6 35 c8 48 38 54 44 8 l4 -33 -1 35 c-1 31 -4 35
-28 36 -26 1 -28 -1 -27 -40z"/>
<path d="M7891 2465 c2 -33 3 -35 6 -10 2 17 11 35 20 42 13 10 13 12 -6 10
-18 -1 -21 -7 -20 -42z"/>
<path d="M7956 2501 c-4 -5 2 -7 13 -4 10 3 22 0 25 -6 5 -7 -4 -11 -23 -11
-17 0 -31 -4 -31 -8 0 -4 16 -6 35 -4 37 4 42 11 23 30 -14 14 -35 16 -42 3z"/>
<path d="M8053 2504 c20 -6 23 -24 3 -24 -7 0 -20 -8 -27 -17 -11 -15 -11 -16
1 -5 21 18 38 15 43 -10 3 -13 4 -5 4 17 -2 32 -6 40 -22 42 -16 1 -16 1 -2
-3z"/>
<path d="M8273 2470 c0 -25 2 -35 4 -22 2 12 2 32 0 45 -2 12 -4 2 -4 -23z"/>
<path d="M8313 2470 c0 -25 2 -35 4 -22 2 12 2 32 0 45 -2 12 -4 2 -4 -23z"/>
<path d="M8342 2498 c9 -7 19 -26 21 -43 3 -21 4 -18 3 10 -1 31 -5 41 -21 43
-18 4 -19 3 -3 -10z"/>
<path d="M8393 2499 c10 -6 17 -23 18 -42 1 -18 3 -24 6 -14 8 30 -6 67 -25
67 -16 -1 -16 -1 1 -11z"/>
<path d="M8452 2498 c-24 -24 -6 -69 28 -67 9 0 6 4 -7 9 -31 13 -29 30 5 31
l27 1 -30 8 c-24 5 -27 8 -13 14 9 4 22 4 29 0 8 -4 9 -3 5 4 -9 15 -29 15
-44 0z"/>
<path d="M8567 2489 c4 -13 8 -18 11 -10 2 7 -1 18 -6 23 -8 8 -9 4 -5 -13z"/>
<path d="M8607 2488 c-4 -12 -4 -24 -2 -27 3 -2 5 1 5 8 0 7 5 9 10 6 6 -3 10
1 10 9 0 25 -17 27 -23 4z"/>
<path d="M8693 2470 c0 -25 2 -35 4 -22 2 12 2 32 0 45 -2 12 -4 2 -4 -23z"/>
<path d="M8938 2503 c30 -6 28 -19 -4 -27 -35 -9 -29 -41 9 -42 26 -1 28 1 25
35 -3 30 -7 36 -28 38 -22 1 -22 1 -2 -4z m22 -43 c0 -12 -28 -25 -36 -17 -9
9 6 27 22 27 8 0 14 -5 14 -10z"/>
<path d="M9038 2503 c6 -2 18 -2 25 0 6 3 1 5 -13 5 -14 0 -19 -2 -12 -5z"/>
<path d="M9096 2502 c-3 -5 6 -7 19 -4 14 2 25 0 25 -6 0 -6 -12 -13 -27 -15
-26 -4 -25 -4 5 -6 27 -1 33 2 30 17 -3 18 -42 29 -52 14z"/>
<path d="M9210 2496 c0 -9 5 -16 10 -16 6 0 10 4 10 9 0 6 -4 13 -10 16 -5 3
-10 -1 -10 -9z"/>
<path d="M9334 2498 c-4 -6 2 -19 14 -29 28 -22 28 -29 0 -30 -19 -1 -20 -2
-4 -6 10 -3 23 0 30 7 8 9 6 16 -11 27 -13 9 -23 19 -23 24 0 4 10 10 23 12
22 4 22 4 0 6 -12 0 -25 -4 -29 -11z"/>
<path d="M9403 2470 c0 -25 2 -35 4 -22 2 12 2 32 0 45 -2 12 -4 2 -4 -23z"/>
<path d="M9441 2466 l2 -41 6 35 c4 22 12 35 21 35 9 0 17 -13 21 -35 l6 -35
4 35 c2 23 9 35 19 35 9 0 17 -13 21 -35 6 -34 6 -34 8 -5 1 44 -9 52 -61 52
l-48 -1 1 -40z"/>
<path d="M9581 2445 c1 -33 4 -48 6 -34 3 20 9 26 22 22 11 -3 21 -1 24 4 3 5
-4 9 -16 9 -17 -1 -22 5 -22 24 0 33 32 39 44 8 7 -15 10 -17 10 -7 1 22 -20
38 -47 36 -20 -1 -22 -6 -21 -62z"/>
<path d="M9716 2502 c-3 -5 6 -7 19 -4 14 2 25 0 25 -6 0 -6 -12 -13 -27 -15
-26 -4 -25 -4 5 -6 27 -1 33 2 30 17 -3 18 -42 29 -52 14z"/>
<path d="M9846 2501 c-3 -4 6 -6 19 -3 14 2 25 6 25 8 0 8 -39 4 -44 -5z"/>
<path d="M9953 2470 c0 -25 2 -35 4 -22 2 12 2 32 0 45 -2 12 -4 2 -4 -23z"/>
<path d="M9997 2503 c-4 -3 -7 -11 -7 -17 0 -7 3 -7 8 0 4 7 16 14 27 17 19 5
19 5 -1 6 -11 0 -24 -2 -27 -6z"/>
<path d="M10091 2490 l-23 -20 23 -20 c13 -10 28 -19 33 -20 4 0 -2 9 -15 19
-23 19 -24 19 -5 40 24 26 18 26 -13 1z"/>
<path d="M10147 2503 c-13 -13 -7 -32 13 -38 27 -9 25 -25 -2 -26 -19 -1 -20
-2 -4 -6 10 -3 23 0 30 7 8 9 6 16 -11 27 -28 19 -29 30 -5 36 14 4 14 5 1 6
-9 0 -19 -2 -22 -6z"/>
<path d="M3247 2493 c-4 -3 -7 -28 -7 -54 0 -32 5 -49 15 -53 12 -4 15 5 15
54 0 55 -6 70 -23 53z"/>
<path d="M9170 2493 c0 -18 20 -66 25 -61 3 3 -1 20 -9 39 -9 19 -15 29 -16
22z"/>
<path d="M3775 2480 c-10 -17 12 -37 25 -24 8 8 6 15 -4 23 -10 9 -16 9 -21 1z"/>
<path d="M7421 2469 c-1 -21 24 -43 41 -36 8 3 6 6 -5 6 -10 1 -22 11 -27 24
-6 15 -9 17 -9 6z"/>
<path d="M8158 2473 c6 -2 18 -2 25 0 6 3 1 5 -13 5 -14 0 -19 -2 -12 -5z"/>
<path d="M9230 2458 c0 -9 5 -20 10 -23 13 -8 13 5 0 25 -8 13 -10 13 -10 -2z"/>
<path d="M6715 2449 c-4 -6 -5 -12 -2 -15 2 -3 7 2 10 11 7 17 1 20 -8 4z"/>
<path d="M8580 2451 c0 -5 5 -13 10 -16 6 -3 10 -2 10 4 0 5 -4 13 -10 16 -5
3 -10 2 -10 -4z"/>
<path d="M8630 2451 c0 -5 5 -13 10 -16 6 -3 10 -2 10 4 0 5 -4 13 -10 16 -5
3 -10 2 -10 -4z"/>
<path d="M9093 2450 c2 -8 14 -16 28 -17 19 -1 20 -1 4 4 -11 3 -24 10 -28 17
-6 7 -7 6 -4 -4z"/>
<path d="M9713 2450 c2 -8 14 -16 28 -17 19 -1 20 -1 4 4 -11 3 -24 10 -28 17
-6 7 -7 6 -4 -4z"/>
<path d="M9993 2450 c2 -8 14 -16 28 -17 19 -1 20 -1 4 4 -11 3 -24 10 -28 17
-6 7 -7 6 -4 -4z"/>
<path d="M3880 2412 c0 -23 5 -42 10 -42 7 0 8 14 4 38 -9 51 -14 53 -14 4z"/>
<path d="M5307 2432 c-34 -37 -15 -82 33 -82 49 0 68 51 32 83 -25 23 -27 22
-29 -20 -1 -28 1 -34 8 -23 8 12 9 11 7 -5 -2 -11 -10 -20 -18 -20 -11 0 -14
10 -12 43 4 47 2 49 -21 24z"/>
<path d="M7958 2438 c6 -6 18 -8 28 -6 14 3 12 5 -9 10 -19 3 -25 2 -19 -4z"/>
<path d="M9848 2438 c6 -6 18 -8 28 -6 14 3 12 5 -9 10 -19 3 -25 2 -19 -4z"/>
<path d="M8038 2433 c7 -3 16 -2 19 1 4 3 -2 6 -13 5 -11 0 -14 -3 -6 -6z"/>
<path d="M4960 2400 c0 -5 5 -10 11 -10 5 0 7 5 4 10 -3 6 -8 10 -11 10 -2 0
-4 -4 -4 -10z"/>
<path d="M7080 1990 c-28 -28 -27 -84 2 -104 25 -18 64 -21 73 -6 4 6 -6 10
-22 10 -36 0 -53 16 -53 50 0 34 17 50 53 50 16 0 26 4 22 10 -10 17 -54 11
-75 -10z"/>
<path d="M7722 1994 c-16 -11 -22 -25 -22 -54 0 -62 54 -90 101 -52 44 37 16
122 -40 122 -9 0 -27 -7 -39 -16z m80 -29 c22 -49 -15 -88 -66 -69 -19 7 -22
64 -4 82 21 21 57 14 70 -13z"/>
<path d="M7470 1972 c-10 -11 -11 -17 -2 -20 7 -2 12 -19 12 -38 0 -22 6 -37
15 -41 23 -8 33 7 12 18 -21 12 -23 59 -2 59 8 0 15 5 15 10 0 6 -6 10 -14 10
-8 0 -16 4 -18 9 -1 5 -10 2 -18 -7z"/>
<path d="M7190 1919 c0 -27 5 -49 10 -49 6 0 10 18 10 40 0 29 4 40 15 40 8 0
15 4 15 9 0 5 -11 9 -25 9 -23 0 -25 -4 -25 -49z"/>
<path d="M7265 1950 c-35 -38 13 -101 57 -74 9 6 4 10 -16 14 -44 8 -45 30 -2
30 39 0 45 10 20 34 -21 21 -37 20 -59 -4z m55 -11 c0 -5 -11 -9 -25 -9 -26 0
-34 15 -12 23 16 5 37 -3 37 -14z"/>
<path d="M7375 1960 c-4 -6 5 -10 19 -10 35 0 33 -16 -4 -29 -32 -11 -40 -38
-14 -48 8 -3 20 -1 27 6 8 8 7 11 -6 11 -21 0 -22 16 -1 24 23 9 24 8 24 -19
0 -14 5 -25 10 -25 14 0 12 74 -2 88 -15 15 -45 16 -53 2z"/>
<path d="M7544 1945 c-15 -23 -15 -27 0 -50 16 -25 50 -33 61 -16 3 5 -6 11
-20 13 -37 4 -35 22 3 26 33 3 41 19 20 40 -19 19 -46 14 -64 -13z m56 -6 c0
-5 -12 -9 -26 -9 -22 0 -24 2 -14 14 12 15 40 11 40 -5z"/>
<path d="M7850 1919 c0 -57 17 -66 22 -11 2 29 7 37 23 37 16 0 21 -8 23 -37
4 -46 22 -51 22 -5 0 46 -14 62 -55 63 l-35 1 0 -48z"/>
<path d="M7974 1945 c-15 -23 -15 -27 0 -50 16 -25 50 -33 61 -16 3 5 -6 11
-20 13 -37 4 -35 22 3 26 33 3 41 19 20 40 -19 19 -46 14 -64 -13z m56 -6 c0
-5 -12 -9 -26 -9 -22 0 -24 2 -14 14 12 15 40 11 40 -5z"/>
<path d="M4340 1455 l0 -415 640 0 640 0 0 415 0 415 -640 0 -640 0 0 -415z
m440 231 c0 13 48 10 62 -4 6 -6 -5 -9 -33 -8 -28 1 -44 6 -46 16 -4 13 -3 13
6 0 6 -8 11 -10 11 -4z m187 -3 c2 -6 -5 -13 -17 -16 -14 -4 -20 0 -20 11 0
15 -2 15 -10 2 -9 -13 -11 -13 -20 0 -6 10 -10 11 -10 3 0 -7 -7 -13 -15 -13
-8 0 -15 5 -15 11 0 5 4 8 9 4 5 -3 12 -2 15 3 7 11 79 7 83 -5z m38 7 c3 -5
1 -10 -4 -10 -6 0 -11 5 -11 10 0 6 2 10 4 10 3 0 8 -4 11 -10z m91 -8 c2 -8
1 -9 -3 -1 -4 8 -8 7 -14 -2 -7 -12 -9 -11 -9 1 0 13 -1 13 -10 0 -9 -13 -11
-13 -20 0 -8 12 -10 13 -10 1 0 -8 -3 -12 -6 -8 -12 12 6 23 37 22 18 0 34 -6
35 -13z m74 3 c0 -8 -7 -15 -16 -15 -8 0 -13 4 -9 9 3 5 -3 12 -12 14 -11 3
-8 5 10 6 18 1 27 -4 27 -14z m34 8 c-5 -5 -12 -12 -16 -18 -4 -6 -8 -2 -8 8
0 9 7 17 17 17 9 0 12 -3 7 -7z m-644 -47 c0 -25 -12 -46 -26 -46 -10 0 -11 6
-3 30 11 31 29 41 29 16z m35 -13 c-8 -31 -13 -39 -20 -31 -9 9 6 58 17 58 6
0 7 -11 3 -27z m805 -334 c0 -17 -20 -49 -30 -49 -5 0 -7 7 -5 15 3 8 7 22 10
30 5 17 25 21 25 4z m40 0 c0 -17 -20 -49 -30 -49 -5 0 -7 7 -5 15 3 8 7 22
10 30 5 17 25 21 25 4z"/>
<path d="M3022 1525 c0 -23 3 -30 5 -17 2 12 11 22 18 22 7 0 16 -10 18 -22
l4 -23 2 23 c0 13 -6 25 -16 29 -10 4 -21 11 -25 17 -4 6 -7 -7 -6 -29z"/>
<path d="M3210 1550 c8 -5 20 -10 25 -10 6 0 3 5 -5 10 -8 5 -19 10 -25 10 -5
0 -3 -5 5 -10z"/>
<path d="M3262 1525 c0 -23 3 -30 5 -17 3 15 10 22 19 18 8 -3 14 -1 14 4 0 6
-6 10 -14 10 -8 0 -17 6 -19 13 -3 6 -5 -6 -5 -28z"/>
<path d="M3756 1552 c-3 -5 -1 -22 4 -38 8 -29 8 -29 9 9 1 36 -3 45 -13 29z"/>
<path d="M2921 1535 c-1 -25 15 -52 26 -42 4 5 2 11 -4 15 -6 4 -13 16 -16 27
l-5 20 -1 -20z"/>
<path d="M2950 1540 c0 -5 5 -10 10 -10 6 0 10 -9 10 -20 0 -30 17 -24 29 10
6 18 6 28 1 25 -6 -4 -10 -14 -11 -23 0 -13 -3 -12 -11 6 -11 22 -28 30 -28
12z"/>
<path d="M3176 1533 c-4 -10 0 -23 11 -32 15 -15 16 -15 5 0 -7 9 -10 24 -6
33 3 9 4 16 1 16 -3 0 -8 -8 -11 -17z"/>
<path d="M3094 1506 c8 -26 13 -31 19 -21 5 10 1 22 -11 35 -19 21 -19 21 -8
-14z"/>
<path d="M3323 1524 c-3 -8 -1 -20 5 -26 8 -8 9 -5 5 11 -4 15 -1 21 12 21 12
0 16 -6 12 -20 -3 -11 -1 -20 4 -20 5 0 9 11 9 25 0 18 -5 25 -20 25 -11 0
-23 -7 -27 -16z"/>
<path d="M3387 1527 c-3 -8 -1 -20 4 -28 8 -11 9 -10 7 6 -2 12 4 21 16 23 15
3 18 0 13 -18 -4 -16 -3 -20 5 -12 6 6 8 18 5 26 -8 19 -43 21 -50 3z"/>
<path d="M3450 1531 c0 -6 5 -13 12 -17 6 -4 8 -3 4 4 -3 6 2 13 11 15 14 4
13 5 -4 6 -13 0 -23 -3 -23 -8z"/>
<path d="M3506 1524 c-4 -10 -2 -22 4 -28 7 -7 10 -3 10 12 0 12 5 22 11 22 5
0 7 -4 4 -10 -3 -5 1 -10 10 -10 23 0 13 24 -12 28 -12 2 -23 -4 -27 -14z"/>
<path d="M3600 1521 c0 -11 4 -22 9 -25 4 -3 6 6 3 19 -5 30 -12 33 -12 6z"/>
<path d="M3638 1515 c-3 -14 -1 -25 3 -25 5 0 9 11 9 25 0 14 -2 25 -4 25 -2
0 -6 -11 -8 -25z"/>
<path d="M3670 1525 c0 -8 5 -15 11 -15 5 0 8 4 5 9 -4 5 0 12 6 14 8 3 6 6
-4 6 -10 1 -18 -6 -18 -14z"/>
<path d="M3787 1527 c-3 -8 -1 -20 4 -28 8 -11 9 -10 7 6 -2 12 4 21 16 23 15
3 18 0 13 -18 -4 -16 -3 -20 5 -12 6 6 8 18 5 26 -8 19 -43 21 -50 3z"/>
<path d="M3851 1513 c1 -22 2 -23 6 -8 3 11 10 23 17 27 7 5 5 8 -6 8 -13 0
-18 -7 -17 -27z"/>
<path d="M3695 1500 c-3 -5 -1 -10 4 -10 6 0 11 5 11 10 0 6 -2 10 -4 10 -3 0
-8 -4 -11 -10z"/>
<path d="M2920 1408 c0 -36 13 -50 38 -40 18 6 15 42 -5 49 -10 4 -21 11 -25
17 -4 6 -8 -5 -8 -26z m38 -15 c-4 -22 -22 -20 -26 1 -2 10 3 16 13 16 10 0
15 -7 13 -17z"/>
<path d="M3107 1423 c-2 -5 -1 -19 3 -33 l6 -25 6 28 c5 26 -5 47 -15 30z"/>
<path d="M3420 1402 c0 -18 4 -32 8 -32 9 0 8 47 -1 57 -4 3 -7 -8 -7 -25z"/>
<path d="M3627 1423 c-2 -5 -1 -19 3 -33 l6 -25 6 28 c5 26 -5 47 -15 30z"/>
<path d="M2983 1404 c-3 -8 -1 -20 6 -27 8 -8 11 -8 11 1 0 7 9 12 20 12 13 0
18 5 14 15 -8 20 -43 19 -51 -1z"/>
<path d="M3050 1405 c0 -8 5 -15 11 -15 5 0 7 5 3 12 -5 8 -2 9 10 5 10 -4 15
-3 11 3 -10 15 -35 12 -35 -5z"/>
<path d="M3173 1404 c-8 -22 18 -46 37 -33 12 8 12 9 -5 7 -12 -2 -21 4 -23
16 -3 15 0 18 17 13 12 -3 19 -1 15 4 -9 15 -34 10 -41 -7z"/>
<path d="M3233 1404 c-3 -8 2 -23 11 -32 14 -15 18 -15 31 -1 9 9 13 23 9 32
-8 21 -43 22 -51 1z m43 -5 c10 -17 -13 -36 -27 -22 -12 12 -4 33 11 33 5 0
12 -5 16 -11z"/>
<path d="M3301 1393 c2 -23 2 -24 6 -5 5 27 30 29 36 2 4 -17 4 -16 3 2 -1 16
-8 24 -23 26 -20 3 -23 -1 -22 -25z"/>
<path d="M3365 1410 c-3 -6 1 -13 9 -16 9 -3 16 -10 16 -16 0 -5 -5 -6 -12 -2
-7 4 -8 3 -4 -4 7 -12 36 -5 36 8 0 5 -10 12 -22 16 -22 7 -22 7 -3 15 16 6
17 8 3 8 -9 1 -20 -4 -23 -9z"/>
<path d="M3461 1393 c1 -22 2 -23 6 -8 3 11 10 23 17 27 7 5 5 8 -6 8 -13 0
-18 -7 -17 -27z"/>
<path d="M3500 1397 c0 -14 5 -29 10 -32 7 -4 8 3 4 22 -9 38 -14 42 -14 10z"/>
<path d="M3538 1395 c-3 -14 -1 -25 3 -25 5 0 9 11 9 25 0 14 -2 25 -4 25 -2
0 -6 -11 -8 -25z"/>
<path d="M3563 1404 c-3 -8 -1 -20 5 -26 7 -7 10 -4 9 8 -1 12 4 19 15 18 10
-1 15 2 12 7 -9 15 -34 10 -41 -7z"/>
<path d="M3697 1414 c-12 -12 -8 -42 6 -47 21 -8 39 8 35 29 -3 19 -29 30 -41
18z m31 -21 c-4 -22 -22 -20 -26 1 -2 10 3 16 13 16 10 0 15 -7 13 -17z"/>
<path d="M3761 1393 c2 -23 2 -24 6 -5 5 27 30 29 36 2 4 -17 4 -16 3 2 -1 16
-8 24 -23 26 -20 3 -23 -1 -22 -25z"/>
<path d="M3662 1390 c0 -14 2 -19 5 -12 2 6 2 18 0 25 -3 6 -5 1 -5 -13z"/>
<path d="M2921 1287 c-16 -21 12 -57 31 -39 11 11 10 12 -4 7 -14 -6 -18 -2
-18 14 0 12 5 21 10 21 6 0 10 -4 10 -10 0 -5 4 -10 10 -10 5 0 7 7 4 15 -8
19 -28 19 -43 2z"/>
<path d="M2984 1276 c0 -12 7 -23 14 -23 17 0 15 34 -2 40 -9 4 -13 -2 -12
-17z"/>
<path d="M3031 1255 c1 -22 3 -32 6 -23 2 9 10 15 17 12 18 -7 38 20 30 40 -3
9 -16 15 -30 14 -21 -2 -24 -7 -23 -43z m45 24 c10 -17 -13 -36 -27 -22 -12
12 -4 33 11 33 5 0 12 -5 16 -11z"/>
<path d="M3104 1286 c-12 -33 23 -65 40 -37 4 5 -3 7 -14 4 -15 -4 -20 0 -20
16 0 21 24 29 33 11 3 -6 4 -5 3 2 -4 19 -35 22 -42 4z"/>
<path d="M3164 1285 c-10 -26 1 -35 13 -10 6 14 7 25 2 25 -5 0 -12 -7 -15
-15z"/>
<path d="M3234 1286 c-8 -21 2 -46 18 -45 10 0 10 2 1 6 -18 7 -16 43 1 43 8
0 17 -5 19 -10 3 -6 4 -5 3 2 -4 19 -35 22 -42 4z"/>
<path d="M3291 1273 c0 -27 1 -27 9 -5 12 27 27 29 33 2 4 -17 4 -16 3 2 -1
16 -8 24 -23 26 -19 3 -23 -1 -22 -25z"/>
<path d="M3367 1293 c-11 -10 -8 -41 4 -49 6 -3 16 -1 22 5 9 9 8 11 -5 6 -14
-5 -18 -2 -18 13 0 11 8 23 18 25 14 4 14 5 1 6 -9 0 -19 -2 -22 -6z"/>
<path d="M3424 1286 c-9 -23 3 -46 23 -45 17 1 17 2 1 6 -21 5 -24 43 -4 43 8
0 17 -5 19 -10 3 -6 4 -5 3 2 -4 19 -35 22 -42 4z"/>
<path d="M3202 1270 c0 -14 2 -19 5 -12 2 6 2 18 0 25 -3 6 -5 1 -5 -13z"/>
<path d="M1686 993 c-3 -4 -6 -46 -6 -95 l0 -88 59 0 c51 0 64 4 89 28 45 42
119 93 162 113 58 27 70 32 67 34 -6 6 -366 13 -371 8z"/>
</g>
</svg>
