<?xml version="1.0" standalone="no"?>
<!DOCTYPE svg PUBLIC "-//W3C//DTD SVG 20010904//EN"
 "http://www.w3.org/TR/2001/REC-SVG-20010904/DTD/svg10.dtd">
<svg version="1.0" xmlns="http://www.w3.org/2000/svg"
 width="1350.000000pt" height="610.000000pt" viewBox="0 0 1350.000000 610.000000"
 preserveAspectRatio="xMidYMid meet">

<g transform="translate(0.000000,610.000000) scale(0.100000,-0.100000)"
fill="#000000" stroke="none">
<path d="M6743 6093 l6747 -3 0 -1510 c0 -1336 -2 -1510 -15 -1510 -8 0 -15 9
-15 20 0 29 -61 42 -167 33 -48 -4 -157 -6 -241 -4 -124 2 -158 -1 -185 -14
-18 -9 -53 -16 -82 -15 -88 3 -116 0 -110 -9 3 -6 -7 -6 -26 -1 -18 5 -36 7
-42 3 -25 -16 -221 -29 -295 -20 -42 6 -101 11 -129 11 -29 1 -53 4 -53 9 0 4
-21 7 -46 7 -25 0 -43 -4 -39 -9 3 -5 0 -13 -6 -17 -7 -4 -10 -3 -7 2 8 12
-240 10 -460 -3 -95 -6 -191 -9 -212 -6 l-40 6 0 -90 c0 -99 8 -117 55 -127
41 -9 104 -7 126 4 22 12 79 13 79 1 0 -4 12 -7 26 -5 23 2 25 0 13 -11 -13
-12 -70 -21 -186 -30 -23 -2 -46 -6 -51 -9 -6 -3 -22 -2 -36 4 l-26 10 0 -720
c0 -735 3 -789 36 -755 8 7 14 21 14 29 0 15 23 21 58 17 8 -1 20 3 28 10 11
9 19 8 39 -5 14 -9 25 -21 25 -26 0 -19 17 -10 28 15 9 20 19 25 47 25 24 0
35 -5 35 -14 0 -26 20 -28 38 -6 10 12 31 24 47 26 17 1 55 6 85 9 30 3 62 13
71 21 13 12 22 13 38 5 30 -17 45 -13 56 12 9 19 20 23 89 29 53 5 84 4 93 -4
7 -6 26 -8 42 -5 20 4 34 0 49 -14 12 -10 25 -19 29 -19 17 0 59 -58 73 -99
13 -40 14 -41 49 -35 21 3 46 17 61 34 31 34 115 73 155 71 16 -1 40 -9 53
-17 18 -12 30 -13 46 -7 11 6 38 8 59 5 38 -4 46 5 25 26 -9 9 -9 12 0 12 7 0
15 -7 18 -15 4 -8 13 -15 20 -15 8 0 19 -11 24 -25 12 -33 21 -31 43 7 14 23
21 28 29 20 17 -17 58 -15 64 3 4 9 19 15 39 15 34 0 49 -12 50 -40 0 -17 44
-27 54 -12 3 5 36 11 72 14 59 5 68 3 88 -18 20 -21 32 -24 100 -24 47 0 82
-5 89 -12 9 -9 12 -169 12 -660 l0 -648 -2600 0 c-2264 0 -2600 2 -2600 14 0
8 7 68 15 132 12 91 13 134 6 188 -16 110 -20 179 -21 344 l0 152 -65 0 c-37
0 -65 -4 -65 -10 0 -20 -2 -25 -12 -38 -6 -7 -20 -10 -32 -7 -12 4 -16 3 -10
-2 6 -4 13 -16 17 -26 4 -9 16 -21 27 -25 19 -7 19 -8 -5 -37 -23 -29 -24 -29
-25 -7 0 24 -7 27 -30 12 -8 -5 -11 -12 -7 -17 5 -4 12 -1 17 7 8 13 10 13 10
-1 0 -8 9 -25 20 -37 18 -19 15 -33 -4 -15 -3 4 -14 8 -22 9 -9 1 -13 -1 -9
-4 4 -4 12 -7 18 -7 7 -1 11 -6 10 -12 -2 -7 6 -10 18 -8 21 4 21 4 4 -15 -10
-11 -15 -23 -12 -27 4 -3 2 -12 -4 -19 -8 -9 -5 -15 10 -24 12 -6 21 -7 22 -3
1 4 4 -3 8 -17 4 -14 3 -28 -2 -31 -5 -4 4 -10 22 -14 21 -4 31 -12 31 -25 0
-13 -5 -17 -15 -14 -8 4 -15 1 -15 -5 0 -6 -7 -8 -16 -4 -11 4 -15 1 -12 -13
3 -16 -3 -19 -44 -19 -26 0 -43 -4 -39 -8 5 -5 26 -7 47 -5 28 2 44 -2 57 -16
21 -23 22 -37 2 -30 -13 5 -45 -16 -45 -30 0 -3 14 -6 31 -6 17 0 28 -4 24
-10 -10 -17 -44 -11 -62 10 -10 11 -22 20 -28 20 -5 0 -3 -5 5 -10 12 -8 10
-10 -10 -11 -17 -1 -19 -3 -7 -6 28 -7 20 -21 -9 -15 -19 3 -25 1 -20 -7 4 -6
14 -11 22 -11 8 0 13 -4 10 -9 -3 -5 2 -15 11 -22 14 -12 16 -12 11 2 -4 11 2
20 19 28 30 14 63 6 63 -15 0 -16 -16 -19 -25 -4 -3 6 -13 10 -21 10 -11 0
-13 -6 -9 -20 5 -15 2 -20 -11 -20 -16 0 -16 -1 2 -16 10 -8 13 -13 6 -9 -7 4
-16 -4 -21 -18 -6 -14 -16 -27 -23 -30 -9 -4 -9 -6 3 -6 8 -1 24 -9 35 -19 11
-11 26 -21 34 -24 8 -3 1 -6 -17 -5 -18 0 -34 6 -37 14 -3 7 -16 13 -28 13
-13 0 -18 -4 -13 -8 6 -4 11 -16 10 -26 0 -11 5 -21 11 -23 7 -2 10 6 7 24 -4
22 -2 25 6 13 18 -25 12 -46 -16 -61 -20 -11 -27 -11 -30 -1 -3 6 -11 12 -19
12 -9 0 -12 -4 -9 -10 4 -6 -11 -10 -39 -10 -26 0 -47 5 -50 13 -5 10 -7 10
-12 0 -9 -20 -84 -17 -84 3 0 8 4 12 10 9 6 -3 10 -1 10 4 0 6 7 11 16 11 10
0 14 5 10 16 -3 8 -2 12 4 9 6 -3 10 1 10 9 0 8 -5 18 -10 21 -16 10 -1 25 23
24 12 0 17 -3 10 -5 -9 -4 -9 -13 -2 -31 5 -13 7 -28 5 -32 -3 -4 9 -8 25 -9
20 -2 28 1 24 8 -4 6 -14 9 -22 6 -10 -4 -13 -2 -10 8 3 7 1 18 -5 24 -13 13
-2 32 18 32 8 0 14 5 14 11 0 6 -8 9 -18 7 -12 -3 -22 3 -29 18 -6 13 -8 22
-3 19 4 -3 10 4 13 15 3 11 10 20 17 20 6 0 9 -4 6 -9 -4 -5 3 -7 15 -4 14 4
17 8 9 13 -9 5 -9 9 -1 14 6 4 15 5 20 2 5 -3 12 1 15 10 4 11 2 15 -8 11 -8
-3 -17 1 -20 9 -9 24 -8 26 14 14 22 -12 25 -2 11 35 -6 14 -3 24 8 33 14 11
13 12 -4 4 -11 -5 -26 -7 -33 -5 -8 3 -10 -1 -6 -14 6 -14 4 -16 -6 -6 -12 11
-16 48 -11 110 1 15 6 21 15 17 8 -3 17 -1 20 4 3 6 -2 13 -11 17 -16 6 -15 8
6 24 16 12 20 21 12 25 -6 4 -11 3 -11 -3 0 -16 -27 -2 -33 17 -3 9 -8 25 -12
35 -5 12 -2 17 10 17 17 0 17 1 2 18 -10 10 -17 28 -17 40 0 12 -4 22 -10 22
-5 0 -10 -7 -10 -17 0 -28 -11 -7 -14 27 -1 17 -6 35 -12 38 -12 9 -34 73 -34
99 0 18 -7 20 -82 22 l-81 2 6 -83 c3 -46 13 -116 21 -155 9 -40 22 -144 30
-230 14 -146 14 -165 -2 -247 l-18 -90 -28 48 c-16 27 -39 64 -52 84 -13 19
-24 43 -24 52 0 9 -14 44 -30 76 -44 86 -54 136 -35 181 10 24 12 39 5 43 -7
4 -1 37 16 96 37 124 43 154 44 192 l0 32 -1025 0 c-1012 0 -1025 0 -1045 20
-20 20 -20 33 -20 694 l0 673 -80 51 c-81 52 -96 71 -60 74 66 6 88 4 113 -9
15 -7 27 -9 27 -4 0 5 -6 12 -12 15 -10 5 -10 7 0 12 10 5 12 128 12 587 l-1
582 -29 -50 c-16 -27 -27 -51 -25 -53 2 -3 -3 -12 -12 -20 -10 -11 -12 -17 -4
-20 12 -4 16 -23 4 -21 -23 4 -35 -3 -30 -15 3 -8 -1 -17 -8 -20 -16 -6 -56
-77 -68 -121 -5 -16 -9 -61 -10 -98 -2 -54 -6 -71 -20 -78 -9 -6 -15 -14 -12
-19 3 -5 1 -11 -5 -15 -5 -3 -10 -15 -10 -26 0 -10 -3 -19 -8 -19 -10 0 -33
-37 -37 -61 -2 -10 -10 -33 -19 -51 -8 -18 -22 -64 -31 -103 -9 -38 -22 -76
-27 -82 -6 -7 -7 -13 -2 -13 5 0 4 -4 -3 -8 -6 -4 -13 -27 -16 -52 -8 -76 -29
-164 -45 -182 -7 -9 -11 -21 -8 -26 12 -19 -25 -52 -58 -52 -20 0 -40 -8 -51
-20 -18 -19 -17 -20 3 -20 24 0 48 -41 85 -140 19 -50 21 -82 25 -369 3 -292
2 -314 -13 -301 -9 8 -25 31 -36 51 -10 21 -30 54 -44 75 -23 33 -25 34 -25
13 1 -13 7 -35 15 -49 8 -14 14 -35 15 -47 0 -13 15 -44 33 -70 34 -48 43
-100 23 -131 -5 -8 -8 -32 -8 -55 1 -22 -2 -46 -6 -51 -10 -16 -12 -35 -13
-94 0 -42 -3 -52 -15 -48 -8 3 -14 1 -14 -4 0 -6 7 -10 15 -10 8 0 16 -10 17
-22 1 -23 1 -32 -5 -78 -2 -14 3 -32 10 -41 12 -14 12 -17 -2 -23 -11 -4 -14
-2 -9 7 5 9 3 8 -7 -1 -12 -11 -12 -14 0 -21 8 -5 12 -18 8 -30 -3 -12 -2 -19
3 -16 12 8 10 -118 -3 -134 -9 -10 -7 -16 6 -26 17 -13 24 -31 8 -20 -5 3 -13
-4 -16 -16 -4 -13 -2 -25 5 -29 7 -4 9 -13 6 -19 -4 -6 -2 -11 3 -11 6 0 11
-8 11 -17 0 -14 -2 -15 -9 -5 -6 10 -10 7 -13 -12 -3 -14 -2 -23 3 -21 4 3 10
1 14 -5 3 -5 1 -10 -5 -10 -6 0 -8 -4 -5 -10 3 -5 1 -18 -4 -27 -6 -10 -11
-12 -11 -5 0 6 -10 12 -22 11 -22 0 -22 -1 -3 -9 l20 -9 -20 0 c-15 -1 -17 -3
-6 -10 11 -7 11 -9 0 -14 -10 -4 -10 -6 -1 -6 6 -1 12 -6 12 -12 0 -5 -4 -7
-10 -4 -5 3 -7 0 -4 -9 3 -8 12 -12 20 -9 8 3 14 -1 14 -10 0 -11 -6 -13 -22
-9 -35 9 -52 30 -39 46 8 10 9 16 1 21 -9 6 -14 -1 -11 -18 1 -4 -7 -10 -16
-14 -10 -4 -25 -15 -35 -25 -12 -14 -17 -16 -21 -6 -3 8 -6 6 -6 -5 -1 -10 -5
-16 -10 -13 -5 3 -14 -1 -21 -9 -8 -10 -9 -15 -2 -15 6 0 19 -16 28 -35 9 -20
19 -33 22 -30 3 2 11 0 19 -6 9 -9 13 -8 13 0 0 6 7 11 15 11 8 0 14 3 14 8
-4 26 3 41 16 36 8 -4 15 -1 15 5 0 6 -5 11 -12 11 -8 0 -7 6 4 16 15 15 18
15 39 0 19 -13 20 -16 6 -16 -9 0 -17 -7 -17 -17 0 -9 3 -14 6 -10 3 3 17 -6
30 -20 24 -26 31 -44 17 -42 -22 4 -31 -3 -26 -20 3 -11 -6 -35 -21 -57 -17
-26 -22 -40 -14 -45 6 -4 8 -18 4 -33 -5 -21 -11 -26 -26 -21 -15 5 -18 3 -14
-9 3 -8 1 -24 -6 -35 -10 -19 -20 -21 -121 -21 -68 0 -108 4 -104 10 3 5 11 8
18 6 7 -1 9 -1 5 1 -4 3 -11 5 -15 5 -5 0 -14 10 -22 20 -11 16 -15 17 -22 7
-6 -10 -11 -11 -19 -3 -9 9 -4 13 16 18 16 4 30 3 34 -4 4 -7 13 -3 25 10 11
12 13 20 6 20 -7 0 -9 5 -5 11 4 7 0 9 -14 5 -24 -8 -36 7 -27 34 4 12 12 17
23 14 13 -5 14 -4 3 4 -8 6 -11 17 -8 26 8 20 -2 20 -30 1 -21 -15 -21 -14
-10 15 6 17 15 30 20 30 5 0 4 7 -3 15 -10 12 -10 15 1 15 9 0 10 3 3 10 -8 8
-19 8 -38 0 -38 -14 -23 7 17 24 29 13 30 14 8 15 -17 1 -22 6 -19 19 8 31
-30 24 -49 -9 -10 -16 -21 -29 -25 -29 -4 0 -8 -9 -8 -19 0 -11 -5 -23 -10
-26 -6 -4 -10 -14 -8 -23 1 -10 -3 -26 -9 -37 -6 -11 -11 -23 -11 -28 -1 -9
-12 -85 -17 -112 -2 -11 -4 -26 -4 -33 -1 -18 -2818 -17 -2840 1 -11 9 -13 9
-8 0 5 -8 -9 -12 -50 -12 -38 0 -52 3 -42 10 8 5 9 9 3 9 -5 0 -15 -5 -22 -12
-8 -8 -15 -8 -27 2 -14 12 -18 11 -26 -1 -6 -10 -9 -11 -9 -1 0 7 -4 11 -9 7
-5 -3 -12 -1 -16 5 -8 13 -25 13 -25 -1 0 -5 5 -7 10 -4 5 3 10 1 10 -4 0 -6
-7 -11 -15 -11 -8 0 -15 4 -15 8 0 4 -9 8 -20 9 -13 1 -18 -3 -14 -10 3 -7 -3
-3 -13 9 -17 19 -49 22 -38 3 6 -8 -18 -3 -40 10 -19 11 -36 9 -41 -4 -3 -7
-14 -11 -25 -8 -13 4 -17 8 -9 13 13 8 -90 1 -142 -10 -29 -6 -35 -5 -31 6 3
8 0 14 -6 14 -6 0 -11 -5 -11 -11 0 -5 -4 -7 -10 -4 -20 12 -50 14 -50 2 0 -8
-3 -8 -12 1 -7 7 -8 16 -2 25 5 7 -2 1 -15 -13 -13 -14 -20 -20 -17 -14 6 13
-18 27 -29 16 -8 -8 -48 -9 -55 -1 -3 4 -16 9 -30 13 -19 6 -21 5 -10 -3 11
-8 12 -11 2 -11 -7 0 -10 -4 -7 -10 3 -5 2 -10 -3 -10 -6 0 -13 8 -17 18 -6
16 -7 16 -21 -2 -10 -14 -14 -16 -14 -5 0 12 -2 12 -10 -1 -8 -12 -10 -12 -16
3 -7 18 -39 23 -49 7 -10 -16 -35 -11 -36 8 0 15 -1 15 -8 -2 -7 -19 -8 -19
-14 -1 -7 17 -8 17 -29 -1 -12 -11 -18 -14 -15 -7 10 17 -33 29 -44 12 -7 -12
-9 -12 -9 0 0 8 -7 11 -20 8 -11 -3 -18 -1 -15 3 3 5 0 12 -6 16 -8 4 -9 3 -5
-5 9 -15 -21 -26 -37 -13 -15 11 -47 12 -47 0 0 -4 5 -8 12 -8 6 0 9 -2 6 -5
-7 -8 -39 6 -34 14 3 4 0 13 -6 21 -8 12 -9 12 -4 -2 7 -23 -9 -32 -26 -15
-11 11 -16 11 -25 2 -7 -7 -9 -17 -5 -21 4 -5 0 -4 -8 2 -8 5 -36 9 -62 9 -26
-1 -45 2 -42 6 2 4 13 6 24 4 12 -2 18 0 14 6 -8 14 -46 7 -62 -11 -8 -8 -11
-9 -7 -2 5 9 -3 12 -26 10 -19 -2 -34 3 -37 10 -3 10 -9 9 -23 -4 -17 -16 -19
-16 -19 -1 0 21 -7 21 -26 2 -9 -8 -21 -15 -27 -15 -7 0 -6 4 3 10 9 6 10 10
3 10 -7 0 -17 -8 -23 -17 -10 -17 -10 -17 -8 1 4 22 -11 30 -32 16 -13 -9 -13
-11 0 -20 10 -6 11 -10 3 -10 -8 0 -13 -14 -13 -35 l0 -35 6750 0 6750 0 0
3050 0 3050 -6752 -2 -6753 -3 6748 -2z m-1247 -2745 c-14 -77 -51 -168 -68
-168 -5 0 -8 -7 -8 -15 0 -8 -9 -19 -20 -25 -18 -10 -20 -8 -20 17 0 41 34
128 49 128 8 0 17 7 20 15 17 42 53 78 47 48z m7474 -248 c0 -5 -4 -10 -9 -10
-6 0 -13 5 -16 10 -3 6 1 10 9 10 9 0 16 -4 16 -10z m255 -8 c-3 -3 -11 0 -18
7 -9 10 -8 11 6 5 10 -3 15 -9 12 -12z m-42 -18 c-4 -12 -8 -13 -14 -3 -9 15
-2 32 11 24 5 -3 6 -13 3 -21z m137 22 c0 -2 -11 -6 -25 -8 -14 -3 -25 -1 -25
3 0 5 11 9 25 9 14 0 25 -2 25 -4z m94 -11 c3 -8 0 -14 -7 -12 -7 1 -11 -4 -9
-10 1 -7 -7 -13 -19 -13 -12 0 -19 5 -16 13 2 6 10 11 16 9 6 -1 14 5 17 13 8
19 10 19 18 0z m-297 -9 c4 -3 1 -12 -5 -18 -9 -9 -12 -9 -12 1 0 7 -5 9 -12
4 -17 -10 -58 -15 -74 -9 -8 3 -11 12 -7 22 5 13 16 15 55 12 27 -3 51 -8 55
-12z m-219 -6 c19 0 14 -17 -6 -22 -19 -5 -52 12 -52 27 0 4 10 5 23 1 12 -3
28 -6 35 -6z m249 -5 c0 -8 -4 -12 -9 -9 -5 3 -6 10 -3 15 9 13 12 11 12 -6z
m-433 -141 c9 -3 16 -12 16 -20 0 -8 5 -14 10 -14 6 0 10 -5 10 -11 0 -9 -122
-6 -194 5 -5 0 -12 -10 -16 -24 -5 -21 -12 -25 -40 -25 -25 0 -34 4 -32 14 2
7 -4 21 -13 31 -9 10 -13 20 -8 23 4 3 51 5 104 5 54 0 105 5 115 11 22 12 27
13 48 5z m-925 -73 c8 -5 10 -14 6 -21 -6 -10 -1 -11 19 -6 19 5 28 2 32 -9 3
-8 10 -12 16 -9 5 3 1 12 -8 18 -29 22 -7 39 40 31 22 -4 50 -8 61 -10 31 -4
31 -5 11 -20 -11 -8 -21 -22 -22 -30 -2 -13 21 -15 159 -12 99 1 166 6 174 13
6 6 38 12 72 13 48 2 60 -1 55 -12 -9 -24 23 -40 64 -34 20 4 38 11 40 16 4
11 49 -6 71 -27 8 -8 22 -11 35 -7 12 4 37 8 56 10 213 15 347 29 371 39 37
16 89 9 89 -11 0 -12 7 -14 33 -8 37 9 66 11 205 13 58 1 101 6 98 11 -3 5 1
11 9 15 12 4 15 -7 15 -69 0 -72 0 -74 -27 -79 -24 -5 -94 -7 -158 -5 -11 0
-33 5 -48 11 -20 8 -39 8 -65 0 -49 -15 -128 -22 -139 -12 -4 4 -27 11 -50 15
-36 6 -42 4 -47 -13 -7 -20 -13 -21 -51 -9 -32 10 -97 20 -140 21 -22 0 -44 4
-50 7 -5 4 -28 4 -50 2 -55 -8 -211 -7 -265 0 -96 13 -168 11 -195 -7 -14 -9
-34 -14 -44 -11 -10 3 -30 0 -44 -6 -31 -14 -81 -4 -74 15 9 23 -20 53 -58 59
-19 3 -43 13 -52 22 -11 12 -26 15 -45 11 -17 -3 -41 0 -58 9 -16 8 -50 15
-75 15 -39 0 -48 3 -52 21 -4 15 -12 20 -29 16 -13 -2 -25 1 -28 9 -3 8 0 11
10 7 7 -3 14 0 14 6 0 13 98 15 119 2z m-6491 -2338 c18 -34 29 -69 26 -77 -3
-8 1 -25 9 -38 35 -56 24 -178 -30 -330 -15 -42 -21 -48 -45 -48 -15 0 -28 2
-28 5 0 2 12 46 27 97 l26 92 -11 171 c-7 93 -14 186 -17 205 -4 28 -3 30 4
10 4 -14 22 -53 39 -87z m2900 -14 c-3 -8 -7 -3 -11 10 -4 17 -3 21 5 13 5 -5
8 -16 6 -23z m-3506 -171 c-9 -9 -12 -7 -12 12 0 19 3 21 12 12 9 -9 9 -15 0
-24z m-15 -64 c-3 -3 -12 -4 -19 -1 -8 3 -5 6 6 6 11 1 17 -2 13 -5z m3503
-64 c0 -5 -2 -10 -4 -10 -3 0 -8 5 -11 10 -3 6 -1 10 4 10 6 0 11 -4 11 -10z
m-7 -61 c-8 -8 -16 -8 -30 0 -16 9 -14 10 12 11 21 0 26 -3 18 -11z"/>
<path d="M5416 3253 c-6 -14 -5 -15 5 -6 7 7 10 15 7 18 -3 3 -9 -2 -12 -12z"/>
<path d="M12850 2710 c0 -5 7 -7 15 -4 8 4 15 8 15 10 0 2 -7 4 -15 4 -8 0
-15 -4 -15 -10z"/>
<path d="M690 5595 l0 -85 46 0 c27 0 43 4 39 10 -3 6 -19 10 -36 10 l-29 0 0
75 c0 43 -4 75 -10 75 -6 0 -10 -35 -10 -85z"/>
<path d="M5220 5610 c0 -70 16 -98 22 -38 2 22 9 34 21 36 14 3 17 -4 17 -32
0 -20 5 -36 11 -36 6 0 9 17 7 43 -3 39 -5 42 -30 40 -25 -2 -28 2 -28 28 0
16 -4 29 -10 29 -6 0 -10 -30 -10 -70z"/>
<path d="M9140 5612 l0 -69 33 0 c39 0 57 12 57 42 0 29 -24 48 -50 40 -17 -5
-20 -2 -20 24 0 17 -4 31 -10 31 -6 0 -10 -29 -10 -68z m70 -22 c0 -24 -26
-38 -42 -22 -16 16 -2 42 22 42 13 0 20 -7 20 -20z"/>
<path d="M3990 5605 c0 -37 4 -65 10 -65 6 0 10 14 10 30 0 27 3 30 30 30 27
0 30 -3 30 -30 0 -16 5 -30 10 -30 6 0 10 28 10 65 0 37 -4 65 -10 65 -5 0
-10 -11 -10 -25 0 -21 -5 -25 -30 -25 -25 0 -30 4 -30 25 0 14 -4 25 -10 25
-6 0 -10 -28 -10 -65z"/>
<path d="M5110 5660 c0 -5 9 -10 20 -10 18 0 20 -7 20 -55 0 -30 5 -55 10 -55
6 0 10 25 10 55 0 42 3 55 15 55 8 0 15 5 15 10 0 6 -20 10 -45 10 -25 0 -45
-4 -45 -10z"/>
<path d="M6320 5605 l0 -65 35 0 c19 0 35 5 35 10 0 6 -11 10 -25 10 -18 0
-25 5 -25 20 0 13 7 20 20 20 11 0 20 5 20 10 0 6 -9 10 -20 10 -11 0 -20 7
-20 15 0 9 9 15 25 15 14 0 25 5 25 10 0 6 -16 10 -35 10 l-35 0 0 -65z"/>
<path d="M6840 5660 c0 -5 5 -10 10 -10 6 0 10 5 10 10 0 6 -4 10 -10 10 -5 0
-10 -4 -10 -10z"/>
<path d="M7820 5605 c0 -37 4 -65 10 -65 6 0 10 8 10 18 0 10 12 22 30 29 53
20 36 83 -22 83 -28 0 -28 0 -28 -65z m58 23 c-5 -34 -38 -37 -38 -4 0 20 5
26 21 26 15 0 20 -5 17 -22z"/>
<path d="M7990 5660 c0 -5 5 -10 10 -10 6 0 10 5 10 10 0 6 -4 10 -10 10 -5 0
-10 -4 -10 -10z"/>
<path d="M8125 5660 c3 -5 8 -10 11 -10 2 0 4 5 4 10 0 6 -5 10 -11 10 -5 0
-7 -4 -4 -10z"/>
<path d="M9055 5658 c-37 -103 -40 -118 -25 -118 6 0 10 7 10 15 0 10 10 15
29 15 16 0 31 -6 35 -15 3 -8 10 -15 16 -15 13 0 -33 123 -48 128 -7 2 -14 -2
-17 -10z m31 -65 c-2 -3 -11 -3 -19 -1 -11 2 -12 9 -5 28 l10 25 9 -24 c5 -13
7 -26 5 -28z"/>
<path d="M10352 5658 c-21 -21 -13 -47 18 -63 17 -9 30 -22 30 -30 0 -10 -10
-15 -30 -15 -16 0 -30 -4 -30 -10 0 -12 50 -13 68 -1 21 13 10 54 -18 68 -34
17 -32 38 3 38 15 -1 27 5 27 12 0 16 -52 17 -68 1z"/>
<path d="M10450 5660 c0 -5 5 -10 10 -10 6 0 10 5 10 10 0 6 -4 10 -10 10 -5
0 -10 -4 -10 -10z"/>
<path d="M10790 5628 c0 -78 38 -116 89 -88 18 9 21 20 21 70 0 77 -18 78 -22
3 -3 -54 -5 -58 -28 -58 -23 0 -25 4 -28 58 -2 42 -7 57 -17 57 -11 0 -15 -12
-15 -42z"/>
<path d="M11940 5600 l0 -70 35 0 c19 0 35 5 35 10 0 6 -11 10 -25 10 -24 0
-25 3 -25 60 0 33 -4 60 -10 60 -6 0 -10 -30 -10 -70z"/>
<path d="M12270 5660 c0 -5 5 -10 10 -10 6 0 10 5 10 10 0 6 -4 10 -10 10 -5
0 -10 -4 -10 -10z"/>
<path d="M6510 5645 c0 -8 -5 -15 -12 -15 -9 0 -9 -3 0 -12 7 -7 12 -25 12
-40 0 -28 24 -48 38 -33 4 4 1 10 -5 12 -7 3 -13 15 -13 28 0 13 6 26 13 29
10 5 10 7 0 12 -7 3 -13 12 -13 20 0 8 -4 14 -10 14 -5 0 -10 -7 -10 -15z"/>
<path d="M9473 5645 c-16 -29 -2 -99 20 -103 9 -2 17 1 17 7 0 6 -4 11 -10 11
-15 0 -12 47 3 53 8 4 9 8 1 14 -6 4 -13 15 -16 23 -4 12 -7 11 -15 -5z"/>
<path d="M807 5612 c-53 -58 28 -137 83 -82 24 24 25 48 4 78 -19 27 -64 29
-87 4z m78 -22 c11 -35 -3 -60 -35 -60 -20 0 -31 6 -35 20 -11 35 3 60 35 60
20 0 31 -6 35 -20z"/>
<path d="M946 5612 c-38 -43 -7 -109 46 -98 18 4 28 1 28 -7 0 -27 -18 -40
-49 -35 -20 3 -30 1 -28 -6 6 -19 57 -19 78 0 15 14 19 31 19 89 l0 72 -39 1
c-26 1 -43 -4 -55 -16z m69 -42 c0 -31 -3 -35 -28 -38 -31 -4 -43 14 -33 54 5
20 12 25 34 22 24 -3 27 -7 27 -38z"/>
<path d="M1090 5610 c-24 -24 -25 -48 -4 -78 19 -27 64 -29 87 -4 53 58 -28
137 -83 82z m75 -40 c0 -32 -3 -35 -32 -38 -28 -3 -33 1 -39 23 -8 33 12 57
45 53 22 -3 26 -8 26 -38z"/>
<path d="M4126 5614 c-9 -8 -16 -22 -16 -29 0 -19 28 -45 49 -45 25 0 41 20
41 51 0 39 -45 53 -74 23z m57 -16 c7 -21 -4 -38 -23 -38 -23 0 -34 16 -26 35
7 18 43 20 49 3z"/>
<path d="M4230 5584 c0 -24 5 -44 10 -44 6 0 10 16 10 35 0 24 5 35 15 35 10
0 15 -11 15 -35 0 -19 5 -35 10 -35 6 0 10 9 10 19 0 30 11 51 26 51 9 0 14
-12 14 -35 0 -19 5 -35 11 -35 6 0 9 17 7 43 l-3 42 -62 1 -63 1 0 -43z"/>
<path d="M4396 5615 c-19 -19 -20 -29 -6 -56 6 -11 21 -19 35 -19 34 0 41 18
8 22 -39 4 -42 28 -3 28 25 0 31 4 28 18 -4 23 -41 27 -62 7z m37 -12 c-7 -2
-19 -2 -25 0 -7 3 -2 5 12 5 14 0 19 -2 13 -5z"/>
<path d="M5336 5615 c-19 -19 -20 -29 -6 -56 6 -11 21 -19 35 -19 34 0 41 18
8 22 -39 4 -42 28 -3 28 25 0 31 4 28 18 -4 23 -41 27 -62 7z m37 -12 c-7 -2
-19 -2 -25 0 -7 3 -2 5 12 5 14 0 19 -2 13 -5z"/>
<path d="M5420 5583 c0 -50 17 -58 22 -11 2 22 9 34 21 36 14 3 17 -4 17 -32
0 -20 5 -36 10 -36 6 0 10 16 10 35 0 28 4 35 20 35 16 0 20 -7 20 -35 0 -19
5 -35 10 -35 14 0 12 67 -2 77 -7 4 -39 8 -70 9 l-58 0 0 -43z"/>
<path d="M5590 5616 c-27 -34 8 -88 46 -71 17 8 16 9 -8 13 -39 5 -37 32 2 32
32 0 37 9 18 28 -16 16 -43 15 -58 -2z m43 -13 c-7 -2 -19 -2 -25 0 -7 3 -2 5
12 5 14 0 19 -2 13 -5z"/>
<path d="M6410 5622 c0 -4 6 -14 12 -20 10 -10 10 -17 0 -33 -8 -12 -10 -24
-7 -27 4 -4 11 2 17 12 11 19 11 19 24 1 8 -10 17 -16 20 -12 4 4 1 14 -6 23
-11 13 -11 19 -1 36 16 26 5 37 -13 12 -14 -18 -15 -18 -21 -1 -7 17 -25 24
-25 9z"/>
<path d="M6572 5618 c-29 -29 -7 -78 35 -78 13 0 23 5 23 10 0 6 -11 10 -25
10 -16 0 -25 6 -25 15 0 10 10 15 30 15 17 0 30 4 30 8 0 14 -23 32 -40 32 -9
0 -21 -5 -28 -12z m41 -15 c-7 -2 -19 -2 -25 0 -7 3 -2 5 12 5 14 0 19 -2 13
-5z"/>
<path d="M6660 5583 c0 -23 5 -43 10 -43 6 0 10 16 10 35 0 28 4 35 20 35 16
0 20 -7 20 -35 0 -19 5 -35 10 -35 12 0 13 59 2 77 -4 6 -22 11 -40 11 -31 -1
-32 -2 -32 -45z"/>
<path d="M6763 5614 c-4 -11 2 -23 18 -35 l24 -19 -22 0 c-13 0 -23 -4 -23
-10 0 -5 11 -10 25 -10 36 0 44 28 14 51 l-24 19 23 0 c13 0 20 4 17 10 -10
16 -45 12 -52 -6z"/>
<path d="M6840 5585 c0 -25 5 -45 10 -45 6 0 10 20 10 45 0 25 -4 45 -10 45
-5 0 -10 -20 -10 -45z"/>
<path d="M6896 5614 c-9 -8 -16 -22 -16 -29 0 -19 28 -45 49 -45 25 0 41 20
41 51 0 39 -45 53 -74 23z m57 -16 c7 -21 -4 -38 -23 -38 -23 0 -34 16 -26 35
7 18 43 20 49 3z"/>
<path d="M7000 5584 c0 -24 5 -44 10 -44 6 0 10 16 10 35 0 28 4 35 20 35 16
0 20 -7 20 -35 0 -19 5 -35 10 -35 14 0 12 66 -2 78 -7 5 -25 10 -40 10 -26 0
-28 -3 -28 -44z"/>
<path d="M7103 5614 c-4 -11 2 -23 18 -35 l24 -19 -22 0 c-13 0 -23 -4 -23
-10 0 -5 11 -10 25 -10 36 0 44 28 14 51 -20 15 -21 19 -6 19 9 0 17 5 17 10
0 17 -40 11 -47 -6z"/>
<path d="M7920 5584 c0 -24 5 -44 10 -44 6 0 10 11 10 24 0 14 7 31 15 40 20
19 19 21 -10 22 -23 2 -25 -1 -25 -42z"/>
<path d="M7990 5585 c0 -25 5 -45 10 -45 6 0 10 20 10 45 0 25 -4 45 -10 45
-5 0 -10 -20 -10 -45z"/>
<path d="M8054 5622 c-36 -23 -17 -82 27 -82 27 0 24 18 -3 22 -15 2 -23 10
-23 23 0 13 8 21 23 23 12 2 22 8 22 13 0 11 -30 12 -46 1z"/>
<path d="M8120 5585 c0 -25 5 -45 10 -45 6 0 10 20 10 45 0 25 -4 45 -10 45
-5 0 -10 -20 -10 -45z"/>
<path d="M8170 5584 c0 -51 17 -60 22 -12 2 22 9 34 21 36 14 3 17 -4 17 -32
0 -20 5 -36 11 -36 6 0 9 17 7 43 -3 41 -4 42 -40 43 l-38 1 0 -43z"/>
<path d="M8278 5604 c-16 -33 0 -59 36 -59 34 1 28 -19 -7 -23 -34 -4 -36 -22
-3 -22 38 0 56 25 56 79 0 48 0 48 -35 49 -29 1 -38 -3 -47 -24z m62 -14 c0
-24 -26 -38 -42 -22 -16 16 -2 42 22 42 13 0 20 -7 20 -20z"/>
<path d="M9262 5618 c-7 -7 -12 -21 -12 -33 0 -12 5 -26 12 -33 7 -7 21 -12
33 -12 12 0 26 5 33 12 7 7 12 21 12 33 0 12 -5 26 -12 33 -7 7 -21 12 -33 12
-12 0 -26 -5 -33 -12z m53 -33 c0 -13 -8 -21 -22 -23 -19 -3 -23 1 -23 23 0
22 4 26 23 23 14 -2 22 -10 22 -23z"/>
<path d="M9360 5596 c0 -39 14 -54 53 -54 25 0 27 3 27 44 0 24 -4 44 -10 44
-5 0 -10 -16 -10 -35 0 -28 -4 -35 -20 -35 -16 0 -20 7 -20 35 0 19 -4 35 -10
35 -5 0 -10 -15 -10 -34z"/>
<path d="M10450 5580 c0 -27 5 -50 10 -50 6 0 10 23 10 50 0 28 -4 50 -10 50
-5 0 -10 -22 -10 -50z"/>
<path d="M10505 5607 c-27 -42 5 -88 50 -71 13 5 16 2 13 -12 -2 -13 -13 -20
-36 -22 -36 -4 -34 -22 3 -22 39 0 55 25 55 89 l0 58 -35 1 c-26 1 -39 -4 -50
-21z m60 -27 c0 -18 -6 -26 -22 -28 -20 -3 -23 1 -23 28 0 27 3 31 23 28 16
-2 22 -10 22 -28z"/>
<path d="M10620 5578 c0 -56 17 -65 22 -10 2 29 7 37 23 37 16 0 21 -8 23 -37
4 -50 22 -49 22 1 0 45 -13 58 -57 58 -33 0 -33 -1 -33 -49z"/>
<path d="M10930 5554 c0 -59 3 -74 15 -74 10 0 15 10 15 28 0 24 4 28 27 27
21 0 30 6 37 28 15 41 -2 62 -53 64 l-41 2 0 -75z m75 26 c0 -18 -6 -26 -22
-28 -20 -3 -23 1 -23 28 0 27 3 31 23 28 16 -2 22 -10 22 -28z"/>
<path d="M12034 5605 c-15 -23 -15 -27 0 -50 10 -15 26 -25 41 -25 15 0 31 10
41 25 15 23 15 27 0 50 -10 15 -26 25 -41 25 -15 0 -31 -10 -41 -25z m66 -25
c0 -23 -4 -30 -20 -30 -23 0 -35 22 -26 45 3 8 15 15 26 15 16 0 20 -7 20 -30z"/>
<path d="M12155 5607 c-19 -28 -19 -42 1 -62 11 -11 25 -14 42 -10 20 5 23 3
18 -10 -3 -9 -6 -19 -6 -21 0 -2 -14 -4 -31 -4 -17 0 -28 -4 -24 -10 9 -15 52
-12 69 6 11 10 16 34 16 73 l0 58 -35 1 c-25 1 -38 -5 -50 -21z m60 -27 c0
-18 -6 -26 -22 -28 -18 -3 -23 1 -23 21 0 28 9 39 30 35 9 -2 15 -14 15 -28z"/>
<path d="M12270 5580 c0 -27 5 -50 10 -50 6 0 10 23 10 50 0 28 -4 50 -10 50
-5 0 -10 -22 -10 -50z"/>
<path d="M12320 5579 c0 -37 4 -49 15 -49 11 0 15 11 15 40 0 33 3 40 20 40
17 0 20 -7 20 -40 0 -22 5 -40 11 -40 6 0 9 19 7 48 l-3 47 -42 2 -43 2 0 -50z"/>
<path d="M10199 4197 c-33 -25 -39 -55 -39 -195 0 -137 0 -140 26 -166 l27
-26 426 0 c319 1 430 4 442 13 33 25 39 55 39 195 0 137 0 140 -26 166 l-27
26 -426 0 c-319 -1 -430 -4 -442 -13z m541 -137 c0 -5 -4 -10 -10 -10 -5 0
-10 5 -10 10 0 6 5 10 10 10 6 0 10 -4 10 -10z m-260 -49 c0 -43 3 -50 23 -54
16 -3 13 -5 -10 -6 l-33 -1 0 55 c0 30 5 55 10 55 6 0 10 -22 10 -49z m124 -3
c16 -26 -4 -53 -40 -53 -23 0 -30 5 -32 23 -2 13 -1 30 2 38 8 20 56 14 70 -8z
m96 -19 c0 -22 -5 -49 -10 -60 -11 -20 -54 -26 -65 -10 -3 6 7 9 21 8 36 -3
43 21 7 25 -55 6 -38 78 18 78 27 0 29 -3 29 -41z m40 1 c0 -22 -4 -40 -10
-40 -5 0 -10 18 -10 40 0 22 5 40 10 40 6 0 10 -18 10 -40z m88 -2 c2 -22 -1
-38 -7 -38 -6 0 -11 16 -11 36 0 45 -24 42 -28 -4 -5 -46 -22 -39 -22 9 0 39
1 40 33 37 29 -3 32 -6 35 -40z"/>
<path d="M10547 4005 c-9 -22 3 -46 22 -43 10 2 16 13 16 28 0 28 -29 40 -38
15z"/>
<path d="M10644 4006 c-8 -22 3 -49 19 -43 6 2 12 14 12 27 0 27 -22 39 -31
16z"/>
<path d="M5790 4015 c0 -42 -3 -55 -15 -55 -8 0 -15 -4 -15 -10 0 -18 29 -11
40 9 13 25 13 111 0 111 -5 0 -10 -25 -10 -55z"/>
<path d="M6977 4053 c-15 -14 -6 -40 18 -51 33 -15 32 -40 -2 -45 l-28 -4 28
-2 c40 -2 47 27 14 53 -34 28 -34 44 1 49 l27 4 -26 2 c-14 0 -29 -2 -32 -6z"/>
<path d="M7661 4003 c1 -32 4 -48 6 -36 2 12 14 24 29 27 20 5 25 12 22 34 -2
21 -9 28 -30 30 -28 3 -28 3 -27 -55z m44 22 c0 -11 -8 -21 -17 -23 -14 -3
-18 3 -18 23 0 20 4 26 18 23 9 -2 17 -12 17 -23z"/>
<path d="M8127 4042 c-35 -39 -10 -93 41 -91 l27 2 -25 4 c-35 7 -50 21 -50
48 0 27 15 41 50 48 l25 4 -26 2 c-14 0 -33 -7 -42 -17z"/>
<path d="M9433 4053 c-21 -8 -15 -31 12 -49 32 -21 32 -41 0 -47 -23 -4 -23
-4 2 -3 39 1 44 38 8 54 -31 14 -28 34 6 43 19 6 20 7 4 7 -11 0 -26 -2 -32
-5z"/>
<path d="M9784 4010 c1 -50 3 -55 25 -58 33 -5 51 22 50 72 -2 33 -3 35 -6 11
-8 -67 -13 -76 -36 -73 -18 2 -23 11 -28 53 l-6 50 1 -55z"/>
<path d="M8399 4038 c-4 -39 9 -88 23 -88 9 0 9 3 0 12 -14 14 -16 55 -3 60 5
2 3 9 -5 16 -11 10 -14 10 -15 0z"/>
<path d="M8609 4038 c-4 -39 9 -88 23 -88 9 0 9 3 0 12 -14 14 -16 55 -3 60 5
2 3 9 -5 16 -11 10 -14 10 -15 0z"/>
<path d="M5846 4014 c-9 -8 -16 -22 -16 -29 0 -7 7 -21 16 -29 30 -30 74 -13
74 29 0 42 -44 59 -74 29z m58 -19 c8 -22 -23 -48 -40 -34 -17 14 -18 31 -3
46 14 14 35 7 43 -12z"/>
<path d="M5940 4004 c0 -42 17 -63 50 -62 29 1 30 3 30 45 0 23 -4 43 -10 43
-5 0 -10 -15 -10 -33 0 -38 -6 -48 -26 -40 -8 3 -14 19 -14 39 0 19 -4 34 -10
34 -5 0 -10 -12 -10 -26z"/>
<path d="M6050 3984 c0 -24 5 -44 10 -44 6 0 10 14 10 30 0 18 6 33 15 36 23
9 18 22 -10 22 -23 0 -25 -4 -25 -44z"/>
<path d="M6120 3983 c0 -23 5 -43 10 -43 6 0 10 16 10 35 0 28 4 35 20 35 16
0 20 -7 20 -35 0 -19 5 -35 10 -35 13 0 13 46 0 70 -7 12 -20 18 -40 18 -29
-1 -30 -3 -30 -45z"/>
<path d="M6232 4018 c-27 -27 -7 -78 29 -78 10 0 21 5 24 11 4 6 1 10 -6 8
-28 -3 -39 1 -39 16 0 10 10 15 30 15 17 0 30 4 30 8 0 14 -23 32 -40 32 -9 0
-21 -5 -28 -12z m43 -8 c3 -5 -3 -10 -15 -10 -12 0 -18 5 -15 10 3 6 10 10 15
10 5 0 12 -4 15 -10z"/>
<path d="M6313 4018 c32 -87 32 -87 11 -103 -19 -15 -9 -21 13 -7 14 9 56 112
48 120 -3 3 -11 -9 -17 -26 -15 -40 -25 -40 -33 -2 -4 17 -11 30 -17 30 -6 0
-8 -6 -5 -12z"/>
<path d="M7062 4018 c-26 -26 -6 -69 33 -67 17 1 17 2 -4 8 -37 10 -38 31 -2
31 17 0 31 4 31 8 0 12 -22 32 -35 32 -6 0 -16 -5 -23 -12z m43 -8 c4 -6 -5
-10 -20 -10 -15 0 -24 4 -20 10 3 6 12 10 20 10 8 0 17 -4 20 -10z"/>
<path d="M7142 3986 c1 -38 2 -38 5 -8 5 36 29 53 45 31 8 -12 9 -11 5 1 -2 8
-16 15 -30 16 -25 1 -27 -2 -25 -40z"/>
<path d="M7227 3990 c-8 -22 -13 -40 -11 -40 7 0 36 71 31 76 -2 2 -11 -14
-20 -36z"/>
<path d="M7273 3990 c0 -25 2 -35 4 -22 2 12 2 32 0 45 -2 12 -4 2 -4 -23z"/>
<path d="M7315 4019 c-11 -16 -2 -17 25 -2 24 12 24 13 3 13 -12 0 -25 -5 -28
-11z"/>
<path d="M7391 4016 c-21 -25 -10 -61 19 -63 25 -3 25 -3 3 7 -31 13 -29 30 3
30 19 0 25 5 22 17 -4 23 -31 28 -47 9z m39 -6 c0 -5 -9 -10 -21 -10 -11 0
-17 5 -14 10 3 6 13 10 21 10 8 0 14 -4 14 -10z"/>
<path d="M7466 4015 c-3 -9 3 -19 14 -25 26 -14 25 -27 0 -33 -17 -4 -17 -4 2
-3 31 1 34 30 6 43 l-23 11 25 10 c23 10 23 11 4 11 -12 1 -24 -6 -28 -14z"/>
<path d="M7753 3990 c0 -25 2 -35 4 -22 2 12 2 32 0 45 -2 12 -4 2 -4 -23z"/>
<path d="M7803 3990 c0 -25 2 -35 4 -22 2 12 2 32 0 45 -2 12 -4 2 -4 -23z"/>
<path d="M7840 4010 c-15 -28 4 -60 33 -59 l22 2 -22 4 c-24 5 -35 25 -27 47
3 8 15 17 27 19 l22 4 -22 2 c-13 0 -27 -7 -33 -19z"/>
<path d="M7921 4016 c-21 -25 -10 -61 19 -63 25 -3 25 -3 3 7 -31 13 -29 30 3
30 19 0 25 5 22 17 -4 23 -31 28 -47 9z m39 -6 c0 -5 -9 -10 -21 -10 -11 0
-17 5 -14 10 3 6 13 10 21 10 8 0 14 -4 14 -10z"/>
<path d="M8222 4018 c-16 -16 -15 -43 3 -58 18 -15 47 -10 52 10 4 12 3 12 -5
2 -15 -23 -47 -10 -47 18 0 28 32 41 47 18 8 -10 9 -10 5 2 -5 19 -39 24 -55
8z"/>
<path d="M8311 3986 l2 -41 6 35 c8 48 38 54 44 8 l4 -33 -1 35 c-1 31 -4 35
-28 36 -26 1 -28 -1 -27 -40z"/>
<path d="M8480 4019 l25 -11 -28 -10 c-37 -13 -33 -43 6 -44 26 -1 28 1 25 35
-3 30 -7 36 -28 38 l-25 3 25 -11z m20 -39 c0 -12 -28 -25 -36 -17 -9 9 6 27
22 27 8 0 14 -5 14 -10z"/>
<path d="M8542 4018 c-24 -24 -6 -69 28 -67 9 0 6 4 -8 10 -32 12 -26 51 8 60
21 6 22 7 5 8 -12 1 -26 -4 -33 -11z"/>
<path d="M9513 3990 c0 -25 2 -35 4 -22 2 12 2 32 0 45 -2 12 -4 2 -4 -23z"/>
<path d="M9548 4005 c-13 -28 3 -56 31 -54 14 1 14 2 -1 6 -9 2 -19 11 -22 19
-8 20 3 42 22 47 15 4 15 5 -1 6 -10 0 -22 -10 -29 -24z"/>
<path d="M9600 3980 c-4 -48 -8 -55 -30 -61 l-25 -7 28 -1 c33 -1 39 12 35 75
l-4 49 -4 -55z"/>
<path d="M9641 3986 l2 -41 6 35 c8 48 38 54 44 8 l4 -33 -1 35 c-1 31 -4 35
-28 36 -26 1 -28 -1 -27 -40z"/>
<path d="M9892 3965 l1 -60 6 55 c4 40 11 56 22 58 33 6 34 -53 1 -61 -15 -4
-15 -5 0 -6 10 0 22 8 28 19 16 29 -4 60 -35 58 -24 -2 -25 -5 -23 -63z"/>
<path d="M7310 3969 c0 -11 25 -22 39 -17 6 1 -1 8 -14 15 -14 6 -25 7 -25 2z"/>
<path d="M5632 3670 c0 -14 2 -19 5 -12 2 6 2 18 0 25 -3 6 -5 1 -5 -13z"/>
<path d="M5722 3682 c1 -4 -2 -14 -5 -22 -4 -8 -11 -42 -16 -75 -13 -84 -14
-87 -35 -115 l-18 -25 7 35 c4 19 9 44 12 55 5 17 3 18 -9 8 -8 -7 -18 -10
-21 -6 -13 12 -7 -13 6 -26 8 -10 8 -12 0 -7 -9 5 -12 -127 -13 -555 l-1 -562
108 6 108 6 -40 -25 c-22 -13 -49 -24 -60 -25 -11 0 -14 -3 -8 -6 29 -11 173
61 237 119 38 34 125 43 167 17 11 -7 38 23 32 37 -3 8 1 14 11 14 9 0 16 4
16 9 0 15 33 22 41 9 14 -21 3 -100 -19 -143 -29 -58 -77 -99 -157 -136 -55
-26 -85 -34 -150 -37 -84 -4 -179 14 -207 41 -7 6 -28 20 -46 30 -53 30 -39
-4 15 -36 118 -72 252 -93 393 -64 91 19 182 52 208 75 10 9 11 13 2 7 -10 -6
-8 -2 4 13 20 23 32 30 21 12 -3 -5 -2 -10 3 -10 16 0 173 180 185 213 4 10 2
17 -5 17 -9 0 -9 3 0 12 7 7 12 23 12 36 0 16 7 26 20 29 17 5 18 8 8 22 -11
14 -11 14 4 3 12 -10 34 -11 94 -3 43 5 82 7 87 4 5 -3 12 -1 16 4 4 6 18 5
38 -3 26 -11 34 -23 48 -71 9 -32 23 -65 31 -74 8 -9 11 -19 7 -24 -5 -4 -2
-6 5 -4 8 3 13 8 12 13 -3 16 29 27 48 17 12 -6 23 -5 34 3 19 14 73 12 174
-4 33 -6 83 -7 110 -4 l49 6 -35 -23 c-19 -12 -73 -48 -120 -79 -289 -194
-593 -271 -1025 -257 -182 6 -307 23 -415 56 l-60 19 0 -639 0 -639 1009 0
1008 0 7 58 c9 79 28 184 32 180 1 -2 6 -51 9 -108 4 -58 8 -111 10 -118 3 -8
29 -12 85 -12 l82 0 -3 37 c-2 21 -9 44 -15 50 -7 7 -11 27 -9 45 1 18 -2 39
-8 45 -5 7 -7 18 -5 25 3 7 2 22 -2 33 -4 11 -3 29 3 40 9 18 9 19 -7 6 -22
-18 -28 -11 -31 38 -2 23 -10 48 -19 57 -9 8 -16 25 -16 36 0 11 -6 32 -14 46
-43 81 -49 107 -54 239 -3 78 -10 140 -17 149 -9 13 -10 9 -7 -20 2 -19 -3
-70 -13 -112 -9 -41 -14 -88 -11 -102 5 -21 4 -23 -4 -12 -33 48 -104 347
-135 568 -22 154 -20 209 10 268 36 72 64 95 127 103 l53 7 -38 13 c-21 7 -57
11 -80 8 -23 -2 -69 1 -102 7 -59 10 -59 10 -25 17 22 5 13 6 -24 2 -33 -2
-70 -9 -82 -13 -12 -5 -37 -5 -57 0 -20 4 -38 5 -41 2 -12 -11 -74 24 -116 67
-25 25 -34 38 -20 28 69 -47 250 -103 250 -77 0 5 -10 10 -23 10 -64 0 -192
63 -237 118 -26 32 -27 37 -13 47 25 18 1 26 -42 14 -52 -15 -197 1 -246 27
-16 8 -39 14 -53 14 -14 0 -28 5 -31 10 -4 6 -12 9 -18 8 -7 -1 -28 5 -47 14
-19 9 -60 23 -90 33 -30 9 -59 22 -65 28 -5 7 -31 22 -57 34 -30 14 -48 29
-48 40 -1 21 -23 53 -36 53 -5 0 -15 10 -23 21 -11 19 -11 21 3 16 19 -7 21 4
4 21 -9 9 -9 12 0 12 7 0 12 16 12 40 0 22 5 40 11 40 5 0 7 5 4 10 -3 6 4 10
17 11 16 0 19 2 8 7 -8 4 -16 12 -17 17 -1 6 -5 18 -8 28 -5 11 -2 17 6 17 11
0 11 3 -1 10 -10 7 -11 13 -5 18 6 4 24 33 40 65 16 33 38 65 49 73 11 8 16
14 11 14 -5 0 0 7 11 15 10 8 15 15 10 15 -21 0 39 50 61 50 13 0 23 4 23 9 0
9 48 23 135 40 74 14 90 22 137 67 37 36 60 47 138 71 12 4 11 7 -5 13 -24 11
-1255 12 -1253 2z m1381 -1131 c-6 -9 -51 30 -56 49 -5 18 0 16 27 -12 17 -18
31 -35 29 -37z m-646 -13 c-3 -7 -5 -2 -5 12 0 14 2 19 5 13 2 -7 2 -19 0 -25z
m6 -43 c-3 -9 -8 -14 -10 -11 -3 3 -2 9 2 15 9 16 15 13 8 -4z m-608 -61 c-11
-8 -25 -12 -32 -10 -6 3 -13 1 -15 -3 -2 -4 -27 -11 -56 -15 -55 -7 -67 7 -15
17 55 10 88 18 92 23 2 2 14 4 25 4 21 -1 21 -1 1 -16z"/>
<path d="M7344 3658 c10 -49 22 -52 31 -7 4 21 -8 38 -29 39 -5 0 -6 -14 -2
-32z"/>
<path d="M5657 3644 c-17 -23 -16 -44 3 -44 5 0 7 7 4 15 -4 8 -1 22 6 30 7 9
11 17 9 19 -2 2 -12 -7 -22 -20z"/>
<path d="M1340 3400 l0 -220 30 0 30 0 0 101 c0 98 1 101 29 130 35 34 54 36
81 9 18 -18 20 -33 20 -130 l0 -110 35 0 35 0 0 115 c0 128 -12 169 -56 185
-40 16 -69 12 -108 -15 l-36 -24 0 89 0 90 -30 0 -30 0 0 -220z"/>
<path d="M3300 3535 l0 -85 -32 20 c-63 38 -134 16 -168 -51 -18 -34 -21 -55
-18 -111 3 -60 7 -72 34 -99 44 -43 97 -49 147 -15 35 24 37 24 37 6 0 -16 7
-20 35 -20 l35 0 0 220 0 220 -35 0 -35 0 0 -85z m-17 -127 c20 -24 23 -103 6
-142 -7 -13 -25 -30 -42 -37 -42 -17 -78 4 -96 57 -37 105 65 200 132 122z"/>
<path d="M970 3570 l0 -30 60 0 60 0 0 -180 0 -180 35 0 35 0 0 180 0 180 60
0 60 0 0 30 0 30 -155 0 -155 0 0 -30z"/>
<path d="M2180 3390 l0 -210 115 0 115 0 0 30 0 30 -80 0 -80 0 0 180 0 180
-35 0 -35 0 0 -210z"/>
<path d="M1742 3470 c-50 -31 -72 -75 -72 -145 0 -122 80 -179 203 -144 30 8
37 14 37 36 0 20 -4 24 -17 18 -10 -4 -36 -9 -58 -12 -47 -6 -90 21 -97 62
l-5 25 105 0 105 0 -6 45 c-4 25 -14 59 -22 75 -30 58 -112 77 -173 40z m110
-47 c10 -9 18 -27 18 -40 0 -22 -3 -23 -70 -23 -62 0 -69 2 -63 18 19 55 78
79 115 45z"/>
<path d="M2520 3467 c-49 -32 -73 -79 -73 -141 0 -117 83 -178 201 -147 35 10
42 16 42 37 0 21 -4 25 -17 19 -10 -4 -36 -9 -59 -12 -33 -4 -45 -1 -66 18
-15 13 -29 34 -33 46 -6 22 -4 22 97 25 l103 3 -3 45 c-9 110 -107 165 -192
107z m114 -49 c33 -47 23 -58 -54 -58 -38 0 -70 2 -70 5 0 14 31 64 42 68 32
13 68 6 82 -15z"/>
<path d="M2823 3478 c-27 -9 -33 -16 -33 -40 0 -28 0 -28 30 -13 56 29 120 13
120 -30 0 -26 -8 -30 -84 -40 -65 -9 -96 -40 -96 -95 0 -45 23 -75 65 -86 33
-8 71 2 95 26 20 20 20 20 20 0 0 -16 7 -20 35 -20 l35 0 0 109 c0 59 -5 123
-11 141 -19 53 -95 74 -176 48z m107 -227 c-24 -45 -110 -35 -110 13 0 31 18
45 71 54 43 7 44 7 47 -20 2 -15 -2 -36 -8 -47z"/>
<path d="M3512 3470 c-50 -31 -72 -75 -72 -145 0 -122 80 -179 203 -144 30 8
37 14 37 36 0 20 -4 24 -17 18 -10 -4 -36 -9 -58 -12 -47 -6 -90 21 -97 62
l-5 25 105 0 105 0 -6 45 c-4 25 -14 59 -22 75 -30 58 -112 77 -173 40z m110
-47 c10 -9 18 -27 18 -40 0 -22 -3 -23 -70 -23 -62 0 -69 2 -63 18 19 55 78
79 115 45z"/>
<path d="M3870 3461 l-30 -29 0 24 c0 20 -5 24 -30 24 l-30 0 0 -150 0 -150
30 0 30 0 0 90 c0 124 20 160 86 160 22 0 25 4 22 28 -4 40 -40 41 -78 3z"/>
<path d="M6830 3464 c-87 -16 -100 -20 -100 -32 0 -5 33 -8 73 -6 39 2 64 1
55 -2 -10 -3 -18 -9 -18 -14 0 -4 -11 -11 -25 -14 -29 -7 -33 -22 -7 -29 9 -3
3 -5 -15 -6 -41 -1 -49 -15 -18 -31 14 -7 25 -17 25 -21 0 -14 47 -40 87 -50
87 -21 103 -20 146 10 23 16 46 29 50 29 20 1 19 12 -1 12 -35 0 -34 17 1 24
30 6 107 68 107 86 0 10 -74 34 -148 49 -66 14 -116 12 -212 -5z m121 -51 l34
-7 -30 -7 c-29 -6 -29 -7 8 -8 25 -1 36 3 32 10 -4 6 2 5 14 -3 32 -20 26 -28
-21 -29 -44 -1 -43 -3 5 -13 51 -12 28 -26 -40 -25 -120 2 -162 29 -79 51 48
13 58 23 29 31 -31 8 10 8 48 0z"/>
<path d="M7350 3454 c-89 -29 -97 -35 -110 -73 -16 -48 -1 -102 36 -125 23
-16 24 -16 25 6 1 17 2 19 6 6 5 -20 24 -25 21 -6 -2 7 10 14 25 17 28 6 28 6
-17 31 -45 24 -45 25 -23 37 l22 12 -22 1 c-37 0 -27 17 27 46 62 34 69 67 10
48z"/>
<path d="M7350 3330 c0 -19 3 -21 12 -12 9 9 9 15 0 24 -9 9 -12 7 -12 -12z"/>
<path d="M9983 3190 c-51 -21 -31 -82 38 -110 39 -16 41 -57 3 -66 -14 -4 -36
-2 -50 5 -19 8 -24 8 -24 -3 0 -31 80 -36 110 -6 35 35 21 65 -48 102 -57 30
-30 80 34 64 26 -7 33 8 8 18 -21 8 -44 7 -71 -4z"/>
<path d="M10125 3163 c-4 -13 -14 -23 -21 -23 -8 0 -14 -4 -14 -10 0 -5 7 -10
15 -10 12 0 15 -13 15 -59 0 -52 3 -61 21 -66 12 -4 26 -2 32 4 8 8 5 11 -11
11 -20 0 -22 5 -22 55 0 48 2 55 20 55 11 0 20 5 20 10 0 6 -9 10 -19 10 -12
0 -21 8 -24 23 l-4 22 -8 -22z"/>
<path d="M10473 3163 c-4 -10 -11 -22 -17 -26 -8 -6 -7 -10 2 -14 7 -3 12 -23
12 -49 0 -25 5 -54 10 -65 11 -20 50 -27 50 -9 0 6 -7 10 -15 10 -12 0 -15 13
-15 55 0 42 3 55 15 55 8 0 15 5 15 10 0 6 -7 10 -15 10 -8 0 -15 6 -15 14 0
23 -19 29 -27 9z"/>
<path d="M12526 3151 l-38 -18 32 -12 c46 -15 52 -14 40 9 -9 17 -7 22 12 30
13 5 16 9 8 9 -8 0 -32 -8 -54 -18z"/>
<path d="M7027 3119 l-27 -34 23 -3 c12 -2 27 -7 32 -12 13 -10 67 -24 83 -21
6 1 12 -3 12 -9 0 -5 11 -10 25 -10 14 0 25 5 25 11 0 5 24 20 52 32 l52 22
-38 10 c-25 7 -61 8 -100 3 -40 -6 -62 -5 -64 2 -2 5 -8 10 -14 10 -6 0 -16 7
-23 16 -10 15 -15 13 -38 -17z"/>
<path d="M12600 3141 c0 -5 7 -12 16 -15 14 -5 15 -4 4 9 -14 17 -20 19 -20 6z"/>
<path d="M4640 3131 c0 -5 5 -13 10 -16 6 -3 10 -2 10 4 0 5 -4 13 -10 16 -5
3 -10 2 -10 -4z"/>
<path d="M10228 3133 c-32 -8 -19 -20 19 -19 27 1 38 -3 41 -16 2 -11 -6 -18
-30 -23 -41 -9 -58 -22 -58 -45 0 -30 28 -45 61 -33 16 6 29 7 29 2 0 -5 5 -9
10 -9 14 0 13 123 -2 138 -12 12 -37 14 -70 5z m62 -92 c0 -31 -56 -44 -67
-15 -7 19 13 34 45 34 15 0 22 -6 22 -19z"/>
<path d="M10360 3065 c0 -43 4 -75 10 -75 6 0 10 21 10 46 0 55 14 84 40 84
11 0 20 5 20 10 0 15 -21 12 -42 -7 -17 -15 -18 -15 -18 0 0 10 -4 17 -10 17
-6 0 -10 -32 -10 -75z"/>
<path d="M3720 3117 c0 -19 37 -50 49 -42 17 10 13 33 -8 45 -27 14 -41 13
-41 -3z"/>
<path d="M4770 3099 c-7 -11 -9 -27 -6 -36 9 -22 36 3 36 33 0 30 -16 31 -30
3z"/>
<path d="M6365 3110 c3 -5 8 -10 11 -10 2 0 4 5 4 10 0 6 -5 10 -11 10 -5 0
-7 -4 -4 -10z"/>
<path d="M4682 3079 c2 -16 -6 -26 -32 -40 -19 -11 -42 -19 -52 -19 -9 0 -20
-9 -23 -20 -8 -25 -75 -30 -75 -5 0 8 -5 15 -11 15 -5 0 -7 -5 -3 -12 5 -8 0
-9 -17 -4 -76 24 -109 12 -51 -18 15 -8 38 -28 51 -44 14 -19 35 -32 57 -36
21 -4 34 -13 34 -22 0 -8 9 -24 20 -36 24 -26 26 -44 5 -52 -8 -3 -14 0 -12 7
1 7 -9 10 -28 9 -22 -2 -39 5 -58 22 -21 20 -40 26 -75 27 -26 1 -38 4 -27 6
11 3 26 10 34 16 7 6 20 12 28 13 28 4 26 14 -3 15 -82 4 -102 7 -114 14 -9 5
-11 4 -6 -3 12 -20 -4 -34 -20 -17 -17 17 -40 20 -49 6 -3 -5 -18 -7 -33 -4
-15 3 -34 6 -42 7 -9 1 -21 5 -28 10 -7 4 -31 8 -53 8 -49 0 -32 18 17 18 27
0 32 4 32 26 0 36 17 44 84 40 35 -2 58 0 58 7 0 12 -197 0 -219 -14 -12 -8
-10 -8 8 -3 16 4 21 3 17 -5 -10 -15 -33 -14 -60 4 -17 12 -44 15 -97 13 l-74
-3 -3 -60 c-4 -79 5 -128 23 -121 14 5 85 -14 85 -23 0 -8 88 -5 123 4 16 4
45 15 64 25 32 15 41 15 96 3 34 -8 72 -13 84 -10 19 3 21 1 13 -14 -7 -12 -6
-19 3 -22 9 -4 9 -7 0 -17 -10 -11 -14 -10 -19 3 -5 13 -10 14 -26 6 -15 -8
-33 -7 -70 6 -49 16 -52 16 -113 -9 -34 -14 -71 -22 -82 -20 -15 4 -22 0 -26
-16 -5 -20 -10 -21 -49 -15 -77 14 -260 12 -302 -2 -21 -7 -67 -13 -101 -13
l-63 0 -4 35 c-3 30 -1 36 17 41 12 3 25 4 31 3 25 -4 64 2 59 10 -3 6 1 13 8
18 7 4 21 25 31 46 9 20 21 35 25 32 10 -6 22 26 27 73 3 36 -2 39 -28 15 -27
-24 -89 -27 -106 -5 -12 15 -42 17 -305 20 -688 7 -743 7 -837 -6 -52 -7 -111
-13 -130 -13 -76 -1 -260 -2 -350 -2 -52 0 -128 1 -168 3 -69 4 -71 5 -45 18
24 13 25 15 8 24 -30 17 -117 2 -139 -24 -18 -22 -25 -23 -195 -26 -97 -1
-183 -2 -191 -3 -8 0 -39 5 -67 11 -42 9 -61 8 -96 -4 -31 -10 -78 -13 -177
-11 -74 2 -232 4 -350 4 -118 -1 -284 -1 -368 -1 l-152 0 0 -58 0 -59 48 -8
c26 -4 54 -7 62 -5 8 1 26 -1 38 -4 19 -4 21 -8 12 -19 -8 -10 -8 -15 1 -20 8
-6 7 -10 -5 -17 -9 -5 -16 -16 -16 -23 0 -8 -6 -15 -14 -15 -23 0 -77 26 -69
33 3 4 -8 7 -25 7 l-32 0 0 -524 0 -524 32 -5 c18 -2 45 1 59 9 19 10 29 10
37 2 9 -9 18 -8 37 2 20 11 31 11 44 3 22 -14 113 -10 195 8 45 9 63 10 77 1
12 -8 19 -8 19 -2 0 5 15 24 32 41 28 26 38 30 67 25 37 -6 98 15 106 36 3 8
25 14 55 14 41 2 50 -1 56 -18 5 -16 11 -19 32 -13 43 11 122 13 128 4 3 -5
22 -6 42 -3 33 5 42 2 76 -30 21 -19 48 -36 60 -38 12 -2 20 -9 19 -16 -4 -19
42 -44 70 -37 17 5 28 2 34 -8 4 -8 25 -20 45 -26 29 -10 41 -9 57 1 17 10 25
10 41 0 12 -7 25 -10 30 -7 5 3 12 -5 16 -19 8 -32 24 -37 68 -24 30 9 36 16
36 39 0 32 21 43 47 24 26 -20 57 -18 77 4 17 18 16 26 -22 160 l-40 141 37 0
37 0 33 -129 c18 -70 36 -133 40 -139 15 -25 35 12 70 134 l37 129 36 3 35 3
17 -68 c38 -154 34 -146 64 -138 39 9 41 14 66 111 l22 89 36 3 36 3 -20 -68
c-34 -122 -37 -150 -18 -168 27 -24 47 -18 60 20 35 107 179 138 261 56 35
-35 78 -61 99 -61 6 0 10 23 10 50 l0 50 35 0 c29 0 35 -4 35 -21 0 -20 1 -20
31 6 40 33 73 30 77 -7 3 -25 0 -28 -27 -28 -32 0 -71 -30 -71 -54 0 -18 46
-26 82 -14 20 7 32 7 42 -1 21 -18 26 7 26 140 l0 119 30 0 29 0 3 -111 c3
-107 4 -112 26 -120 20 -8 29 -3 60 32 63 70 125 88 175 49 14 -11 28 -20 31
-20 3 0 6 38 6 85 l0 85 30 0 30 0 0 -127 c0 -71 4 -134 9 -141 11 -18 53 -22
103 -10 33 7 48 5 84 -13 30 -14 44 -27 44 -40 0 -11 7 -22 16 -26 10 -3 14
-13 11 -25 -4 -12 -1 -18 6 -15 7 2 26 -1 44 -9 29 -11 33 -11 46 9 11 17 23
21 58 20 70 -3 106 13 113 48 5 26 10 30 33 27 23 -2 28 -8 28 -30 1 -16 -4
-28 -10 -29 -5 -1 -21 -2 -35 -2 -19 -2 -25 -8 -25 -26 0 -13 -7 -27 -15 -31
-52 -26 -95 -40 -121 -40 -41 0 -69 -17 -69 -41 0 -18 4 -20 25 -15 21 5 25 3
25 -14 0 -12 4 -19 9 -15 5 3 16 -2 24 -10 9 -8 24 -15 34 -15 11 0 24 -5 30
-11 8 -8 20 -6 43 6 29 15 32 20 27 51 -5 30 -3 36 18 44 28 11 39 26 25 35
-16 10 -11 34 9 45 21 11 71 -5 71 -22 0 -4 11 -8 23 -8 13 0 27 -3 31 -7 14
-14 46 -13 46 2 0 22 41 19 47 -4 6 -22 56 -48 61 -32 2 6 21 11 43 11 29 0
45 -6 61 -25 26 -30 34 -31 41 -5 3 12 14 20 25 20 11 0 22 5 24 11 3 9 11 8
28 -2 14 -7 28 -12 33 -11 4 1 7 -9 7 -23 0 -14 5 -25 10 -25 7 0 7 -6 0 -19
-18 -34 -13 -52 13 -46 14 4 30 -1 44 -15 12 -11 25 -20 29 -20 19 0 84 37 84
48 0 15 12 16 27 1 8 -8 13 -8 17 0 13 20 38 12 36 -11 -3 -36 -1 -48 10 -48
5 0 9 27 9 60 -1 57 -2 60 -23 53 -11 -4 -34 -8 -51 -8 -16 -1 -38 -5 -48 -9
-26 -12 -40 6 -23 29 12 16 16 17 30 6 10 -8 16 -9 16 -3 0 6 -5 14 -10 17
-20 12 0 22 39 20 22 -1 38 2 35 6 -3 5 1 9 9 9 7 0 14 8 14 18 0 17 -14 32
-32 32 -5 0 -3 -5 5 -10 24 -16 -2 -10 -45 10 -42 19 -37 22 35 22 l35 -1 -30
9 c-30 8 -30 8 -3 9 28 1 38 15 30 43 -3 14 -9 14 -55 -6 -58 -25 -255 -71
-264 -62 -4 3 -1 6 6 6 7 0 9 5 6 10 -4 6 11 10 37 10 24 0 54 3 67 7 23 6 23
7 5 14 -13 5 -6 8 26 9 58 3 58 3 103 18 39 14 41 32 4 32 -18 0 -19 -2 -7
-10 11 -7 8 -10 -15 -10 l-30 1 21 18 c20 16 20 19 5 30 -9 6 5 0 30 -14 51
-28 74 -33 44 -10 -11 8 -31 24 -45 35 l-25 21 35 -21 c55 -32 63 -28 58 30
-3 27 -1 47 4 44 6 -4 12 184 7 222 -1 9 54 78 73 92 10 7 18 19 18 27 0 9 6
12 15 9 8 -4 15 -1 15 5 0 6 6 11 13 11 7 0 20 9 30 20 10 12 23 18 29 14 6
-4 8 -3 5 3 -4 6 5 15 18 21 23 10 36 34 18 31 -23 -4 -40 3 -40 15 0 12 5 13
20 4 15 -7 22 -7 28 3 13 21 11 29 -6 23 -8 -4 -15 -1 -15 5 0 6 -11 11 -24
11 -14 0 -27 4 -30 8 -3 5 9 6 25 4 21 -3 34 1 45 14 10 14 13 15 8 3 -6 -18
22 -34 31 -19 4 6 1 10 -6 10 -7 0 -9 3 -5 7 4 5 12 8 17 8 5 0 8 5 7 10 -2 6
-9 9 -15 9 -7 -1 -13 2 -13 7 0 5 5 9 10 9 6 0 10 9 10 21 0 15 -4 19 -16 15
-9 -3 -22 -6 -30 -6 -9 0 -12 -5 -8 -12 5 -7 2 -8 -7 -3 -25 15 -49 38 -49 48
0 6 11 0 25 -13 14 -13 25 -18 25 -12 0 7 13 12 29 12 36 0 46 13 25 31 -18
15 -54 83 -54 101 1 7 7 -2 15 -19 8 -19 22 -33 32 -34 11 0 13 -3 5 -6 -9 -3
-7 -12 8 -32 11 -16 17 -31 14 -34 -3 -3 3 -3 14 0 23 6 43 46 44 91 1 17 5
29 9 26 4 -2 15 6 23 18 18 26 20 38 6 38 -5 0 -10 -10 -10 -22 0 -18 -7 -12
-35 29 -19 28 -39 54 -45 58 -6 3 -8 11 -5 16 4 5 -10 9 -29 9 -20 0 -36 -5
-36 -10 0 -6 -6 -5 -14 2 -8 7 -12 16 -10 20 6 9 -18 48 -28 48 -4 0 -5 -6 -3
-12 3 -7 -4 -24 -14 -38 -25 -31 -44 -17 -60 45 -11 46 -7 74 13 76 6 1 -2 4
-19 8 -22 5 -7 9 59 15 96 8 126 18 126 41 0 12 -9 14 -41 9 -30 -5 -43 -3
-50 7 -6 11 -14 9 -39 -10 -20 -14 -38 -20 -48 -16 -15 6 -15 8 3 15 11 4 31
20 44 34 23 25 23 26 4 26 -11 0 -23 3 -27 7 -4 4 -23 8 -43 10 -45 3 -50 8
-29 32 15 17 15 19 1 25 -25 9 -27 8 -23 -15z m-13 -145 c7 -10 2 -6 -13 9
-14 15 -26 36 -25 45 0 12 4 9 12 -9 7 -14 18 -35 26 -45z m-629 46 c0 -5 -7
-10 -16 -10 -8 0 -12 5 -9 10 3 6 10 10 16 10 5 0 9 -4 9 -10z m-3156 -84 c-3
-17 -13 -39 -21 -48 -23 -26 -8 -56 33 -64 36 -7 41 -13 22 -32 -13 -13 -63
-15 -93 -3 -11 5 -28 5 -37 0 -26 -14 -96 -20 -103 -10 -3 5 5 12 17 16 65 18
78 27 78 55 0 25 -3 28 -32 26 -23 -1 -33 4 -36 15 -2 11 3 16 15 15 18 -1 20
6 8 36 -8 20 8 24 93 24 l63 0 -7 -30z m930 -26 c23 -9 26 -13 16 -25 -21 -25
-110 -13 -110 15 0 20 31 40 48 30 9 -6 30 -15 46 -20z m-467 -30 c-1 -16 -9
-19 -54 -19 -29 1 -56 5 -59 10 -4 8 26 14 49 10 5 -1 6 3 2 9 -9 14 37 30 52
18 6 -5 11 -18 10 -28z m333 20 c0 -5 -7 -10 -15 -10 -8 0 -15 5 -15 10 0 6 7
10 15 10 8 0 15 -4 15 -10z m-132 -16 c12 -8 22 -22 22 -30 0 -8 4 -14 10 -14
17 0 -1 -28 -21 -33 -11 -3 -34 -1 -50 5 -24 8 -29 15 -29 43 0 31 4 36 40 44
3 0 16 -6 28 -15z m82 4 c0 -4 -9 -8 -20 -8 -11 0 -20 4 -20 9 0 6 9 9 20 8
11 -1 20 -5 20 -9z m362 -10 c51 -23 49 -38 -4 -38 -16 0 -28 -4 -28 -9 0 -5
-9 -11 -20 -14 -11 -3 -20 -1 -20 4 0 5 6 9 14 9 7 0 19 6 25 13 8 11 5 16
-14 25 -26 12 -34 32 -13 32 6 0 33 -10 60 -22z m1548 3 c0 -12 -20 -25 -27
-18 -7 7 6 27 18 27 5 0 9 -4 9 -9z m-2108 -16 c0 -5 4 -20 9 -32 6 -18 5 -23
-6 -23 -8 0 -15 7 -15 16 0 9 -5 12 -12 8 -7 -4 -8 -3 -4 5 4 6 13 8 19 4 7
-3 3 4 -8 16 -18 21 -19 23 -2 20 10 -2 18 -8 19 -14z m1081 -2 c-7 -2 -21 -2
-30 0 -10 3 -4 5 12 5 17 0 24 -2 18 -5z m1907 -12 c0 -14 -18 -23 -30 -16 -6
4 -8 11 -5 16 8 12 35 12 35 0z m-2202 -8 c-9 -2 -20 -20 -25 -41 -7 -28 -14
-36 -29 -35 -51 6 -100 12 -105 12 -4 1 -9 12 -11 26 -5 23 -2 25 26 24 32 -1
108 10 115 17 2 2 14 3 25 3 16 -1 17 -2 4 -6z m657 -18 c30 -12 135 -13 175
0 12 4 45 -1 75 -10 31 -10 67 -15 84 -12 19 4 33 1 41 -8 16 -20 49 -19 71 1
20 18 99 27 131 15 21 -8 21 -8 -5 -15 -17 -4 -27 -13 -27 -24 0 -14 -8 -18
-32 -18 -70 0 -143 -8 -149 -16 -6 -10 -235 -15 -245 -5 -4 3 -11 4 -17 0 -5
-3 -57 -6 -116 -7 -58 -1 -116 -5 -127 -10 -20 -7 -22 -4 -26 41 -3 26 -3 54
0 61 6 17 39 15 46 -4 5 -14 9 -13 32 4 32 23 50 24 89 7z m-422 -7 c12 -7 25
-17 29 -23 5 -7 8 -7 8 0 0 9 32 15 105 19 28 1 30 -2 33 -37 3 -35 2 -38 -16
-28 -11 6 -21 8 -24 6 -12 -12 -147 -21 -233 -15 -27 1 -60 -1 -72 -5 -19 -6
-23 -4 -23 14 0 12 5 31 11 42 9 17 18 20 59 16 27 -3 54 -8 60 -12 6 -3 10
-3 9 2 -4 21 2 33 16 33 8 0 25 -6 38 -12z m2420 -85 c-8 -52 -13 -54 -13 -5
0 23 4 42 9 42 6 0 7 -17 4 -37z m-16 -139 c-3 -3 -12 -4 -19 -1 -8 3 -5 6 6
6 11 1 17 -2 13 -5z m-57 -69 c7 -9 8 -15 2 -15 -5 0 -12 7 -16 15 -3 8 -4 15
-2 15 2 0 9 -7 16 -15z m0 -145 c-8 -5 -19 -10 -25 -10 -5 0 -3 5 5 10 8 5 20
10 25 10 6 0 3 -5 -5 -10z m34 -53 c-2 -7 -14 -19 -27 -26 -21 -13 -21 -12 2
13 27 29 33 32 25 13z m-1186 -556 c11 -7 11 -9 -1 -14 -16 -6 -27 0 -27 15 0
10 11 10 28 -1z m-8 -40 c0 -6 -4 -12 -9 -15 -13 -8 -42 4 -35 15 7 12 44 12
44 0z m390 -6 c-11 -13 -8 -15 15 -15 20 0 26 -4 23 -17 -2 -10 -9 -18 -16
-17 -6 1 -25 2 -42 3 -16 0 -30 5 -30 11 0 16 33 50 48 50 12 0 12 -3 2 -15z
m210 -75 c0 -5 -4 -10 -10 -10 -5 0 -10 5 -10 10 0 6 5 10 10 10 6 0 10 -4 10
-10z m190 -40 c0 -5 -7 -10 -15 -10 -8 0 -15 5 -15 10 0 6 7 10 15 10 8 0 15
-4 15 -10z m-670 -25 c0 -16 -27 -32 -37 -22 -3 4 -3 13 0 22 8 20 37 20 37 0z"/>
<path d="M3685 3070 c3 -5 8 -10 11 -10 2 0 4 5 4 10 0 6 -5 10 -11 10 -5 0
-7 -4 -4 -10z"/>
<path d="M3727 3000 c-7 -25 7 -34 23 -15 7 8 18 15 26 15 7 0 16 5 19 10 4 6
-8 10 -28 10 -26 0 -36 -5 -40 -20z"/>
<path d="M8790 3003 c-19 -9 -40 -15 -46 -14 -7 1 -11 -6 -10 -15 0 -9 -4 -19
-10 -21 -7 -2 -11 4 -10 13 1 11 -8 17 -27 20 -24 2 -26 0 -17 -11 7 -8 16
-12 21 -9 5 3 9 1 9 -5 0 -6 -25 -9 -67 -6 -38 3 -88 5 -112 5 -25 0 -51 6
-58 12 -11 9 -13 8 -11 -2 2 -7 -6 -16 -18 -19 -13 -4 -20 -13 -18 -23 1 -10
-4 -18 -12 -18 -8 0 -14 -5 -14 -10 0 -15 242 -4 314 14 33 8 63 13 67 10 4
-2 10 2 13 8 5 10 7 10 12 1 3 -7 10 -13 15 -13 6 0 7 5 4 10 -4 6 4 6 19 -1
22 -10 23 -13 10 -26 -11 -12 -12 -18 -3 -29 23 -28 -32 -61 -95 -56 -14 2
-16 5 -8 15 6 7 7 18 2 26 -9 16 -103 33 -108 20 -2 -5 -10 -9 -17 -9 -15 0
-24 -19 -18 -37 3 -8 15 -10 34 -6 41 8 37 -13 -6 -31 -19 -8 -35 -20 -35 -25
0 -6 -11 -11 -25 -11 -18 0 -23 -4 -19 -15 4 -10 0 -15 -15 -15 -12 0 -21 -5
-21 -11 0 -6 -7 -8 -16 -5 -11 4 -14 1 -9 -13 6 -21 -31 -51 -65 -51 -17 0
-20 4 -15 20 5 15 -1 24 -24 38 -17 9 -31 22 -31 27 0 6 -4 4 -9 -3 -6 -11
-14 -8 -35 14 -31 34 -32 41 -6 49 21 7 50 57 50 87 0 21 -16 24 -27 4 -17
-28 -47 -27 -76 4 -35 36 -56 38 -86 6 -29 -31 -68 -38 -98 -19 -21 14 -26 14
-41 1 -24 -20 -69 -38 -95 -38 -18 1 -15 5 16 21 31 16 35 22 25 33 -7 8 -15
10 -18 6 -3 -5 -19 -12 -35 -16 -27 -7 -29 -6 -16 9 7 9 17 15 21 12 5 -3 11
-1 15 5 12 19 -75 11 -118 -11 -44 -23 -186 -41 -157 -20 16 12 2 15 -24 5
-13 -5 -13 -8 2 -24 10 -10 38 -28 64 -39 40 -17 49 -18 65 -6 10 8 14 15 8
15 -5 0 -4 4 4 9 17 11 61 -14 61 -34 0 -14 25 -27 34 -18 3 3 -2 12 -12 19
-15 12 -15 15 -2 23 18 12 63 -26 56 -45 -3 -7 5 -15 17 -17 12 -2 -4 -5 -35
-6 -34 0 -58 -6 -58 -12 0 -13 -39 -2 -58 17 -20 20 -27 17 -30 -11 -2 -23 2
-25 41 -27 l42 -1 -50 -7 c-47 -6 -49 -7 -25 -17 14 -7 19 -12 12 -12 -10 -1
-9 -9 4 -33 31 -59 32 -65 24 -78 -9 -15 -2 -42 10 -35 4 3 29 2 56 -2 42 -5
45 -7 24 -15 -13 -5 -29 -7 -36 -4 -8 3 -11 -1 -7 -10 3 -9 13 -13 27 -9 11 2
15 2 8 -1 -17 -8 -5 -24 18 -24 12 0 17 -5 14 -13 -2 -7 10 -21 26 -31 17 -10
29 -20 26 -23 -2 -3 -20 7 -39 21 -26 20 -37 24 -43 15 -7 -11 5 -22 21 -20 3
1 34 -26 69 -60 87 -83 123 -160 171 -369 10 -41 24 -102 31 -135 8 -33 16
-71 18 -85 2 -14 7 -36 10 -50 4 -14 13 -56 21 -95 7 -38 16 -77 19 -85 2 -8
7 -27 10 -41 8 -37 30 -42 73 -18 29 17 41 19 55 10 28 -18 39 -13 32 14 -8
32 6 32 36 0 29 -31 36 -31 43 -4 5 17 11 20 31 15 14 -3 27 -2 30 3 4 5 90 8
199 7 l192 -2 95 -35 c113 -42 159 -59 183 -66 16 -5 17 35 17 736 0 586 -3
741 -12 741 -7 0 -31 -5 -53 -10 -54 -12 -66 3 -24 30 22 13 44 19 62 16 24
-5 27 -3 27 23 0 27 -3 29 -45 33 -31 2 -45 -1 -45 -9 0 -17 -42 -17 -59 0
-11 10 -14 10 -18 0 -5 -15 -33 -18 -33 -4 0 5 -12 8 -27 7 -16 -2 -39 2 -53
9 -19 9 -35 9 -70 0 -34 -9 -40 -13 -25 -17 19 -5 19 -6 -1 -7 -12 0 -25 7
-30 18 -9 19 -11 19 -44 4z m32 -25 c-7 -7 -12 -8 -12 -2 0 14 12 26 19 19 2
-3 -1 -11 -7 -17z m-296 -43 c18 -14 17 -14 -11 -13 -39 2 -50 8 -34 19 19 12
22 11 45 -6z m507 -29 c31 1 57 -2 57 -7 0 -5 -7 -9 -15 -9 -7 0 -18 -6 -22
-14 -5 -9 -26 -15 -53 -16 -81 -3 -82 -3 -75 28 6 27 4 28 -26 24 -23 -3 -30
-1 -24 7 4 7 13 10 21 7 8 -3 14 -1 14 5 0 6 15 2 33 -8 23 -14 48 -19 90 -17z
m-925 -144 c53 3 57 1 60 -20 4 -29 -14 -35 -74 -25 -40 7 -55 5 -81 -10 l-31
-18 5 23 c7 26 33 70 48 80 6 4 11 -1 13 -13 3 -19 9 -20 60 -17z m-165 -27
c8 -18 -11 -31 -25 -17 -11 11 -3 32 12 32 4 0 10 -7 13 -15z m-76 -9 c0 -8
-6 -12 -14 -9 -7 3 -13 9 -13 14 0 5 6 9 13 9 8 0 14 -6 14 -14z m-3 -72 c4
-9 4 -19 1 -22 -7 -8 -35 19 -29 29 8 14 21 11 28 -7z m-4 -74 c0 -5 -4 -10
-9 -10 -5 0 -18 -3 -28 -6 -16 -6 -16 -5 2 9 23 19 35 21 35 7z m200 -114 c0
-2 -7 -7 -16 -10 -8 -3 -12 -2 -9 4 6 10 25 14 25 6z"/>
<path d="M4948 2981 c-4 -27 -2 -29 15 -20 10 6 25 8 33 5 9 -3 12 -2 9 5 -4
6 2 13 14 16 31 8 17 19 -27 21 -37 2 -40 -1 -44 -27z m47 9 c-3 -5 -12 -10
-18 -10 -7 0 -6 4 3 10 19 12 23 12 15 0z"/>
<path d="M5069 2993 c-13 -16 -12 -17 4 -4 16 13 21 21 13 21 -2 0 -10 -8 -17
-17z"/>
<path d="M5102 2998 c-7 -7 -12 -16 -12 -21 0 -5 7 -1 16 8 9 9 14 18 12 20
-2 3 -10 -1 -16 -7z"/>
<path d="M8537 2989 c13 -13 48 -15 51 -4 1 6 -12 10 -28 11 -17 1 -27 -3 -23
-7z"/>
<path d="M8606 2984 c-9 -23 -8 -25 12 -22 23 4 34 21 19 30 -18 11 -24 10
-31 -8z"/>
<path d="M6979 2977 c-20 -4 -48 -21 -63 -36 l-26 -27 34 4 c27 3 40 -2 67
-27 37 -33 34 -35 -37 -31 -49 2 -49 -16 1 -35 67 -26 151 -17 198 20 47 38
47 48 0 40 -25 -4 -44 -1 -57 8 -16 12 -15 13 17 9 19 -2 45 2 58 9 13 7 26
14 29 14 14 2 39 22 42 33 5 20 -75 23 -147 6 -74 -17 -82 -17 -67 -2 26 26
12 30 -49 15z"/>
<path d="M4256 2963 c-3 -3 -3 -10 0 -14 7 -12 34 -11 34 0 0 11 -26 22 -34
14z"/>
<path d="M5064 2935 c1 -20 8 -40 16 -45 8 -5 10 -10 5 -10 -6 0 -11 -9 -12
-21 -2 -27 21 -19 25 9 2 13 -3 25 -12 28 -9 3 -16 10 -16 16 0 5 6 6 13 2 9
-6 9 -4 -1 8 -9 11 -10 18 -2 23 6 3 8 11 5 16 -13 19 -22 8 -21 -26z"/>
<path d="M8272 2954 c8 -8 29 -16 46 -17 18 -1 32 -5 32 -9 0 -15 28 -8 34 9
7 18 -15 38 -24 22 -4 -5 -24 -6 -54 0 -42 8 -46 7 -34 -5z"/>
<path d="M5020 2949 c0 -5 5 -7 10 -4 6 3 10 8 10 11 0 2 -4 4 -10 4 -5 0 -10
-5 -10 -11z"/>
<path d="M4977 2935 c3 -8 9 -12 14 -9 12 7 11 11 -5 17 -10 4 -13 1 -9 -8z"/>
<path d="M7695 2939 c-5 -5 -19 -16 -30 -24 -18 -13 -17 -14 13 -4 17 6 32 17
32 25 0 16 -1 17 -15 3z"/>
<path d="M5021 2931 c-12 -8 -13 -18 -5 -48 13 -52 28 -48 32 10 3 48 -1 54
-27 38z"/>
<path d="M5096 2927 c3 -10 9 -15 12 -12 3 3 0 11 -7 18 -10 9 -11 8 -5 -6z"/>
<path d="M7711 2914 c-26 -19 -30 -25 -18 -30 9 -3 31 1 48 10 18 9 40 16 51
16 22 0 24 16 2 24 -27 10 -48 5 -83 -20z"/>
<path d="M4965 2861 c0 -57 3 -66 19 -69 14 -3 15 -6 6 -12 -8 -5 -9 -10 -1
-14 6 -4 16 3 22 17 9 20 7 32 -10 66 -12 23 -20 45 -17 49 2 4 -1 12 -8 18
-8 7 -11 -7 -11 -55z"/>
<path d="M7430 2915 c0 -8 5 -15 11 -15 5 0 8 -4 5 -9 -3 -5 2 -12 11 -15 10
-4 14 -4 11 0 -4 4 -2 16 4 28 6 11 7 18 3 14 -4 -4 -16 -3 -26 3 -15 7 -19 6
-19 -6z"/>
<path d="M4780 2891 c0 -5 7 -14 15 -21 8 -7 15 -19 15 -26 0 -24 30 -15 40
12 16 40 13 44 -30 44 -22 0 -40 -4 -40 -9z"/>
<path d="M4876 2878 c-6 -26 7 -44 24 -33 8 5 8 10 0 20 -7 8 -9 19 -5 25 3 5
2 10 -3 10 -5 0 -12 -10 -16 -22z"/>
<path d="M7478 2860 c-10 -15 -16 -17 -32 -8 -20 10 -20 10 -4 -8 18 -21 74
-32 63 -13 -4 6 2 5 14 -3 16 -10 23 -10 33 0 9 9 8 12 -6 12 -9 0 -15 4 -11
9 6 10 -11 24 -33 27 -7 1 -18 -6 -24 -16z m47 0 c3 -5 -1 -10 -10 -10 -9 0
-13 5 -10 10 3 6 8 10 10 10 2 0 7 -4 10 -10z"/>
<path d="M7649 2814 c11 -15 18 -31 15 -36 -7 -11 13 -28 32 -28 7 0 15 7 18
16 3 8 2 13 -2 10 -4 -2 -14 -1 -22 5 -10 6 -11 9 -2 9 22 0 13 19 -18 35 -41
21 -45 19 -21 -11z"/>
<path d="M9985 2770 c20 -40 35 -84 35 -105 0 -19 5 -35 10 -35 6 0 10 20 10
45 0 32 9 61 31 101 17 30 29 58 25 61 -8 8 -8 8 -43 -55 l-30 -53 -24 55
c-13 31 -30 56 -37 56 -8 0 1 -26 23 -70z"/>
<path d="M5075 2820 c-3 -5 -1 -10 4 -10 6 0 11 5 11 10 0 6 -2 10 -4 10 -3 0
-8 -4 -11 -10z"/>
<path d="M8473 2823 c-29 -10 -11 -29 28 -30 33 -2 39 1 29 11 -13 16 -40 25
-57 19z"/>
<path d="M4925 2780 c-3 -5 -1 -10 4 -10 6 0 11 5 11 10 0 6 -2 10 -4 10 -3 0
-8 -4 -11 -10z"/>
<path d="M5006 2758 c-14 -18 -25 -27 -23 -19 1 7 -4 16 -11 18 -15 6 3 -34
33 -72 15 -19 16 -19 43 9 15 16 22 26 16 22 -7 -3 -14 2 -17 12 -2 9 -8 26
-13 36 -5 15 -4 17 6 11 9 -5 11 -4 6 3 -10 16 -10 16 -40 -20z"/>
<path d="M8340 2780 c0 -5 5 -10 11 -10 5 0 7 5 4 10 -3 6 -8 10 -11 10 -2 0
-4 -4 -4 -10z"/>
<path d="M10126 2759 c-34 -27 -36 -77 -3 -107 48 -46 117 -14 117 53 0 67
-61 96 -114 54z m82 -11 c7 -7 12 -26 12 -43 0 -37 -15 -55 -46 -55 -29 0 -54
25 -54 55 0 45 58 73 88 43z"/>
<path d="M10280 2722 c0 -47 4 -63 21 -77 17 -16 25 -17 50 -8 16 6 29 7 29 2
0 -5 5 -9 10 -9 6 0 10 32 10 75 0 43 -4 75 -10 75 -5 0 -10 -24 -10 -53 0
-55 -12 -77 -42 -77 -24 0 -38 30 -38 84 0 25 -4 46 -10 46 -6 0 -10 -26 -10
-58z"/>
<path d="M10460 2705 c0 -88 18 -102 22 -17 3 48 7 59 26 67 12 5 22 13 22 17
0 12 -25 9 -38 -4 -9 -9 -12 -9 -12 0 0 7 -4 12 -10 12 -6 0 -10 -32 -10 -75z"/>
<path d="M7725 2750 c3 -5 8 -10 11 -10 2 0 4 5 4 10 0 6 -5 10 -11 10 -5 0
-7 -4 -4 -10z"/>
<path d="M7415 2701 c4 -3 14 -6 22 -6 9 0 18 -6 20 -13 3 -8 -1 -10 -14 -6
-14 6 -15 4 -6 -6 9 -10 16 -9 33 3 l21 14 -23 8 c-31 10 -60 14 -53 6z"/>
<path d="M7190 2697 c0 -3 12 -12 26 -22 15 -9 23 -12 20 -6 -7 11 -46 35 -46
28z"/>
<path d="M7530 2668 c0 -9 -6 -19 -12 -21 -7 -3 -8 -6 -3 -6 6 0 17 4 25 9 12
7 12 12 2 22 -9 9 -12 9 -12 -4z"/>
<path d="M7578 2620 c-7 -11 -16 -20 -21 -20 -4 0 -6 4 -2 9 3 6 -7 6 -27 0
-18 -5 -33 -9 -34 -9 -8 0 3 -31 12 -34 9 -3 11 1 7 11 -5 12 -2 15 10 10 10
-4 17 -2 17 5 0 7 5 6 15 -2 8 -7 12 -16 9 -21 -9 -15 13 -10 30 6 8 8 19 15
25 15 6 0 11 5 11 11 0 7 -10 5 -25 -5 -27 -18 -35 -20 -35 -8 0 5 11 15 25
22 28 15 33 30 10 30 -8 0 -20 -9 -27 -20z"/>
<path d="M7657 2633 c-4 -3 -7 -11 -7 -17 0 -6 5 -5 12 2 6 6 9 14 7 17 -3 3
-9 2 -12 -2z"/>
<path d="M7760 2618 c0 -16 5 -28 10 -28 13 0 13 20 0 40 -8 12 -10 9 -10 -12z"/>
<path d="M5020 2559 c0 -5 5 -7 10 -4 6 3 10 8 10 11 0 2 -4 4 -10 4 -5 0 -10
-5 -10 -11z"/>
<path d="M7699 2553 c-13 -16 -12 -17 4 -4 9 7 17 15 17 17 0 8 -8 3 -21 -13z"/>
<path d="M7745 2560 c-3 -5 -1 -10 4 -10 6 0 11 5 11 10 0 6 -2 10 -4 10 -3 0
-8 -4 -11 -10z"/>
<path d="M7782 2508 c-17 -17 -15 -28 4 -28 9 0 14 -6 11 -13 -4 -10 3 -12 24
-9 16 2 29 8 29 12 0 5 -8 7 -17 5 -19 -3 -43 12 -43 25 0 5 9 6 20 3 11 -3
20 0 20 6 0 15 -33 14 -48 -1z"/>
<path d="M4940 2468 c0 -7 4 -19 9 -27 7 -11 11 -10 20 6 5 11 7 23 4 27 -11
11 -33 7 -33 -6z"/>
<path d="M4986 2451 c-4 -7 -5 -15 -2 -18 9 -9 19 4 14 18 -4 11 -6 11 -12 0z"/>
<path d="M10455 2445 c-5 -11 -13 -24 -19 -28 -8 -6 -7 -10 2 -14 7 -3 12 -24
12 -57 0 -54 12 -76 42 -76 24 0 23 16 -2 23 -17 4 -20 14 -20 56 0 44 3 51
20 51 11 0 20 5 20 10 0 6 -9 10 -19 10 -12 0 -21 8 -24 23 -3 21 -4 21 -12 2z"/>
<path d="M7125 2425 c-40 -14 -40 -14 -5 -9 19 4 39 10 45 15 11 11 10 11 -40
-6z"/>
<path d="M9980 2345 c0 -43 4 -75 10 -75 6 0 10 22 10 48 0 58 17 85 51 80 22
-3 24 -8 27 -65 4 -83 22 -81 22 2 0 61 -2 66 -26 77 -20 9 -30 9 -47 -1 -15
-10 -22 -11 -25 -2 -2 6 -8 11 -13 11 -5 0 -9 -34 -9 -75z"/>
<path d="M10162 2397 c-60 -64 15 -164 84 -112 17 13 16 14 -20 8 -31 -5 -42
-2 -52 12 -22 30 -17 35 42 35 l56 0 -6 28 c-14 54 -67 69 -104 29z m78 -17
c10 -19 8 -20 -35 -20 -43 0 -45 1 -35 20 6 12 21 20 35 20 14 0 29 -8 35 -20z"/>
<path d="M10299 2403 c5 -10 16 -27 24 -38 13 -17 13 -22 -2 -45 -29 -41 -33
-50 -21 -50 5 0 19 14 30 32 l19 32 18 -32 c10 -18 24 -32 31 -32 14 0 7 17
-21 55 -13 17 -13 22 2 45 29 42 33 50 21 50 -6 0 -19 -13 -28 -30 -21 -37
-27 -37 -42 0 -7 17 -19 30 -27 30 -10 0 -11 -5 -4 -17z"/>
<path d="M7058 2403 c7 -3 16 -2 19 1 4 3 -2 6 -13 5 -11 0 -14 -3 -6 -6z"/>
<path d="M6800 2354 c-70 -18 -85 -25 -40 -19 44 6 67 12 105 24 49 15 -3 12
-65 -5z"/>
<path d="M4917 2353 c-4 -3 -7 -13 -7 -21 0 -12 3 -12 15 -2 8 7 15 16 15 21
0 11 -14 12 -23 2z"/>
<path d="M5653 2333 c15 -2 37 -2 50 0 12 2 0 4 -28 4 -27 0 -38 -2 -22 -4z"/>
<path d="M6585 2300 c-18 -8 -18 -9 5 -9 14 0 34 4 45 9 18 8 18 9 -5 9 -14 0
-34 -4 -45 -9z"/>
<path d="M6540 2279 c0 -5 5 -7 10 -4 6 3 10 8 10 11 0 2 -4 4 -10 4 -5 0 -10
-5 -10 -11z"/>
<path d="M9778 2033 c-3 -80 -5 -89 -25 -98 -28 -12 -30 -25 -5 -25 39 0 52
31 52 123 0 114 -18 113 -22 0z"/>
<path d="M9870 2040 c-43 -43 -13 -130 44 -130 13 0 35 9 50 21 52 41 23 129
-44 129 -17 0 -39 -9 -50 -20z m84 -16 c34 -33 9 -94 -38 -94 -31 0 -46 18
-46 55 0 17 5 36 12 43 17 17 54 15 72 -4z"/>
<path d="M10030 2001 c0 -80 28 -109 81 -81 13 7 19 7 19 0 0 -5 5 -10 10 -10
6 0 10 32 10 75 0 43 -4 75 -10 75 -5 0 -10 -21 -10 -46 0 -54 -14 -84 -38
-84 -30 0 -42 22 -42 77 0 29 -4 53 -10 53 -6 0 -10 -26 -10 -59z"/>
<path d="M10200 1985 c0 -43 4 -75 10 -75 6 0 10 21 10 46 0 55 14 84 40 84
11 0 20 5 20 10 0 15 -21 12 -42 -7 -17 -15 -18 -15 -18 0 0 10 -4 17 -10 17
-6 0 -10 -32 -10 -75z"/>
<path d="M10310 1985 c0 -43 4 -75 10 -75 6 0 10 24 10 53 0 55 12 77 42 77
24 0 38 -30 38 -84 0 -25 5 -46 10 -46 6 0 10 26 10 58 0 47 -4 63 -21 77 -17
16 -25 17 -50 8 -16 -6 -29 -7 -29 -2 0 5 -4 9 -10 9 -6 0 -10 -32 -10 -75z"/>
<path d="M10489 2039 c-30 -30 -23 -98 12 -118 15 -9 36 -11 52 -7 37 9 34 24
-3 18 -32 -5 -60 11 -60 34 0 10 14 14 50 14 46 0 50 2 50 23 0 52 -63 74
-101 36z m79 -21 c3 -15 -4 -18 -37 -18 -43 0 -50 7 -29 28 18 18 62 11 66
-10z"/>
<path d="M10610 2057 c0 -2 14 -37 30 -77 28 -68 29 -75 15 -97 -9 -12 -22
-23 -30 -23 -8 0 -15 -4 -15 -10 0 -14 23 -13 43 3 24 18 99 207 82 207 -7 0
-15 -10 -19 -23 -3 -13 -13 -41 -22 -63 l-16 -39 -22 59 c-11 33 -27 61 -33
64 -7 2 -13 2 -13 -1z"/>
<path d="M1897 1829 c-9 -41 -17 -77 -17 -81 0 -16 27 -7 48 15 22 23 22 24 4
82 l-17 59 -18 -75z"/>
<path d="M2335 1828 c-34 -19 -36 -33 -7 -39 17 -3 34 0 44 9 14 12 21 12 32
3 8 -7 17 -8 20 -3 15 24 -58 49 -89 30z"/>
<path d="M3080 1833 c-24 -9 -50 -35 -50 -49 0 -10 15 -13 56 -10 70 4 88 20
55 47 -24 19 -35 22 -61 12z"/>
<path d="M7651 1814 c0 -11 3 -14 6 -6 3 7 2 16 -1 19 -3 4 -6 -2 -5 -13z"/>
<path d="M9660 1750 c-19 -19 -20 -33 -20 -200 0 -167 1 -181 20 -200 20 -20
33 -20 580 -20 547 0 560 0 580 20 19 19 20 33 20 200 0 167 -1 181 -20 200
-20 20 -33 20 -580 20 -547 0 -560 0 -580 -20z m1000 -201 l0 -70 -37 3 c-33
3 -38 7 -41 31 -4 33 13 57 39 57 14 0 19 7 19 25 0 14 5 25 10 25 6 0 10 -30
10 -71z m-750 51 c0 -5 -13 -7 -29 -4 -24 5 -32 1 -47 -21 -16 -25 -16 -30 -3
-54 8 -14 25 -27 37 -29 18 -3 22 2 22 22 0 15 -7 26 -17 29 -11 3 -7 5 10 6
26 1 28 -2 25 -31 -3 -28 -7 -33 -33 -36 -61 -6 -93 53 -55 101 16 20 30 27
56 27 19 0 34 -4 34 -10z m140 -15 c0 -8 6 -15 13 -16 10 0 10 -2 0 -6 -7 -2
-13 -20 -13 -38 0 -18 6 -36 13 -39 6 -3 3 -5 -8 -3 -15 2 -21 12 -25 42 -3
22 -4 48 -2 58 5 21 22 23 22 2z m190 0 c0 -8 6 -15 13 -16 10 0 10 -2 0 -6
-7 -2 -13 -20 -13 -38 0 -18 6 -36 13 -38 6 -3 2 -6 -10 -6 -20 -1 -23 4 -23
39 0 25 -5 40 -12 41 -10 0 -10 2 0 6 6 2 12 11 12 19 0 8 5 14 10 14 6 0 10
-7 10 -15z m210 0 c0 -8 6 -15 13 -16 10 0 10 -2 0 -6 -7 -2 -13 -20 -13 -38
0 -18 6 -36 13 -39 6 -3 3 -5 -8 -3 -15 2 -21 11 -23 40 -2 28 -8 37 -22 37
-14 0 -21 -11 -28 -42 l-10 -43 -1 48 c-1 46 0 47 29 47 20 0 30 5 30 15 0 8
5 15 10 15 6 0 10 -7 10 -15z m-452 -27 c22 -22 13 -38 -19 -38 -20 0 -29 -4
-26 -12 2 -7 14 -13 26 -12 11 0 21 -3 21 -8 0 -9 -31 -11 -54 -2 -19 7 -21
55 -4 72 7 7 19 12 28 12 9 0 21 -5 28 -12z m192 3 c0 -5 -9 -7 -20 -4 -28 7
-25 -12 6 -32 20 -13 23 -19 13 -31 -13 -15 -59 -19 -59 -5 0 5 8 7 19 4 30
-8 35 16 7 29 -25 11 -33 28 -19 41 10 10 53 8 53 -2z m150 -10 c5 -11 10 -31
10 -44 0 -20 -5 -24 -35 -25 -23 -1 -38 4 -42 13 -7 20 14 45 39 45 11 0 16 4
12 11 -3 6 -15 9 -25 6 -11 -3 -19 -1 -19 4 0 17 49 9 60 -10z m218 7 c23 -23
13 -38 -24 -38 -32 0 -35 -2 -23 -16 7 -8 21 -13 31 -11 10 3 18 1 18 -4 0 -5
-14 -9 -30 -9 -23 0 -33 6 -39 23 -18 49 32 90 67 55z"/>
<path d="M10604 1546 c-9 -23 0 -51 16 -51 10 0 15 10 15 29 0 32 -21 47 -31
22z"/>
<path d="M9957 1554 c-13 -13 -7 -24 14 -24 11 0 19 5 17 12 -5 14 -22 21 -31
12z"/>
<path d="M10297 1523 c-12 -11 -7 -33 7 -33 12 0 26 20 26 36 0 7 -26 5 -33
-3z"/>
<path d="M10510 1545 c-11 -13 -9 -15 15 -15 16 0 25 5 23 12 -7 19 -24 20
-38 3z"/>
<path d="M3886 1554 c-8 -20 0 -32 14 -18 5 5 5 15 1 22 -6 11 -10 10 -15 -4z"/>
<path d="M4127 1533 c-2 -5 -5 -23 -5 -41 -1 -42 20 -38 25 5 4 29 -10 53 -20
36z"/>
<path d="M3830 1495 c0 -8 5 -15 10 -15 6 0 10 7 10 15 0 8 -4 15 -10 15 -5 0
-10 -7 -10 -15z"/>
<path d="M3885 1490 c-3 -5 -1 -10 4 -10 6 0 11 5 11 10 0 6 -2 10 -4 10 -3 0
-8 -4 -11 -10z"/>
<path d="M3840 1460 c-8 -5 -10 -10 -5 -10 6 0 17 5 25 10 8 5 11 10 5 10 -5
0 -17 -5 -25 -10z"/>
<path d="M3840 1428 c-20 -7 -22 -11 -10 -18 23 -14 50 -12 50 4 0 21 -11 25
-40 14z"/>
<path d="M4593 1334 c-13 -14 -23 -29 -23 -34 0 -6 -4 -10 -9 -10 -12 0 -103
-71 -98 -77 3 -2 16 3 30 12 17 11 27 13 32 6 3 -6 16 -11 29 -11 26 0 46 -17
46 -39 0 -19 59 -63 72 -54 5 3 0 16 -13 29 -20 22 -21 25 -6 48 12 17 15 38
11 73 -3 26 -6 54 -6 61 -1 6 -5 12 -9 12 -4 0 -13 2 -21 4 -7 2 -23 -7 -35
-20z"/>
<path d="M8200 1280 c0 -5 5 -10 10 -10 6 0 10 5 10 10 0 6 -4 10 -10 10 -5 0
-10 -4 -10 -10z"/>
<path d="M8205 1219 c-3 -4 2 -6 10 -5 21 3 28 13 10 13 -9 0 -18 -4 -20 -8z"/>
<path d="M5050 1199 c0 -5 5 -7 10 -4 6 3 10 8 10 11 0 2 -4 4 -10 4 -5 0 -10
-5 -10 -11z"/>
<path d="M4415 1191 c-6 -11 9 -23 19 -14 9 9 7 23 -3 23 -6 0 -12 -4 -16 -9z"/>
<path d="M8190 1174 c0 -20 19 -27 26 -9 6 14 9 14 16 3 8 -10 9 -10 5 2 -5
18 -47 22 -47 4z"/>
<path d="M8220 1131 c0 -21 29 -43 44 -34 12 7 12 10 0 21 -8 7 -14 10 -14 6
0 -3 -7 -1 -15 6 -11 9 -15 10 -15 1z"/>
<path d="M7920 1110 c0 -6 7 -10 15 -10 8 0 15 2 15 4 0 2 -7 6 -15 10 -8 3
-15 1 -15 -4z"/>
<path d="M4708 1086 c-19 -14 -24 -46 -8 -46 6 0 9 6 8 13 -2 6 2 11 7 10 6
-1 12 7 12 18 2 22 3 22 -19 5z"/>
<path d="M8216 1083 c-6 -14 -5 -15 5 -6 7 7 10 15 7 18 -3 3 -9 -2 -12 -12z"/>
<path d="M4647 1083 c-4 -3 -7 -13 -7 -21 0 -12 3 -12 15 -2 8 7 15 16 15 21
0 11 -14 12 -23 2z"/>
<path d="M8254 1075 c-4 -8 -3 -26 0 -39 3 -14 2 -28 -4 -31 -5 -3 -7 0 -4 8
3 8 0 18 -5 22 -6 3 -9 11 -6 16 4 5 0 9 -8 9 -8 0 -17 -10 -20 -22 -4 -12 -9
-19 -13 -15 -4 4 -14 -3 -22 -15 -14 -19 -13 -22 1 -33 13 -9 14 -14 4 -25 -9
-10 -9 -11 1 -6 6 4 12 2 12 -3 0 -6 21 -11 48 -11 l49 0 -2 57 c-1 34 -6 58
-13 61 -7 2 -12 10 -12 18 0 9 5 12 12 8 7 -4 8 -3 4 4 -10 16 -15 15 -22 -3z
m-4 -111 c0 -8 -5 -12 -10 -9 -6 4 -8 11 -5 16 9 14 15 11 15 -7z"/>
<path d="M8165 1050 c-19 -8 -19 -9 3 -9 12 -1 22 4 22 9 0 6 -1 10 -2 9 -2 0
-12 -4 -23 -9z"/>
<path d="M4708 983 c7 -3 16 -2 19 1 4 3 -2 6 -13 5 -11 0 -14 -3 -6 -6z"/>
<path d="M4750 972 c0 -5 12 -22 26 -38 27 -30 28 -28 5 19 -14 26 -31 37 -31
19z"/>
<path d="M4694 938 c-4 -7 -3 -8 4 -4 7 4 12 2 12 -3 0 -6 5 -11 10 -11 15 0
12 17 -5 23 -8 4 -17 1 -21 -5z"/>
<path d="M4756 922 c-3 -6 -17 -9 -31 -7 l-25 2 6 -148 c7 -149 -7 -319 -29
-346 -6 -9 -5 -13 4 -13 11 0 11 -2 -1 -10 -20 -12 -6 -23 19 -15 12 3 21 13
21 21 0 8 5 12 10 9 6 -3 10 3 10 15 0 12 4 18 10 15 5 -3 7 0 5 8 -3 7 1 26
9 41 8 16 12 34 10 41 -3 7 2 15 10 18 9 4 16 11 16 17 0 6 -5 8 -11 4 -6 -3
-4 5 6 19 15 24 15 26 -5 32 -16 5 -19 10 -11 18 14 14 15 30 1 22 -5 -3 -10
-1 -10 4 0 6 5 11 11 11 5 0 7 5 4 10 -3 6 0 10 7 11 7 0 4 4 -7 9 -11 5 -15
9 -9 9 16 1 10 46 -7 47 -8 1 -18 3 -24 4 -5 1 -14 2 -19 1 -5 -1 -3 6 4 16
22 28 24 29 17 11 -4 -10 -2 -18 2 -18 14 0 20 25 10 41 -5 8 -9 10 -9 4 0 -5
-4 -3 -10 5 -6 9 -5 17 3 22 9 6 8 10 -3 18 -13 9 -8 14 12 11 8 -1 22 39 15
45 -3 3 -8 1 -11 -4z"/>
<path d="M8100 831 c0 -6 4 -12 8 -15 5 -3 9 1 9 9 0 8 -4 15 -9 15 -4 0 -8
-4 -8 -9z"/>
<path d="M4805 660 c-3 -5 1 -10 10 -10 9 0 13 5 10 10 -3 6 -8 10 -10 10 -2
0 -7 -4 -10 -10z"/>
<path d="M8100 425 c0 -2 6 -8 13 -14 10 -8 14 -7 14 2 0 8 -6 14 -14 14 -7 0
-13 -1 -13 -2z"/>
<path d="M7974 389 c-2 -4 5 -9 16 -12 13 -3 18 -1 13 6 -4 7 0 8 11 4 9 -4
15 -3 11 2 -6 11 -44 10 -51 0z"/>
<path d="M8030 320 c0 -5 7 -7 15 -4 8 4 15 8 15 10 0 2 -7 4 -15 4 -8 0 -15
-4 -15 -10z"/>
<path d="M8040 249 c0 -5 5 -7 10 -4 6 3 10 8 10 11 0 2 -4 4 -10 4 -5 0 -10
-5 -10 -11z"/>
<path d="M8055 210 c3 -5 14 -10 23 -10 15 0 15 2 2 10 -20 13 -33 13 -25 0z"/>
<path d="M7987 179 c7 -7 15 -10 18 -7 3 3 -2 9 -12 12 -14 6 -15 5 -6 -5z"/>
<path d="M8069 171 c6 -10 8 -21 5 -24 -3 -3 3 -3 15 0 12 3 21 10 21 15 0 6
-7 8 -15 4 -9 -3 -15 0 -15 9 0 8 -5 15 -10 15 -7 0 -7 -6 -1 -19z"/>
<path d="M4786 154 c-4 -10 -1 -14 6 -12 15 5 23 28 10 28 -5 0 -13 -7 -16
-16z"/>
<path d="M5010 110 c0 -5 5 -10 10 -10 6 0 10 5 10 10 0 6 -4 10 -10 10 -5 0
-10 -4 -10 -10z"/>
<path d="M945 70 c3 -5 8 -10 11 -10 2 0 4 5 4 10 0 6 -5 10 -11 10 -5 0 -7
-4 -4 -10z"/>
</g>
</svg>
