<?xml version="1.0" standalone="no"?>
<!DOCTYPE svg PUBLIC "-//W3C//DTD SVG 20010904//EN"
 "http://www.w3.org/TR/2001/REC-SVG-20010904/DTD/svg10.dtd">
<svg version="1.0" xmlns="http://www.w3.org/2000/svg"
 width="1350.000000pt" height="608.000000pt" viewBox="0 0 1350.000000 608.000000"
 preserveAspectRatio="xMidYMid meet">

<g transform="translate(0.000000,608.000000) scale(0.100000,-0.100000)"
fill="#000000" stroke="none">
<path d="M13490 3045 l0 -3035 -6747 -3 -6748 -2 6753 -3 6752 -2 0 3040 c0
1672 -2 3040 -5 3040 -3 0 -5 -1366 -5 -3035z"/>
<path d="M12270 5602 c0 -343 3 -461 12 -470 17 -17 999 -17 1016 0 9 9 12
127 12 470 l0 458 -520 0 -520 0 0 -458z m963 171 c9 -290 9 -517 1 -549 -6
-22 -11 -24 -66 -24 -57 0 -114 19 -130 44 -4 6 -36 12 -70 12 -35 1 -80 2
-101 3 l-38 1 3 53 3 52 63 3 c34 2 62 7 62 12 0 5 -10 8 -22 8 -13 -1 -42 -1
-66 0 l-43 2 3 53 3 52 89 3 c53 2 93 -1 100 -8 5 -5 16 -10 24 -10 12 0 12 3
2 15 -7 8 -10 23 -8 33 3 10 2 49 -2 87 l-7 70 -2 -76 c-1 -100 -6 -103 -116
-94 l-86 7 3 51 3 52 38 3 37 3 0 178 c0 98 3 181 7 184 3 4 75 7 158 7 l152
0 6 -227z m-867 -60 c-3 -4 -6 0 -6 8 0 11 -2 11 -10 -1 -8 -13 -10 -13 -10 1
0 24 13 32 23 14 5 -9 6 -19 3 -22z m169 23 c10 15 16 16 27 6 8 -6 17 -10 20
-7 2 3 5 -2 5 -10 0 -11 -4 -12 -13 -4 -8 6 -14 6 -18 0 -9 -14 -41 -6 -42 10
-1 11 0 11 3 1 4 -10 8 -9 18 4z m-140 -5 c3 -5 2 -12 -3 -15 -5 -3 -9 1 -9 9
0 17 3 19 12 6z m105 -6 c0 -8 -9 -13 -20 -12 -11 1 -20 5 -20 9 0 4 -5 8 -11
8 -5 0 -8 -4 -5 -9 4 -5 -3 -7 -14 -4 -35 9 -22 19 25 20 31 1 45 -3 45 -12z
m133 1 c4 -10 0 -14 -14 -13 -10 1 -19 7 -19 14 0 18 27 16 33 -1z m-260 -60
c9 1 15 -2 11 -7 -3 -5 -10 -7 -15 -4 -5 4 -9 1 -9 -4 0 -6 -4 -11 -10 -11 -5
0 -10 10 -10 23 0 13 3 17 8 11 4 -6 15 -10 25 -8z m233 -1 c-1 -8 -5 -17 -8
-21 -5 -4 -4 16 1 34 3 9 9 -1 7 -13z m-173 -12 c-7 -18 -30 -17 -30 1 0 8 8
14 18 13 9 -1 15 -7 12 -14z m104 1 c0 -8 -9 -14 -19 -14 -10 0 -18 6 -18 13
0 7 8 13 18 14 10 1 19 -5 19 -13z m43 7 c0 -17 -18 -21 -24 -6 -3 9 0 15 9
15 8 0 15 -4 15 -9z m78 -3 c-2 -5 -8 -9 -13 -9 -5 0 -11 4 -13 9 -1 5 4 9 13
9 9 0 14 -4 13 -9z m-201 -30 c-3 -7 -5 -2 -5 12 0 14 2 19 5 13 2 -7 2 -19 0
-25z m25 -283 c8 -19 8 -31 0 -50 -10 -22 -18 -25 -65 -25 -59 0 -77 12 -77
50 0 38 18 50 77 50 47 0 55 -3 65 -25z"/>
<path d="M13074 5962 c-16 -9 -44 -107 -44 -149 0 -21 -6 -36 -15 -39 -37 -14
-10 -42 48 -50 20 -3 27 1 27 14 0 9 9 -3 20 -27 l20 -44 20 23 c16 19 19 33
15 69 -2 25 -7 71 -10 101 -7 76 -46 125 -81 102z m32 -121 c-4 -5 -1 -11 4
-13 6 -2 8 -16 4 -36 -8 -41 -16 -35 -20 18 -2 24 0 40 7 40 5 0 8 -4 5 -9z"/>
<path d="M13201 5744 c0 -11 3 -14 6 -6 3 7 2 16 -1 19 -3 4 -6 -2 -5 -13z"/>
<path d="M12980 5695 c-1 -22 -4 -34 -7 -27 -7 17 -23 5 -23 -19 0 -22 25 -25
46 -5 17 18 17 34 -1 66 -14 25 -14 25 -15 -15z m17 -27 c-3 -8 -6 -5 -6 6 -1
11 2 17 5 13 3 -3 4 -12 1 -19z"/>
<path d="M13053 5672 c-1 -32 0 -33 7 -12 11 33 12 50 3 50 -5 0 -9 -17 -10
-38z"/>
<path d="M13181 5607 c-1 -18 -6 -27 -13 -25 -7 3 -18 -6 -25 -20 -17 -33 -16
-42 5 -42 10 0 4 -7 -15 -16 -37 -19 -36 -28 7 -43 18 -6 28 -6 25 -1 -4 6 0
10 9 10 11 0 15 16 18 66 1 36 0 73 -4 82 -5 12 -7 9 -7 -11z"/>
<path d="M13064 5544 c3 -9 6 -18 6 -20 0 -2 7 -4 15 -4 8 0 15 7 15 15 0 9
-6 12 -17 8 -11 -4 -14 -3 -9 5 4 7 2 12 -4 12 -7 0 -9 -7 -6 -16z"/>
<path d="M11273 5762 c-82 -2 -94 -5 -104 -24 -9 -17 -13 -18 -21 -7 -8 11 -9
11 -5 -2 6 -17 -36 -92 -46 -82 -4 3 -7 -1 -7 -10 0 -9 -4 -17 -10 -17 -5 0
-10 -5 -10 -11 0 -6 -13 -30 -30 -54 -16 -24 -30 -53 -30 -64 0 -11 -9 -25
-20 -31 -13 -7 -20 -21 -20 -40 0 -23 4 -30 20 -30 17 0 20 -7 20 -40 0 -33
-3 -40 -20 -40 -19 0 -20 -7 -20 -155 l0 -155 -30 0 -30 0 0 154 c0 142 -1
154 -19 159 -22 5 -63 -59 -60 -95 1 -13 1 -67 1 -120 l-2 -98 -30 0 -30 0 0
149 c0 117 -3 150 -14 154 -10 4 -15 43 -20 164 -8 178 -11 194 -32 186 -10
-4 -14 2 -14 20 0 46 -12 87 -26 87 -8 0 -14 -8 -15 -17 0 -15 -2 -15 -9 2 -8
19 -9 19 -9 -3 -1 -13 4 -33 10 -45 8 -14 8 -22 2 -24 -16 -6 -4 -185 14 -203
8 -8 13 -10 12 -5 -4 22 1 36 11 30 6 -4 10 12 10 39 0 27 -5 46 -11 46 -7 0
-9 -10 -7 -25 3 -14 1 -28 -3 -31 -10 -6 -10 -4 -12 80 -1 40 2 61 11 63 8 3
12 -8 13 -34 1 -34 2 -35 9 -13 6 17 9 -1 10 -60 3 -126 7 -171 19 -210 6 -19
11 -67 11 -107 0 -142 -64 -243 -155 -243 -37 0 -50 6 -78 33 -37 38 -77 144
-77 205 0 61 29 164 55 198 20 26 25 44 25 90 0 73 -8 67 -11 -9 -1 -31 -5
-54 -8 -51 -6 6 -7 10 -10 69 -2 32 -4 36 -11 20 -6 -14 -9 -16 -10 -5 -2 8
-2 19 -1 23 1 5 -4 5 -10 2 -8 -5 -9 4 -6 29 3 20 1 33 -4 30 -5 -3 -9 -51
-10 -107 -1 -56 -5 -113 -9 -127 -5 -17 -8 -19 -9 -7 -1 9 -5 17 -11 17 -5 0
-11 17 -11 38 -1 35 -2 35 -8 8 -3 -16 -13 -31 -21 -33 -13 -4 -13 -3 0 6 13
9 13 11 -2 11 -18 0 -22 -10 -19 -40 2 -13 1 -13 -8 0 -5 8 -14 11 -18 6 -4
-4 -9 -306 -11 -672 -2 -651 -2 -664 17 -683 20 -20 36 -20 826 -21 796 0 805
0 825 20 20 20 20 29 20 786 -1 481 -4 762 -10 759 -12 -8 -12 -3 0 29 12 34
1 121 -13 107 -17 -17 -27 -13 -27 9 0 17 -7 20 -47 20 -27 0 -154 2 -283 3
-129 1 -277 1 -327 -1z m620 -27 c-3 -9 -8 -14 -10 -11 -3 3 -2 9 2 15 9 16
15 13 8 -4z m-72 -45 c0 -10 2 -11 6 -2 7 17 23 15 23 -3 0 -8 -7 -15 -15 -15
-8 0 -16 -10 -16 -22 l-2 -23 -4 23 c-3 15 -10 22 -21 19 -9 -2 -16 -9 -14
-16 1 -7 -2 -10 -8 -6 -6 4 -7 13 -1 23 4 9 7 22 5 27 -2 6 7 10 21 10 15 0
25 -6 26 -15z m-423 -7 c2 -9 -11 -13 -47 -13 -46 0 -61 7 -45 22 10 11 87 3
92 -9z m352 -3 c0 -5 -2 -10 -4 -10 -3 0 -8 5 -11 10 -3 6 -1 10 4 10 6 0 11
-4 11 -10z m190 -34 c0 -2 3 -12 7 -22 4 -11 3 -15 -5 -10 -6 3 -15 -2 -21
-11 -6 -10 -11 -14 -11 -9 0 5 -8 -1 -19 -12 -18 -22 -31 -20 -31 6 0 8 6 12
15 8 17 -6 19 2 5 24 -6 9 -5 17 3 22 13 8 57 11 57 4z m-1223 -143 c-2 -16
-4 -3 -4 27 0 30 2 43 4 28 2 -16 2 -40 0 -55z m393 -5 c0 -52 -48 -78 -70
-37 -14 26 -4 76 18 89 20 11 52 -20 52 -52z m279 -3 c6 3 14 -3 20 -12 6 -10
11 -15 11 -11 0 4 17 -9 38 -28 35 -34 80 -59 89 -50 2 2 -3 11 -12 20 -10 10
-12 16 -4 16 9 0 8 4 -1 15 -22 26 4 16 38 -14 20 -19 30 -35 26 -45 -9 -22
-23 -20 -17 3 3 11 -2 21 -11 24 -17 7 -15 -4 17 -73 12 -25 23 -73 25 -107
l4 -63 -80 0 c-46 0 -84 -5 -87 -11 -9 -14 14 -66 32 -74 24 -8 51 4 58 26 9
28 65 27 65 -1 0 -54 -53 -110 -103 -110 -42 0 -62 14 -97 71 -17 28 -34 48
-37 45 -3 -3 1 -14 10 -24 15 -16 14 -20 -5 -50 -16 -26 -23 -30 -34 -21 -11
9 -18 8 -32 -5 -10 -9 -35 -16 -54 -16 -52 0 -90 46 -112 140 -10 40 -15 86
-12 101 3 16 1 29 -4 29 -6 0 -10 10 -10 21 0 18 2 19 15 9 13 -11 15 -9 13 8
-2 11 0 21 4 21 5 1 23 17 40 36 26 28 41 35 75 37 23 1 40 5 37 10 -3 4 2 5
10 2 9 -3 14 -10 11 -14 -3 -5 0 -12 6 -16 8 -4 9 -3 5 4 -4 7 -2 12 5 12 7 0
5 9 -7 23 -10 12 -4 9 14 -7 33 -31 45 -49 15 -25 -13 11 -15 11 -12 1 2 -7
20 -23 39 -35 31 -19 33 -19 20 -2 -9 11 -10 16 -3 11 12 -7 62 22 63 36 0 4
-22 29 -50 56 -27 27 -50 55 -49 63 0 8 4 4 10 -9 5 -13 13 -21 18 -17z m245
0 c11 -8 18 -17 15 -19 -2 -2 -20 10 -39 26 -34 29 -15 24 24 -7z m-364 -5 c0
-5 -2 -10 -4 -10 -3 0 -8 5 -11 10 -3 6 -1 10 4 10 6 0 11 -4 11 -10z m-6 -61
c-2 -4 2 -10 8 -12 8 -4 9 -6 2 -6 -6 -1 -17 5 -23 12 -8 10 -7 14 4 14 8 0
12 -4 9 -8z m171 -19 c3 -6 -1 -7 -9 -4 -18 7 -21 14 -7 14 6 0 13 -4 16 -10z
m402 -24 c2 -2 -13 -41 -32 -89 -19 -48 -35 -93 -35 -100 0 -7 16 -52 35 -100
19 -48 35 -89 35 -92 0 -3 -14 -5 -31 -5 -30 0 -40 14 -74 105 -5 16 -11 8
-28 -40 -22 -59 -39 -74 -72 -61 -11 4 -6 25 24 99 l38 93 -17 45 c-10 24 -27
68 -39 97 l-21 52 34 0 c31 0 35 -4 58 -57 l24 -58 13 40 c21 65 39 87 64 79
12 -3 23 -7 24 -8z m-737 -191 l0 -195 -30 0 -30 0 0 195 0 195 30 0 30 0 0
-195z m-624 -385 c8 0 14 -7 14 -15 0 -8 -4 -15 -10 -15 -5 0 -10 -7 -10 -15
0 -18 -26 -20 -33 -2 -3 6 -6 3 -6 -7 -1 -15 -4 -17 -12 -9 -16 16 -1 71 19
75 9 2 19 0 20 -4 2 -4 10 -8 18 -8z m54 -25 c0 -28 -4 -35 -20 -35 -25 0 -26
19 -2 48 9 12 18 22 20 22 1 0 2 -16 2 -35z m41 21 c11 6 11 -14 -1 -41 -8
-19 -9 -19 -9 2 -1 12 -3 27 -4 35 -2 7 -2 10 0 5 3 -4 9 -5 14 -1z m160 0 c1
16 2 16 6 2 2 -10 10 -15 19 -11 10 4 14 -2 14 -21 0 -21 -4 -25 -21 -23 -11
2 -24 9 -29 17 -6 10 -9 8 -13 -6 -2 -10 -5 -1 -6 21 0 37 1 39 14 21 15 -20
15 -20 16 0z m-98 -14 c3 7 6 2 7 -12 l2 -25 8 25 8 25 1 -27 c1 -19 -4 -28
-14 -28 -8 0 -15 6 -16 13 0 10 -2 10 -6 0 -8 -22 -33 -14 -33 10 0 32 12 42
26 22 9 -12 13 -13 17 -3z m192 -17 c0 -19 -4 -24 -21 -23 -15 2 -21 9 -21 25
0 29 5 29 17 1 9 -21 10 -21 9 -3 -2 30 0 39 8 32 3 -4 7 -18 8 -32z m-143 0
c-2 -14 -6 -25 -8 -25 -2 0 -4 11 -4 25 0 14 4 25 9 25 4 0 6 -11 3 -25z m-19
-109 c3 6 16 10 29 8 13 -1 27 -3 31 -3 5 -1 7 -18 5 -38 -2 -26 -8 -38 -18
-38 -8 0 -14 8 -14 17 1 10 -2 15 -7 12 -5 -3 -10 5 -10 18 l-2 23 -4 -22 c-3
-18 -11 -23 -34 -23 -27 0 -29 3 -29 38 1 30 3 34 11 19 5 -9 8 -21 4 -26 -3
-5 -1 -12 5 -16 6 -4 10 9 11 32 1 32 2 34 8 13 4 -14 10 -20 14 -14z m-226 2
c-9 -5 -14 -15 -11 -23 4 -8 10 -12 15 -9 5 3 9 0 9 -5 0 -19 -27 -12 -33 8
-6 23 11 54 25 45 7 -4 5 -10 -5 -16z m343 12 c0 -5 -4 -10 -10 -10 -5 0 -10
-9 -10 -21 0 -11 5 -17 10 -14 6 3 10 1 10 -4 0 -17 -27 -13 -34 5 -3 8 -1 24
4 35 11 20 30 26 30 9z m50 0 c-10 -6 -11 -10 -2 -10 7 0 12 -12 11 -27 l-1
-28 -8 25 -8 25 -2 -25 -2 -25 -8 25 -8 25 -1 -25 c-1 -22 -3 -23 -12 -7 -16
28 -2 57 29 57 21 0 24 -2 12 -10z m-340 -35 c0 -16 -6 -25 -15 -25 -9 0 -15
9 -15 25 0 16 6 25 15 25 9 0 15 -9 15 -25z m62 0 c16 -19 17 -19 18 -2 0 10
-4 15 -10 12 -5 -3 -10 -2 -10 3 0 5 11 10 23 10 19 0 23 -5 20 -22 -4 -22
-43 -35 -43 -15 0 6 -6 7 -12 2 -23 -14 -38 -11 -38 6 0 36 24 38 52 6z m313
0 c0 -14 -3 -25 -7 -25 -5 0 -8 11 -8 25 0 14 3 25 8 25 4 0 7 -11 7 -25z m45
-1 c0 -31 -23 -28 -28 4 -2 15 2 22 12 22 11 0 16 -9 16 -26z m-200 -123 c42
-4 50 -8 50 -26 0 -9 -6 -12 -15 -9 -8 4 -15 1 -15 -6 0 -9 -4 -9 -12 -3 -7 6
-28 11 -45 12 -53 2 -63 4 -63 12 0 4 10 9 23 11 12 2 23 9 23 16 3 24 5 27
12 12 4 -8 23 -17 42 -19z m-253 -28 c-3 -3 -11 -2 -17 2 -9 6 -9 10 1 16 14
8 27 -7 16 -18z m20 5 c-3 -8 -6 -5 -6 6 -1 11 2 17 5 13 3 -3 4 -12 1 -19z
m33 13 c0 -6 9 -8 20 -6 11 2 20 0 20 -6 0 -5 -13 -9 -30 -9 -20 0 -30 5 -30
15 0 8 5 15 10 15 6 0 10 -4 10 -9z m320 -7 c0 -6 -13 -11 -30 -12 -29 -1 -42
12 -19 20 23 8 49 3 49 -8z m89 3 c13 4 13 3 2 -5 -16 -12 -41 -5 -41 11 0 8
3 8 11 0 6 -6 19 -9 28 -6z m101 -8 c0 -4 -9 -7 -20 -6 -11 1 -20 7 -20 13 0
7 8 10 20 7 11 -3 20 -9 20 -14z m-424 -2 c4 -4 -2 -7 -14 -7 -12 0 -22 4 -22
9 0 10 26 9 36 -2z m274 1 c0 -4 -7 -8 -15 -8 -8 0 -15 4 -15 8 0 5 7 9 15 9
8 0 15 -4 15 -9z m291 -108 l309 0 16 -25 c9 -14 17 -43 17 -65 0 -22 -8 -51
-17 -65 l-16 -25 -509 0 c-497 0 -508 0 -526 20 -26 29 -26 111 -1 139 17 19
32 21 175 24 86 2 176 2 200 0 24 -2 183 -3 352 -3z"/>
<path d="M11347 5321 c3 -11 14 -22 25 -24 19 -5 19 -4 -3 19 -27 29 -29 29
-22 5z"/>
<path d="M11230 5300 c-12 -8 -11 -13 11 -37 14 -15 29 -36 32 -46 4 -10 11
-15 17 -12 5 3 10 1 10 -5 0 -6 4 -8 10 -5 6 3 7 -1 4 -9 -8 -21 -13 -20 -40
9 -13 14 -26 25 -30 25 -4 0 -16 7 -26 17 -10 9 -18 12 -18 6 0 -6 27 -31 61
-58 44 -35 66 -46 84 -43 13 3 26 0 29 -6 2 -6 5 -1 5 12 1 13 -4 33 -10 44
-8 15 -8 22 0 28 16 9 -6 26 -37 28 -13 0 -36 15 -51 31 -33 35 -31 34 -51 21z
m120 -140 c0 -5 -4 -10 -10 -10 -5 0 -10 5 -10 10 0 6 5 10 10 10 6 0 10 -4
10 -10z"/>
<path d="M11486 5301 c-7 -10 18 -34 27 -25 7 8 -3 34 -13 34 -5 0 -11 -4 -14
-9z"/>
<path d="M11522 5295 c1 -5 -3 -20 -10 -32 -12 -21 -11 -23 13 -23 28 0 32 17
10 46 -8 10 -14 15 -13 9z"/>
<path d="M11361 5274 c0 -11 3 -14 6 -6 3 7 2 16 -1 19 -3 4 -6 -2 -5 -13z"/>
<path d="M11200 5194 c1 -12 39 -61 40 -51 0 5 -9 20 -20 34 -11 14 -20 22
-20 17z"/>
<path d="M10511 4774 c0 -11 3 -14 6 -6 3 7 2 16 -1 19 -3 4 -6 -2 -5 -13z"/>
<path d="M10601 4774 c0 -11 3 -14 6 -6 3 7 2 16 -1 19 -3 4 -6 -2 -5 -13z"/>
<path d="M10700 4650 c0 -5 5 -10 11 -10 5 0 7 5 4 10 -3 6 -8 10 -11 10 -2 0
-4 -4 -4 -10z"/>
<path d="M10471 4644 c0 -11 3 -14 6 -6 3 7 2 16 -1 19 -3 4 -6 -2 -5 -13z"/>
<path d="M11269 4363 c-8 -9 -14 -38 -14 -65 0 -67 16 -78 117 -78 65 0 81 3
98 20 24 24 27 86 4 118 -14 20 -24 22 -103 22 -70 0 -91 -3 -102 -17z"/>
<path d="M10493 5705 c0 -33 2 -45 4 -27 2 18 2 45 0 60 -2 15 -4 0 -4 -33z"/>
<path d="M10700 5713 c0 -35 3 -44 10 -33 13 20 13 80 0 80 -5 0 -10 -21 -10
-47z"/>
<path d="M10902 5725 c0 -16 2 -22 5 -12 2 9 2 23 0 30 -3 6 -5 -1 -5 -18z"/>
<path d="M10411 5724 c0 -11 3 -14 6 -6 3 7 2 16 -1 19 -3 4 -6 -2 -5 -13z"/>
<path d="M11092 5680 c0 -14 2 -19 5 -12 2 6 2 18 0 25 -3 6 -5 1 -5 -13z"/>
<path d="M10542 5598 c-2 -78 1 -98 12 -98 20 0 22 14 15 110 l-5 85 -4 -95
-4 -95 -6 95 -6 95 -2 -97z"/>
<path d="M10661 5644 c0 -11 3 -14 6 -6 3 7 2 16 -1 19 -3 4 -6 -2 -5 -13z"/>
<path d="M10492 5615 c0 -16 2 -22 5 -12 2 9 2 23 0 30 -3 6 -5 -1 -5 -18z"/>
<path d="M10451 5625 c1 -19 18 -51 18 -35 0 8 -4 22 -9 30 -5 8 -9 11 -9 5z"/>
<path d="M11017 5623 c-10 -9 -8 -65 1 -59 5 3 9 19 10 36 1 32 -1 34 -11 23z"/>
<path d="M10362 5595 c0 -16 2 -22 5 -12 2 9 2 23 0 30 -3 6 -5 -1 -5 -18z"/>
<path d="M10742 5560 c4 -78 18 -78 18 0 0 36 -4 60 -11 60 -6 0 -9 -23 -7
-60z"/>
<path d="M10980 5575 c0 -14 4 -25 9 -25 4 0 6 11 3 25 -2 14 -6 25 -8 25 -2
0 -4 -11 -4 -25z"/>
<path d="M10751 5428 c-1 -16 4 -28 9 -28 12 0 12 8 0 35 -8 18 -9 17 -9 -7z"/>
<path d="M10542 5391 c-15 -9 -15 -17 -1 -42 4 -9 5 -20 1 -23 -7 -8 -8 -13
-10 -63 -3 -58 -17 -35 -16 24 1 32 0 43 -3 24 -3 -26 -7 -31 -14 -20 -6 9 -9
-3 -9 -38 0 -49 12 -70 23 -40 2 6 8 8 13 4 5 -5 1 -15 -10 -23 -19 -13 -19
-15 -3 -49 33 -68 98 -70 133 -3 20 39 24 163 6 193 -10 18 -11 17 -12 -12 0
-21 -5 -32 -12 -30 -7 1 -14 -5 -14 -13 -1 -8 -3 -33 -5 -55 -2 -22 -5 7 -8
65 -5 95 -8 105 -26 108 -11 1 -26 -2 -33 -7z"/>
<path d="M10613 5357 c0 -15 0 -27 1 -25 1 2 8 12 16 22 8 11 10 17 3 13 -6
-4 -13 -1 -16 5 -2 7 -4 0 -4 -15z"/>
<path d="M6490 5000 l0 -180 25 0 25 0 0 180 0 180 -25 0 -25 0 0 -180z"/>
<path d="M1095 5148 c-45 -16 -94 -67 -106 -112 -34 -127 58 -230 189 -212 77
10 82 17 82 101 l0 75 -60 0 c-53 0 -60 -2 -60 -19 0 -15 8 -21 33 -23 30 -3
32 -5 32 -43 0 -39 -1 -40 -39 -43 -22 -2 -50 -1 -63 3 -35 8 -63 61 -63 119
0 42 5 53 35 83 35 35 36 36 105 31 67 -5 70 -4 70 17 0 17 -7 24 -31 29 -44
8 -89 6 -124 -6z"/>
<path d="M3195 5146 c-134 -58 -136 -265 -2 -315 60 -23 147 -7 147 27 0 17
-6 18 -50 14 -94 -9 -140 32 -140 124 0 39 5 51 35 81 34 34 38 35 95 31 56
-4 60 -3 60 18 0 14 -8 24 -22 28 -37 9 -91 6 -123 -8z"/>
<path d="M4990 4990 l0 -170 25 0 25 0 0 170 0 170 -25 0 -25 0 0 -170z"/>
<path d="M2588 5133 c-12 -3 -18 -14 -18 -34 0 -22 -5 -29 -20 -29 -13 0 -20
-7 -20 -19 0 -10 9 -21 20 -24 18 -5 20 -14 20 -90 0 -95 15 -121 67 -115 35
4 44 35 11 40 -22 3 -23 8 -26 86 -3 82 -3 82 23 82 18 0 25 5 25 20 0 15 -7
20 -25 20 -22 0 -25 4 -25 35 0 19 -3 34 -7 34 -5 -1 -16 -3 -25 -6z"/>
<path d="M4013 5132 c-18 -3 -23 -10 -23 -33 0 -22 -5 -29 -20 -29 -13 0 -20
-7 -20 -20 0 -13 7 -20 20 -20 19 0 20 -7 20 -89 0 -82 2 -91 22 -105 32 -23
78 -21 78 3 0 12 -9 21 -25 25 -24 6 -25 9 -25 86 0 79 0 80 25 80 18 0 25 5
25 20 0 15 -7 20 -24 20 -21 0 -25 6 -28 33 -3 27 -7 31 -25 29z"/>
<path d="M4713 5129 c-16 -6 -23 -17 -23 -34 0 -18 -5 -25 -20 -25 -13 0 -20
-7 -20 -20 0 -13 7 -20 20 -20 18 0 20 -7 20 -85 0 -100 17 -129 73 -123 36 3
54 38 20 38 -34 0 -43 21 -43 97 l0 73 30 0 c23 0 30 4 30 20 0 15 -7 20 -29
20 -26 0 -30 4 -33 34 -3 30 -5 33 -25 25z"/>
<path d="M5648 5133 c-12 -3 -18 -14 -18 -34 0 -22 -5 -29 -20 -29 -13 0 -20
-7 -20 -19 0 -10 9 -21 20 -24 18 -5 20 -14 20 -90 0 -95 15 -121 67 -115 35
4 44 35 11 40 -22 3 -23 8 -26 86 -3 82 -3 82 23 82 18 0 25 5 25 20 0 15 -7
20 -25 20 -22 0 -25 4 -25 35 0 19 -3 34 -7 34 -5 -1 -16 -3 -25 -6z"/>
<path d="M6353 5132 c-18 -3 -23 -10 -23 -33 0 -22 -5 -29 -20 -29 -13 0 -20
-7 -20 -20 0 -13 7 -20 20 -20 18 0 20 -7 20 -85 0 -100 17 -129 73 -123 36 3
54 38 20 38 -34 0 -43 21 -43 97 l0 73 30 0 c23 0 30 4 30 20 0 15 -7 20 -29
20 -26 0 -30 4 -33 33 -3 27 -7 31 -25 29z"/>
<path d="M1378 5054 c-37 -19 -58 -63 -58 -118 0 -61 37 -105 95 -112 47 -7
95 9 95 30 0 12 -10 14 -49 9 -41 -5 -52 -2 -70 16 -41 41 -29 51 59 51 l80 0
0 30 c0 87 -78 135 -152 94z m90 -36 c7 -7 12 -20 12 -30 0 -15 -9 -18 -55
-18 -59 0 -63 4 -39 38 17 24 62 30 82 10z"/>
<path d="M1590 4945 l0 -125 25 0 c25 0 25 1 25 85 0 73 3 88 21 106 26 26 60
21 76 -11 7 -14 13 -60 13 -102 0 -76 0 -78 25 -78 25 0 25 1 25 84 0 125 -21
166 -83 166 -13 0 -36 -9 -51 -21 l-26 -20 0 20 c0 16 -6 21 -25 21 l-25 0 0
-125z"/>
<path d="M1925 5060 c-11 -4 -31 -20 -45 -35 -20 -21 -25 -37 -25 -80 0 -66
26 -106 78 -119 47 -12 111 3 115 26 3 16 -2 17 -42 12 -51 -7 -90 10 -99 45
-5 20 -1 21 80 21 l86 0 -7 43 c-11 73 -77 114 -141 87z m81 -55 c9 -14 14
-28 11 -31 -2 -3 -30 -4 -62 -2 l-57 3 22 28 c27 35 64 36 86 2z"/>
<path d="M2120 4945 l0 -125 25 0 c24 0 25 2 25 64 0 98 19 136 68 136 17 0
22 6 22 25 0 34 -33 33 -65 -1 l-25 -27 0 27 c0 21 -5 26 -25 26 l-25 0 0
-125z"/>
<path d="M2333 5060 c-13 -5 -23 -18 -23 -28 0 -17 4 -18 38 -9 44 12 69 5 79
-19 7 -20 -13 -34 -49 -34 -39 0 -74 -19 -87 -47 -16 -36 -14 -51 14 -78 30
-30 64 -32 99 -4 l26 20 0 -20 c0 -16 6 -21 25 -21 25 0 25 0 25 99 0 120 -11
141 -80 147 -25 2 -55 -1 -67 -6z m97 -142 c0 -45 -58 -76 -88 -46 -32 32 -3
67 56 68 26 0 32 -4 32 -22z"/>
<path d="M2774 5060 c-39 -16 -64 -59 -64 -111 0 -60 16 -96 51 -115 49 -25
139 -12 139 20 0 12 -10 14 -49 9 -41 -5 -52 -2 -70 16 -41 41 -29 51 59 51
l80 0 0 30 c0 81 -71 130 -146 100z m80 -46 c31 -31 20 -44 -39 -44 -59 0 -68
10 -38 42 20 22 56 23 77 2z"/>
<path d="M3453 5054 c-17 -9 -39 -31 -47 -49 -51 -107 32 -210 143 -176 57 17
81 52 81 117 0 45 -5 59 -28 85 -34 38 -99 49 -149 23z m101 -45 c21 -16 26
-29 26 -64 0 -74 -59 -109 -111 -66 -19 15 -24 29 -24 66 0 37 5 51 24 66 30
24 52 24 85 -2z"/>
<path d="M3690 4945 l0 -125 25 0 c25 0 25 1 25 79 0 64 4 83 21 105 23 29 50
33 73 10 12 -12 16 -37 16 -105 0 -88 0 -89 25 -89 l25 0 0 100 c0 94 -2 103
-25 125 -13 14 -33 25 -44 25 -25 0 -71 -20 -71 -32 0 -4 -4 -8 -10 -8 -5 0
-10 9 -10 20 0 15 -7 20 -25 20 l-25 0 0 -125z"/>
<path d="M4188 5054 c-37 -19 -58 -63 -58 -118 0 -61 37 -105 95 -112 47 -7
95 9 95 30 0 12 -10 14 -49 9 -41 -5 -52 -2 -70 16 -41 41 -29 51 59 51 l80 0
0 30 c0 87 -78 135 -152 94z m90 -36 c7 -7 12 -20 12 -30 0 -15 -9 -18 -55
-18 -59 0 -63 4 -39 38 17 24 62 30 82 10z"/>
<path d="M4400 4945 l0 -125 25 0 c25 0 25 1 25 85 0 73 3 88 21 106 26 26 60
21 76 -11 7 -14 13 -60 13 -102 0 -76 0 -78 25 -78 25 0 25 1 25 84 0 125 -21
166 -83 166 -13 0 -36 -9 -51 -21 l-26 -20 0 20 c0 16 -6 21 -25 21 l-25 0 0
-125z"/>
<path d="M5130 4945 l0 -125 25 0 c25 0 25 1 25 90 0 85 1 90 25 106 20 13 31
14 49 6 27 -12 36 -46 36 -138 0 -62 1 -64 26 -64 l27 0 -5 102 c-5 95 -7 103
-32 125 -34 29 -65 29 -100 2 l-26 -20 0 20 c0 16 -6 21 -25 21 l-25 0 0 -125z"/>
<path d="M5428 5054 c-31 -16 -46 -58 -31 -83 5 -9 28 -25 51 -36 59 -29 68
-40 51 -61 -10 -13 -24 -15 -61 -11 -43 5 -48 4 -48 -13 0 -14 10 -21 36 -26
54 -10 109 10 124 45 16 40 0 68 -55 92 -52 23 -61 35 -44 55 9 12 24 15 51
11 32 -4 38 -2 38 13 0 32 -64 41 -112 14z"/>
<path d="M5818 5058 c-18 -6 -28 -17 -28 -30 0 -15 4 -18 18 -13 52 22 95 17
106 -11 8 -22 8 -22 -54 -34 -66 -13 -90 -33 -90 -77 0 -66 69 -95 124 -52
l26 20 0 -20 c0 -16 6 -21 25 -21 25 0 25 1 25 84 0 45 -5 97 -10 113 -17 48
-77 65 -142 41z m102 -138 c0 -23 -33 -60 -54 -60 -29 0 -46 13 -46 36 0 28
24 43 68 44 25 0 32 -4 32 -20z"/>
<path d="M6040 4945 l0 -125 25 0 c25 0 25 1 25 90 0 85 1 90 25 106 20 13 31
14 49 6 27 -12 36 -46 36 -138 0 -62 1 -64 26 -64 l27 0 -5 102 c-5 95 -7 103
-32 125 -34 29 -65 29 -100 2 l-26 -20 0 20 c0 16 -6 21 -25 21 l-25 0 0 -125z"/>
<path d="M6599 5023 c80 -203 79 -199 65 -231 -12 -30 -45 -49 -64 -37 -6 4
-10 -5 -10 -19 0 -22 5 -26 29 -26 54 0 78 34 141 200 47 123 56 156 44 158
-30 7 -41 -8 -68 -98 -16 -50 -32 -88 -36 -83 -5 4 -20 47 -35 96 -25 84 -27
87 -55 87 l-30 0 19 -47z"/>
<path d="M12746 4901 c-4 -7 -5 -15 -2 -18 9 -9 19 4 14 18 -4 11 -6 11 -12 0z"/>
<path d="M12790 4900 c0 -5 5 -10 11 -10 5 0 7 5 4 10 -3 6 -8 10 -11 10 -2 0
-4 -4 -4 -10z"/>
<path d="M12820 4896 c0 -9 5 -16 10 -16 6 0 10 4 10 9 0 6 -4 13 -10 16 -5 3
-10 -1 -10 -9z"/>
<path d="M12890 4900 c0 -5 -7 -7 -15 -4 -8 4 -15 2 -15 -3 0 -5 9 -9 20 -10
11 -1 20 4 20 13 0 8 -2 14 -5 14 -3 0 -5 -4 -5 -10z"/>
<path d="M12936 4895 c4 -8 8 -15 10 -15 2 0 4 7 4 15 0 8 -4 15 -10 15 -5 0
-7 -7 -4 -15z"/>
<path d="M12960 4895 c0 -8 2 -15 4 -15 2 0 6 7 10 15 3 8 1 15 -4 15 -6 0
-10 -7 -10 -15z"/>
<path d="M13026 4895 c4 -8 7 -15 9 -15 2 0 5 7 9 15 3 9 0 15 -9 15 -9 0 -12
-6 -9 -15z"/>
<path d="M12715 4890 c-3 -5 -1 -10 4 -10 6 0 11 5 11 10 0 6 -2 10 -4 10 -3
0 -8 -4 -11 -10z"/>
<path d="M12924 4820 c0 -13 4 -16 10 -10 7 7 7 13 0 20 -6 6 -10 3 -10 -10z"/>
<path d="M12976 4825 c-3 -8 -1 -15 4 -15 6 0 10 7 10 15 0 8 -2 15 -4 15 -2
0 -6 -7 -10 -15z"/>
<path d="M12730 4819 c0 -5 5 -7 10 -4 6 3 10 8 10 11 0 2 -4 4 -10 4 -5 0
-10 -5 -10 -11z"/>
<path d="M12867 4817 c-3 -8 1 -14 9 -14 7 0 15 6 18 14 3 7 -1 13 -8 13 -8 0
-16 -6 -19 -13z"/>
<path d="M13020 4813 c0 -11 3 -14 8 -7 4 6 14 14 22 17 10 4 8 6 -7 6 -16 1
-23 -5 -23 -16z"/>
<path d="M13084 4823 c10 -11 37 -12 30 -2 -3 5 -12 9 -21 9 -9 0 -13 -3 -9
-7z"/>
<path d="M12376 4544 c-3 -8 -2 -12 4 -9 6 4 10 -8 11 -27 l1 -33 8 28 c13 43
-9 81 -24 41z"/>
<path d="M12725 4537 c-8 -32 10 -68 31 -60 22 8 15 77 -8 81 -11 2 -19 -5
-23 -21z m35 -17 c0 -11 -4 -20 -10 -20 -5 0 -10 9 -10 20 0 11 5 20 10 20 6
0 10 -9 10 -20z"/>
<path d="M13090 4545 c0 -8 7 -18 15 -21 8 -4 12 -11 8 -18 -4 -8 -3 -8 6 0 7
7 11 20 9 30 -4 24 -38 32 -38 9z m30 -5 c0 -5 -2 -10 -4 -10 -3 0 -8 5 -11
10 -3 6 -1 10 4 10 6 0 11 -4 11 -10z"/>
<path d="M1910 4340 c0 -35 3 -61 6 -58 7 8 7 108 0 115 -3 4 -6 -22 -6 -57z"/>
<path d="M2940 4376 c0 -18 -4 -23 -18 -19 -24 6 -44 -19 -40 -49 2 -18 10
-23 36 -24 l32 -1 0 59 c0 32 -2 58 -5 58 -3 0 -5 -11 -5 -24z m-5 -56 c0 -29
-32 -41 -41 -16 -9 24 4 48 23 44 12 -2 18 -12 18 -28z"/>
<path d="M3662 4340 c1 -48 2 -56 7 -30 8 48 38 54 44 8 l4 -33 -1 35 c-1 28
-5 35 -21 35 -13 0 -22 9 -26 25 -4 14 -7 -2 -7 -40z"/>
<path d="M4213 4340 c0 -36 2 -50 4 -32 2 17 2 47 0 65 -2 17 -4 3 -4 -33z"/>
<path d="M4540 4376 c0 -18 -4 -23 -18 -19 -24 6 -44 -19 -40 -49 2 -18 10
-23 36 -24 l32 -1 0 59 c0 32 -2 58 -5 58 -3 0 -5 -11 -5 -24z m-5 -56 c0 -16
-6 -26 -18 -28 -19 -4 -32 20 -23 44 9 25 41 13 41 -16z"/>
<path d="M5400 4377 c0 -18 -5 -23 -21 -23 -12 1 -26 -7 -33 -16 -15 -25 4
-53 38 -54 25 -1 26 1 26 57 0 33 -2 59 -5 59 -3 0 -5 -10 -5 -23z m-5 -57 c0
-29 -32 -41 -41 -16 -9 24 4 48 23 44 12 -2 18 -12 18 -28z"/>
<path d="M6301 4345 c-1 -58 0 -61 24 -63 13 -1 26 2 29 6 3 5 -5 8 -17 8 -17
-1 -22 5 -22 24 0 33 32 39 44 8 7 -15 10 -17 10 -7 1 22 -25 43 -43 36 -10
-4 -16 2 -19 21 -2 15 -5 0 -6 -33z"/>
<path d="M6393 4340 c0 -36 2 -50 4 -32 2 17 2 47 0 65 -2 17 -4 3 -4 -33z"/>
<path d="M982 4378 c-18 -18 -15 -24 18 -48 17 -12 30 -17 30 -12 0 5 -12 14
-26 21 -30 13 -27 33 7 42 21 6 21 7 4 8 -12 1 -26 -4 -33 -11z"/>
<path d="M2077 4383 c-11 -11 -8 -20 7 -20 8 0 12 6 9 14 -6 15 -7 15 -16 6z"/>
<path d="M2153 4335 c0 -33 2 -45 4 -27 2 18 2 45 0 60 -2 15 -4 0 -4 -33z"/>
<path d="M5891 4333 c1 -32 4 -46 6 -31 3 18 12 28 26 31 l22 4 -22 2 c-16 1
-23 7 -23 20 0 12 8 21 23 24 19 4 18 4 -5 6 -28 1 -28 0 -27 -56z"/>
<path d="M1348 4367 c-7 -22 7 -80 20 -83 7 -1 8 0 2 3 -12 6 -13 60 -1 65 5
2 3 8 -4 15 -10 9 -14 9 -17 0z"/>
<path d="M1858 4367 c-7 -22 7 -80 20 -83 7 -1 8 0 2 3 -12 6 -13 60 -1 65 5
2 3 8 -4 15 -10 9 -14 9 -17 0z"/>
<path d="M2748 4367 c-7 -22 7 -80 20 -83 7 -1 8 0 2 3 -12 6 -13 60 -1 65 5
2 3 8 -4 15 -10 9 -14 9 -17 0z"/>
<path d="M3278 4367 c-2 -7 -1 -25 3 -42 7 -30 7 -30 8 -3 0 14 5 28 10 30 5
2 3 8 -4 15 -10 9 -14 9 -17 0z"/>
<path d="M3508 4367 c-7 -22 7 -80 20 -83 7 -1 8 0 2 3 -12 6 -13 60 -1 65 5
2 3 8 -4 15 -10 9 -14 9 -17 0z"/>
<path d="M3608 4367 c-7 -22 7 -80 20 -83 7 -1 8 0 2 3 -12 6 -13 60 -1 65 5
2 3 8 -4 15 -10 9 -14 9 -17 0z"/>
<path d="M3832 4363 c-8 -8 -9 -13 -2 -13 5 0 10 -16 10 -35 0 -27 4 -35 18
-34 10 0 12 3 5 6 -15 5 -18 60 -4 65 5 2 4 8 -3 14 -8 8 -15 7 -24 -3z"/>
<path d="M4038 4367 c-7 -22 7 -80 20 -83 7 -1 8 0 2 3 -12 6 -13 60 -1 65 5
2 3 8 -4 15 -10 9 -14 9 -17 0z"/>
<path d="M4618 4367 c-2 -7 -1 -25 3 -42 7 -30 7 -30 8 -3 0 14 5 28 10 30 5
2 3 8 -4 15 -10 9 -14 9 -17 0z"/>
<path d="M1083 4354 c20 -6 23 -24 3 -24 -7 0 -20 -8 -27 -17 -11 -15 -11 -16
1 -5 21 18 38 15 43 -10 3 -13 4 -5 4 17 -2 32 -6 40 -22 42 -16 1 -16 1 -2
-3z"/>
<path d="M1136 4347 c3 -10 9 -15 12 -12 3 3 0 11 -7 18 -10 9 -11 8 -5 -6z"/>
<path d="M1186 4345 c-9 -26 -7 -32 5 -12 6 10 9 21 6 23 -2 3 -7 -2 -11 -11z"/>
<path d="M1226 4351 c-4 -5 2 -7 13 -4 10 3 22 0 25 -6 5 -7 -4 -11 -23 -11
-17 0 -31 -4 -31 -8 0 -4 16 -6 35 -4 37 4 42 11 23 30 -14 14 -35 16 -42 3z"/>
<path d="M1403 4320 c0 -25 2 -35 4 -22 2 12 2 32 0 45 -2 12 -4 2 -4 -23z"/>
<path d="M1443 4320 c0 -25 2 -35 4 -22 2 12 2 32 0 45 -2 12 -4 2 -4 -23z"/>
<path d="M1472 4348 c9 -7 19 -26 21 -43 3 -21 4 -18 3 10 -1 31 -5 41 -21 43
-18 4 -19 3 -3 -10z"/>
<path d="M1523 4349 c10 -6 17 -23 18 -42 1 -18 3 -24 6 -14 8 30 -6 67 -25
67 -16 -1 -16 -1 1 -11z"/>
<path d="M1586 4351 c-4 -5 2 -7 13 -4 10 3 22 0 25 -6 5 -7 -4 -11 -23 -11
-17 0 -31 -4 -31 -8 0 -4 16 -6 35 -4 37 4 42 11 23 30 -14 14 -35 16 -42 3z"/>
<path d="M1740 4346 c0 -9 5 -16 10 -16 6 0 10 4 10 9 0 6 -4 13 -10 16 -5 3
-10 -1 -10 -9z"/>
<path d="M1823 4320 c0 -25 2 -35 4 -22 2 12 2 32 0 45 -2 12 -4 2 -4 -23z"/>
<path d="M1953 4349 c10 -6 17 -23 18 -42 1 -18 3 -24 6 -14 8 30 -6 67 -25
67 -16 -1 -16 -1 1 -11z"/>
<path d="M2266 4351 c-4 -5 3 -7 14 -4 23 6 26 13 6 13 -8 0 -17 -4 -20 -9z"/>
<path d="M2310 4310 c-4 -48 -8 -55 -30 -61 -22 -6 -22 -7 -4 -8 33 -2 46 22
42 76 l-4 48 -4 -55z"/>
<path d="M2356 4352 c-3 -5 6 -7 19 -4 14 2 25 0 25 -6 0 -6 -12 -13 -27 -15
-26 -4 -25 -4 5 -6 27 -1 33 2 30 17 -3 18 -42 29 -52 14z"/>
<path d="M2473 4349 c10 -6 17 -23 18 -42 1 -18 3 -24 6 -14 8 30 -6 67 -25
67 -16 -1 -16 -1 1 -11z"/>
<path d="M2532 4348 c-24 -24 -6 -69 28 -67 9 0 6 4 -7 9 -31 13 -29 30 5 31
l27 1 -30 8 c-24 5 -27 8 -13 14 9 4 22 4 29 0 8 -4 9 -3 5 4 -9 15 -29 15
-44 0z"/>
<path d="M2613 4320 c0 -25 2 -35 4 -22 2 12 2 32 0 45 -2 12 -4 2 -4 -23z"/>
<path d="M2688 4353 c30 -6 28 -19 -4 -27 -35 -9 -29 -41 9 -42 26 -1 28 1 25
35 -3 30 -7 36 -28 38 -22 1 -22 1 -2 -4z m22 -43 c0 -12 -28 -25 -36 -17 -9
9 6 27 22 27 8 0 14 -5 14 -10z"/>
<path d="M2806 4352 c-3 -5 6 -7 19 -4 14 2 25 0 25 -6 0 -6 -12 -13 -27 -15
-26 -4 -25 -4 5 -6 27 -1 33 2 30 17 -3 18 -42 29 -52 14z"/>
<path d="M3032 4348 c-24 -24 -6 -69 28 -67 9 0 6 4 -7 9 -14 6 -23 18 -23 30
0 12 9 24 23 30 13 5 16 9 7 9 -9 1 -21 -4 -28 -11z"/>
<path d="M3102 4348 c-24 -24 -7 -69 28 -67 9 0 6 4 -8 10 -17 6 -22 15 -20
31 3 26 36 37 50 16 8 -10 9 -10 5 2 -5 19 -39 24 -55 8z"/>
<path d="M3191 4316 l2 -41 6 35 c8 48 38 54 44 8 l4 -33 -1 35 c-1 31 -4 35
-28 36 -26 1 -28 -1 -27 -40z"/>
<path d="M3342 4348 c-24 -24 -6 -69 28 -67 9 0 6 4 -7 9 -31 13 -29 30 5 31
l27 1 -30 8 c-24 5 -27 8 -13 14 9 4 22 4 29 0 8 -4 9 -3 5 4 -9 15 -29 15
-44 0z"/>
<path d="M3421 4316 l2 -41 6 35 c8 48 38 54 44 8 l4 -33 -1 35 c-1 31 -4 35
-28 36 -26 1 -28 -1 -27 -40z"/>
<path d="M3773 4354 c20 -6 23 -24 3 -24 -7 0 -20 -8 -27 -17 -11 -15 -11 -16
1 -5 21 18 38 15 43 -10 3 -13 4 -5 4 17 -2 32 -6 40 -22 42 -16 1 -16 1 -2
-3z"/>
<path d="M3927 4353 c-13 -13 -7 -32 13 -38 27 -9 25 -25 -2 -26 -19 -1 -20
-2 -4 -6 10 -3 23 0 30 7 8 9 6 16 -11 27 -28 19 -29 30 -5 36 14 4 14 5 1 6
-9 0 -19 -2 -22 -6z"/>
<path d="M4113 4354 c20 -6 23 -24 3 -24 -7 0 -20 -8 -27 -17 -11 -15 -11 -16
1 -5 21 18 38 15 43 -10 3 -13 4 -5 4 17 -2 32 -6 40 -22 42 -16 1 -16 1 -2
-3z"/>
<path d="M4173 4320 c0 -25 2 -35 4 -22 2 12 2 32 0 45 -2 12 -4 2 -4 -23z"/>
<path d="M4257 4353 c-3 -5 8 -8 23 -8 15 0 26 3 23 8 -2 4 -13 7 -23 7 -10 0
-21 -3 -23 -7z"/>
<path d="M4341 4315 c2 -33 3 -35 6 -10 2 17 11 35 20 42 13 10 13 12 -6 10
-18 -1 -21 -7 -20 -42z"/>
<path d="M4406 4351 c-4 -5 2 -7 13 -4 10 3 22 0 25 -6 5 -7 -4 -11 -23 -11
-17 0 -31 -4 -31 -8 0 -4 16 -6 35 -4 37 4 42 11 23 30 -14 14 -35 16 -42 3z"/>
<path d="M4680 4345 c-26 -31 13 -82 44 -56 21 17 21 57 0 65 -23 9 -30 8 -44
-9z m45 -25 c0 -16 -6 -26 -18 -28 -19 -4 -32 20 -23 44 9 25 41 13 41 -16z"/>
<path d="M4800 4355 c0 -5 5 -17 10 -25 5 -8 10 -10 10 -5 0 6 -5 17 -10 25
-5 8 -10 11 -10 5z"/>
<path d="M4897 4353 c-3 -5 8 -8 23 -8 15 0 26 3 23 8 -2 4 -13 7 -23 7 -10 0
-21 -3 -23 -7z"/>
<path d="M4981 4338 c-2 -37 8 -58 27 -58 14 0 14 1 0 13 -9 6 -19 26 -21 42
-4 28 -4 29 -6 3z"/>
<path d="M5071 4315 c2 -33 3 -35 6 -10 2 17 11 35 20 42 13 10 13 12 -6 10
-18 -1 -21 -7 -20 -42z"/>
<path d="M5200 4348 c24 -10 24 -10 5 -18 -18 -8 -18 -9 -2 -9 22 -1 17 -25
-5 -29 -9 -2 -19 5 -22 15 -4 15 -5 15 -3 -2 2 -14 10 -20 30 -21 22 -1 27 3
27 22 0 37 -11 54 -34 53 -19 0 -19 -1 4 -11z"/>
<path d="M5251 4338 c-2 -37 8 -58 27 -58 14 0 14 1 0 13 -9 6 -19 26 -21 42
-4 28 -4 29 -6 3z"/>
<path d="M5443 4320 c0 -25 2 -35 4 -22 2 12 2 32 0 45 -2 12 -4 2 -4 -23z"/>
<path d="M5486 4351 c-4 -5 2 -7 13 -4 10 3 22 0 25 -6 5 -7 -4 -11 -23 -11
-17 0 -31 -4 -31 -8 0 -4 16 -6 35 -4 37 4 42 11 23 30 -14 14 -35 16 -42 3z"/>
<path d="M5561 4316 l2 -41 6 35 c8 48 38 54 44 8 l4 -33 -1 35 c-1 31 -4 35
-28 36 -26 1 -28 -1 -27 -40z"/>
<path d="M5662 4348 c-24 -24 -6 -69 28 -67 9 0 6 4 -7 9 -14 6 -23 18 -23 30
0 12 9 24 23 30 13 5 16 9 7 9 -9 1 -21 -4 -28 -11z"/>
<path d="M5732 4348 c-24 -24 -6 -69 28 -67 9 0 6 4 -7 9 -31 13 -29 30 5 31
l27 1 -30 8 c-24 5 -27 8 -13 14 9 4 22 4 29 0 8 -4 9 -3 5 4 -9 15 -29 15
-44 0z"/>
<path d="M6030 4345 c-26 -31 13 -82 44 -56 21 17 21 57 0 65 -23 9 -30 8 -44
-9z m45 -25 c0 -29 -32 -41 -41 -16 -9 24 4 48 23 44 12 -2 18 -12 18 -28z"/>
<path d="M6148 4353 c6 -3 13 -21 13 -41 l2 -37 6 35 c9 50 38 53 44 6 l4 -36
-1 37 c-1 37 -2 38 -41 39 -22 1 -34 -1 -27 -3z"/>
<path d="M6437 4354 c-4 -4 -7 -12 -7 -18 0 -6 4 -5 9 2 14 23 46 10 46 -18 0
-28 -32 -41 -47 -18 -8 10 -9 10 -5 -2 5 -21 47 -19 61 3 8 12 8 22 0 35 -12
18 -45 28 -57 16z"/>
<path d="M6530 4345 c-6 -7 -10 -24 -8 -37 2 -17 10 -23 28 -23 14 0 28 -4 32
-10 4 -5 8 10 8 35 0 41 -2 46 -24 48 -13 1 -29 -5 -36 -13z m45 -25 c0 -29
-32 -41 -41 -16 -9 24 4 48 23 44 12 -2 18 -12 18 -28z"/>
<path d="M1700 4343 c0 -18 20 -66 25 -61 3 3 -1 20 -9 39 -9 19 -15 29 -16
22z"/>
<path d="M2198 4323 c6 -2 18 -2 25 0 6 3 1 5 -13 5 -14 0 -19 -2 -12 -5z"/>
<path d="M2251 4319 c-1 -21 24 -43 41 -36 8 3 6 6 -5 6 -10 1 -22 11 -27 24
-6 15 -9 17 -9 6z"/>
<path d="M1157 4302 c1 -8 3 -16 3 -18 0 -3 5 -2 10 1 6 3 10 11 10 16 0 6 -4
8 -9 5 -5 -4 -11 -3 -14 1 -2 5 -2 2 0 -5z"/>
<path d="M1760 4308 c0 -9 5 -20 10 -23 13 -8 13 5 0 25 -8 13 -10 13 -10 -2z"/>
<path d="M2046 4304 c-9 -24 -7 -31 5 -11 5 9 21 17 34 17 13 0 29 -8 35 -17
11 -17 11 -17 6 0 -3 10 -6 21 -6 23 0 2 -15 4 -34 4 -22 0 -36 -6 -40 -16z"/>
<path d="M2353 4300 c2 -8 14 -16 28 -17 19 -1 20 -1 4 4 -11 3 -24 10 -28 17
-6 7 -7 6 -4 -4z"/>
<path d="M2803 4300 c2 -8 14 -16 28 -17 19 -1 20 -1 4 4 -11 3 -24 10 -28 17
-6 7 -7 6 -4 -4z"/>
<path d="M4825 4294 c3 -13 -1 -28 -10 -38 -9 -9 -12 -16 -6 -16 19 0 33 39
21 58 -10 15 -10 14 -5 -4z"/>
<path d="M995 4290 l-30 -8 27 -1 c15 0 30 4 33 9 3 6 5 9 3 9 -2 -1 -16 -5
-33 -9z"/>
<path d="M1228 4288 c6 -6 18 -8 28 -6 14 3 12 5 -9 10 -19 3 -25 2 -19 -4z"/>
<path d="M1588 4288 c6 -6 18 -8 28 -6 14 3 12 5 -9 10 -19 3 -25 2 -19 -4z"/>
<path d="M4257 4288 c2 -5 13 -8 23 -8 10 0 21 3 23 8 3 4 -8 7 -23 7 -15 0
-26 -3 -23 -7z"/>
<path d="M4408 4288 c6 -6 18 -8 28 -6 14 3 12 5 -9 10 -19 3 -25 2 -19 -4z"/>
<path d="M4897 4288 c2 -5 13 -8 23 -8 10 0 21 3 23 8 3 4 -8 7 -23 7 -15 0
-26 -3 -23 -7z"/>
<path d="M5488 4288 c6 -6 18 -8 28 -6 14 3 12 5 -9 10 -19 3 -25 2 -19 -4z"/>
<path d="M1068 4283 c7 -3 16 -2 19 1 4 3 -2 6 -13 5 -11 0 -14 -3 -6 -6z"/>
<path d="M3758 4283 c7 -3 16 -2 19 1 4 3 -2 6 -13 5 -11 0 -14 -3 -6 -6z"/>
<path d="M4098 4283 c7 -3 16 -2 19 1 4 3 -2 6 -13 5 -11 0 -14 -3 -6 -6z"/>
<path d="M6550 4250 c-23 -7 -23 -8 -3 -9 12 -1 25 4 28 9 3 6 5 10 3 9 -2 -1
-14 -5 -28 -9z"/>
<path d="M1890 4136 c0 -18 -4 -23 -18 -19 -24 6 -44 -19 -40 -49 2 -18 10
-23 36 -24 l32 -1 0 59 c0 32 -2 58 -5 58 -3 0 -5 -11 -5 -24z m-5 -56 c0 -16
-6 -26 -18 -28 -19 -4 -32 20 -23 44 9 25 41 13 41 -16z"/>
<path d="M2243 4100 c0 -36 2 -50 4 -32 2 17 2 47 0 65 -2 17 -4 3 -4 -33z"/>
<path d="M3123 4100 c0 -36 2 -50 4 -32 2 17 2 47 0 65 -2 17 -4 3 -4 -33z"/>
<path d="M3822 4100 c1 -48 2 -56 7 -30 8 48 38 54 44 8 l4 -33 -1 35 c-1 28
-5 35 -21 35 -13 0 -22 9 -26 25 -4 14 -7 -2 -7 -40z"/>
<path d="M4572 4140 c-4 -11 -5 -39 -3 -63 l6 -42 3 35 c2 19 9 38 15 42 9 6
9 8 0 8 -7 0 -13 6 -13 14 0 8 6 17 13 19 9 4 9 6 -1 6 -7 1 -16 -8 -20 -19z"/>
<path d="M3361 4123 c-6 -14 -10 -28 -7 -30 2 -2 7 5 11 16 3 12 11 19 16 16
5 -4 9 -2 9 4 0 22 -18 19 -29 -6z"/>
<path d="M3453 4095 c0 -33 2 -45 4 -27 2 18 2 45 0 60 -2 15 -4 0 -4 -33z"/>
<path d="M1228 4127 c-2 -7 -1 -25 3 -42 7 -30 7 -30 8 -3 0 14 5 28 10 30 5
2 3 8 -4 15 -10 9 -14 9 -17 0z"/>
<path d="M1398 4127 c-7 -22 7 -80 20 -83 7 -1 8 0 2 3 -12 6 -13 60 -1 65 5
2 3 8 -4 15 -10 9 -14 9 -17 0z"/>
<path d="M2088 4127 c-2 -7 -1 -25 3 -42 7 -30 7 -30 8 -3 0 14 5 28 10 30 5
2 3 8 -4 15 -10 9 -14 9 -17 0z"/>
<path d="M2698 4127 c-7 -22 7 -80 20 -83 7 -1 8 0 2 3 -12 6 -13 60 -1 65 5
2 3 8 -4 15 -10 9 -14 9 -17 0z"/>
<path d="M3242 4123 c-8 -8 -9 -13 -2 -13 5 0 10 -16 10 -35 0 -27 4 -35 18
-34 10 0 12 3 5 6 -15 5 -18 60 -4 65 5 2 4 8 -3 14 -8 8 -15 7 -24 -3z"/>
<path d="M3762 4123 c-8 -8 -9 -13 -2 -13 5 0 10 -16 10 -35 0 -27 4 -35 18
-34 10 0 12 3 5 6 -15 5 -18 60 -4 65 5 2 4 8 -3 14 -8 8 -15 7 -24 -3z"/>
<path d="M4248 4127 c-7 -22 7 -80 20 -83 7 -1 8 0 2 3 -12 6 -13 60 -1 65 5
2 3 8 -4 15 -10 9 -14 9 -17 0z"/>
<path d="M1010 4113 c8 -3 19 -11 23 -17 6 -7 7 -6 4 4 -2 8 -12 16 -23 17
-13 2 -15 1 -4 -4z"/>
<path d="M1077 4114 c-4 -4 -7 -12 -7 -18 0 -6 4 -5 9 2 14 23 46 10 46 -18 0
-28 -32 -41 -47 -18 -8 10 -9 10 -5 -2 5 -21 47 -19 61 3 8 12 8 22 0 35 -12
18 -45 28 -57 16z"/>
<path d="M1167 4113 c-13 -13 -7 -32 13 -38 27 -9 25 -25 -2 -26 -19 -1 -20
-2 -4 -6 10 -3 23 0 30 7 8 9 6 16 -11 27 -28 19 -29 30 -5 36 14 4 14 5 1 6
-9 0 -19 -2 -22 -6z"/>
<path d="M1284 4108 c-4 -6 2 -19 14 -29 28 -22 28 -29 0 -30 -19 -1 -20 -2
-4 -6 10 -3 23 0 30 7 8 9 6 16 -11 27 -13 9 -23 19 -23 24 0 4 10 10 23 12
22 4 22 4 0 6 -12 0 -25 -4 -29 -11z"/>
<path d="M1457 4114 c-4 -4 -7 -12 -7 -18 0 -6 4 -5 9 2 14 23 46 10 46 -18 0
-28 -32 -41 -47 -18 -8 10 -9 10 -5 -2 5 -21 47 -19 61 3 8 12 8 22 0 35 -12
18 -45 28 -57 16z"/>
<path d="M1591 4055 c1 -33 4 -48 6 -34 3 20 9 26 22 22 11 -3 21 -1 24 4 3 5
-4 9 -16 9 -17 -1 -22 5 -22 24 0 33 32 39 44 8 7 -15 10 -17 10 -7 1 22 -20
38 -47 36 -20 -1 -22 -6 -21 -62z"/>
<path d="M1681 4075 c2 -33 3 -35 6 -10 2 17 11 35 20 42 13 10 13 12 -6 10
-18 -1 -21 -7 -20 -42z"/>
<path d="M1747 4113 c-3 -5 8 -8 23 -8 15 0 26 3 23 8 -2 4 -13 7 -23 7 -10 0
-21 -3 -23 -7z"/>
<path d="M1921 4098 c-2 -37 8 -58 27 -58 14 0 14 1 0 13 -9 6 -19 26 -21 42
-4 28 -4 29 -6 3z"/>
<path d="M1978 4084 c-2 -19 0 -37 4 -40 4 -3 8 13 8 35 0 51 -6 53 -12 5z"/>
<path d="M2026 4111 c-3 -4 6 -6 19 -3 14 2 25 6 25 8 0 8 -39 4 -44 -5z"/>
<path d="M2196 4111 c-4 -5 3 -7 14 -4 23 6 26 13 6 13 -8 0 -17 -4 -20 -9z"/>
<path d="M2313 4114 c27 -8 20 -27 -9 -21 -22 4 -25 1 -22 -22 2 -19 9 -27 28
-28 25 -3 25 -3 3 7 -31 13 -29 30 3 30 19 0 25 5 22 17 -2 10 -12 19 -23 20
-16 1 -16 1 -2 -3z"/>
<path d="M2378 4113 c6 -2 18 -2 25 0 6 3 1 5 -13 5 -14 0 -19 -2 -12 -5z"/>
<path d="M2442 4108 c-24 -24 -6 -69 28 -67 9 0 6 4 -8 10 -32 12 -26 51 8 60
21 6 22 7 5 8 -12 1 -26 -4 -33 -11z"/>
<path d="M2513 4080 c0 -25 2 -35 4 -22 2 12 2 32 0 45 -2 12 -4 2 -4 -23z"/>
<path d="M2601 4059 c1 -39 4 -54 8 -39 4 18 13 25 31 25 22 0 25 4 25 35 0
24 -5 35 -15 36 -10 1 -10 -1 -2 -3 22 -8 10 -58 -13 -58 -15 0 -20 7 -20 27
-1 15 -4 30 -8 34 -4 4 -6 -22 -6 -57z"/>
<path d="M2753 4080 c0 -25 2 -35 4 -22 2 12 2 32 0 45 -2 12 -4 2 -4 -23z"/>
<path d="M2797 4114 c-4 -4 -7 -12 -7 -18 0 -6 4 -5 9 2 14 23 46 10 46 -18 0
-28 -32 -41 -47 -18 -8 10 -9 10 -5 -2 5 -21 47 -19 61 3 8 12 8 22 0 35 -12
18 -45 28 -57 16z"/>
<path d="M2880 4081 c0 -23 2 -41 4 -41 8 0 12 71 4 76 -4 3 -8 -13 -8 -35z"/>
<path d="M2923 4109 c10 -6 17 -23 18 -42 1 -18 3 -24 6 -14 8 30 -6 67 -25
67 -16 -1 -16 -1 1 -11z"/>
<path d="M2974 4108 c-4 -6 2 -19 14 -29 28 -22 28 -29 0 -30 -19 -1 -20 -2
-4 -6 10 -3 23 0 30 7 8 9 6 16 -11 27 -13 9 -23 19 -23 24 0 4 10 10 23 12
22 4 22 4 0 6 -12 0 -25 -4 -29 -11z"/>
<path d="M3166 4112 c-3 -5 6 -7 19 -4 14 2 25 0 25 -6 0 -6 -12 -13 -27 -15
-26 -4 -25 -4 5 -6 27 -1 33 2 30 17 -3 18 -42 29 -52 14z"/>
<path d="M3535 4109 c-4 -6 -4 -13 -1 -16 3 -4 6 -1 6 5 0 6 8 13 18 15 15 4
15 5 0 6 -9 0 -20 -4 -23 -10z"/>
<path d="M3632 4108 c-24 -24 -7 -69 28 -67 9 0 6 4 -8 10 -17 6 -22 15 -20
31 3 26 36 37 50 16 8 -10 9 -10 5 2 -5 19 -39 24 -55 8z"/>
<path d="M3916 4111 c-4 -5 2 -7 13 -4 10 3 22 0 25 -6 5 -7 -4 -11 -23 -11
-17 0 -31 -4 -31 -8 0 -4 16 -6 35 -4 37 4 42 11 23 30 -14 14 -35 16 -42 3z"/>
<path d="M4070 4106 c0 -9 5 -16 10 -16 6 0 10 4 10 9 0 6 -4 13 -10 16 -5 3
-10 -1 -10 -9z"/>
<path d="M4151 4075 c2 -33 3 -35 6 -10 2 17 11 35 20 42 13 10 13 12 -6 10
-18 -1 -21 -7 -20 -42z"/>
<path d="M4303 4080 c0 -25 2 -35 4 -22 2 12 2 32 0 45 -2 12 -4 2 -4 -23z"/>
<path d="M4341 4076 l2 -41 6 35 c8 48 38 54 44 8 l4 -33 -1 35 c-1 31 -4 35
-28 36 -26 1 -28 -1 -27 -40z"/>
<path d="M4436 4111 c-4 -5 3 -7 14 -4 23 6 26 13 6 13 -8 0 -17 -4 -20 -9z"/>
<path d="M4480 4070 c-4 -48 -8 -55 -30 -61 -22 -6 -22 -7 -4 -8 33 -2 46 22
42 76 l-4 48 -4 -55z"/>
<path d="M4622 4108 c-24 -24 -7 -69 28 -67 9 0 6 4 -8 10 -17 6 -22 15 -20
31 3 26 36 37 50 16 8 -10 9 -10 5 2 -5 19 -39 24 -55 8z"/>
<path d="M4711 4075 c2 -33 3 -35 6 -10 2 17 11 35 20 42 13 10 13 12 -6 10
-18 -1 -21 -7 -20 -42z"/>
<path d="M4800 4115 c0 -5 5 -17 10 -25 5 -8 10 -10 10 -5 0 6 -5 17 -10 25
-5 8 -10 11 -10 5z"/>
<path d="M4897 4113 c-3 -5 8 -8 23 -8 15 0 26 3 23 8 -2 4 -13 7 -23 7 -10 0
-21 -3 -23 -7z"/>
<path d="M4984 4080 c1 -31 4 -35 29 -36 25 -1 27 1 26 40 l-2 41 -6 -35 c-8
-48 -38 -54 -44 -8 l-4 33 1 -35z"/>
<path d="M3394 4098 c4 -14 -1 -18 -24 -18 -17 0 -30 -4 -30 -9 0 -4 12 -6 27
-3 18 3 30 -1 41 -14 13 -18 14 -17 7 6 -4 14 -12 32 -17 40 -8 12 -9 12 -4
-2z"/>
<path d="M4030 4103 c0 -18 20 -66 25 -61 3 3 -1 20 -9 39 -9 19 -15 29 -16
22z"/>
<path d="M2378 4084 c12 -9 22 -20 22 -25 0 -4 -10 -10 -22 -12 -20 -5 -20 -5
2 -4 35 3 37 31 3 45 -28 12 -28 12 -5 -4z"/>
<path d="M2181 4079 c-1 -21 24 -43 41 -36 8 3 6 6 -5 6 -10 1 -22 11 -27 24
-6 15 -9 17 -9 6z"/>
<path d="M4421 4079 c-1 -21 24 -43 41 -36 8 3 6 6 -5 6 -10 1 -22 11 -27 24
-6 15 -9 17 -9 6z"/>
<path d="M4090 4068 c0 -9 5 -20 10 -23 13 -8 13 5 0 25 -8 13 -10 13 -10 -2z"/>
<path d="M1030 4062 c0 -6 -8 -13 -17 -15 -16 -4 -16 -5 -1 -6 18 -1 34 16 24
26 -3 4 -6 1 -6 -5z"/>
<path d="M3163 4060 c2 -8 14 -16 28 -17 19 -1 20 -1 4 4 -11 3 -24 10 -28 17
-6 7 -7 6 -4 -4z"/>
<path d="M3533 4060 c2 -8 12 -16 23 -17 13 -2 15 -1 4 4 -8 3 -19 11 -23 17
-6 7 -7 6 -4 -4z"/>
<path d="M4825 4054 c3 -13 -1 -28 -10 -38 -9 -9 -12 -16 -6 -16 19 0 33 39
21 58 -10 15 -10 14 -5 -4z"/>
<path d="M1747 4048 c2 -5 13 -8 23 -8 10 0 21 3 23 8 3 4 -8 7 -23 7 -15 0
-26 -3 -23 -7z"/>
<path d="M2028 4048 c6 -6 18 -8 28 -6 14 3 12 5 -9 10 -19 3 -25 2 -19 -4z"/>
<path d="M3918 4048 c6 -6 18 -8 28 -6 14 3 12 5 -9 10 -19 3 -25 2 -19 -4z"/>
<path d="M4897 4048 c2 -5 13 -8 23 -8 10 0 21 3 23 8 3 4 -8 7 -23 7 -15 0
-26 -3 -23 -7z"/>
<path d="M12276 3965 c-3 -8 -5 -144 -6 -302 l0 -288 33 50 c31 48 32 49 35
21 3 -27 4 -28 52 -21 l49 7 3 -54 3 -55 98 32 c102 33 129 27 62 -15 -44 -27
-37 -40 23 -40 59 1 80 17 96 72 19 62 50 76 110 46 64 -30 97 -19 110 38 8
36 14 43 50 56 41 16 41 16 14 23 -22 6 -29 15 -35 47 -9 45 -26 52 -31 13 -2
-17 -9 -25 -23 -25 -16 0 -19 7 -19 46 0 27 -4 43 -10 39 -6 -4 -10 5 -10 20
0 15 4 24 10 20 17 -11 11 32 -7 46 -11 10 -14 10 -9 2 4 -7 2 -13 -3 -13 -12
0 -15 23 -4 33 3 4 12 2 19 -4 10 -8 15 -4 19 18 10 44 13 50 14 26 1 -12 6
-25 12 -29 11 -6 8 10 -9 55 -4 11 -1 11 16 2 13 -7 22 -8 22 -2 0 5 -6 11
-12 14 -7 2 -10 8 -5 12 4 5 17 3 30 -4 16 -9 30 -9 49 -2 14 5 35 7 46 4 27
-7 115 23 137 47 9 10 28 21 41 24 19 5 25 12 22 29 -2 18 -11 23 -42 25 -21
2 -42 -1 -45 -7 -4 -5 -45 -26 -91 -46 -47 -20 -91 -39 -97 -42 -7 -3 -13 1
-13 8 1 8 25 30 55 49 54 35 55 35 25 38 -22 2 -41 -5 -70 -28 -22 -17 -39
-37 -37 -43 1 -7 -4 -11 -12 -9 -8 2 -18 -3 -22 -10 -6 -9 -13 -9 -31 0 -72
36 -225 92 -252 92 -28 0 -31 -3 -32 -32 -1 -18 -6 -34 -13 -36 -6 -2 -11 -11
-11 -20 0 -15 -2 -15 -10 -2 -9 13 -10 13 -10 0 0 -13 -1 -13 -10 0 -15 23
-13 -3 5 -69 16 -63 28 -79 47 -64 15 12 67 12 86 0 7 -5 12 -4 12 3 0 6 10
10 23 9 12 -2 28 0 35 4 8 6 12 1 12 -17 0 -24 -3 -25 -48 -23 -26 2 -53 7
-61 11 -10 6 -12 5 -7 -2 4 -7 2 -12 -3 -12 -6 0 -11 5 -11 11 0 6 -5 7 -12 2
-13 -8 -18 -9 -38 -12 -5 0 -10 -10 -10 -21 0 -16 7 -20 30 -20 21 0 30 -5 30
-16 0 -9 -8 -14 -17 -13 -37 3 -43 -1 -43 -36 0 -27 -4 -35 -18 -35 -27 0 -42
-20 -42 -56 0 -30 -2 -32 -51 -38 -29 -4 -66 -9 -83 -12 -25 -3 -27 -3 -11 5
11 6 14 10 6 10 -11 1 -11 4 -1 16 9 10 9 15 1 15 -19 0 -12 16 12 27 21 11
21 11 2 18 -64 22 -66 23 -63 65 2 22 6 40 9 40 4 0 10 11 13 24 3 15 16 26
31 30 32 8 25 22 -15 31 -21 5 -32 14 -36 31 -10 40 1 54 45 54 36 0 40 3 46
30 4 16 1 46 -5 65 l-12 35 -63 0 c-46 0 -64 -4 -69 -15z m632 -118 c-2 -11
-9 -22 -15 -25 -16 -4 -27 22 -19 43 8 22 38 6 34 -18z m-308 -77 c0 -5 -4
-10 -10 -10 -5 0 -10 5 -10 10 0 6 5 10 10 10 6 0 10 -4 10 -10z m248 -19 c3
-19 -1 -21 -32 -19 -20 1 -36 7 -36 13 0 36 63 42 68 6z m-179 -71 c1 12 18
15 99 14 89 0 97 -2 97 -20 0 -16 -7 -19 -52 -18 -30 0 -53 -4 -53 -10 0 -6
-5 -5 -12 2 -9 9 -15 9 -26 -1 -12 -9 -16 -9 -19 1 -3 6 -16 12 -29 12 -18 0
-24 5 -23 23 0 21 1 21 9 2 6 -13 9 -15 9 -5z m180 -114 c7 -8 11 -30 9 -48
l-3 -33 -67 -3 c-65 -3 -68 -2 -74 23 -4 15 -2 37 5 51 9 21 17 24 65 24 34 0
58 -5 65 -14z"/>
<path d="M12515 3970 c3 -5 8 -10 11 -10 2 0 4 5 4 10 0 6 -5 10 -11 10 -5 0
-7 -4 -4 -10z"/>
<path d="M12530 3926 c0 -9 5 -16 10 -16 6 0 10 4 10 9 0 6 -4 13 -10 16 -5 3
-10 -1 -10 -9z"/>
<path d="M1052 3763 c-18 -9 -45 -32 -60 -51 -27 -35 -27 -38 -27 -188 0 -172
6 -188 81 -231 l39 -23 778 0 c755 0 779 1 817 20 21 11 49 34 62 52 22 31 23
42 23 184 0 148 0 151 -27 186 -55 72 -8 68 -875 68 -700 0 -781 -2 -811 -17z
m428 -199 c0 -11 -6 -13 -20 -9 -31 10 -60 -12 -60 -45 0 -34 29 -55 62 -45
15 5 19 3 16 -6 -8 -24 -71 -23 -93 1 -26 29 -24 79 4 102 29 23 91 25 91 2z
m644 0 c46 -45 19 -116 -46 -122 -66 -6 -97 69 -51 121 20 21 76 22 97 1z
m-304 -8 c0 -8 6 -17 13 -20 10 -5 10 -7 0 -12 -15 -7 -18 -64 -3 -64 6 0 10
-4 10 -10 0 -5 -11 -10 -25 -10 -22 0 -25 4 -25 39 0 22 -6 42 -12 45 -10 5
-10 7 0 12 6 3 12 12 12 20 0 8 7 14 15 14 8 0 15 -6 15 -14z m-260 -25 c0 -5
-7 -11 -15 -15 -9 -3 -15 -19 -15 -41 0 -24 -4 -35 -15 -35 -11 0 -15 12 -15
50 0 49 1 50 30 50 17 0 30 -4 30 -9z m88 -3 c7 -7 12 -20 12 -30 0 -14 -8
-18 -36 -18 -23 0 -33 -4 -28 -11 4 -6 19 -9 36 -5 21 4 28 2 25 -7 -2 -7 -20
-12 -43 -12 -33 0 -40 4 -48 27 -8 22 -6 32 9 48 20 22 55 26 73 8z m100 0 c7
-7 12 -29 12 -49 l0 -38 -42 2 c-36 2 -44 6 -46 25 -3 18 2 23 27 28 17 4 31
11 31 16 0 6 -11 8 -25 6 -17 -4 -25 -1 -25 8 0 17 51 19 68 2z m180 0 c7 -7
12 -20 12 -30 0 -14 -8 -18 -36 -18 -23 0 -33 -4 -28 -11 4 -6 19 -9 36 -5 21
4 28 2 25 -7 -2 -7 -20 -12 -43 -12 -33 0 -40 4 -48 27 -8 22 -6 32 9 48 20
22 55 26 73 8z m320 0 c18 -18 16 -88 -2 -88 -10 0 -16 13 -18 38 -2 25 -8 37
-18 37 -10 0 -16 -12 -18 -37 -2 -25 -8 -38 -18 -38 -10 0 -14 13 -14 50 l0
50 38 0 c21 0 43 -5 50 -12z m110 0 c7 -7 12 -20 12 -30 0 -14 -8 -18 -36 -18
-23 0 -33 -4 -28 -11 4 -6 19 -9 36 -5 21 4 28 2 25 -7 -2 -7 -20 -12 -43 -12
-33 0 -40 4 -48 27 -8 22 -6 32 9 48 20 22 55 26 73 8z"/>
<path d="M2052 3548 c-17 -17 -15 -63 4 -79 22 -18 48 0 52 35 6 45 -29 71
-56 44z"/>
<path d="M1595 3510 c-3 -5 3 -10 14 -10 12 0 21 5 21 10 0 6 -6 10 -14 10 -8
0 -18 -4 -21 -10z"/>
<path d="M1700 3470 c0 -5 4 -10 9 -10 6 0 13 5 16 10 3 6 -1 10 -9 10 -9 0
-16 -4 -16 -10z"/>
<path d="M1875 3510 c-3 -5 3 -10 14 -10 12 0 21 5 21 10 0 6 -6 10 -14 10 -8
0 -18 -4 -21 -10z"/>
<path d="M2305 3510 c-3 -5 3 -10 14 -10 12 0 21 5 21 10 0 6 -6 10 -14 10 -8
0 -18 -4 -21 -10z"/>
<path d="M11000 3713 c0 -14 3 -23 7 -19 10 10 11 46 1 46 -4 0 -8 -12 -8 -27z"/>
<path d="M11361 3717 c0 -16 -5 -26 -11 -22 -5 3 -10 1 -10 -4 0 -6 7 -11 15
-11 8 0 15 5 15 10 0 6 7 10 15 10 8 0 15 4 15 10 0 5 -6 7 -14 4 -8 -3 -16 2
-19 13 -3 12 -5 8 -6 -10z"/>
<path d="M11472 3710 c0 -19 2 -27 5 -17 2 9 2 25 0 35 -3 9 -5 1 -5 -18z"/>
<path d="M11031 3704 c0 -11 3 -14 6 -6 3 7 2 16 -1 19 -3 4 -6 -2 -5 -13z"/>
<path d="M11050 3698 c0 -10 5 -18 11 -18 5 0 7 5 4 10 -3 6 -2 10 4 10 5 0
12 -6 14 -12 3 -7 6 -4 6 7 1 14 -5 21 -19 21 -13 0 -20 -7 -20 -18z"/>
<path d="M11102 3700 c0 -14 2 -19 5 -12 2 6 2 18 0 25 -3 6 -5 1 -5 -13z"/>
<path d="M11120 3701 c0 -25 6 -27 13 -6 4 8 2 17 -3 20 -6 4 -10 -3 -10 -14z"/>
<path d="M11155 3710 c-3 -5 -1 -10 4 -10 6 0 11 5 11 10 0 6 -2 10 -4 10 -3
0 -8 -4 -11 -10z"/>
<path d="M11211 3692 c-1 -30 1 -32 14 -18 8 8 15 23 14 33 0 16 -1 16 -8 -2
l-8 -20 -5 20 c-4 13 -6 9 -7 -13z"/>
<path d="M11305 3700 c-3 -5 -1 -10 4 -10 6 0 11 5 11 10 0 6 -2 10 -4 10 -3
0 -8 -4 -11 -10z"/>
<path d="M11030 3619 c0 -5 -4 -8 -9 -4 -5 3 -13 0 -17 -6 -4 -8 -3 -9 4 -5 7
4 12 1 12 -9 0 -10 -5 -13 -12 -9 -7 4 -9 3 -5 -1 18 -21 37 -13 37 16 0 16
-2 29 -5 29 -3 0 -5 -5 -5 -11z"/>
<path d="M11051 3614 c0 -11 3 -14 6 -6 3 7 2 16 -1 19 -3 4 -6 -2 -5 -13z"/>
<path d="M11292 3605 c0 -16 2 -22 5 -12 2 9 2 23 0 30 -3 6 -5 -1 -5 -18z"/>
<path d="M11562 3605 c0 -16 2 -22 5 -12 2 9 2 23 0 30 -3 6 -5 -1 -5 -18z"/>
<path d="M13303 3575 c0 -33 2 -45 4 -27 2 18 2 45 0 60 -2 15 -4 0 -4 -33z"/>
<path d="M11117 3613 c-9 -9 -9 -43 1 -43 4 0 7 11 7 25 0 14 0 25 -1 25 0 0
-4 -3 -7 -7z"/>
<path d="M11169 3598 c8 -23 26 -25 26 -1 0 9 -8 17 -17 19 -13 1 -15 -3 -9
-18z m18 -10 c-3 -8 -6 -5 -6 6 -1 11 2 17 5 13 3 -3 4 -12 1 -19z"/>
<path d="M11215 3610 c3 -5 8 -10 11 -10 2 0 4 5 4 10 0 6 -5 10 -11 10 -5 0
-7 -4 -4 -10z"/>
<path d="M11242 3595 c0 -16 2 -22 5 -12 2 9 2 23 0 30 -3 6 -5 -1 -5 -18z"/>
<path d="M11412 3598 c-5 -21 -6 -21 -14 -2 -8 18 -8 18 -5 0 3 -27 27 -33 27
-7 0 12 5 21 11 21 7 0 9 -9 6 -21 -4 -16 -3 -19 5 -11 12 12 4 42 -13 42 -6
0 -13 -10 -17 -22z"/>
<path d="M11490 3600 c0 -11 2 -20 4 -20 2 0 6 9 9 20 3 11 1 20 -4 20 -5 0
-9 -9 -9 -20z"/>
<path d="M11584 3608 c-4 -7 -3 -8 4 -4 7 4 12 1 12 -9 0 -10 -5 -13 -12 -9
-7 4 -9 3 -5 -1 14 -16 37 -13 37 5 0 21 -26 34 -36 18z"/>
<path d="M11323 3583 c0 -7 4 -13 8 -13 4 0 9 6 12 13 3 8 0 14 -7 14 -7 0
-13 -6 -13 -14z"/>
<path d="M11080 3580 c0 -5 5 -10 11 -10 5 0 7 5 4 10 -3 6 -8 10 -11 10 -2 0
-4 -4 -4 -10z"/>
<path d="M13240 3542 c0 -11 -73 -52 -101 -57 -36 -7 -69 -34 -69 -56 0 -14 5
-19 14 -16 10 4 13 1 9 -9 -3 -8 1 -21 8 -30 10 -12 10 -15 -1 -12 -8 2 -14
-2 -15 -9 0 -6 -3 -14 -7 -18 -4 -4 -4 -13 -1 -21 4 -12 24 -14 94 -12 74 2
86 5 76 17 -10 11 -8 13 11 7 32 -10 30 21 -3 36 -26 12 -32 24 -15 30 6 2 15
30 20 63 13 81 13 95 -5 95 -8 0 -15 -4 -15 -8z"/>
<path d="M11000 3498 c0 -32 17 -46 26 -23 4 9 0 24 -10 33 -15 15 -16 14 -16
-10z m17 -20 c-3 -8 -6 -5 -6 6 -1 11 2 17 5 13 3 -3 4 -12 1 -19z"/>
<path d="M11332 3495 c0 -16 2 -22 5 -12 2 9 2 23 0 30 -3 6 -5 -1 -5 -18z"/>
<path d="M11143 3492 c-3 -7 0 -19 6 -25 10 -9 12 -9 9 3 -2 9 4 15 13 14 9
-1 16 4 16 10 0 16 -38 15 -44 -2z"/>
<path d="M11200 3503 c0 -5 5 -15 10 -23 7 -12 9 -10 7 8 -1 19 -17 33 -17 15z"/>
<path d="M11382 3490 c0 -14 2 -19 5 -12 2 6 2 18 0 25 -3 6 -5 1 -5 -13z"/>
<path d="M11503 3494 c-3 -8 -1 -20 4 -25 5 -5 9 1 9 16 0 29 -4 32 -13 9z"/>
<path d="M11530 3501 c0 -6 4 -12 8 -15 5 -3 9 1 9 9 0 8 -4 15 -9 15 -4 0 -8
-4 -8 -9z"/>
<path d="M11047 3481 c-4 -17 -3 -21 5 -13 5 5 8 16 6 23 -3 8 -7 3 -11 -10z"/>
<path d="M11361 3484 c0 -11 3 -14 6 -6 3 7 2 16 -1 19 -3 4 -6 -2 -5 -13z"/>
<path d="M11460 3489 c0 -5 -4 -8 -8 -5 -5 3 -9 -1 -9 -8 0 -8 6 -12 14 -9 12
5 19 33 8 33 -3 0 -5 -5 -5 -11z"/>
<path d="M11073 3475 c0 -8 4 -12 9 -9 5 3 6 10 3 15 -9 13 -12 11 -12 -6z"/>
<path d="M11122 3385 c0 -16 2 -22 5 -12 2 9 2 23 0 30 -3 6 -5 -1 -5 -18z"/>
<path d="M11224 3382 c1 -31 21 -33 23 -2 l2 25 -8 -25 -8 -25 -5 25 c-4 22
-5 22 -4 2z"/>
<path d="M11006 3384 c-3 -9 -4 -19 -1 -22 3 -3 5 1 5 9 0 11 2 11 10 -1 5 -8
10 -10 10 -5 0 6 -4 16 -9 23 -6 11 -10 10 -15 -4z"/>
<path d="M11092 3380 c0 -14 2 -19 5 -12 2 6 2 18 0 25 -3 6 -5 1 -5 -13z"/>
<path d="M11151 3377 c0 -16 2 -18 7 -7 9 20 36 26 29 5 -4 -8 -2 -15 4 -15
20 0 4 33 -18 36 -18 3 -23 -1 -22 -19z"/>
<path d="M11361 3378 c0 -22 1 -22 8 -3 l8 20 5 -20 c5 -18 6 -18 7 3 1 13 -5
22 -14 22 -9 0 -15 -9 -14 -22z"/>
<path d="M11430 3393 c0 -5 5 -15 10 -23 7 -12 9 -10 7 8 -1 19 -17 33 -17 15z"/>
<path d="M11041 3374 c0 -11 3 -14 6 -6 3 7 2 16 -1 19 -3 4 -6 -2 -5 -13z"/>
<path d="M11312 3360 c0 -14 2 -19 5 -12 2 6 2 18 0 25 -3 6 -5 1 -5 -13z"/>
<path d="M12975 3330 l-38 -30 47 0 c42 0 46 2 46 24 0 37 -14 39 -55 6z"/>
<path d="M12875 3320 l-30 -20 43 0 c35 0 42 3 42 20 0 25 -17 25 -55 0z"/>
<path d="M10690 3142 c-8 -3 -56 -24 -106 -48 -83 -39 -91 -46 -91 -71 0 -32
-21 -90 -22 -61 -1 12 -6 16 -18 11 -13 -4 -12 -1 3 10 22 17 39 57 24 57 -5
0 -20 -5 -34 -11 -23 -11 -25 -17 -25 -75 0 -35 -3 -68 -6 -74 -11 -18 5 -11
145 63 l138 72 72 -24 c73 -25 91 -41 72 -64 -8 -10 -6 -13 8 -13 10 0 16 4
14 8 -3 4 0 8 6 8 7 0 10 7 7 15 -4 8 -2 17 4 20 16 11 1 22 -26 20 -14 -2
-25 1 -25 6 0 6 -4 8 -8 5 -5 -3 -9 9 -9 27 0 18 2 24 4 15 3 -12 14 -18 34
-18 17 0 32 -6 35 -15 9 -21 27 -19 20 3 -6 16 -5 16 8 0 19 -25 26 -22 26 11
0 32 11 26 -167 92 -32 12 -60 25 -63 29 -3 4 -12 5 -20 2z m-107 -114 c-10
-18 -20 -6 -15 19 5 24 6 25 12 8 4 -11 6 -23 3 -27z m139 10 c-8 -8 -9 -4 -5
13 4 13 8 18 11 10 2 -7 -1 -18 -6 -23z m-59 -8 c3 -11 1 -20 -4 -20 -5 0 -9
9 -9 20 0 11 2 20 4 20 2 0 6 -9 9 -20z m-119 -24 c-7 -18 -20 -21 -29 -6 -3
6 1 10 9 10 9 0 16 5 16 12 0 6 2 9 5 6 3 -3 3 -13 -1 -22z m36 -6 c0 -5 -4
-10 -10 -10 -5 0 -10 5 -10 10 0 6 5 10 10 10 6 0 10 -4 10 -10z"/>
<path d="M12582 3137 c-20 -24 -28 -92 -24 -204 4 -103 6 -113 23 -113 17 0
19 9 19 95 0 57 4 95 10 95 6 0 10 12 10 26 0 14 -4 23 -10 19 -6 -4 -10 5
-10 19 0 14 5 26 10 26 6 0 10 11 10 25 0 27 -20 34 -38 12z"/>
<path d="M12666 3134 c-9 -8 -16 -28 -16 -44 0 -16 -4 -32 -10 -35 -5 -3 -10
-15 -10 -26 0 -10 5 -19 10 -19 6 0 10 -38 10 -95 0 -78 3 -95 15 -95 12 0 15
17 15 90 0 71 3 92 15 96 20 8 19 34 -1 48 -15 12 -10 46 7 46 5 0 9 11 9 25
0 29 -21 33 -44 9z"/>
<path d="M12730 3120 c0 -25 4 -31 18 -28 11 2 17 12 17 28 0 16 -6 26 -17 28
-14 3 -18 -3 -18 -28z"/>
<path d="M11680 3109 c0 -5 10 -9 22 -9 12 0 18 3 14 7 -10 11 -36 12 -36 2z"/>
<path d="M12392 3098 c-48 -52 -57 -154 -19 -228 39 -77 109 -74 143 5 31 76
6 220 -41 239 -32 12 -62 6 -83 -16z m83 -48 c43 -47 22 -180 -28 -180 -39 0
-60 32 -60 94 0 90 45 134 88 86z"/>
<path d="M11047 3094 c-3 -4 -2 -15 4 -25 5 -11 9 -29 8 -42 -5 -50 0 -57 37
-57 21 0 33 -4 29 -10 -8 -14 19 -40 42 -40 13 0 11 -4 -9 -14 -15 -8 -35 -16
-45 -19 -15 -4 -15 -5 -2 -6 9 0 19 -8 23 -16 4 -11 -1 -15 -19 -15 -22 0 -25
4 -25 34 0 19 -5 38 -12 42 -8 5 -9 0 -5 -17 4 -13 8 -49 8 -79 2 -36 4 -44 6
-22 4 29 7 32 39 32 19 0 34 -4 34 -10 0 -6 35 -10 86 -10 54 0 83 4 79 10 -4
6 19 10 62 9 49 -1 61 -3 43 -9 l-25 -8 28 -1 c23 -1 27 -5 27 -31 0 -28 -3
-30 -34 -30 -46 0 -56 -18 -14 -23 29 -3 29 -4 -9 -5 -25 -1 -43 3 -46 11 -4
10 -6 10 -6 0 -1 -7 -6 -13 -12 -13 -6 0 -9 6 -6 13 4 11 -17 14 -99 14 -57 1
-104 -3 -104 -8 0 -5 12 -10 28 -10 21 -1 22 -2 7 -6 -28 -7 -38 -27 -17 -35
13 -5 11 -7 -8 -7 -20 -1 -22 -3 -10 -11 12 -7 8 -10 -15 -11 -31 -1 -29 -2
20 -15 29 -8 29 -8 -15 -13 -35 -5 -44 -10 -42 -23 1 -10 -5 -29 -14 -43 -34
-53 -25 -55 214 -55 172 0 222 3 231 13 12 16 11 398 -1 390 -5 -2 -8 1 -8 6
0 6 5 11 10 11 6 0 10 11 10 25 0 14 -3 25 -7 25 -5 0 -6 25 -5 55 4 53 3 55
-21 55 -15 0 -28 -8 -35 -22 l-11 -23 0 23 c-1 17 -7 22 -26 22 -20 0 -26 -7
-37 -42 l-13 -43 -3 43 c-3 39 -5 42 -33 42 -25 0 -29 -4 -29 -29 0 -42 -18
-48 -22 -9 -2 28 -8 34 -30 36 -27 3 -28 1 -28 -40 l0 -43 -15 29 c-8 15 -15
35 -15 42 0 8 -10 14 -25 14 -22 0 -25 -4 -25 -39 0 -56 -15 -59 -30 -6 -10
36 -17 45 -35 45 -12 0 -25 -3 -28 -6z m358 -169 c24 -8 32 -14 20 -15 -12 0
-27 -6 -34 -12 -11 -10 -13 -10 -7 0 5 8 -2 12 -23 12 -16 0 -33 5 -37 12 -5
8 0 9 14 6 12 -4 22 -2 22 3 0 11 -3 12 45 -6z m-181 -31 c9 -3 16 -14 16 -23
0 -14 -2 -14 -10 -1 -8 12 -10 11 -10 -7 0 -12 8 -24 18 -26 9 -3 1 -4 -19 -3
-30 1 -35 4 -31 22 3 19 0 21 -25 18 -15 -2 -19 -1 -8 2 11 3 24 10 30 15 11
11 18 11 39 3z m146 -19 c0 -21 -5 -25 -31 -25 -17 0 -28 4 -24 10 3 6 13 10
21 10 8 0 14 7 14 15 0 8 5 15 10 15 6 0 10 -11 10 -25z m80 5 c0 -5 -17 -9
-37 -9 -38 1 -38 1 -8 9 43 11 45 11 45 0z m-27 -27 c-7 -2 -21 -2 -30 0 -10
3 -4 5 12 5 17 0 24 -2 18 -5z m-116 -19 c-3 -3 -12 -4 -19 -1 -8 3 -5 6 6 6
11 1 17 -2 13 -5z m-37 -129 c0 -18 -5 -25 -19 -25 -11 0 -21 -9 -24 -21 -3
-12 -10 -18 -17 -14 -8 5 -7 12 4 24 23 26 20 34 -13 29 -17 -2 -28 -1 -25 4
3 4 14 8 24 8 10 0 22 5 25 10 3 6 15 10 26 10 14 0 19 -7 19 -25z m180 1 c0
-3 -4 -8 -10 -11 -5 -3 -10 -1 -10 4 0 6 5 11 10 11 6 0 10 -2 10 -4z m-77
-19 c4 -10 -3 -12 -27 -8 -30 4 -30 5 -6 12 14 4 26 7 26 8 1 1 4 -5 7 -12z
m-106 -33 c-3 -3 -12 -4 -19 -1 -8 3 -5 6 6 6 11 1 17 -2 13 -5z m156 -6 c-2
-5 -24 -8 -49 -8 -29 0 -43 4 -39 10 4 6 26 9 50 8 24 -2 41 -6 38 -10z"/>
<path d="M12730 2939 c0 -107 2 -119 18 -119 15 0 17 12 17 114 1 102 -1 115
-17 119 -17 5 -18 -4 -18 -114z"/>
<path d="M12820 3040 c-26 -26 -33 -59 -28 -126 5 -57 35 -104 68 -104 18 0
53 35 63 63 10 28 -20 32 -42 6 -19 -23 -21 -23 -37 -7 -24 23 -25 102 -2 124
16 17 19 17 36 1 45 -41 63 -4 21 42 -25 26 -53 27 -79 1z"/>
<path d="M12977 3042 c-70 -77 -29 -253 53 -227 17 5 50 51 50 70 0 12 -34 4
-46 -12 -16 -22 -47 -7 -52 26 -3 19 1 21 49 21 l52 0 -5 52 c-8 75 -62 114
-101 70z m63 -51 c15 -29 13 -31 -25 -31 -36 0 -46 15 -23 38 18 18 36 15 48
-7z"/>
<path d="M13100 3045 c0 -7 9 -35 21 -61 l20 -48 -20 -49 c-25 -59 -26 -67 -6
-67 8 0 21 15 29 33 l14 32 13 -32 c8 -20 20 -33 31 -33 23 0 23 8 -2 66 l-21
48 22 54 c19 45 20 55 8 63 -10 6 -18 -1 -31 -29 l-17 -37 -13 32 c-12 32 -48
53 -48 28z"/>
<path d="M10900 2969 c0 -5 5 -7 10 -4 6 3 10 8 10 11 0 2 -4 4 -10 4 -5 0
-10 -5 -10 -11z"/>
<path d="M11665 2940 c3 -5 8 -10 11 -10 2 0 4 5 4 10 0 6 -5 10 -11 10 -5 0
-7 -4 -4 -10z"/>
<path d="M11690 2925 c-14 -16 -5 -35 16 -35 15 0 20 35 5 44 -5 3 -14 -1 -21
-9z"/>
<path d="M10778 2922 c-11 -2 -18 -13 -18 -27 0 -13 -4 -27 -10 -30 -5 -3 -10
-11 -10 -17 0 -7 6 -6 15 2 8 7 15 9 15 4 0 -5 7 2 16 14 20 28 15 59 -8 54z"/>
<path d="M11052 2910 c0 -14 2 -19 5 -12 2 6 2 18 0 25 -3 6 -5 1 -5 -13z"/>
<path d="M10670 2875 c-11 -13 -10 -15 6 -10 13 4 12 2 -3 -6 -16 -8 -23 -21
-23 -40 0 -15 -4 -31 -10 -34 -5 -3 -10 -11 -10 -16 0 -5 11 -2 25 7 23 15 25
15 25 0 0 -9 6 -16 14 -16 8 0 16 -5 18 -12 2 -6 12 -9 21 -5 13 5 14 11 6 36
-11 31 -34 33 -42 3 -3 -10 -2 11 1 46 5 63 -3 77 -28 47z"/>
<path d="M10813 2871 c-3 -11 -10 -18 -17 -15 -6 3 -2 -2 8 -10 27 -22 36 -20
36 8 0 32 -20 44 -27 17z"/>
<path d="M11801 2874 c0 -11 3 -14 6 -6 3 7 2 16 -1 19 -3 4 -6 -2 -5 -13z"/>
<path d="M11696 2847 c-5 -15 -6 -31 -2 -34 11 -11 18 5 14 34 l-4 28 -8 -28z"/>
<path d="M10927 2842 c-5 -7 -13 -10 -18 -7 -5 3 -6 -1 -3 -9 4 -11 0 -14 -15
-11 -12 2 -19 0 -17 -4 7 -11 -42 -56 -51 -48 -3 4 -11 -3 -17 -16 -7 -12 -17
-22 -23 -22 -7 0 -18 -7 -25 -15 -11 -12 -10 -12 7 0 15 11 14 8 -4 -13 -24
-27 -49 -38 -35 -15 5 7 3 8 -5 4 -7 -5 -10 -11 -6 -14 6 -7 -65 -82 -78 -82
-4 0 -5 6 -1 13 4 6 -11 -5 -34 -25 -23 -21 -45 -38 -48 -38 -3 0 -31 21 -62
47 -32 26 -59 49 -61 50 -2 1 1 8 7 15 10 13 15 45 13 83 -1 18 -2 18 -17 -3
-9 -13 -13 -29 -10 -37 3 -8 1 -17 -4 -20 -14 -9 -12 -59 2 -73 10 -10 10 -15
-1 -21 -11 -7 -9 -11 8 -20 12 -7 18 -17 15 -23 -4 -7 -3 -8 4 -4 7 4 12 4 12
-1 0 -4 43 -8 96 -8 88 0 98 2 105 20 6 15 8 16 8 4 1 -17 31 -36 31 -20 0 5
10 11 23 15 31 7 97 68 97 89 0 10 15 24 35 34 20 9 41 30 50 49 8 18 20 34
26 36 6 2 9 24 7 53 -2 31 -6 45 -11 37z m-297 -255 c0 -2 -15 -16 -32 -33
l-33 -29 29 33 c28 30 36 37 36 29z m-160 -23 c0 -8 -4 -12 -10 -9 -5 3 -10
10 -10 16 0 5 5 9 10 9 6 0 10 -7 10 -16z"/>
<path d="M11940 2820 c0 -13 7 -20 20 -20 14 0 20 7 20 23 0 18 -2 19 -10 7
-6 -10 -10 -11 -10 -2 0 6 -4 12 -10 12 -5 0 -10 -9 -10 -20z"/>
<path d="M10556 2796 c-8 -14 -25 -27 -36 -31 -15 -5 -20 -15 -20 -44 0 -20
-5 -42 -12 -49 -17 -17 -1 -15 33 5 15 9 33 30 38 45 6 16 17 31 26 34 18 7
21 25 3 22 -6 -2 -14 6 -16 16 -3 15 0 18 17 13 12 -3 19 -1 15 4 -10 16 -31
9 -48 -15z"/>
<path d="M11808 2803 c6 -2 18 -2 25 0 6 3 1 5 -13 5 -14 0 -19 -2 -12 -5z"/>
<path d="M10426 2775 c4 -8 8 -15 10 -15 2 0 4 7 4 15 0 8 -4 15 -10 15 -5 0
-7 -7 -4 -15z"/>
<path d="M11080 2740 c-1 -23 -4 -28 -7 -15 -5 20 -20 35 -36 35 -4 0 -3 -9 3
-19 5 -11 11 -37 11 -58 1 -21 3 -29 6 -18 3 11 10 25 15 30 8 7 9 6 4 -2 -4
-7 -2 -13 3 -13 6 0 11 9 11 19 0 12 8 21 23 24 22 4 22 4 0 6 -14 1 -23 9
-26 24 -3 16 -5 12 -7 -13z"/>
<path d="M11710 2743 c8 -3 21 -10 28 -16 8 -7 12 -5 12 7 0 11 -8 16 -27 15
-16 0 -22 -3 -13 -6z"/>
<path d="M11917 2744 c-4 -4 -7 -14 -7 -23 0 -11 3 -12 11 -4 6 6 10 16 7 23
-2 6 -7 8 -11 4z"/>
<path d="M11620 2736 c0 -2 7 -9 15 -16 9 -7 15 -8 15 -2 0 5 -7 12 -15 16 -8
3 -15 4 -15 2z"/>
<path d="M10471 2694 c0 -11 3 -14 6 -6 3 7 2 16 -1 19 -3 4 -6 -2 -5 -13z"/>
<path d="M10525 2671 c-3 -5 -1 -12 5 -16 5 -3 10 1 10 9 0 18 -6 21 -15 7z"/>
<path d="M10555 2660 c-3 -5 -2 -10 4 -10 5 0 13 5 16 10 3 6 2 10 -4 10 -5 0
-13 -4 -16 -10z"/>
<path d="M11872 2645 c-6 -13 -7 -27 -3 -30 5 -2 11 8 14 23 7 35 3 38 -11 7z"/>
<path d="M10674 2638 l-19 -23 23 19 c21 18 27 26 19 26 -2 0 -12 -10 -23 -22z"/>
<path d="M11932 2610 c-8 -14 -21 -18 -47 -15 -29 2 -35 0 -35 -16 0 -18 -10
-23 -37 -20 -19 3 -93 -19 -93 -27 0 -4 62 -7 138 -7 l137 0 0 35 c0 33 -2 35
-30 33 -19 -2 -24 0 -14 5 13 5 14 9 5 18 -10 9 -15 7 -24 -6z"/>
<path d="M11810 2611 c0 -5 5 -13 10 -16 6 -3 10 -2 10 4 0 5 -4 13 -10 16 -5
3 -10 2 -10 -4z"/>
<path d="M10535 2409 c-4 -6 -5 -12 -2 -15 2 -3 7 2 10 11 7 17 1 20 -8 4z"/>
<path d="M11170 2406 c0 -2 7 -7 16 -10 8 -3 12 -2 9 4 -6 10 -25 14 -25 6z"/>
<path d="M11695 2400 c3 -5 8 -10 11 -10 2 0 4 5 4 10 0 6 -5 10 -11 10 -5 0
-7 -4 -4 -10z"/>
<path d="M11031 2097 c-20 -25 -24 -73 -7 -106 l17 -31 89 0 c104 0 120 10
120 71 0 73 -8 79 -114 79 -66 0 -97 -4 -105 -13z"/>
<path d="M4940 1250 l0 -180 25 0 25 0 0 180 0 180 -25 0 -25 0 0 -180z"/>
<path d="M9280 1353 c0 -72 -1 -75 -17 -61 -29 24 -54 29 -90 17 -73 -24 -93
-159 -33 -214 30 -27 84 -24 115 5 l25 23 0 -26 c0 -22 5 -27 25 -27 l25 0 0
180 0 180 -25 0 c-24 0 -25 -2 -25 -77z m-18 -90 c26 -23 25 -106 -2 -133 -45
-45 -110 -10 -110 59 0 73 65 117 112 74z"/>
<path d="M4170 1240 l0 -170 90 0 c83 0 90 2 90 20 0 16 -8 19 -62 22 l-63 3
0 55 0 55 53 3 c44 3 52 6 52 23 0 16 -7 19 -56 19 l-55 0 3 48 3 47 58 3 c49
3 57 6 57 22 0 18 -7 20 -85 20 l-85 0 0 -170z"/>
<path d="M6004 1399 c-71 -20 -116 -115 -100 -204 15 -77 103 -136 179 -119
83 17 127 75 127 166 0 72 -25 117 -80 146 -47 23 -75 26 -126 11z m121 -61
c47 -41 51 -146 8 -190 -47 -46 -131 -39 -163 15 -22 36 -26 106 -9 140 30 59
115 77 164 35z"/>
<path d="M6908 1258 c-31 -84 -60 -161 -63 -170 -6 -14 -2 -18 18 -18 21 0 28
7 39 43 l15 42 70 3 71 3 14 -43 c12 -35 20 -44 42 -46 16 -2 27 0 25 5 -2 5
-31 82 -63 171 -56 154 -60 162 -85 162 -25 0 -30 -9 -83 -152z m111 23 c11
-36 21 -69 21 -73 0 -4 -24 -8 -54 -8 l-54 0 26 80 c14 44 29 76 33 72 3 -4
16 -36 28 -71z"/>
<path d="M7200 1240 c0 -163 1 -170 20 -170 19 0 20 7 20 170 0 163 -1 170
-20 170 -19 0 -20 -7 -20 -170z"/>
<path d="M7530 1240 l0 -170 25 0 c24 0 25 2 25 65 l0 65 40 0 c47 0 95 22
110 49 15 29 12 93 -5 118 -19 27 -72 43 -142 43 l-53 0 0 -170z m145 105 c28
-27 30 -37 14 -68 -16 -31 -28 -37 -71 -37 l-38 0 0 65 0 65 35 0 c25 0 44 -8
60 -25z"/>
<path d="M4416 1273 c15 -27 32 -56 38 -65 8 -13 2 -29 -27 -72 -20 -31 -37
-58 -37 -61 0 -3 10 -5 23 -5 16 0 29 13 50 50 16 28 30 50 32 50 3 0 16 -22
30 -50 20 -40 30 -50 51 -50 l25 0 -26 43 c-50 81 -50 83 -23 124 14 21 30 48
37 61 11 20 9 22 -12 22 -18 0 -28 -10 -42 -40 -30 -67 -40 -68 -70 -11 -21
41 -30 51 -51 51 l-26 0 28 -47z"/>
<path d="M4650 1140 l0 -180 25 0 c24 0 25 2 25 77 0 72 1 75 18 61 28 -24 53
-29 88 -18 47 16 68 54 68 122 1 50 -3 62 -26 85 -36 35 -87 37 -123 3 l-25
-23 0 26 c0 22 -5 27 -25 27 l-25 0 0 -180z m160 120 c46 -46 14 -150 -47
-150 -43 0 -63 26 -63 82 0 55 24 88 65 88 14 0 34 -9 45 -20z"/>
<path d="M5130 1309 c-84 -34 -103 -146 -35 -209 29 -27 97 -33 138 -11 78 42
73 183 -8 217 -39 16 -60 17 -95 3z m80 -39 c26 -14 41 -73 28 -111 -28 -81
-138 -56 -138 31 0 69 56 109 110 80z"/>
<path d="M5360 1195 c0 -118 1 -125 20 -125 18 0 20 7 20 78 0 88 16 122 56
122 19 0 24 5 24 25 0 33 -16 32 -51 -6 l-29 -31 0 31 c0 24 -4 31 -20 31 -19
0 -20 -7 -20 -125z"/>
<path d="M5584 1310 c-30 -12 -61 -54 -68 -94 -17 -89 51 -158 137 -140 26 6
43 15 45 25 2 14 -5 15 -46 11 -42 -4 -53 -1 -71 17 -41 41 -25 56 62 59 75 3
77 4 77 28 0 40 -27 81 -61 93 -37 13 -46 13 -75 1z m80 -46 c32 -32 20 -44
-44 -44 -33 0 -60 3 -60 8 0 4 7 18 16 30 18 26 65 30 88 6z"/>
<path d="M6272 1219 c4 -85 8 -104 26 -122 27 -27 83 -28 112 -2 20 18 20 18
20 -3 0 -17 6 -22 25 -22 l25 0 0 125 0 125 -25 0 c-25 0 -25 -1 -25 -88 0
-96 -12 -122 -58 -122 -41 0 -52 25 -52 121 l0 89 -26 0 -27 0 5 -101z"/>
<path d="M6560 1195 c0 -118 1 -125 20 -125 18 0 20 7 20 64 0 98 19 136 68
136 18 0 23 5 20 22 -4 32 -24 33 -53 4 -32 -32 -35 -32 -35 -1 0 18 -5 25
-20 25 -19 0 -20 -7 -20 -125z"/>
<path d="M7850 1309 c-84 -34 -103 -146 -35 -209 29 -27 97 -33 138 -11 78 42
73 183 -8 217 -39 16 -60 17 -95 3z m80 -39 c26 -14 41 -73 28 -111 -28 -81
-138 -56 -138 31 0 69 56 109 110 80z"/>
<path d="M8050 1308 c0 -6 14 -62 32 -125 28 -101 34 -113 54 -113 19 0 25 9
39 58 9 31 22 75 29 97 l13 40 12 -45 c39 -145 41 -150 65 -150 21 0 26 11 54
115 37 135 37 135 14 135 -15 0 -22 -19 -41 -101 -12 -56 -26 -97 -30 -93 -4
5 -13 34 -20 65 -23 109 -31 129 -51 129 -19 0 -29 -26 -61 -152 -6 -27 -14
-48 -18 -48 -4 0 -15 39 -25 88 -11 48 -21 93 -24 100 -5 15 -42 16 -42 0z"/>
<path d="M8483 1306 c-94 -42 -78 -213 22 -232 41 -7 99 8 103 28 2 12 -6 14
-45 11 -53 -6 -89 14 -95 52 -3 18 3 20 80 23 65 2 82 6 82 18 0 23 -25 78
-42 91 -24 20 -71 24 -105 9z m84 -38 c6 -7 13 -21 16 -30 6 -16 -1 -18 -59
-18 -64 0 -65 0 -53 23 7 12 17 25 23 29 18 12 63 9 73 -4z"/>
<path d="M8690 1195 c0 -118 1 -125 20 -125 18 0 20 7 20 64 0 98 19 136 68
136 18 0 23 5 20 22 -4 32 -24 33 -53 4 -32 -32 -35 -32 -35 -1 0 18 -5 25
-20 25 -19 0 -20 -7 -20 -125z"/>
<path d="M8913 1306 c-94 -42 -78 -213 22 -232 41 -7 99 8 103 28 2 12 -6 14
-45 11 -53 -6 -89 14 -95 52 -3 18 3 20 80 23 65 2 82 6 82 18 0 23 -25 78
-42 91 -24 20 -71 24 -105 9z m84 -38 c6 -7 13 -21 16 -30 6 -16 -1 -18 -59
-18 -64 0 -65 0 -53 23 7 12 17 25 23 29 18 12 63 9 73 -4z"/>
<path d="M7330 1200 c0 -18 7 -20 60 -20 53 0 60 2 60 20 0 18 -7 20 -60 20
-53 0 -60 -2 -60 -20z"/>
<path d="M6210 590 c0 -170 1 -180 19 -180 17 0 19 9 22 84 4 92 22 126 65
126 39 0 54 -35 54 -127 0 -76 2 -83 20 -83 19 0 20 7 20 99 0 82 -3 103 -19
122 -23 28 -81 31 -109 6 -10 -9 -22 -17 -25 -17 -4 0 -7 34 -7 75 0 68 -2 75
-20 75 -19 0 -20 -7 -20 -180z"/>
<path d="M5920 731 c0 -16 8 -20 43 -23 l42 -3 3 -147 3 -148 24 0 24 0 3 148
3 147 43 3 c34 3 42 7 42 23 0 18 -8 19 -115 19 -107 0 -115 -1 -115 -19z"/>
<path d="M6533 644 c-89 -45 -79 -202 16 -227 42 -11 105 3 109 25 3 13 -5 15
-42 11 -56 -7 -99 16 -94 50 3 20 9 22 82 25 l78 3 -5 36 c-12 71 -82 109
-144 77z m91 -46 c9 -12 16 -26 16 -30 0 -5 -27 -8 -60 -8 -64 0 -73 9 -43 42
23 25 68 23 87 -4z"/>
<path d="M6740 535 c0 -116 1 -125 19 -125 17 0 19 9 22 84 4 89 22 126 60
126 38 0 49 -27 49 -121 0 -88 0 -89 25 -89 25 0 25 1 25 83 0 92 15 127 54
127 37 0 48 -24 54 -120 4 -81 7 -90 24 -90 19 0 20 6 16 105 -2 83 -7 108
-20 122 -26 25 -82 22 -112 -6 -22 -20 -26 -22 -31 -8 -15 37 -98 42 -120 8
-10 -18 -25 -12 -25 9 0 13 -7 20 -20 20 -19 0 -20 -7 -20 -125z"/>
<path d="M7213 644 c-89 -45 -79 -202 16 -227 42 -11 105 3 109 25 3 13 -5 15
-42 11 -56 -7 -99 16 -94 50 3 20 9 22 82 25 l78 3 -5 36 c-12 71 -82 109
-144 77z m91 -46 c9 -12 16 -26 16 -30 0 -5 -27 -8 -60 -8 -64 0 -73 9 -43 42
23 25 68 23 87 -4z"/>
<path d="M7465 653 c-32 -8 -55 -34 -55 -62 0 -37 10 -48 63 -71 39 -17 48
-26 45 -43 -3 -19 -9 -22 -56 -22 -42 0 -52 -3 -52 -16 0 -35 103 -34 135 1
10 11 15 31 13 50 -3 28 -11 37 -53 59 -57 30 -70 57 -30 67 14 3 37 4 50 2
19 -4 25 -1 25 12 0 24 -38 34 -85 23z"/>
</g>
</svg>
