<svg version="1.2" xmlns="http://www.w3.org/2000/svg" viewBox="0 0 90 100" width="80" height="89"><defs><clipPath clipPathUnits="userSpaceOnUse" id="cp1"><path d="m0 0h320.83v100h-320.83z"/></clipPath><linearGradient id="P" gradientUnits="userSpaceOnUse"/><linearGradient id="g1" x2="1" href="#P" gradientTransform="matrix(-101.223,101.23,-46.04,-46.037,68.37,-7.328)"><stop stop-color="#17ccfc"/><stop offset=".5" stop-color="#5d31ff"/><stop offset="1" stop-color="#f35aff"/></linearGradient></defs><style>.a{fill:url(#g1)}.b{fill:#fff}</style><g clip-path="url(#cp1)"><path class="a" d="m79.7 13.2l-12.1 12c-0.3 0.3-0.8 0.6-1.4 0.7-0.5 0-1-0.1-1.5-0.4-4.7-2.8-10.1-4.2-15.6-4.1-5.6 0.2-10.9 2-15.4 5.1-2.8 2-5.2 4.4-7.2 7.2-3.1 4.5-4.9 9.8-5.1 15.4-0.1 5.5 1.3 10.9 4.1 15.6 0.3 0.5 0.4 1 0.3 1.5 0 0.6-0.3 1.1-0.6 1.4l-12 12q-0.4 0.4-0.9 0.6-0.5 0.2-1 0.1-0.5 0-1-0.2-0.4-0.3-0.7-0.7c-6.5-8.9-9.9-19.8-9.6-30.8 0.3-11 4.3-21.7 11.3-30.2q3.2-3.9 7.1-7.1c8.5-7 19.2-11 30.2-11.3 11-0.3 21.9 3.1 30.8 9.6q0.4 0.3 0.7 0.7 0.2 0.5 0.2 1 0.1 0.5-0.1 1-0.2 0.5-0.5 0.9z"/><path class="b" d="m79.6 86.8l-12-12c-0.3-0.4-0.8-0.6-1.4-0.7-0.5-0.1-1 0.1-1.5 0.3-4.4 2.7-9.5 4.1-14.7 4.1-5.2 0-10.3-1.4-14.8-4.1-0.4-0.2-1-0.4-1.5-0.3-0.5 0.1-1 0.3-1.4 0.7l-12 12q-0.4 0.4-0.6 0.8-0.2 0.5-0.1 1.1 0 0.5 0.3 1 0.2 0.4 0.7 0.7c8.5 6.3 18.8 9.6 29.4 9.6 10.5 0 20.8-3.3 29.4-9.6q0.4-0.3 0.7-0.7 0.2-0.5 0.3-1 0-0.6-0.2-1-0.2-0.5-0.6-0.9z"/><path class="b" d="m50 64.3c7.9 0 14.3-6.4 14.3-14.3 0-7.9-6.4-14.3-14.3-14.3-7.9 0-14.3 6.4-14.3 14.3 0 7.9 6.4 14.3 14.3 14.3z"/></g></svg>