<svg version="1.2" xmlns="http://www.w3.org/2000/svg" viewBox="0 0 60 84" width="250" height="350"><style>.a{fill:#172b4d}</style><path class="a" d="m38.9 0l9.7 5.6-38.2 21.9-9.7-5.5z"/><path class="a" d="m49 6.7l-38 21.9v11l38-21.8z"/><path class="a" d="m33.7 28.3l-22.6 13v11l22.6-13z"/><path class="a" d="m25 45.7l-14 8.1v11l14-8z"/><path class="a" d="m0 23l9.8 5.6v11.1l-9.8-5.6z"/><path class="a" d="m0.1 35.7l9.6 5.5v11l-9.6-5.5z"/><path class="a" d="m0.1 48.2l9.6 5.6v11.7l-9.6-5.5z"/><path class="a" d="m21.6 84l-9.7-5.6 37.7-21.7 9.7 5.6z"/><path class="a" d="m11.1 77.5l37.9-21.8v-11l-37.9 21.7z"/><path class="a" d="m26.3 56l22.6-13v-11.1l-22.6 13z"/><path class="a" d="m35 38.5l14-8v-11l-14 8z"/><path class="a" d="m60 61.3l-9.8-5.6v-11l9.8 5.6z"/><path class="a" d="m59.9 48.6l-9.6-5.5v-11.1l9.6 5.6z"/><path class="a" d="m59.9 36l-9.6-5.5v-11.6l9.6 5.6z"/></svg>