<?xml version="1.0" standalone="no"?>
<!DOCTYPE svg PUBLIC "-//W3C//DTD SVG 20010904//EN"
 "http://www.w3.org/TR/2001/REC-SVG-20010904/DTD/svg10.dtd">
<svg version="1.0" xmlns="http://www.w3.org/2000/svg"
 width="327.000000pt" height="361.000000pt" viewBox="0 0 327.000000 361.000000"
 preserveAspectRatio="xMidYMid meet">

<g transform="translate(0.000000,361.000000) scale(0.100000,-0.100000)"
fill="#000000" stroke="none">
<path d="M3150 3018 c-204 -154 -917 -695 -929 -704 -2 -2 8 -17 22 -33 72
-86 130 -232 147 -367 19 -152 -20 -333 -101 -470 -44 -75 -178 -209 -253
-253 -139 -82 -325 -122 -476 -101 -184 25 -310 88 -444 221 -49 49 -91 89
-94 89 -3 0 -23 -15 -46 -33 -23 -19 -86 -69 -141 -112 -55 -43 -90 -75 -78
-71 18 6 20 4 16 -13 -3 -12 -10 -18 -17 -14 -6 4 -4 -2 4 -12 9 -11 10 -16 2
-11 -11 6 -14 0 -11 -20 0 -4 -5 -10 -11 -14 -13 -8 -20 -49 -21 -120 -1 -27
-8 -52 -17 -63 -9 -10 -17 -37 -18 -60 -1 -23 -3 -60 -4 -82 -1 -22 5 -59 13
-83 9 -23 16 -45 16 -48 0 -3 3 -9 7 -12 4 -4 4 0 -1 8 -9 17 -3 11 35 -35 19
-22 20 -26 5 -15 -47 35 115 -136 196 -206 172 -151 330 -249 537 -338 109
-47 171 -48 277 -6 654 260 1103 853 1329 1755 91 366 160 877 154 1153 l-3
142 -95 -72z"/>
<path d="M1344 2312 c-70 -29 -113 -65 -154 -125 -63 -94 -74 -200 -31 -311
l11 -28 25 26 c14 15 25 32 25 37 0 6 4 8 9 5 4 -3 16 10 27 29 10 18 22 32
26 29 4 -3 8 -1 8 3 0 5 13 23 29 40 l29 32 -24 22 c-32 30 -31 73 1 104 30
30 64 32 99 4 14 -11 26 -16 26 -11 0 5 16 27 36 48 19 21 47 52 61 67 14 15
22 31 18 35 -3 4 -46 8 -93 9 -65 2 -98 -2 -128 -15z"/>
</g>
</svg>
